<?xml version="1.0" encoding="UTF-8" standalone="no"?>
<svg xmlns="http://www.w3.org/2000/svg"
     xmlns:xlink="http://www.w3.org/1999/xlink"
     width="535px" height="651px" viewBox="0 0 535 651">
<title>ParaView GL2PS Export</title>
<desc>
Creator: GL2PS 1.3.9, (C) 1999-2015 C. Geuzaine
For: VTK
CreationDate: Fri Aug 19 16:59:02 2016
</desc>
<defs>
</defs>
<polygon fill="#ffffff" points="0,0 535,0 535,651 0,651"/>
<g shape-rendering="crispEdges">
<polyline fill="none" stroke="#f2f2f2" stroke-width="0.6" points="42.5796,612.441 42.5796,19.53"/>
<polyline fill="none" stroke="#f2f2f2" stroke-width="0.6" points="101.69,612.441 101.69,19.53"/>
<polyline fill="none" stroke="#f2f2f2" stroke-width="0.6" points="160.801,612.441 160.801,19.53"/>
<polyline fill="none" stroke="#f2f2f2" stroke-width="0.6" points="219.911,612.441 219.911,19.53"/>
<polyline fill="none" stroke="#f2f2f2" stroke-width="0.6" points="279.022,612.441 279.022,19.53"/>
<polyline fill="none" stroke="#f2f2f2" stroke-width="0.6" points="338.132,612.441 338.132,19.53"/>
<polyline fill="none" stroke="#f2f2f2" stroke-width="0.6" points="397.242,612.441 397.242,19.53"/>
<polyline fill="none" stroke="#f2f2f2" stroke-width="0.6" points="456.353,612.441 456.353,19.53"/>
<polyline fill="none" stroke="#f2f2f2" stroke-width="0.6" points="515.464,612.441 515.464,19.53"/>
<polyline fill="none" stroke="#f2f2f2" stroke-width="0.6" points="42.5796,612.441 515.464,612.441"/>
<polyline fill="none" stroke="#f2f2f2" stroke-width="0.6" points="42.5796,573.381 515.464,573.381"/>
<polyline fill="none" stroke="#f2f2f2" stroke-width="0.6" points="42.5796,534.321 515.464,534.321"/>
<polyline fill="none" stroke="#f2f2f2" stroke-width="0.6" points="42.5796,494.259 515.464,494.259"/>
<polyline fill="none" stroke="#f2f2f2" stroke-width="0.6" points="42.5796,455.199 515.464,455.199"/>
<polyline fill="none" stroke="#f2f2f2" stroke-width="0.6" points="42.5796,415.138 515.464,415.138"/>
<polyline fill="none" stroke="#f2f2f2" stroke-width="0.6" points="42.5796,376.078 515.464,376.078"/>
<polyline fill="none" stroke="#f2f2f2" stroke-width="0.6" points="42.5796,336.016 515.464,336.016"/>
<polyline fill="none" stroke="#f2f2f2" stroke-width="0.6" points="42.5796,296.956 515.464,296.956"/>
<polyline fill="none" stroke="#f2f2f2" stroke-width="0.6" points="42.5796,256.895 515.464,256.895"/>
<polyline fill="none" stroke="#f2f2f2" stroke-width="0.6" points="42.5796,217.835 515.464,217.835"/>
<polyline fill="none" stroke="#f2f2f2" stroke-width="0.6" points="42.5796,177.773 515.464,177.773"/>
<polyline fill="none" stroke="#f2f2f2" stroke-width="0.6" points="42.5796,138.713 515.464,138.713"/>
<polyline fill="none" stroke="#f2f2f2" stroke-width="0.6" points="42.5796,98.6516 515.464,98.6516"/>
<polyline fill="none" stroke="#f2f2f2" stroke-width="0.6" points="42.5796,59.5916 515.464,59.5916"/>
<polyline fill="none" stroke="#f2f2f2" stroke-width="0.6" points="42.5796,19.53 515.464,19.53"/>
<polyline fill="none" stroke="#e2191c" stroke-width="0.6" points="42.5796,323.266 46.7883,341.993 50.9969,362.373 55.2056,381.927 59.4143,410.569 63.6229,438.385 67.8316,463.171 72.0403,491.263 76.2489,491.263 80.4576,526.239 84.6663,574.16 88.8749,574.16 93.0836,587.654 97.2923,587.654 101.501,511.918 105.71,511.918 109.918,462.621 114.127,462.621 118.336,417.179 122.544,417.179 126.753,360.996 130.962,360.996 135.17,360.996 139.379,307.017 143.588,307.017 147.796,307.017 152.005,252.762 156.214,252.762 160.422,252.762 164.631,199.609 168.84,199.609 173.048,199.609 177.257,199.609 181.466,148.108 185.674,148.108 189.883,148.108 194.092,102.942 198.3,102.942 202.509,102.942 206.718,102.942 210.926,102.942 215.135,73.7493 219.344,73.7493 223.552,73.7493 227.761,73.7493 231.97,60.8052 236.178,60.8052 240.387,60.8052 244.596,61.6315 248.804,61.6315 253.013,62.4576 257.222,62.4576 261.43,62.4576 265.639,62.4576 269.848,62.4576 274.056,62.4576 278.265,78.7065 282.474,78.7065 286.682,78.7065 290.891,78.7065 295.1,106.247 299.308,106.247 303.517,106.247 307.726,106.247 311.934,106.247 316.143,155.82 320.352,155.82 324.56,155.82 328.769,195.478 332.978,195.478 337.186,195.478 341.395,195.478 345.604,244.776 349.812,244.776 354.021,244.776 358.23,328.499 362.438,328.499 366.647,328.499 370.856,381.927 375.064,381.927 379.273,381.927 383.482,440.313 387.69,440.313 391.899,498.423 396.108,498.423 400.316,559.288 404.525,559.288 408.734,599.772 412.942,599.772 417.151,528.167 421.36,528.167 425.568,476.942 429.777,448.3 433.986,448.3 438.194,421.861 442.403,395.422 446.612,369.534 450.82,337.862 455.029,311.423 459.238,292.971 463.446,272.591"/>
<polyline fill="none" stroke="#000000" stroke-width="0.6" points="42.5796,612.441 42.5796,19.53"/>
<text fill="#000000" x="17.5328" y="315.985" font-size="12" transform="rotate(-90, 17.5328, 315.985)" text-anchor="middle" baseline-shift="0" font-family="Helvetica" font-weight="bold">Absolute power difference [W]</text>
<polyline fill="none" stroke="#000000" stroke-width="0.6" points="37.5702,612.441 42.5796,612.441"/>
<text fill="#000000" x="35.5665" y="612.441" font-size="12" text-anchor="end" baseline-shift="-6" font-family="Helvetica">0</text>
<polyline fill="none" stroke="#000000" stroke-width="0.6" points="37.5702,573.381 42.5796,573.381"/>
<text fill="#000000" x="35.5665" y="573.381" font-size="12" text-anchor="end" baseline-shift="-6" font-family="Helvetica">5</text>
<polyline fill="none" stroke="#000000" stroke-width="0.6" points="37.5702,534.321 42.5796,534.321"/>
<text fill="#000000" x="35.5665" y="534.321" font-size="12" text-anchor="end" baseline-shift="-6" font-family="Helvetica">10</text>
<polyline fill="none" stroke="#000000" stroke-width="0.6" points="37.5702,494.259 42.5796,494.259"/>
<text fill="#000000" x="35.5665" y="494.259" font-size="12" text-anchor="end" baseline-shift="-6" font-family="Helvetica">15</text>
<polyline fill="none" stroke="#000000" stroke-width="0.6" points="37.5702,455.199 42.5796,455.199"/>
<text fill="#000000" x="35.5665" y="455.199" font-size="12" text-anchor="end" baseline-shift="-6" font-family="Helvetica">20</text>
<polyline fill="none" stroke="#000000" stroke-width="0.6" points="37.5702,415.138 42.5796,415.138"/>
<text fill="#000000" x="35.5665" y="415.138" font-size="12" text-anchor="end" baseline-shift="-6" font-family="Helvetica">25</text>
<polyline fill="none" stroke="#000000" stroke-width="0.6" points="37.5702,376.078 42.5796,376.078"/>
<text fill="#000000" x="35.5665" y="376.078" font-size="12" text-anchor="end" baseline-shift="-6" font-family="Helvetica">30</text>
<polyline fill="none" stroke="#000000" stroke-width="0.6" points="37.5702,336.016 42.5796,336.016"/>
<text fill="#000000" x="35.5665" y="336.016" font-size="12" text-anchor="end" baseline-shift="-6" font-family="Helvetica">35</text>
<polyline fill="none" stroke="#000000" stroke-width="0.6" points="37.5702,296.956 42.5796,296.956"/>
<text fill="#000000" x="35.5665" y="296.956" font-size="12" text-anchor="end" baseline-shift="-6" font-family="Helvetica">40</text>
<polyline fill="none" stroke="#000000" stroke-width="0.6" points="37.5702,256.895 42.5796,256.895"/>
<text fill="#000000" x="35.5665" y="256.895" font-size="12" text-anchor="end" baseline-shift="-6" font-family="Helvetica">45</text>
<polyline fill="none" stroke="#000000" stroke-width="0.6" points="37.5702,217.835 42.5796,217.835"/>
<text fill="#000000" x="35.5665" y="217.835" font-size="12" text-anchor="end" baseline-shift="-6" font-family="Helvetica">50</text>
<polyline fill="none" stroke="#000000" stroke-width="0.6" points="37.5702,177.773 42.5796,177.773"/>
<text fill="#000000" x="35.5665" y="177.773" font-size="12" text-anchor="end" baseline-shift="-6" font-family="Helvetica">55</text>
<polyline fill="none" stroke="#000000" stroke-width="0.6" points="37.5702,138.713 42.5796,138.713"/>
<text fill="#000000" x="35.5665" y="138.713" font-size="12" text-anchor="end" baseline-shift="-6" font-family="Helvetica">60</text>
<polyline fill="none" stroke="#000000" stroke-width="0.6" points="37.5702,98.6516 42.5796,98.6516"/>
<text fill="#000000" x="35.5665" y="98.6516" font-size="12" text-anchor="end" baseline-shift="-6" font-family="Helvetica">65</text>
<polyline fill="none" stroke="#000000" stroke-width="0.6" points="37.5702,59.5916 42.5796,59.5916"/>
<text fill="#000000" x="35.5665" y="59.5916" font-size="12" text-anchor="end" baseline-shift="-6" font-family="Helvetica">70</text>
<polyline fill="none" stroke="#000000" stroke-width="0.6" points="37.5702,19.53 42.5796,19.53"/>
<text fill="#000000" x="35.5665" y="19.53" font-size="12" text-anchor="end" baseline-shift="-6" font-family="Helvetica">75</text>
<polyline fill="none" stroke="#000000" stroke-width="0.6" points="42.5796,612.441 515.464,612.441"/>
<text fill="#000000" x="279.022" y="634.475" font-size="12" text-anchor="middle" baseline-shift="-12" font-family="Helvetica" font-weight="bold">Fuel width [m]</text>
<polyline fill="none" stroke="#000000" stroke-width="0.6" points="42.5796,617.448 42.5796,612.441"/>
<text fill="#000000" x="42.5796" y="619.452" font-size="12" text-anchor="middle" baseline-shift="-12" font-family="Helvetica">0</text>
<polyline fill="none" stroke="#000000" stroke-width="0.6" points="101.69,617.448 101.69,612.441"/>
<text fill="#000000" x="101.69" y="619.452" font-size="12" text-anchor="middle" baseline-shift="-12" font-family="Helvetica">0.005</text>
<polyline fill="none" stroke="#000000" stroke-width="0.6" points="160.801,617.448 160.801,612.441"/>
<text fill="#000000" x="160.801" y="619.452" font-size="12" text-anchor="middle" baseline-shift="-12" font-family="Helvetica">0.01</text>
<polyline fill="none" stroke="#000000" stroke-width="0.6" points="219.911,617.448 219.911,612.441"/>
<text fill="#000000" x="219.911" y="619.452" font-size="12" text-anchor="middle" baseline-shift="-12" font-family="Helvetica">0.015</text>
<polyline fill="none" stroke="#000000" stroke-width="0.6" points="279.022,617.448 279.022,612.441"/>
<text fill="#000000" x="279.022" y="619.452" font-size="12" text-anchor="middle" baseline-shift="-12" font-family="Helvetica">0.02</text>
<polyline fill="none" stroke="#000000" stroke-width="0.6" points="338.132,617.448 338.132,612.441"/>
<text fill="#000000" x="338.132" y="619.452" font-size="12" text-anchor="middle" baseline-shift="-12" font-family="Helvetica">0.025</text>
<polyline fill="none" stroke="#000000" stroke-width="0.6" points="397.242,617.448 397.242,612.441"/>
<text fill="#000000" x="397.242" y="619.452" font-size="12" text-anchor="middle" baseline-shift="-12" font-family="Helvetica">0.03</text>
<polyline fill="none" stroke="#000000" stroke-width="0.6" points="456.353,617.448 456.353,612.441"/>
<text fill="#000000" x="456.353" y="619.452" font-size="12" text-anchor="middle" baseline-shift="-12" font-family="Helvetica">0.035</text>
<polyline fill="none" stroke="#000000" stroke-width="0.6" points="515.464,617.448 515.464,612.441"/>
<text fill="#000000" x="515.464" y="619.452" font-size="12" text-anchor="middle" baseline-shift="-12" font-family="Helvetica">0.04</text>
<polygon fill="#ffffff" points="284.031,41.5638 515.464,41.5638 284.031,19.53"/>
<polygon fill="#ffffff" points="515.464,41.5638 515.464,19.53 284.031,19.53"/>
<polyline fill="none" stroke="#000000" stroke-width="0.6" points="284.031,41.5638 515.464,41.5638 515.464,19.53 284.031,19.53 284.031,41.5638"/>
<text fill="#000000" x="314.087" y="36.5562" font-size="12" text-anchor="start" baseline-shift="0" font-family="Helvetica">Absolute power difference by cell</text>
<polyline fill="none" stroke="#e2191c" stroke-width="0.6" points="289.04,30.5469 311.081,30.5469"/>
</g>
</svg>
