<?xml version="1.0" encoding="UTF-8" standalone="no"?>
<svg xmlns="http://www.w3.org/2000/svg"
     xmlns:xlink="http://www.w3.org/1999/xlink"
     width="535px" height="651px" viewBox="0 0 535 651">
<title>ParaView GL2PS Export</title>
<desc>
Creator: GL2PS 1.3.9, (C) 1999-2015 C. Geuzaine
For: VTK
CreationDate: Fri Aug 19 16:57:45 2016
</desc>
<defs>
</defs>
<polygon fill="#ffffff" points="0,0 535,0 535,651 0,651"/>
<g shape-rendering="crispEdges">
<polyline fill="none" stroke="#f2f2f2" stroke-width="0.6" points="42.5796,612.441 42.5796,19.53"/>
<polyline fill="none" stroke="#f2f2f2" stroke-width="0.6" points="101.69,612.441 101.69,19.53"/>
<polyline fill="none" stroke="#f2f2f2" stroke-width="0.6" points="160.801,612.441 160.801,19.53"/>
<polyline fill="none" stroke="#f2f2f2" stroke-width="0.6" points="219.911,612.441 219.911,19.53"/>
<polyline fill="none" stroke="#f2f2f2" stroke-width="0.6" points="279.022,612.441 279.022,19.53"/>
<polyline fill="none" stroke="#f2f2f2" stroke-width="0.6" points="338.132,612.441 338.132,19.53"/>
<polyline fill="none" stroke="#f2f2f2" stroke-width="0.6" points="397.242,612.441 397.242,19.53"/>
<polyline fill="none" stroke="#f2f2f2" stroke-width="0.6" points="456.353,612.441 456.353,19.53"/>
<polyline fill="none" stroke="#f2f2f2" stroke-width="0.6" points="515.464,612.441 515.464,19.53"/>
<polyline fill="none" stroke="#f2f2f2" stroke-width="0.6" points="42.5796,612.441 515.464,612.441"/>
<polyline fill="none" stroke="#f2f2f2" stroke-width="0.6" points="42.5796,573.381 515.464,573.381"/>
<polyline fill="none" stroke="#f2f2f2" stroke-width="0.6" points="42.5796,534.321 515.464,534.321"/>
<polyline fill="none" stroke="#f2f2f2" stroke-width="0.6" points="42.5796,494.259 515.464,494.259"/>
<polyline fill="none" stroke="#f2f2f2" stroke-width="0.6" points="42.5796,455.199 515.464,455.199"/>
<polyline fill="none" stroke="#f2f2f2" stroke-width="0.6" points="42.5796,415.138 515.464,415.138"/>
<polyline fill="none" stroke="#f2f2f2" stroke-width="0.6" points="42.5796,376.078 515.464,376.078"/>
<polyline fill="none" stroke="#f2f2f2" stroke-width="0.6" points="42.5796,336.016 515.464,336.016"/>
<polyline fill="none" stroke="#f2f2f2" stroke-width="0.6" points="42.5796,296.956 515.464,296.956"/>
<polyline fill="none" stroke="#f2f2f2" stroke-width="0.6" points="42.5796,256.895 515.464,256.895"/>
<polyline fill="none" stroke="#f2f2f2" stroke-width="0.6" points="42.5796,217.835 515.464,217.835"/>
<polyline fill="none" stroke="#f2f2f2" stroke-width="0.6" points="42.5796,177.773 515.464,177.773"/>
<polyline fill="none" stroke="#f2f2f2" stroke-width="0.6" points="42.5796,138.713 515.464,138.713"/>
<polyline fill="none" stroke="#f2f2f2" stroke-width="0.6" points="42.5796,98.6516 515.464,98.6516"/>
<polyline fill="none" stroke="#f2f2f2" stroke-width="0.6" points="42.5796,59.5916 515.464,59.5916"/>
<polyline fill="none" stroke="#f2f2f2" stroke-width="0.6" points="42.5796,19.53 515.464,19.53"/>
<polyline fill="none" stroke="#e2191c" stroke-width="0.6" points="42.5796,302.886 46.7883,321.613 50.9969,341.718 55.2056,361.547 59.4143,390.189 63.6229,418.28 67.8316,443.067 72.0403,471.434 76.2489,471.434 80.4576,505.859 84.6663,549.648 88.8749,549.648 93.0836,612.165 97.2923,612.165 101.501,536.154 105.71,536.154 109.918,486.856 114.127,486.856 118.336,441.139 122.544,441.139 126.753,384.681 130.962,384.681 135.17,384.681 139.379,330.977 143.588,330.977 147.796,330.977 152.005,276.447 156.214,276.447 160.422,276.447 164.631,223.294 168.84,223.294 173.048,223.294 177.257,223.294 181.466,171.518 185.674,171.518 189.883,171.518 194.092,126.352 198.3,126.352 202.509,126.352 206.718,126.352 210.926,126.352 215.135,96.8832 219.344,96.8832 223.552,96.8832 227.761,96.8832 231.97,83.9392 236.178,83.9392 240.387,83.9392 244.596,84.7654 248.804,84.7654 253.013,85.3163 257.222,85.3163 261.43,85.3163 265.639,85.3163 269.848,85.3163 274.056,85.3163 278.265,101.565 282.474,101.565 286.682,101.565 290.891,101.565 295.1,129.381 299.308,129.381 303.517,129.381 307.726,129.381 311.934,129.381 316.143,179.229 320.352,179.229 324.56,179.229 328.769,218.888 332.978,218.888 337.186,218.888 341.395,218.888 345.604,268.185 349.812,268.185 354.021,268.185 358.23,352.183 362.438,352.183 366.647,352.183 370.856,405.612 375.064,405.612 379.273,405.612 383.482,463.998 387.69,463.998 391.899,522.108 396.108,522.108 400.316,583.248 404.525,583.248 408.734,575.537 412.942,575.537 417.151,503.656 421.36,503.656 425.568,457.388 429.777,428.47 433.986,428.47 438.194,402.032 442.403,375.593 446.612,349.705 450.82,317.758 455.029,291.319 459.238,272.591 463.446,252.211"/>
<polyline fill="none" stroke="#000000" stroke-width="0.6" points="42.5796,612.441 42.5796,19.53"/>
<text fill="#000000" x="17.5328" y="315.985" font-size="12" transform="rotate(-90, 17.5328, 315.985)" text-anchor="middle" baseline-shift="0" font-family="Helvetica" font-weight="bold">Absolute power difference [W]</text>
<polyline fill="none" stroke="#000000" stroke-width="0.6" points="37.5702,612.441 42.5796,612.441"/>
<text fill="#000000" x="35.5665" y="612.441" font-size="12" text-anchor="end" baseline-shift="-6" font-family="Helvetica">0</text>
<polyline fill="none" stroke="#000000" stroke-width="0.6" points="37.5702,573.381 42.5796,573.381"/>
<text fill="#000000" x="35.5665" y="573.381" font-size="12" text-anchor="end" baseline-shift="-6" font-family="Helvetica">5</text>
<polyline fill="none" stroke="#000000" stroke-width="0.6" points="37.5702,534.321 42.5796,534.321"/>
<text fill="#000000" x="35.5665" y="534.321" font-size="12" text-anchor="end" baseline-shift="-6" font-family="Helvetica">10</text>
<polyline fill="none" stroke="#000000" stroke-width="0.6" points="37.5702,494.259 42.5796,494.259"/>
<text fill="#000000" x="35.5665" y="494.259" font-size="12" text-anchor="end" baseline-shift="-6" font-family="Helvetica">15</text>
<polyline fill="none" stroke="#000000" stroke-width="0.6" points="37.5702,455.199 42.5796,455.199"/>
<text fill="#000000" x="35.5665" y="455.199" font-size="12" text-anchor="end" baseline-shift="-6" font-family="Helvetica">20</text>
<polyline fill="none" stroke="#000000" stroke-width="0.6" points="37.5702,415.138 42.5796,415.138"/>
<text fill="#000000" x="35.5665" y="415.138" font-size="12" text-anchor="end" baseline-shift="-6" font-family="Helvetica">25</text>
<polyline fill="none" stroke="#000000" stroke-width="0.6" points="37.5702,376.078 42.5796,376.078"/>
<text fill="#000000" x="35.5665" y="376.078" font-size="12" text-anchor="end" baseline-shift="-6" font-family="Helvetica">30</text>
<polyline fill="none" stroke="#000000" stroke-width="0.6" points="37.5702,336.016 42.5796,336.016"/>
<text fill="#000000" x="35.5665" y="336.016" font-size="12" text-anchor="end" baseline-shift="-6" font-family="Helvetica">35</text>
<polyline fill="none" stroke="#000000" stroke-width="0.6" points="37.5702,296.956 42.5796,296.956"/>
<text fill="#000000" x="35.5665" y="296.956" font-size="12" text-anchor="end" baseline-shift="-6" font-family="Helvetica">40</text>
<polyline fill="none" stroke="#000000" stroke-width="0.6" points="37.5702,256.895 42.5796,256.895"/>
<text fill="#000000" x="35.5665" y="256.895" font-size="12" text-anchor="end" baseline-shift="-6" font-family="Helvetica">45</text>
<polyline fill="none" stroke="#000000" stroke-width="0.6" points="37.5702,217.835 42.5796,217.835"/>
<text fill="#000000" x="35.5665" y="217.835" font-size="12" text-anchor="end" baseline-shift="-6" font-family="Helvetica">50</text>
<polyline fill="none" stroke="#000000" stroke-width="0.6" points="37.5702,177.773 42.5796,177.773"/>
<text fill="#000000" x="35.5665" y="177.773" font-size="12" text-anchor="end" baseline-shift="-6" font-family="Helvetica">55</text>
<polyline fill="none" stroke="#000000" stroke-width="0.6" points="37.5702,138.713 42.5796,138.713"/>
<text fill="#000000" x="35.5665" y="138.713" font-size="12" text-anchor="end" baseline-shift="-6" font-family="Helvetica">60</text>
<polyline fill="none" stroke="#000000" stroke-width="0.6" points="37.5702,98.6516 42.5796,98.6516"/>
<text fill="#000000" x="35.5665" y="98.6516" font-size="12" text-anchor="end" baseline-shift="-6" font-family="Helvetica">65</text>
<polyline fill="none" stroke="#000000" stroke-width="0.6" points="37.5702,59.5916 42.5796,59.5916"/>
<text fill="#000000" x="35.5665" y="59.5916" font-size="12" text-anchor="end" baseline-shift="-6" font-family="Helvetica">70</text>
<polyline fill="none" stroke="#000000" stroke-width="0.6" points="37.5702,19.53 42.5796,19.53"/>
<text fill="#000000" x="35.5665" y="19.53" font-size="12" text-anchor="end" baseline-shift="-6" font-family="Helvetica">75</text>
<polyline fill="none" stroke="#000000" stroke-width="0.6" points="42.5796,612.441 515.464,612.441"/>
<text fill="#000000" x="279.022" y="634.475" font-size="12" text-anchor="middle" baseline-shift="-12" font-family="Helvetica" font-weight="bold">Fuel width [m]</text>
<polyline fill="none" stroke="#000000" stroke-width="0.6" points="42.5796,617.448 42.5796,612.441"/>
<text fill="#000000" x="42.5796" y="619.452" font-size="12" text-anchor="middle" baseline-shift="-12" font-family="Helvetica">0</text>
<polyline fill="none" stroke="#000000" stroke-width="0.6" points="101.69,617.448 101.69,612.441"/>
<text fill="#000000" x="101.69" y="619.452" font-size="12" text-anchor="middle" baseline-shift="-12" font-family="Helvetica">0.005</text>
<polyline fill="none" stroke="#000000" stroke-width="0.6" points="160.801,617.448 160.801,612.441"/>
<text fill="#000000" x="160.801" y="619.452" font-size="12" text-anchor="middle" baseline-shift="-12" font-family="Helvetica">0.01</text>
<polyline fill="none" stroke="#000000" stroke-width="0.6" points="219.911,617.448 219.911,612.441"/>
<text fill="#000000" x="219.911" y="619.452" font-size="12" text-anchor="middle" baseline-shift="-12" font-family="Helvetica">0.015</text>
<polyline fill="none" stroke="#000000" stroke-width="0.6" points="279.022,617.448 279.022,612.441"/>
<text fill="#000000" x="279.022" y="619.452" font-size="12" text-anchor="middle" baseline-shift="-12" font-family="Helvetica">0.02</text>
<polyline fill="none" stroke="#000000" stroke-width="0.6" points="338.132,617.448 338.132,612.441"/>
<text fill="#000000" x="338.132" y="619.452" font-size="12" text-anchor="middle" baseline-shift="-12" font-family="Helvetica">0.025</text>
<polyline fill="none" stroke="#000000" stroke-width="0.6" points="397.242,617.448 397.242,612.441"/>
<text fill="#000000" x="397.242" y="619.452" font-size="12" text-anchor="middle" baseline-shift="-12" font-family="Helvetica">0.03</text>
<polyline fill="none" stroke="#000000" stroke-width="0.6" points="456.353,617.448 456.353,612.441"/>
<text fill="#000000" x="456.353" y="619.452" font-size="12" text-anchor="middle" baseline-shift="-12" font-family="Helvetica">0.035</text>
<polyline fill="none" stroke="#000000" stroke-width="0.6" points="515.464,617.448 515.464,612.441"/>
<text fill="#000000" x="515.464" y="619.452" font-size="12" text-anchor="middle" baseline-shift="-12" font-family="Helvetica">0.04</text>
<polygon fill="#ffffff" points="284.031,41.5638 515.464,41.5638 284.031,19.53"/>
<polygon fill="#ffffff" points="515.464,41.5638 515.464,19.53 284.031,19.53"/>
<polyline fill="none" stroke="#000000" stroke-width="0.6" points="284.031,41.5638 515.464,41.5638 515.464,19.53 284.031,19.53 284.031,41.5638"/>
<text fill="#000000" x="314.087" y="36.5562" font-size="12" text-anchor="start" baseline-shift="0" font-family="Helvetica">Absolute power difference by cell</text>
<polyline fill="none" stroke="#e2191c" stroke-width="0.6" points="289.04,30.5469 311.081,30.5469"/>
</g>
</svg>
