<?xml version="1.0" encoding="UTF-8" standalone="no"?>
<svg xmlns="http://www.w3.org/2000/svg"
     xmlns:xlink="http://www.w3.org/1999/xlink"
     width="535px" height="651px" viewBox="0 0 535 651">
<title>ParaView GL2PS Export</title>
<desc>
Creator: GL2PS 1.3.9, (C) 1999-2015 C. Geuzaine
For: VTK
CreationDate: Fri Aug 19 16:58:24 2016
</desc>
<defs>
</defs>
<polygon fill="#ffffff" points="0,0 535,0 535,651 0,651"/>
<g shape-rendering="crispEdges">
<polyline fill="none" stroke="#f2f2f2" stroke-width="0.6" points="42.5796,612.441 42.5796,19.53"/>
<polyline fill="none" stroke="#f2f2f2" stroke-width="0.6" points="101.69,612.441 101.69,19.53"/>
<polyline fill="none" stroke="#f2f2f2" stroke-width="0.6" points="160.801,612.441 160.801,19.53"/>
<polyline fill="none" stroke="#f2f2f2" stroke-width="0.6" points="219.911,612.441 219.911,19.53"/>
<polyline fill="none" stroke="#f2f2f2" stroke-width="0.6" points="279.022,612.441 279.022,19.53"/>
<polyline fill="none" stroke="#f2f2f2" stroke-width="0.6" points="338.132,612.441 338.132,19.53"/>
<polyline fill="none" stroke="#f2f2f2" stroke-width="0.6" points="397.242,612.441 397.242,19.53"/>
<polyline fill="none" stroke="#f2f2f2" stroke-width="0.6" points="456.353,612.441 456.353,19.53"/>
<polyline fill="none" stroke="#f2f2f2" stroke-width="0.6" points="515.464,612.441 515.464,19.53"/>
<polyline fill="none" stroke="#f2f2f2" stroke-width="0.6" points="42.5796,612.441 515.464,612.441"/>
<polyline fill="none" stroke="#f2f2f2" stroke-width="0.6" points="42.5796,573.381 515.464,573.381"/>
<polyline fill="none" stroke="#f2f2f2" stroke-width="0.6" points="42.5796,534.321 515.464,534.321"/>
<polyline fill="none" stroke="#f2f2f2" stroke-width="0.6" points="42.5796,494.259 515.464,494.259"/>
<polyline fill="none" stroke="#f2f2f2" stroke-width="0.6" points="42.5796,455.199 515.464,455.199"/>
<polyline fill="none" stroke="#f2f2f2" stroke-width="0.6" points="42.5796,415.138 515.464,415.138"/>
<polyline fill="none" stroke="#f2f2f2" stroke-width="0.6" points="42.5796,376.078 515.464,376.078"/>
<polyline fill="none" stroke="#f2f2f2" stroke-width="0.6" points="42.5796,336.016 515.464,336.016"/>
<polyline fill="none" stroke="#f2f2f2" stroke-width="0.6" points="42.5796,296.956 515.464,296.956"/>
<polyline fill="none" stroke="#f2f2f2" stroke-width="0.6" points="42.5796,256.895 515.464,256.895"/>
<polyline fill="none" stroke="#f2f2f2" stroke-width="0.6" points="42.5796,217.835 515.464,217.835"/>
<polyline fill="none" stroke="#f2f2f2" stroke-width="0.6" points="42.5796,177.773 515.464,177.773"/>
<polyline fill="none" stroke="#f2f2f2" stroke-width="0.6" points="42.5796,138.713 515.464,138.713"/>
<polyline fill="none" stroke="#f2f2f2" stroke-width="0.6" points="42.5796,98.6516 515.464,98.6516"/>
<polyline fill="none" stroke="#f2f2f2" stroke-width="0.6" points="42.5796,59.5916 515.464,59.5916"/>
<polyline fill="none" stroke="#f2f2f2" stroke-width="0.6" points="42.5796,19.53 515.464,19.53"/>
<polyline fill="none" stroke="#e2191c" stroke-width="0.6" points="42.5796,314.453 46.7883,333.18 50.9969,353.285 55.2056,372.839 59.4143,401.756 63.6229,429.572 67.8316,454.083 72.0403,482.45 76.2489,482.45 80.4576,517.702 84.6663,565.897 88.8749,565.897 93.0836,595.917 97.2923,595.917 101.501,520.18 105.71,520.18 109.918,470.883 114.127,470.883 118.336,425.441 122.544,425.441 126.753,369.258 130.962,369.258 135.17,369.258 139.379,315.279 143.588,315.279 147.796,315.279 152.005,261.024 156.214,261.024 160.422,261.024 164.631,207.871 168.84,207.871 173.048,207.871 177.257,207.871 181.466,156.371 185.674,156.371 189.883,156.371 194.092,111.204 198.3,111.204 202.509,111.204 206.718,111.204 210.926,111.204 215.135,81.736 219.344,81.736 223.552,81.736 227.761,81.736 231.97,69.0674 236.178,69.0674 240.387,69.0674 244.596,69.8936 248.804,69.8936 253.013,70.4444 257.222,70.4444 261.43,70.4444 265.639,70.4444 269.848,70.4444 274.056,70.4444 278.265,86.6933 282.474,86.6933 286.682,86.6933 290.891,86.6933 295.1,114.234 299.308,114.234 303.517,114.234 307.726,114.234 311.934,114.234 316.143,164.082 320.352,164.082 324.56,164.082 328.769,203.74 332.978,203.74 337.186,203.74 341.395,203.74 345.604,253.038 349.812,253.038 354.021,253.038 358.23,336.761 362.438,336.761 366.647,336.761 370.856,390.465 375.064,390.465 379.273,390.465 383.482,448.575 387.69,448.575 391.899,506.685 396.108,506.685 400.316,567.825 404.525,567.825 408.734,591.235 412.942,591.235 417.151,519.629 421.36,519.629 425.568,467.853 429.777,439.211 433.986,439.211 438.194,412.772 442.403,386.334 446.612,360.445 450.82,328.774 455.029,302.335 459.238,283.883 463.446,263.503"/>
<polyline fill="none" stroke="#000000" stroke-width="0.6" points="42.5796,612.441 42.5796,19.53"/>
<text fill="#000000" x="17.5328" y="315.985" font-size="12" transform="rotate(-90, 17.5328, 315.985)" text-anchor="middle" baseline-shift="0" font-family="Helvetica" font-weight="bold">Absolute power difference [W]</text>
<polyline fill="none" stroke="#000000" stroke-width="0.6" points="37.5702,612.441 42.5796,612.441"/>
<text fill="#000000" x="35.5665" y="612.441" font-size="12" text-anchor="end" baseline-shift="-6" font-family="Helvetica">0</text>
<polyline fill="none" stroke="#000000" stroke-width="0.6" points="37.5702,573.381 42.5796,573.381"/>
<text fill="#000000" x="35.5665" y="573.381" font-size="12" text-anchor="end" baseline-shift="-6" font-family="Helvetica">5</text>
<polyline fill="none" stroke="#000000" stroke-width="0.6" points="37.5702,534.321 42.5796,534.321"/>
<text fill="#000000" x="35.5665" y="534.321" font-size="12" text-anchor="end" baseline-shift="-6" font-family="Helvetica">10</text>
<polyline fill="none" stroke="#000000" stroke-width="0.6" points="37.5702,494.259 42.5796,494.259"/>
<text fill="#000000" x="35.5665" y="494.259" font-size="12" text-anchor="end" baseline-shift="-6" font-family="Helvetica">15</text>
<polyline fill="none" stroke="#000000" stroke-width="0.6" points="37.5702,455.199 42.5796,455.199"/>
<text fill="#000000" x="35.5665" y="455.199" font-size="12" text-anchor="end" baseline-shift="-6" font-family="Helvetica">20</text>
<polyline fill="none" stroke="#000000" stroke-width="0.6" points="37.5702,415.138 42.5796,415.138"/>
<text fill="#000000" x="35.5665" y="415.138" font-size="12" text-anchor="end" baseline-shift="-6" font-family="Helvetica">25</text>
<polyline fill="none" stroke="#000000" stroke-width="0.6" points="37.5702,376.078 42.5796,376.078"/>
<text fill="#000000" x="35.5665" y="376.078" font-size="12" text-anchor="end" baseline-shift="-6" font-family="Helvetica">30</text>
<polyline fill="none" stroke="#000000" stroke-width="0.6" points="37.5702,336.016 42.5796,336.016"/>
<text fill="#000000" x="35.5665" y="336.016" font-size="12" text-anchor="end" baseline-shift="-6" font-family="Helvetica">35</text>
<polyline fill="none" stroke="#000000" stroke-width="0.6" points="37.5702,296.956 42.5796,296.956"/>
<text fill="#000000" x="35.5665" y="296.956" font-size="12" text-anchor="end" baseline-shift="-6" font-family="Helvetica">40</text>
<polyline fill="none" stroke="#000000" stroke-width="0.6" points="37.5702,256.895 42.5796,256.895"/>
<text fill="#000000" x="35.5665" y="256.895" font-size="12" text-anchor="end" baseline-shift="-6" font-family="Helvetica">45</text>
<polyline fill="none" stroke="#000000" stroke-width="0.6" points="37.5702,217.835 42.5796,217.835"/>
<text fill="#000000" x="35.5665" y="217.835" font-size="12" text-anchor="end" baseline-shift="-6" font-family="Helvetica">50</text>
<polyline fill="none" stroke="#000000" stroke-width="0.6" points="37.5702,177.773 42.5796,177.773"/>
<text fill="#000000" x="35.5665" y="177.773" font-size="12" text-anchor="end" baseline-shift="-6" font-family="Helvetica">55</text>
<polyline fill="none" stroke="#000000" stroke-width="0.6" points="37.5702,138.713 42.5796,138.713"/>
<text fill="#000000" x="35.5665" y="138.713" font-size="12" text-anchor="end" baseline-shift="-6" font-family="Helvetica">60</text>
<polyline fill="none" stroke="#000000" stroke-width="0.6" points="37.5702,98.6516 42.5796,98.6516"/>
<text fill="#000000" x="35.5665" y="98.6516" font-size="12" text-anchor="end" baseline-shift="-6" font-family="Helvetica">65</text>
<polyline fill="none" stroke="#000000" stroke-width="0.6" points="37.5702,59.5916 42.5796,59.5916"/>
<text fill="#000000" x="35.5665" y="59.5916" font-size="12" text-anchor="end" baseline-shift="-6" font-family="Helvetica">70</text>
<polyline fill="none" stroke="#000000" stroke-width="0.6" points="37.5702,19.53 42.5796,19.53"/>
<text fill="#000000" x="35.5665" y="19.53" font-size="12" text-anchor="end" baseline-shift="-6" font-family="Helvetica">75</text>
<polyline fill="none" stroke="#000000" stroke-width="0.6" points="42.5796,612.441 515.464,612.441"/>
<text fill="#000000" x="279.022" y="634.475" font-size="12" text-anchor="middle" baseline-shift="-12" font-family="Helvetica" font-weight="bold">Fuel width [m]</text>
<polyline fill="none" stroke="#000000" stroke-width="0.6" points="42.5796,617.448 42.5796,612.441"/>
<text fill="#000000" x="42.5796" y="619.452" font-size="12" text-anchor="middle" baseline-shift="-12" font-family="Helvetica">0</text>
<polyline fill="none" stroke="#000000" stroke-width="0.6" points="101.69,617.448 101.69,612.441"/>
<text fill="#000000" x="101.69" y="619.452" font-size="12" text-anchor="middle" baseline-shift="-12" font-family="Helvetica">0.005</text>
<polyline fill="none" stroke="#000000" stroke-width="0.6" points="160.801,617.448 160.801,612.441"/>
<text fill="#000000" x="160.801" y="619.452" font-size="12" text-anchor="middle" baseline-shift="-12" font-family="Helvetica">0.01</text>
<polyline fill="none" stroke="#000000" stroke-width="0.6" points="219.911,617.448 219.911,612.441"/>
<text fill="#000000" x="219.911" y="619.452" font-size="12" text-anchor="middle" baseline-shift="-12" font-family="Helvetica">0.015</text>
<polyline fill="none" stroke="#000000" stroke-width="0.6" points="279.022,617.448 279.022,612.441"/>
<text fill="#000000" x="279.022" y="619.452" font-size="12" text-anchor="middle" baseline-shift="-12" font-family="Helvetica">0.02</text>
<polyline fill="none" stroke="#000000" stroke-width="0.6" points="338.132,617.448 338.132,612.441"/>
<text fill="#000000" x="338.132" y="619.452" font-size="12" text-anchor="middle" baseline-shift="-12" font-family="Helvetica">0.025</text>
<polyline fill="none" stroke="#000000" stroke-width="0.6" points="397.242,617.448 397.242,612.441"/>
<text fill="#000000" x="397.242" y="619.452" font-size="12" text-anchor="middle" baseline-shift="-12" font-family="Helvetica">0.03</text>
<polyline fill="none" stroke="#000000" stroke-width="0.6" points="456.353,617.448 456.353,612.441"/>
<text fill="#000000" x="456.353" y="619.452" font-size="12" text-anchor="middle" baseline-shift="-12" font-family="Helvetica">0.035</text>
<polyline fill="none" stroke="#000000" stroke-width="0.6" points="515.464,617.448 515.464,612.441"/>
<text fill="#000000" x="515.464" y="619.452" font-size="12" text-anchor="middle" baseline-shift="-12" font-family="Helvetica">0.04</text>
<polygon fill="#ffffff" points="284.031,41.5638 515.464,41.5638 284.031,19.53"/>
<polygon fill="#ffffff" points="515.464,41.5638 515.464,19.53 284.031,19.53"/>
<polyline fill="none" stroke="#000000" stroke-width="0.6" points="284.031,41.5638 515.464,41.5638 515.464,19.53 284.031,19.53 284.031,41.5638"/>
<text fill="#000000" x="314.087" y="36.5562" font-size="12" text-anchor="start" baseline-shift="0" font-family="Helvetica">Absolute power difference by cell</text>
<polyline fill="none" stroke="#e2191c" stroke-width="0.6" points="289.04,30.5469 311.081,30.5469"/>
</g>
</svg>
