<?xml version="1.0" encoding="UTF-8" standalone="no"?>
<svg xmlns="http://www.w3.org/2000/svg"
     xmlns:xlink="http://www.w3.org/1999/xlink"
     width="535px" height="651px" viewBox="0 0 535 651">
<title>ParaView GL2PS Export</title>
<desc>
Creator: GL2PS 1.3.9, (C) 1999-2015 C. Geuzaine
For: VTK
CreationDate: Fri Aug 19 16:46:19 2016
</desc>
<defs>
</defs>
<polygon fill="#ffffff" points="0,0 535,0 535,651 0,651"/>
<g shape-rendering="crispEdges">
<polyline fill="none" stroke="#f2f2f2" stroke-width="0.6" points="42.5796,612.441 42.5796,19.53"/>
<polyline fill="none" stroke="#f2f2f2" stroke-width="0.6" points="101.69,612.441 101.69,19.53"/>
<polyline fill="none" stroke="#f2f2f2" stroke-width="0.6" points="160.801,612.441 160.801,19.53"/>
<polyline fill="none" stroke="#f2f2f2" stroke-width="0.6" points="219.911,612.441 219.911,19.53"/>
<polyline fill="none" stroke="#f2f2f2" stroke-width="0.6" points="279.022,612.441 279.022,19.53"/>
<polyline fill="none" stroke="#f2f2f2" stroke-width="0.6" points="338.132,612.441 338.132,19.53"/>
<polyline fill="none" stroke="#f2f2f2" stroke-width="0.6" points="397.242,612.441 397.242,19.53"/>
<polyline fill="none" stroke="#f2f2f2" stroke-width="0.6" points="456.353,612.441 456.353,19.53"/>
<polyline fill="none" stroke="#f2f2f2" stroke-width="0.6" points="515.464,612.441 515.464,19.53"/>
<polyline fill="none" stroke="#f2f2f2" stroke-width="0.6" points="42.5796,612.441 515.464,612.441"/>
<polyline fill="none" stroke="#f2f2f2" stroke-width="0.6" points="42.5796,573.381 515.464,573.381"/>
<polyline fill="none" stroke="#f2f2f2" stroke-width="0.6" points="42.5796,534.321 515.464,534.321"/>
<polyline fill="none" stroke="#f2f2f2" stroke-width="0.6" points="42.5796,494.259 515.464,494.259"/>
<polyline fill="none" stroke="#f2f2f2" stroke-width="0.6" points="42.5796,455.199 515.464,455.199"/>
<polyline fill="none" stroke="#f2f2f2" stroke-width="0.6" points="42.5796,415.138 515.464,415.138"/>
<polyline fill="none" stroke="#f2f2f2" stroke-width="0.6" points="42.5796,376.078 515.464,376.078"/>
<polyline fill="none" stroke="#f2f2f2" stroke-width="0.6" points="42.5796,336.016 515.464,336.016"/>
<polyline fill="none" stroke="#f2f2f2" stroke-width="0.6" points="42.5796,296.956 515.464,296.956"/>
<polyline fill="none" stroke="#f2f2f2" stroke-width="0.6" points="42.5796,256.895 515.464,256.895"/>
<polyline fill="none" stroke="#f2f2f2" stroke-width="0.6" points="42.5796,217.835 515.464,217.835"/>
<polyline fill="none" stroke="#f2f2f2" stroke-width="0.6" points="42.5796,177.773 515.464,177.773"/>
<polyline fill="none" stroke="#f2f2f2" stroke-width="0.6" points="42.5796,138.713 515.464,138.713"/>
<polyline fill="none" stroke="#f2f2f2" stroke-width="0.6" points="42.5796,98.6516 515.464,98.6516"/>
<polyline fill="none" stroke="#f2f2f2" stroke-width="0.6" points="42.5796,59.5916 515.464,59.5916"/>
<polyline fill="none" stroke="#f2f2f2" stroke-width="0.6" points="42.5796,19.53 515.464,19.53"/>
<polyline fill="none" stroke="#e2191c" stroke-width="0.6" points="42.5796,425.716 46.7883,439.487 50.9969,454.634 55.2056,469.23 59.4143,490.712 63.6229,511.643 67.8316,530.095 72.0403,551.852 76.2489,551.852 80.4576,578.291 84.6663,596.467 88.8749,596.467 93.0836,604.729 97.2923,604.729 101.501,576.087 105.71,576.087 109.918,557.36 114.127,557.36 118.336,540.009 122.544,540.009 126.753,518.803 130.962,518.803 135.17,518.803 139.379,498.148 143.588,498.148 147.796,498.148 152.005,477.492 156.214,477.492 160.422,477.492 164.631,457.388 168.84,457.388 173.048,457.388 177.257,457.388 181.466,437.834 185.674,437.834 189.883,437.834 194.092,420.484 198.3,420.484 202.509,420.484 206.718,420.484 210.926,420.484 215.135,409.468 219.344,409.468 223.552,409.468 227.761,409.468 231.97,404.786 236.178,404.786 240.387,404.786 244.596,405.336 248.804,405.336 253.013,405.612 257.222,405.612 261.43,405.612 265.639,405.612 269.848,405.612 274.056,405.612 278.265,412.222 282.474,412.222 286.682,412.222 290.891,412.222 295.1,423.238 299.308,423.238 303.517,423.238 307.726,423.238 311.934,423.238 316.143,442.792 320.352,442.792 324.56,442.792 328.769,458.214 332.978,458.214 337.186,458.214 341.395,458.214 345.604,477.492 349.812,477.492 354.021,477.492 358.23,509.715 362.438,509.715 366.647,509.715 370.856,530.37 375.064,530.37 379.273,530.37 383.482,552.678 387.69,552.678 391.899,574.71 396.108,574.71 400.316,598.12 404.525,598.12 408.734,601.7 412.942,601.7 417.151,574.16 421.36,574.16 425.568,552.953 429.777,531.472 433.986,531.472 438.194,511.643 442.403,491.814 446.612,472.811 450.82,449.126 455.029,429.847 459.238,416.353 463.446,401.756"/>
<polyline fill="none" stroke="#000000" stroke-width="0.6" points="42.5796,612.441 42.5796,19.53"/>
<text fill="#000000" x="17.5328" y="315.985" font-size="12" transform="rotate(-90, 17.5328, 315.985)" text-anchor="middle" baseline-shift="0" font-family="Helvetica" font-weight="bold">Absolute power difference [W]</text>
<polyline fill="none" stroke="#000000" stroke-width="0.6" points="37.5702,612.441 42.5796,612.441"/>
<text fill="#000000" x="35.5665" y="612.441" font-size="12" text-anchor="end" baseline-shift="-6" font-family="Helvetica">0</text>
<polyline fill="none" stroke="#000000" stroke-width="0.6" points="37.5702,573.381 42.5796,573.381"/>
<text fill="#000000" x="35.5665" y="573.381" font-size="12" text-anchor="end" baseline-shift="-6" font-family="Helvetica">5</text>
<polyline fill="none" stroke="#000000" stroke-width="0.6" points="37.5702,534.321 42.5796,534.321"/>
<text fill="#000000" x="35.5665" y="534.321" font-size="12" text-anchor="end" baseline-shift="-6" font-family="Helvetica">10</text>
<polyline fill="none" stroke="#000000" stroke-width="0.6" points="37.5702,494.259 42.5796,494.259"/>
<text fill="#000000" x="35.5665" y="494.259" font-size="12" text-anchor="end" baseline-shift="-6" font-family="Helvetica">15</text>
<polyline fill="none" stroke="#000000" stroke-width="0.6" points="37.5702,455.199 42.5796,455.199"/>
<text fill="#000000" x="35.5665" y="455.199" font-size="12" text-anchor="end" baseline-shift="-6" font-family="Helvetica">20</text>
<polyline fill="none" stroke="#000000" stroke-width="0.6" points="37.5702,415.138 42.5796,415.138"/>
<text fill="#000000" x="35.5665" y="415.138" font-size="12" text-anchor="end" baseline-shift="-6" font-family="Helvetica">25</text>
<polyline fill="none" stroke="#000000" stroke-width="0.6" points="37.5702,376.078 42.5796,376.078"/>
<text fill="#000000" x="35.5665" y="376.078" font-size="12" text-anchor="end" baseline-shift="-6" font-family="Helvetica">30</text>
<polyline fill="none" stroke="#000000" stroke-width="0.6" points="37.5702,336.016 42.5796,336.016"/>
<text fill="#000000" x="35.5665" y="336.016" font-size="12" text-anchor="end" baseline-shift="-6" font-family="Helvetica">35</text>
<polyline fill="none" stroke="#000000" stroke-width="0.6" points="37.5702,296.956 42.5796,296.956"/>
<text fill="#000000" x="35.5665" y="296.956" font-size="12" text-anchor="end" baseline-shift="-6" font-family="Helvetica">40</text>
<polyline fill="none" stroke="#000000" stroke-width="0.6" points="37.5702,256.895 42.5796,256.895"/>
<text fill="#000000" x="35.5665" y="256.895" font-size="12" text-anchor="end" baseline-shift="-6" font-family="Helvetica">45</text>
<polyline fill="none" stroke="#000000" stroke-width="0.6" points="37.5702,217.835 42.5796,217.835"/>
<text fill="#000000" x="35.5665" y="217.835" font-size="12" text-anchor="end" baseline-shift="-6" font-family="Helvetica">50</text>
<polyline fill="none" stroke="#000000" stroke-width="0.6" points="37.5702,177.773 42.5796,177.773"/>
<text fill="#000000" x="35.5665" y="177.773" font-size="12" text-anchor="end" baseline-shift="-6" font-family="Helvetica">55</text>
<polyline fill="none" stroke="#000000" stroke-width="0.6" points="37.5702,138.713 42.5796,138.713"/>
<text fill="#000000" x="35.5665" y="138.713" font-size="12" text-anchor="end" baseline-shift="-6" font-family="Helvetica">60</text>
<polyline fill="none" stroke="#000000" stroke-width="0.6" points="37.5702,98.6516 42.5796,98.6516"/>
<text fill="#000000" x="35.5665" y="98.6516" font-size="12" text-anchor="end" baseline-shift="-6" font-family="Helvetica">65</text>
<polyline fill="none" stroke="#000000" stroke-width="0.6" points="37.5702,59.5916 42.5796,59.5916"/>
<text fill="#000000" x="35.5665" y="59.5916" font-size="12" text-anchor="end" baseline-shift="-6" font-family="Helvetica">70</text>
<polyline fill="none" stroke="#000000" stroke-width="0.6" points="37.5702,19.53 42.5796,19.53"/>
<text fill="#000000" x="35.5665" y="19.53" font-size="12" text-anchor="end" baseline-shift="-6" font-family="Helvetica">75</text>
<polyline fill="none" stroke="#000000" stroke-width="0.6" points="42.5796,612.441 515.464,612.441"/>
<text fill="#000000" x="279.022" y="634.475" font-size="12" text-anchor="middle" baseline-shift="-12" font-family="Helvetica" font-weight="bold">Fuel width [m]</text>
<polyline fill="none" stroke="#000000" stroke-width="0.6" points="42.5796,617.448 42.5796,612.441"/>
<text fill="#000000" x="42.5796" y="619.452" font-size="12" text-anchor="middle" baseline-shift="-12" font-family="Helvetica">0</text>
<polyline fill="none" stroke="#000000" stroke-width="0.6" points="101.69,617.448 101.69,612.441"/>
<text fill="#000000" x="101.69" y="619.452" font-size="12" text-anchor="middle" baseline-shift="-12" font-family="Helvetica">0.005</text>
<polyline fill="none" stroke="#000000" stroke-width="0.6" points="160.801,617.448 160.801,612.441"/>
<text fill="#000000" x="160.801" y="619.452" font-size="12" text-anchor="middle" baseline-shift="-12" font-family="Helvetica">0.01</text>
<polyline fill="none" stroke="#000000" stroke-width="0.6" points="219.911,617.448 219.911,612.441"/>
<text fill="#000000" x="219.911" y="619.452" font-size="12" text-anchor="middle" baseline-shift="-12" font-family="Helvetica">0.015</text>
<polyline fill="none" stroke="#000000" stroke-width="0.6" points="279.022,617.448 279.022,612.441"/>
<text fill="#000000" x="279.022" y="619.452" font-size="12" text-anchor="middle" baseline-shift="-12" font-family="Helvetica">0.02</text>
<polyline fill="none" stroke="#000000" stroke-width="0.6" points="338.132,617.448 338.132,612.441"/>
<text fill="#000000" x="338.132" y="619.452" font-size="12" text-anchor="middle" baseline-shift="-12" font-family="Helvetica">0.025</text>
<polyline fill="none" stroke="#000000" stroke-width="0.6" points="397.242,617.448 397.242,612.441"/>
<text fill="#000000" x="397.242" y="619.452" font-size="12" text-anchor="middle" baseline-shift="-12" font-family="Helvetica">0.03</text>
<polyline fill="none" stroke="#000000" stroke-width="0.6" points="456.353,617.448 456.353,612.441"/>
<text fill="#000000" x="456.353" y="619.452" font-size="12" text-anchor="middle" baseline-shift="-12" font-family="Helvetica">0.035</text>
<polyline fill="none" stroke="#000000" stroke-width="0.6" points="515.464,617.448 515.464,612.441"/>
<text fill="#000000" x="515.464" y="619.452" font-size="12" text-anchor="middle" baseline-shift="-12" font-family="Helvetica">0.04</text>
<polygon fill="#ffffff" points="284.031,41.5638 515.464,41.5638 284.031,19.53"/>
<polygon fill="#ffffff" points="515.464,41.5638 515.464,19.53 284.031,19.53"/>
<polyline fill="none" stroke="#000000" stroke-width="0.6" points="284.031,41.5638 515.464,41.5638 515.464,19.53 284.031,19.53 284.031,41.5638"/>
<text fill="#000000" x="314.087" y="36.5562" font-size="12" text-anchor="start" baseline-shift="0" font-family="Helvetica">Absolute power difference by cell</text>
<polyline fill="none" stroke="#e2191c" stroke-width="0.6" points="289.04,30.5469 311.081,30.5469"/>
</g>
</svg>
