<?xml version="1.0" encoding="UTF-8" standalone="no"?>
<svg
   xmlns:dc="http://purl.org/dc/elements/1.1/"
   xmlns:cc="http://creativecommons.org/ns#"
   xmlns:rdf="http://www.w3.org/1999/02/22-rdf-syntax-ns#"
   xmlns:svg="http://www.w3.org/2000/svg"
   xmlns="http://www.w3.org/2000/svg"
   xmlns:sodipodi="http://sodipodi.sourceforge.net/DTD/sodipodi-0.dtd"
   xmlns:inkscape="http://www.inkscape.org/namespaces/inkscape"
   width="1080px"
   height="651px"
   viewBox="0 0 1080 651"
   id="svg14636"
   version="1.1"
   inkscape:version="0.91 r13725"
   sodipodi:docname="diff_flux_2_z_work.svg">
  <metadata
     id="metadata14840">
    <rdf:RDF>
      <cc:Work
         rdf:about="">
        <dc:format>image/svg+xml</dc:format>
        <dc:type
           rdf:resource="http://purl.org/dc/dcmitype/StillImage" />
        <dc:title>ParaView GL2PS Export</dc:title>
      </cc:Work>
    </rdf:RDF>
  </metadata>
  <sodipodi:namedview
     pagecolor="#ffffff"
     bordercolor="#666666"
     borderopacity="1"
     objecttolerance="10"
     gridtolerance="10"
     guidetolerance="10"
     inkscape:pageopacity="0"
     inkscape:pageshadow="2"
     inkscape:window-width="1600"
     inkscape:window-height="853"
     id="namedview14838"
     showgrid="false"
     inkscape:zoom="0.94316065"
     inkscape:cx="565.42775"
     inkscape:cy="325.5"
     inkscape:window-x="897"
     inkscape:window-y="267"
     inkscape:window-maximized="1"
     inkscape:current-layer="g14646" />
  <title
     id="title14638">ParaView GL2PS Export</title>
  <desc
     id="desc14640">
Creator: GL2PS 1.3.9, (C) 1999-2015 C. Geuzaine
For: VTK
CreationDate: Thu Oct  6 19:18:28 2016
</desc>
  <defs
     id="defs14642" />
  <polygon
     points="0,0 1080,0 1080,651 0,651"
     id="polygon14644"
     fill="#ffffff" />
  <g
     id="g14646"
     transform="matrix(0.9580074,0,0,0.9202145,64.452091,1.5297275)"
     style="shape-rendering:crispEdges">
    <polyline
       points="33.5311,624.459 33.5311,19.53"
       id="polyline14648"
       style="fill:none;stroke:#f2f2f2;stroke-width:0.7604475" />
    <polyline
       points="91.5848,624.459 91.5848,19.53"
       id="polyline14650"
       style="fill:none;stroke:#f2f2f2;stroke-width:0.7604475" />
    <polyline
       points="149.639,624.459 149.639,19.53"
       id="polyline14652"
       style="fill:none;stroke:#f2f2f2;stroke-width:0.7604475" />
    <polyline
       points="207.692,624.459 207.692,19.53"
       id="polyline14654"
       style="fill:none;stroke:#f2f2f2;stroke-width:0.7604475" />
    <polyline
       points="265.746,624.459 265.746,19.53"
       id="polyline14656"
       style="fill:none;stroke:#f2f2f2;stroke-width:0.7604475" />
    <polyline
       points="323.8,624.459 323.8,19.53"
       id="polyline14658"
       style="fill:none;stroke:#f2f2f2;stroke-width:0.7604475" />
    <polyline
       points="381.854,624.459 381.854,19.53"
       id="polyline14660"
       style="fill:none;stroke:#f2f2f2;stroke-width:0.7604475" />
    <polyline
       points="439.907,624.459 439.907,19.53"
       id="polyline14662"
       style="fill:none;stroke:#f2f2f2;stroke-width:0.7604475" />
    <polyline
       points="497.961,624.459 497.961,19.53"
       id="polyline14664"
       style="fill:none;stroke:#f2f2f2;stroke-width:0.7604475" />
    <polyline
       points="556.015,624.459 556.015,19.53"
       id="polyline14666"
       style="fill:none;stroke:#f2f2f2;stroke-width:0.7604475" />
    <polyline
       points="614.069,624.459 614.069,19.53"
       id="polyline14668"
       style="fill:none;stroke:#f2f2f2;stroke-width:0.7604475" />
    <polyline
       points="672.122,624.459 672.122,19.53"
       id="polyline14670"
       style="fill:none;stroke:#f2f2f2;stroke-width:0.7604475" />
    <polyline
       points="730.176,624.459 730.176,19.53"
       id="polyline14672"
       style="fill:none;stroke:#f2f2f2;stroke-width:0.7604475" />
    <polyline
       points="788.23,624.459 788.23,19.53"
       id="polyline14674"
       style="fill:none;stroke:#f2f2f2;stroke-width:0.7604475" />
    <polyline
       points="846.284,624.459 846.284,19.53"
       id="polyline14676"
       style="fill:none;stroke:#f2f2f2;stroke-width:0.7604475" />
    <polyline
       points="904.337,624.459 904.337,19.53"
       id="polyline14678"
       style="fill:none;stroke:#f2f2f2;stroke-width:0.7604475" />
    <polyline
       points="962.391,624.459 962.391,19.53"
       id="polyline14680"
       style="fill:none;stroke:#f2f2f2;stroke-width:0.7604475" />
    <polyline
       points="1019.44,624.459 1019.44,19.53"
       id="polyline14682"
       style="fill:none;stroke:#f2f2f2;stroke-width:0.7604475" />
    <polyline
       points="32.5301,619.452 1060.48,619.452"
       id="polyline14684"
       style="fill:none;stroke:#f2f2f2;stroke-width:0.7604475" />
    <polyline
       points="32.5301,556.355 1060.48,556.355"
       id="polyline14686"
       style="fill:none;stroke:#f2f2f2;stroke-width:0.7604475" />
    <polyline
       points="32.5301,493.258 1060.48,493.258"
       id="polyline14688"
       style="fill:none;stroke:#f2f2f2;stroke-width:0.7604475" />
    <polyline
       points="32.5301,430.161 1060.48,430.161"
       id="polyline14690"
       style="fill:none;stroke:#f2f2f2;stroke-width:0.7604475" />
    <polyline
       points="32.5301,366.062 1060.48,366.062"
       id="polyline14692"
       style="fill:none;stroke:#f2f2f2;stroke-width:0.7604475" />
    <polyline
       points="32.5301,302.965 1060.48,302.965"
       id="polyline14694"
       style="fill:none;stroke:#f2f2f2;stroke-width:0.7604475" />
    <polyline
       points="32.5301,239.868 1060.48,239.868"
       id="polyline14696"
       style="fill:none;stroke:#f2f2f2;stroke-width:0.7604475" />
    <polyline
       points="32.5301,176.772 1060.48,176.772"
       id="polyline14698"
       style="fill:none;stroke:#f2f2f2;stroke-width:0.7604475" />
    <polyline
       points="32.5301,113.675 1060.48,113.675"
       id="polyline14700"
       style="fill:none;stroke:#f2f2f2;stroke-width:0.7604475" />
    <polyline
       points="32.5301,49.5762 1060.48,49.5762"
       id="polyline14702"
       style="fill:none;stroke:#f2f2f2;stroke-width:0.7604475" />
    <polyline
       points="34.2937,618.243 44.445,618.243 54.5963,618.243 64.7476,561.727 74.8989,561.727 85.0502,561.727 95.2015,506.762 105.353,506.762 115.504,506.762 125.655,453.073 135.807,453.073 145.958,453.073 156.109,400.972 166.261,400.972 176.412,400.972 186.563,350.907 196.714,350.907 206.866,350.907 217.017,303.3 227.168,303.3 237.32,258.53 247.471,258.53 257.622,258.53 267.774,216.942 277.925,216.942 288.076,216.942 298.227,178.851 308.379,178.851 318.53,178.851 328.681,144.543 338.833,144.543 348.984,144.543 359.135,114.273 369.287,114.273 379.438,114.273 389.589,88.2675 399.74,88.2675 409.892,88.2675 420.043,66.7196 430.194,66.7196 440.346,49.7893 450.497,49.7893 460.648,49.7893 470.8,37.59 480.951,37.59 491.102,37.59 501.253,30.2111 511.405,30.2111 521.556,30.2111 531.707,27.6948 541.859,27.6948 552.01,27.6948 562.161,30.0602 572.313,30.0602 582.464,30.0602 592.615,37.2931 602.766,37.2931 612.918,37.2931 623.069,49.3558 633.22,49.3558 643.372,66.1635 653.523,66.1635 663.674,66.1635 673.826,87.5983 683.977,87.5983 694.128,87.5983 704.279,113.514 714.431,113.514 724.582,113.514 734.733,143.709 744.885,143.709 755.036,143.709 765.187,177.96 775.339,177.96 785.49,177.96 795.641,216.024 805.792,216.024 815.944,216.024 826.095,257.607 836.246,257.607 846.398,302.402 856.549,302.402 866.7,302.402 876.851,350.057 887.003,350.057 897.154,350.057 907.305,400.196 917.457,400.196 927.608,400.196 937.759,452.392 947.911,452.392 958.062,452.392 968.213,506.19 978.364,506.19 988.516,506.19 998.667,561.281 1008.82,561.281 1018.97,561.281 1029.12,617.931 1039.27,617.931 1049.42,617.931"
       id="polyline14704"
       style="fill:none;stroke:#000000;stroke-width:2.66263135;stroke-dasharray:14.91670215,14.91670215;stroke-miterlimit:4;stroke-dashoffset:0" />
    <polyline
       points="34.2937,617.796 44.445,617.796 54.5963,617.796 64.7476,561.156 74.8989,561.156 85.0502,561.156 95.2015,506.276 105.353,506.276 115.504,506.276 125.655,452.902 135.807,452.902 145.958,452.902 156.109,401.331 166.261,401.331 176.412,401.331 186.563,351.99 196.714,351.99 206.866,351.99 217.017,305.292 227.168,305.292 237.32,261.612 247.471,261.612 257.622,261.612 267.774,221.268 277.925,221.268 288.076,221.268 298.227,184.53 308.379,184.53 318.53,184.53 328.681,151.637 338.833,151.637 348.984,151.637 359.135,122.783 369.287,122.783 379.438,122.783 389.589,98.1271 399.74,98.1271 409.892,98.1271 420.043,77.8158 430.194,77.8158 440.346,61.95 450.497,61.95 460.648,61.95 470.8,50.5985 480.951,50.5985 491.102,50.5985 501.253,43.8104 511.405,43.8104 521.556,43.8104 531.707,41.608 541.859,41.608 552.01,41.608 562.161,43.999 572.313,43.999 582.464,43.999 592.615,50.9888 602.766,50.9888 612.918,50.9888 623.069,62.5587 633.22,62.5587 643.372,78.6596 653.523,78.6596 663.674,78.6596 673.826,99.218 683.977,99.218 694.128,99.218 704.279,124.113 714.431,124.113 724.582,124.113 734.733,153.185 744.885,153.185 755.036,153.185 765.187,186.263 775.339,186.263 785.49,186.263 795.641,223.142 805.792,223.142 815.944,223.142 826.095,263.575 836.246,263.575 846.398,307.288 856.549,307.288 866.7,307.288 876.851,353.953 887.003,353.953 897.154,353.953 907.305,403.189 917.457,403.189 927.608,403.189 937.759,454.588 947.911,454.588 958.062,454.588 968.213,507.723 978.364,507.723 988.516,507.723 998.667,562.313 1008.82,562.313 1018.97,562.313 1029.12,618.617 1039.27,618.617 1049.42,618.617"
       id="polyline14706"
       style="fill:none;stroke:#e2191c;stroke-width:2.66263135;stroke-miterlimit:4;stroke-dasharray:none" />
    <polyline
       points="32.5301,624.459 32.5301,19.53"
       id="polyline14708"
       style="fill:none;stroke:#000000;stroke-width:0.7604475" />
    <polyline
       points="27.5255,619.452 32.5301,619.452"
       id="polyline14710"
       style="fill:none;stroke:#000000;stroke-width:0.7604475" />
    <text
       x="25.523701"
       y="619.45203"
       font-size="12"
       baseline-shift="-6"
       id="text14712"
       style="font-style:normal;font-variant:normal;font-weight:normal;font-stretch:normal;font-size:26.62631347px;font-family:sans-serif;-inkscape-font-specification:sans-serif;baseline-shift:-6px;text-anchor:end;fill:#000000;">1</text>
    <polyline
       points="27.5255,556.355 32.5301,556.355"
       id="polyline14714"
       style="fill:none;stroke:#000000;stroke-width:0.7604475" />
    <text
       x="25.523701"
       y="556.35498"
       font-size="12"
       baseline-shift="-6"
       id="text14716"
       style="font-style:normal;font-variant:normal;font-weight:normal;font-stretch:normal;font-size:26.62631347px;font-family:sans-serif;-inkscape-font-specification:sans-serif;baseline-shift:-6px;text-anchor:end;fill:#000000;">1.5</text>
    <polyline
       points="27.5255,493.258 32.5301,493.258"
       id="polyline14718"
       style="fill:none;stroke:#000000;stroke-width:0.7604475" />
    <text
       x="25.523701"
       y="493.258"
       font-size="12"
       baseline-shift="-6"
       id="text14720"
       style="font-style:normal;font-variant:normal;font-weight:normal;font-stretch:normal;font-size:26.62631347px;font-family:sans-serif;-inkscape-font-specification:sans-serif;baseline-shift:-6px;text-anchor:end;fill:#000000;">2</text>
    <polyline
       points="27.5255,430.161 32.5301,430.161"
       id="polyline14722"
       style="fill:none;stroke:#000000;stroke-width:0.7604475" />
    <text
       x="25.523701"
       y="430.16101"
       font-size="12"
       baseline-shift="-6"
       id="text14724"
       style="font-style:normal;font-variant:normal;font-weight:normal;font-stretch:normal;font-size:26.62631347px;font-family:sans-serif;-inkscape-font-specification:sans-serif;baseline-shift:-6px;text-anchor:end;fill:#000000;">2.5</text>
    <polyline
       points="27.5255,366.062 32.5301,366.062"
       id="polyline14726"
       style="fill:none;stroke:#000000;stroke-width:0.7604475" />
    <text
       x="25.523701"
       y="366.06201"
       font-size="12"
       baseline-shift="-6"
       id="text14728"
       style="font-style:normal;font-variant:normal;font-weight:normal;font-stretch:normal;font-size:26.62631347px;font-family:sans-serif;-inkscape-font-specification:sans-serif;baseline-shift:-6px;text-anchor:end;fill:#000000;">3</text>
    <polyline
       points="27.5255,302.965 32.5301,302.965"
       id="polyline14730"
       style="fill:none;stroke:#000000;stroke-width:0.7604475" />
    <text
       x="25.523701"
       y="302.965"
       font-size="12"
       baseline-shift="-6"
       id="text14732"
       style="font-style:normal;font-variant:normal;font-weight:normal;font-stretch:normal;font-size:26.62631347px;font-family:sans-serif;-inkscape-font-specification:sans-serif;baseline-shift:-6px;text-anchor:end;fill:#000000;">3.5</text>
    <polyline
       points="27.5255,239.868 32.5301,239.868"
       id="polyline14734"
       style="fill:none;stroke:#000000;stroke-width:0.7604475" />
    <text
       x="25.523701"
       y="239.868"
       font-size="12"
       baseline-shift="-6"
       id="text14736"
       style="font-style:normal;font-variant:normal;font-weight:normal;font-stretch:normal;font-size:26.62631347px;font-family:sans-serif;-inkscape-font-specification:sans-serif;baseline-shift:-6px;text-anchor:end;fill:#000000;">4</text>
    <polyline
       points="27.5255,176.772 32.5301,176.772"
       id="polyline14738"
       style="fill:none;stroke:#000000;stroke-width:0.7604475" />
    <text
       x="25.523701"
       y="176.772"
       font-size="12"
       baseline-shift="-6"
       id="text14740"
       style="font-style:normal;font-variant:normal;font-weight:normal;font-stretch:normal;font-size:26.62631347px;font-family:sans-serif;-inkscape-font-specification:sans-serif;baseline-shift:-6px;text-anchor:end;fill:#000000;">4.5</text>
    <polyline
       points="27.5255,113.675 32.5301,113.675"
       id="polyline14742"
       style="fill:none;stroke:#000000;stroke-width:0.7604475" />
    <text
       x="25.523701"
       y="113.675"
       font-size="12"
       baseline-shift="-6"
       id="text14744"
       style="font-style:normal;font-variant:normal;font-weight:normal;font-stretch:normal;font-size:26.62631347px;font-family:sans-serif;-inkscape-font-specification:sans-serif;baseline-shift:-6px;text-anchor:end;fill:#000000;">5</text>
    <polyline
       points="27.5255,49.5762 32.5301,49.5762"
       id="polyline14746"
       style="fill:none;stroke:#000000;stroke-width:0.7604475" />
    <text
       x="25.523701"
       y="49.576199"
       font-size="12"
       baseline-shift="-6"
       id="text14748"
       style="font-style:normal;font-variant:normal;font-weight:normal;font-stretch:normal;font-size:26.62631347px;font-family:sans-serif;-inkscape-font-specification:sans-serif;baseline-shift:-6px;text-anchor:end;fill:#000000;">5.5</text>
    <polyline
       points="32.5301,624.459 1060.48,624.459"
       id="polyline14750"
       style="fill:none;stroke:#000000;stroke-width:0.7604475" />
    <polyline
       points="33.5311,629.467 33.5311,624.459"
       id="polyline14752"
       style="fill:none;stroke:#000000;stroke-width:0.7604475" />
    <text
       x="33.531101"
       y="664.07098"
       font-size="12"
       baseline-shift="-12"
       id="text14754"
       style="font-style:normal;font-variant:normal;font-weight:normal;font-stretch:normal;font-size:26.62631347px;font-family:sans-serif;-inkscape-font-specification:sans-serif;baseline-shift:-12px;text-anchor:middle;fill:#000000;">0</text>
    <polyline
       points="91.5848,629.467 91.5848,624.459"
       id="polyline14756"
       style="fill:none;stroke:#000000;stroke-width:0.7604475" />
    <text
       x="91.584801"
       y="664.07098"
       font-size="12"
       baseline-shift="-12"
       id="text14758"
       style="font-style:normal;font-variant:normal;font-weight:normal;font-stretch:normal;font-size:26.62631347px;font-family:sans-serif;-inkscape-font-specification:sans-serif;baseline-shift:-12px;text-anchor:middle;fill:#000000;">2.0</text>
    <polyline
       points="149.639,629.467 149.639,624.459"
       id="polyline14760"
       style="fill:none;stroke:#000000;stroke-width:0.7604475"
       transform="translate(0,32.601092)" />
    <text
       x="149.63901"
       y="664.07098"
       font-size="12"
       baseline-shift="-12"
       id="text14762"
       style="font-style:normal;font-variant:normal;font-weight:normal;font-stretch:normal;font-size:26.62631347px;font-family:sans-serif;-inkscape-font-specification:sans-serif;baseline-shift:-12px;text-anchor:middle;fill:#000000;">4.0</text>
    <polyline
       points="207.692,629.467 207.692,624.459"
       id="polyline14764"
       style="fill:none;stroke:#000000;stroke-width:0.7604475" />
    <text
       x="207.692"
       y="664.07098"
       font-size="12"
       baseline-shift="-12"
       id="text14766"
       style="font-style:normal;font-variant:normal;font-weight:normal;font-stretch:normal;font-size:26.62631347px;font-family:sans-serif;-inkscape-font-specification:sans-serif;baseline-shift:-12px;text-anchor:middle;fill:#000000;">6.0</text>
    <polyline
       points="265.746,629.467 265.746,624.459"
       id="polyline14768"
       style="fill:none;stroke:#000000;stroke-width:0.7604475"
       transform="translate(0,32.601092)" />
    <text
       x="265.746"
       y="664.07098"
       font-size="12"
       baseline-shift="-12"
       id="text14770"
       style="font-style:normal;font-variant:normal;font-weight:normal;font-stretch:normal;font-size:26.62631347px;font-family:sans-serif;-inkscape-font-specification:sans-serif;baseline-shift:-12px;text-anchor:middle;fill:#000000;">8.0</text>
    <polyline
       points="323.8,629.467 323.8,624.459"
       id="polyline14772"
       style="fill:none;stroke:#000000;stroke-width:0.7604475" />
    <text
       x="323.79999"
       y="664.07098"
       font-size="12"
       baseline-shift="-12"
       id="text14774"
       style="font-style:normal;font-variant:normal;font-weight:normal;font-stretch:normal;font-size:26.62631347px;font-family:sans-serif;-inkscape-font-specification:sans-serif;baseline-shift:-12px;text-anchor:middle;fill:#000000;">10.0</text>
    <polyline
       points="381.854,629.467 381.854,624.459"
       id="polyline14776"
       style="fill:none;stroke:#000000;stroke-width:0.7604475"
       transform="translate(0,32.601092)" />
    <text
       x="381.854"
       y="664.07098"
       font-size="12"
       baseline-shift="-12"
       id="text14778"
       style="font-style:normal;font-variant:normal;font-weight:normal;font-stretch:normal;font-size:26.62631347px;font-family:sans-serif;-inkscape-font-specification:sans-serif;baseline-shift:-12px;text-anchor:middle;fill:#000000;">12.0</text>
    <polyline
       points="439.907,629.467 439.907,624.459"
       id="polyline14780"
       style="fill:none;stroke:#000000;stroke-width:0.7604475"
       transform="translate(0,32.601092)" />
    <text
       x="439.90701"
       y="664.07098"
       font-size="12"
       baseline-shift="-12"
       id="text14782"
       style="font-style:normal;font-variant:normal;font-weight:normal;font-stretch:normal;font-size:26.62631347px;font-family:sans-serif;-inkscape-font-specification:sans-serif;baseline-shift:-12px;text-anchor:middle;fill:#000000;">14.0</text>
    <polyline
       points="497.961,629.467 497.961,624.459"
       id="polyline14784"
       style="fill:none;stroke:#000000;stroke-width:0.7604475"
       transform="translate(0,32.601092)" />
    <text
       x="497.961"
       y="664.07098"
       font-size="12"
       baseline-shift="-12"
       id="text14786"
       style="font-style:normal;font-variant:normal;font-weight:normal;font-stretch:normal;font-size:26.62631347px;font-family:sans-serif;-inkscape-font-specification:sans-serif;baseline-shift:-12px;text-anchor:middle;fill:#000000;">16.0</text>
    <polyline
       points="556.015,629.467 556.015,624.459"
       id="polyline14788"
       style="fill:none;stroke:#000000;stroke-width:0.7604475"
       transform="translate(0,32.601092)" />
    <text
       x="556.01501"
       y="664.07098"
       font-size="12"
       baseline-shift="-12"
       id="text14790"
       style="font-style:normal;font-variant:normal;font-weight:normal;font-stretch:normal;font-size:26.62631347px;font-family:sans-serif;-inkscape-font-specification:sans-serif;baseline-shift:-12px;text-anchor:middle;fill:#000000;">18.0</text>
    <polyline
       points="614.069,629.467 614.069,624.459"
       id="polyline14792"
       style="fill:none;stroke:#000000;stroke-width:0.7604475"
       transform="translate(0,32.601092)" />
    <text
       x="614.06897"
       y="664.07098"
       font-size="12"
       baseline-shift="-12"
       id="text14794"
       style="font-style:normal;font-variant:normal;font-weight:normal;font-stretch:normal;font-size:26.62631347px;font-family:sans-serif;-inkscape-font-specification:sans-serif;baseline-shift:-12px;text-anchor:middle;fill:#000000;">20.0</text>
    <polyline
       points="672.122,629.467 672.122,624.459"
       id="polyline14796"
       style="fill:none;stroke:#000000;stroke-width:0.7604475"
       transform="translate(0,32.601092)" />
    <text
       x="672.12201"
       y="664.07098"
       font-size="12"
       baseline-shift="-12"
       id="text14798"
       style="font-style:normal;font-variant:normal;font-weight:normal;font-stretch:normal;font-size:26.62631347px;font-family:sans-serif;-inkscape-font-specification:sans-serif;baseline-shift:-12px;text-anchor:middle;fill:#000000;">22.0</text>
    <polyline
       points="730.176,629.467 730.176,624.459"
       id="polyline14800"
       style="fill:none;stroke:#000000;stroke-width:0.7604475"
       transform="translate(0,32.601092)" />
    <text
       x="730.17603"
       y="664.07098"
       font-size="12"
       baseline-shift="-12"
       id="text14802"
       style="font-style:normal;font-variant:normal;font-weight:normal;font-stretch:normal;font-size:26.62631347px;font-family:sans-serif;-inkscape-font-specification:sans-serif;baseline-shift:-12px;text-anchor:middle;fill:#000000;">24.0</text>
    <polyline
       points="788.23,629.467 788.23,624.459"
       id="polyline14804"
       style="fill:none;stroke:#000000;stroke-width:0.7604475"
       transform="translate(0,32.601092)" />
    <text
       x="788.22998"
       y="664.07098"
       font-size="12"
       baseline-shift="-12"
       id="text14806"
       style="font-style:normal;font-variant:normal;font-weight:normal;font-stretch:normal;font-size:26.62631347px;font-family:sans-serif;-inkscape-font-specification:sans-serif;baseline-shift:-12px;text-anchor:middle;fill:#000000;">26.0</text>
    <polyline
       points="846.284,629.467 846.284,624.459"
       id="polyline14808"
       style="fill:none;stroke:#000000;stroke-width:0.7604475"
       transform="translate(0,32.601092)" />
    <text
       x="846.284"
       y="664.07098"
       font-size="12"
       baseline-shift="-12"
       id="text14810"
       style="font-style:normal;font-variant:normal;font-weight:normal;font-stretch:normal;font-size:26.62631347px;font-family:sans-serif;-inkscape-font-specification:sans-serif;baseline-shift:-12px;text-anchor:middle;fill:#000000;">28.0</text>
    <polyline
       points="904.337,629.467 904.337,624.459"
       id="polyline14812"
       style="fill:none;stroke:#000000;stroke-width:0.7604475"
       transform="translate(0,32.601092)" />
    <text
       x="904.33698"
       y="664.07098"
       font-size="12"
       baseline-shift="-12"
       id="text14814"
       style="font-style:normal;font-variant:normal;font-weight:normal;font-stretch:normal;font-size:26.62631347px;font-family:sans-serif;-inkscape-font-specification:sans-serif;baseline-shift:-12px;text-anchor:middle;fill:#000000;">30.0</text>
    <polyline
       points="962.391,629.467 962.391,624.459"
       id="polyline14816"
       style="fill:none;stroke:#000000;stroke-width:0.7604475" />
    <text
       x="962.39099"
       y="664.07098"
       font-size="12"
       baseline-shift="-12"
       id="text14818"
       style="font-style:normal;font-variant:normal;font-weight:normal;font-stretch:normal;font-size:26.62631347px;font-family:sans-serif;-inkscape-font-specification:sans-serif;baseline-shift:-12px;text-anchor:middle;fill:#000000;">32.0</text>
    <polyline
       points="1019.44,629.467 1019.44,624.459"
       id="polyline14820"
       style="fill:none;stroke:#000000;stroke-width:0.7604475" />
    <text
       x="1019.44"
       y="664.07098"
       font-size="12"
       baseline-shift="-12"
       id="text14822"
       style="font-style:normal;font-variant:normal;font-weight:normal;font-stretch:normal;font-size:26.62631347px;font-family:sans-serif;-inkscape-font-specification:sans-serif;baseline-shift:-12px;text-anchor:middle;fill:#000000;">34.0</text>
    <polygon
       points="929.361,58.59 1060.48,58.59 929.361,19.53 "
       id="polygon14824"
       style="fill:#ffffff"
       transform="translate(-52.191673,0)" />
    <polygon
       points="1060.48,58.59 1060.48,19.53 929.361,19.53 "
       id="polygon14826"
       style="fill:#ffffff"
       transform="translate(-52.191673,0)" />
    <polyline
       points="929.361,58.59 1060.48,58.59 1060.48,19.53 929.361,19.53 929.361,58.59"
       id="polyline14828"
       style="fill:none;stroke:#000000;stroke-width:0.69458497;stroke-miterlimit:4;stroke-dasharray:none"
       transform="matrix(2.223659,0,0,1.6521261,-1322.7832,-14.971329)" />
    <text
       x="798.63922"
       y="45.249817"
       font-size="12"
       baseline-shift="0"
       id="text14830"
       style="font-style:normal;font-variant:normal;font-weight:normal;font-stretch:normal;font-size:26.62631416px;font-family:sans-serif;-inkscape-font-specification:sans-serif;baseline-shift:0px;text-anchor:start;fill:#000000">Flux - standalone</text>
    <polyline
       points="934.365,30.5469 956.386,30.5469"
       id="polyline14832"
       style="fill:none;stroke:#000000;stroke-width:2.21695042;stroke-miterlimit:4;stroke-dasharray:8.86780137, 4.43390069;stroke-dashoffset:0"
       transform="matrix(1.2010335,0,0,1.2010335,-364.91303,2.5526755)" />
    <text
       x="798.63922"
       y="68.796143"
       font-size="12"
       baseline-shift="0"
       id="text14834"
       style="font-style:normal;font-variant:normal;font-weight:normal;font-stretch:normal;font-size:26.62631416px;font-family:sans-serif;-inkscape-font-specification:sans-serif;baseline-shift:0px;text-anchor:start;fill:#000000">Flux - coupled</text>
    <polyline
       points="934.365,47.5731 956.386,47.5731"
       id="polyline14836"
       style="fill:none;stroke:#e2191c;stroke-width:1.96968067;stroke-miterlimit:4;stroke-dasharray:none;stroke-dashoffset:0"
       transform="matrix(1.3518086,0,0,1.3518086,-508.25712,-5.2934991)" />
  </g>
  <text
     xml:space="preserve"
     style="font-style:normal;font-weight:normal;font-size:25px;line-height:125%;font-family:sans-serif;letter-spacing:0px;word-spacing:0px;writing-mode:lr-tb;fill:#000000;fill-opacity:1;stroke:none;stroke-width:1px;stroke-linecap:butt;stroke-linejoin:miter;stroke-opacity:1;shape-rendering:crispEdges"
     x="474.44614"
     y="645.63196"
     id="text14075-6"
     sodipodi:linespacing="125%"
     transform="matrix(0.9999969,-0.00251863,0.00251862,0.99999675,0,0)"><tspan
       sodipodi:role="line"
       id="tspan14077-0"
       x="474.44614"
       y="645.63196"
       style="font-size:25px">Axial position [cm]</tspan></text>
  <text
     xml:space="preserve"
     style="font-style:normal;font-weight:normal;font-size:25px;line-height:125%;font-family:sans-serif;letter-spacing:0px;word-spacing:0px;writing-mode:lr-tb;fill:#000000;fill-opacity:1;stroke:none;stroke-width:1px;stroke-linecap:butt;stroke-linejoin:miter;stroke-opacity:1;shape-rendering:crispEdges"
     x="-397.71014"
     y="36.648357"
     id="text14075"
     sodipodi:linespacing="125%"
     transform="matrix(0.00160269,-0.99999879,0.99999864,0.00160269,0,0)"><tspan
       sodipodi:role="line"
       id="tspan14077"
       x="-397.71014"
       y="36.648357"
       style="font-size:25px">Relative flux [ϕ/ϕ<tspan
   style="font-size:25px;baseline-shift:sub"
   id="tspan14109">R</tspan>]</tspan></text>
</svg>
