<?xml version="1.0" encoding="UTF-8" standalone="no"?>
<svg
   xmlns:dc="http://purl.org/dc/elements/1.1/"
   xmlns:cc="http://creativecommons.org/ns#"
   xmlns:rdf="http://www.w3.org/1999/02/22-rdf-syntax-ns#"
   xmlns:svg="http://www.w3.org/2000/svg"
   xmlns="http://www.w3.org/2000/svg"
   xmlns:sodipodi="http://sodipodi.sourceforge.net/DTD/sodipodi-0.dtd"
   xmlns:inkscape="http://www.inkscape.org/namespaces/inkscape"
   width="1080px"
   height="651px"
   viewBox="0 0 1080 651"
   id="svg13344"
   version="1.1"
   inkscape:version="0.91 r13725"
   sodipodi:docname="diff_flux_2_x_work.svg">
  <metadata
     id="metadata13512">
    <rdf:RDF>
      <cc:Work
         rdf:about="">
        <dc:format>image/svg+xml</dc:format>
        <dc:type
           rdf:resource="http://purl.org/dc/dcmitype/StillImage" />
        <dc:title>ParaView GL2PS Export</dc:title>
      </cc:Work>
    </rdf:RDF>
  </metadata>
  <sodipodi:namedview
     pagecolor="#ffffff"
     bordercolor="#666666"
     borderopacity="1"
     objecttolerance="10"
     gridtolerance="10"
     guidetolerance="10"
     inkscape:pageopacity="0"
     inkscape:pageshadow="2"
     inkscape:window-width="1600"
     inkscape:window-height="853"
     id="namedview13510"
     showgrid="false"
     inkscape:zoom="0.87885424"
     inkscape:cx="497.71312"
     inkscape:cy="357.42645"
     inkscape:window-x="897"
     inkscape:window-y="267"
     inkscape:window-maximized="1"
     inkscape:current-layer="svg13344" />
  <title
     id="title13346">ParaView GL2PS Export</title>
  <desc
     id="desc13348">
Creator: GL2PS 1.3.9, (C) 1999-2015 C. Geuzaine
For: VTK
CreationDate: Thu Oct  6 19:14:03 2016
</desc>
  <defs
     id="defs13350" />
  <polygon
     points="0,0 1080,0 1080,651 0,651"
     id="polygon13352"
     fill="#ffffff" />
  <g
     id="g13354"
     transform="matrix(0.9398159,0,0,0.94846711,78.580409,-8.9790525)"
     style="shape-rendering:crispEdges">
    <polyline
       points="51.5478,624.459 51.5478,19.53"
       id="polyline13356"
       style="fill:none;stroke:#f2f2f2;stroke-width:0.7562505" />
    <polyline
       points="157.646,624.459 157.646,19.53"
       id="polyline13358"
       style="fill:none;stroke:#f2f2f2;stroke-width:0.7562505" />
    <polyline
       points="263.744,624.459 263.744,19.53"
       id="polyline13360"
       style="fill:none;stroke:#f2f2f2;stroke-width:0.7562505" />
    <polyline
       points="369.842,624.459 369.842,19.53"
       id="polyline13362"
       style="fill:none;stroke:#f2f2f2;stroke-width:0.7562505" />
    <polyline
       points="476.942,624.459 476.942,19.53"
       id="polyline13364"
       style="fill:none;stroke:#f2f2f2;stroke-width:0.7562505" />
    <polyline
       points="583.04,624.459 583.04,19.53"
       id="polyline13366"
       style="fill:none;stroke:#f2f2f2;stroke-width:0.7562505" />
    <polyline
       points="689.138,624.459 689.138,19.53"
       id="polyline13368"
       style="fill:none;stroke:#f2f2f2;stroke-width:0.7562505" />
    <polyline
       points="795.236,624.459 795.236,19.53"
       id="polyline13370"
       style="fill:none;stroke:#f2f2f2;stroke-width:0.7562505" />
    <polyline
       points="901.335,624.459 901.335,19.53"
       id="polyline13372"
       style="fill:none;stroke:#f2f2f2;stroke-width:0.7562505" />
    <polyline
       points="1008.43,624.459 1008.43,19.53"
       id="polyline13374"
       style="fill:none;stroke:#f2f2f2;stroke-width:0.7562505" />
    <polyline
       points="39.5366,601.424 1060.48,601.424"
       id="polyline13376"
       style="fill:none;stroke:#f2f2f2;stroke-width:0.7562505" />
    <polyline
       points="39.5366,549.344 1060.48,549.344"
       id="polyline13378"
       style="fill:none;stroke:#f2f2f2;stroke-width:0.7562505" />
    <polyline
       points="39.5366,497.264 1060.48,497.264"
       id="polyline13380"
       style="fill:none;stroke:#f2f2f2;stroke-width:0.7562505" />
    <polyline
       points="39.5366,445.184 1060.48,445.184"
       id="polyline13382"
       style="fill:none;stroke:#f2f2f2;stroke-width:0.7562505" />
    <polyline
       points="39.5366,393.104 1060.48,393.104"
       id="polyline13384"
       style="fill:none;stroke:#f2f2f2;stroke-width:0.7562505" />
    <polyline
       points="39.5366,341.024 1060.48,341.024"
       id="polyline13386"
       style="fill:none;stroke:#f2f2f2;stroke-width:0.7562505" />
    <polyline
       points="39.5366,288.944 1060.48,288.944"
       id="polyline13388"
       style="fill:none;stroke:#f2f2f2;stroke-width:0.7562505" />
    <polyline
       points="39.5366,236.864 1060.48,236.864"
       id="polyline13390"
       style="fill:none;stroke:#f2f2f2;stroke-width:0.7562505" />
    <polyline
       points="39.5366,184.784 1060.48,184.784"
       id="polyline13392"
       style="fill:none;stroke:#f2f2f2;stroke-width:0.7562505" />
    <polyline
       points="39.5366,132.704 1060.48,132.704"
       id="polyline13394"
       style="fill:none;stroke:#f2f2f2;stroke-width:0.7562505" />
    <polyline
       points="39.5366,80.6238 1060.48,80.6238"
       id="polyline13396"
       style="fill:none;stroke:#f2f2f2;stroke-width:0.7562505" />
    <polyline
       points="39.5366,28.5439 1060.48,28.5439"
       id="polyline13398"
       style="fill:none;stroke:#f2f2f2;stroke-width:0.7562505" />
    <polyline
       points="51.9845,589.814 61.7622,589.814 71.54,584.873 81.3177,584.873 91.0955,578.186 100.873,570.435 110.651,561.714 120.429,552.121 130.206,533.709 139.984,518.98 149.762,512.197 159.54,505.704 169.317,484.484 179.095,470.239 188.873,433.514 198.651,412.681 208.428,395.725 218.206,372.76 227.984,345.239 237.762,326.441 247.539,326.441 257.317,300.956 267.095,270.917 276.873,245.239 286.65,245.239 296.428,225.857 306.206,225.857 315.984,200.762 325.761,200.762 335.539,177.214 345.317,177.214 355.094,151.246 364.872,151.246 374.65,151.246 384.428,124.792 394.205,124.792 403.983,124.792 413.761,99.0156 423.539,99.0156 433.316,99.0156 443.094,75.6633 452.872,75.6633 462.65,75.6633 472.427,57.6402 482.205,57.6402 491.983,57.6402 501.761,57.6402 511.538,46.9816 521.316,46.9816 531.094,47.4646 540.872,46.9816 550.649,46.9816 560.427,46.9816 570.205,46.9816 579.983,54.9271 589.76,54.9271 599.538,54.9271 609.316,54.9271 619.094,71.8835 628.871,71.8835 638.649,71.8835 648.427,94.5592 658.204,94.5592 667.982,94.5592 677.76,113.552 687.538,113.552 697.315,113.552 707.093,137.389 716.871,137.389 726.649,137.389 736.426,174.598 746.204,174.598 755.982,198.823 765.76,198.823 775.537,223.63 785.315,223.63 795.093,247.466 804.871,247.466 814.648,272.855 824.426,299.211 834.204,328.572 843.982,328.572 853.759,350.762 863.537,372.081 873.315,391.363 883.093,409.871 892.87,428.67 902.648,469.561 912.426,482.255 922.204,505.414 931.981,512.003 941.759,518.884 951.537,533.612 961.315,551.829 971.092,561.326 980.87,570.047 990.648,577.701 1000.43,584.387 1010.2,584.387 1019.98,589.234 1029.76,589.234"
       id="polyline13400"
       style="fill:none;stroke:#000000;stroke-width:2.1183486;stroke-miterlimit:4;stroke-dasharray:11.86750005, 11.86750005;stroke-dashoffset:0" />
    <polyline
       points="51.9845,575.376 61.7622,575.376 71.54,570.435 81.3177,570.435 91.0955,563.748 100.873,555.997 110.651,547.276 120.429,537.78 130.206,519.466 139.984,504.737 149.762,497.857 159.54,491.364 169.317,470.239 179.095,456.19 188.873,420.144 198.651,399.987 208.428,383.709 218.206,361.906 227.984,336.034 237.762,318.591 247.539,318.591 257.317,295.239 267.095,268.301 276.873,245.626 286.65,245.626 296.428,228.862 306.206,228.862 315.984,207.544 325.761,207.544 335.539,187.971 345.317,187.971 355.094,166.943 364.872,166.943 374.65,166.943 384.428,146.013 394.205,146.013 403.983,146.013 413.761,126.245 423.539,126.245 433.316,126.245 443.094,108.803 452.872,108.803 462.65,108.803 472.427,95.5289 482.205,95.5289 491.983,95.5289 501.761,95.5289 511.538,87.2904 521.316,87.2904 531.094,87.8727 540.872,87.1935 550.649,87.1935 560.427,87.1935 570.205,87.1935 579.983,93.2989 589.76,93.2989 599.538,93.2989 609.316,93.2989 619.094,106.089 628.871,106.089 638.649,106.089 648.427,123.241 658.204,123.241 667.982,123.241 677.76,137.97 687.538,137.97 697.315,137.97 707.093,156.866 716.871,156.866 726.649,156.866 736.426,187.001 746.204,187.001 755.982,207.253 765.76,207.253 775.537,228.377 785.315,228.377 795.093,249.115 804.871,249.115 814.648,271.595 824.426,295.239 834.204,321.982 843.982,321.982 853.759,342.623 863.537,362.681 873.315,380.996 883.093,398.728 892.87,416.848 902.648,456.966 912.426,469.561 922.204,492.528 931.981,499.214 941.759,506.093 951.537,520.725 961.315,538.942 971.092,548.341 980.87,556.965 990.648,564.621 1000.43,571.307 1010.2,571.307 1019.98,576.151 1029.76,576.151"
       id="polyline13402"
       style="fill:none;stroke:#e2191c;stroke-width:2.1183486;stroke-miterlimit:4;stroke-dasharray:none" />
    <polyline
       points="39.5366,624.459 39.5366,19.53"
       id="polyline13404"
       style="fill:none;stroke:#000000;stroke-width:0.7562505" />
    <polyline
       points="34.532,601.424 39.5366,601.424"
       id="polyline13406"
       style="fill:none;stroke:#000000;stroke-width:0.7562505" />
    <text
       x="32.530102"
       y="601.42401"
       font-size="12"
       baseline-shift="-6"
       id="text13408"
       style="font-size:26.47935956px;font-family:sans-serif;baseline-shift:-6px;text-anchor:end;fill:#000000;-inkscape-font-specification:sans-serif;font-weight:normal;font-style:normal;font-stretch:normal;font-variant:normal;">5.46</text>
    <polyline
       points="34.532,549.344 39.5366,549.344"
       id="polyline13410"
       style="fill:none;stroke:#000000;stroke-width:0.7562505" />
    <text
       x="32.530102"
       y="549.34399"
       font-size="12"
       baseline-shift="-6"
       id="text13412"
       style="font-size:26.47935956px;font-family:sans-serif;baseline-shift:-6px;text-anchor:end;fill:#000000;-inkscape-font-specification:sans-serif;font-weight:normal;font-style:normal;font-stretch:normal;font-variant:normal;">5.48</text>
    <polyline
       points="34.532,497.264 39.5366,497.264"
       id="polyline13414"
       style="fill:none;stroke:#000000;stroke-width:0.7562505" />
    <text
       x="32.530102"
       y="497.26401"
       font-size="12"
       baseline-shift="-6"
       id="text13416"
       style="font-size:26.47935956px;font-family:sans-serif;baseline-shift:-6px;text-anchor:end;fill:#000000;-inkscape-font-specification:sans-serif;font-weight:normal;font-style:normal;font-stretch:normal;font-variant:normal;">5.5</text>
    <polyline
       points="34.532,445.184 39.5366,445.184"
       id="polyline13418"
       style="fill:none;stroke:#000000;stroke-width:0.7562505" />
    <text
       x="32.530102"
       y="445.18399"
       font-size="12"
       baseline-shift="-6"
       id="text13420"
       style="font-size:26.47935956px;font-family:sans-serif;baseline-shift:-6px;text-anchor:end;fill:#000000;-inkscape-font-specification:sans-serif;font-weight:normal;font-style:normal;font-stretch:normal;font-variant:normal;">5.52</text>
    <polyline
       points="34.532,393.104 39.5366,393.104"
       id="polyline13422"
       style="fill:none;stroke:#000000;stroke-width:0.7562505" />
    <text
       x="32.530102"
       y="393.104"
       font-size="12"
       baseline-shift="-6"
       id="text13424"
       style="font-size:26.47935956px;font-family:sans-serif;baseline-shift:-6px;text-anchor:end;fill:#000000;-inkscape-font-specification:sans-serif;font-weight:normal;font-style:normal;font-stretch:normal;font-variant:normal;">5.54</text>
    <polyline
       points="34.532,341.024 39.5366,341.024"
       id="polyline13426"
       style="fill:none;stroke:#000000;stroke-width:0.7562505" />
    <text
       x="32.530102"
       y="341.02399"
       font-size="12"
       baseline-shift="-6"
       id="text13428"
       style="font-size:26.47935956px;font-family:sans-serif;baseline-shift:-6px;text-anchor:end;fill:#000000;-inkscape-font-specification:sans-serif;font-weight:normal;font-style:normal;font-stretch:normal;font-variant:normal;">5.56</text>
    <polyline
       points="34.532,288.944 39.5366,288.944"
       id="polyline13430"
       style="fill:none;stroke:#000000;stroke-width:0.7562505" />
    <text
       x="32.530102"
       y="288.944"
       font-size="12"
       baseline-shift="-6"
       id="text13432"
       style="font-size:26.47935956px;font-family:sans-serif;baseline-shift:-6px;text-anchor:end;fill:#000000;-inkscape-font-specification:sans-serif;font-weight:normal;font-style:normal;font-stretch:normal;font-variant:normal;">5.58</text>
    <polyline
       points="34.532,236.864 39.5366,236.864"
       id="polyline13434"
       style="fill:none;stroke:#000000;stroke-width:0.7562505" />
    <text
       x="32.530102"
       y="236.864"
       font-size="12"
       baseline-shift="-6"
       id="text13436"
       style="font-size:26.47935956px;font-family:sans-serif;baseline-shift:-6px;text-anchor:end;fill:#000000;-inkscape-font-specification:sans-serif;font-weight:normal;font-style:normal;font-stretch:normal;font-variant:normal;">5.6</text>
    <polyline
       points="34.532,184.784 39.5366,184.784"
       id="polyline13438"
       style="fill:none;stroke:#000000;stroke-width:0.7562505" />
    <text
       x="32.530102"
       y="184.784"
       font-size="12"
       baseline-shift="-6"
       id="text13440"
       style="font-size:26.47935956px;font-family:sans-serif;baseline-shift:-6px;text-anchor:end;fill:#000000;-inkscape-font-specification:sans-serif;font-weight:normal;font-style:normal;font-stretch:normal;font-variant:normal;">5.62</text>
    <polyline
       points="34.532,132.704 39.5366,132.704"
       id="polyline13442"
       style="fill:none;stroke:#000000;stroke-width:0.7562505" />
    <text
       x="32.530102"
       y="132.70399"
       font-size="12"
       baseline-shift="-6"
       id="text13444"
       style="font-size:26.47935956px;font-family:sans-serif;baseline-shift:-6px;text-anchor:end;fill:#000000;-inkscape-font-specification:sans-serif;font-weight:normal;font-style:normal;font-stretch:normal;font-variant:normal;">5.64</text>
    <polyline
       points="34.532,80.6238 39.5366,80.6238"
       id="polyline13446"
       style="fill:none;stroke:#000000;stroke-width:0.7562505" />
    <text
       x="32.530102"
       y="80.623802"
       font-size="12"
       baseline-shift="-6"
       id="text13448"
       style="font-size:26.47935956px;font-family:sans-serif;baseline-shift:-6px;text-anchor:end;fill:#000000;-inkscape-font-specification:sans-serif;font-weight:normal;font-style:normal;font-stretch:normal;font-variant:normal;">5.66</text>
    <polyline
       points="34.532,28.5439 39.5366,28.5439"
       id="polyline13450"
       style="fill:none;stroke:#000000;stroke-width:0.7562505" />
    <polyline
       points="39.5366,624.459 1060.48,624.459"
       id="polyline13454"
       style="fill:none;stroke:#000000;stroke-width:0.7562505" />
    <polyline
       points="51.5478,629.467 51.5478,624.459"
       id="polyline13456"
       style="fill:none;stroke:#000000;stroke-width:0.7562505" />
    <text
       x="51.547798"
       y="664.71631"
       font-size="12"
       baseline-shift="-12"
       id="text13458"
       style="font-size:26.47935956px;font-family:sans-serif;baseline-shift:-12px;text-anchor:middle;fill:#000000;-inkscape-font-specification:sans-serif;font-weight:normal;font-style:normal;font-stretch:normal;font-variant:normal;">0</text>
    <polyline
       points="157.646,629.467 157.646,624.459"
       id="polyline13460"
       style="fill:none;stroke:#000000;stroke-width:0.7562505" />
    <text
       x="157.646"
       y="664.71631"
       font-size="12"
       baseline-shift="-12"
       id="text13462"
       style="font-size:26.47935956px;font-family:sans-serif;baseline-shift:-12px;text-anchor:middle;fill:#000000;-inkscape-font-specification:sans-serif;font-weight:normal;font-style:normal;font-stretch:normal;font-variant:normal;">0.5</text>
    <polyline
       points="263.744,629.467 263.744,624.459"
       id="polyline13464"
       style="fill:none;stroke:#000000;stroke-width:0.7562505" />
    <text
       x="263.74399"
       y="664.71631"
       font-size="12"
       baseline-shift="-12"
       id="text13466"
       style="font-size:26.47935956px;font-family:sans-serif;baseline-shift:-12px;text-anchor:middle;fill:#000000;-inkscape-font-specification:sans-serif;font-weight:normal;font-style:normal;font-stretch:normal;font-variant:normal;">1.0</text>
    <polyline
       points="369.842,629.467 369.842,624.459"
       id="polyline13468"
       style="fill:none;stroke:#000000;stroke-width:0.7562505" />
    <text
       x="369.84201"
       y="664.71631"
       font-size="12"
       baseline-shift="-12"
       id="text13470"
       style="font-size:26.47935956px;font-family:sans-serif;baseline-shift:-12px;text-anchor:middle;fill:#000000;-inkscape-font-specification:sans-serif;font-weight:normal;font-style:normal;font-stretch:normal;font-variant:normal;">1.5</text>
    <polyline
       points="476.942,629.467 476.942,624.459"
       id="polyline13472"
       style="fill:none;stroke:#000000;stroke-width:0.7562505" />
    <text
       x="476.94199"
       y="664.71631"
       font-size="12"
       baseline-shift="-12"
       id="text13474"
       style="font-size:26.47935956px;font-family:sans-serif;baseline-shift:-12px;text-anchor:middle;fill:#000000;-inkscape-font-specification:sans-serif;font-weight:normal;font-style:normal;font-stretch:normal;font-variant:normal;">2.0</text>
    <polyline
       points="583.04,629.467 583.04,624.459"
       id="polyline13476"
       style="fill:none;stroke:#000000;stroke-width:0.7562505" />
    <text
       x="583.03998"
       y="664.71631"
       font-size="12"
       baseline-shift="-12"
       id="text13478"
       style="font-size:26.47935956px;font-family:sans-serif;baseline-shift:-12px;text-anchor:middle;fill:#000000;-inkscape-font-specification:sans-serif;font-weight:normal;font-style:normal;font-stretch:normal;font-variant:normal;">2.5</text>
    <polyline
       points="689.138,629.467 689.138,624.459"
       id="polyline13480"
       style="fill:none;stroke:#000000;stroke-width:0.7562505" />
    <text
       x="689.138"
       y="664.71631"
       font-size="12"
       baseline-shift="-12"
       id="text13482"
       style="font-size:26.47935956px;font-family:sans-serif;baseline-shift:-12px;text-anchor:middle;fill:#000000;-inkscape-font-specification:sans-serif;font-weight:normal;font-style:normal;font-stretch:normal;font-variant:normal;">3.0</text>
    <polyline
       points="795.236,629.467 795.236,624.459"
       id="polyline13484"
       style="fill:none;stroke:#000000;stroke-width:0.7562505" />
    <text
       x="795.23602"
       y="664.71631"
       font-size="12"
       baseline-shift="-12"
       id="text13486"
       style="font-size:26.47935956px;font-family:sans-serif;baseline-shift:-12px;text-anchor:middle;fill:#000000;-inkscape-font-specification:sans-serif;font-weight:normal;font-style:normal;font-stretch:normal;font-variant:normal;">3.5</text>
    <polyline
       points="901.335,629.467 901.335,624.459"
       id="polyline13488"
       style="fill:none;stroke:#000000;stroke-width:0.7562505" />
    <text
       x="901.33502"
       y="664.71631"
       font-size="12"
       baseline-shift="-12"
       id="text13490"
       style="font-size:26.47935956px;font-family:sans-serif;baseline-shift:-12px;text-anchor:middle;fill:#000000;-inkscape-font-specification:sans-serif;font-weight:normal;font-style:normal;font-stretch:normal;font-variant:normal;">4.0</text>
    <polyline
       points="1008.43,629.467 1008.43,624.459"
       id="polyline13492"
       style="fill:none;stroke:#000000;stroke-width:0.7562505" />
    <text
       x="1008.43"
       y="664.71631"
       font-size="12"
       baseline-shift="-12"
       id="text13494"
       style="font-size:26.47935956px;font-family:sans-serif;baseline-shift:-12px;text-anchor:middle;fill:#000000;-inkscape-font-specification:sans-serif;font-weight:normal;font-style:normal;font-stretch:normal;font-variant:normal;">4.5</text>
    <polygon
       points="929.361,58.59 1060.48,58.59 929.361,19.53 "
       id="polygon13496"
       style="fill:#ffffff"
       transform="translate(-65.572472,14.416276)" />
    <polygon
       points="1060.48,58.59 1060.48,19.53 929.361,19.53 "
       id="polygon13498"
       style="fill:#ffffff"
       transform="translate(-65.572472,14.416276)" />
    <polyline
       points="929.361,58.59 1060.48,58.59 1060.48,19.53 929.361,19.53 929.361,58.59"
       id="polyline13500"
       style="fill:none;stroke:#000000;stroke-width:0.49664173;stroke-miterlimit:4;stroke-dasharray:none"
       transform="matrix(2.3555354,0,0,1.9308961,-1457.3169,-18.175798)" />
    <text
       x="791.66925"
       y="48.913002"
       font-size="12"
       baseline-shift="0"
       id="text13502"
       style="font-style:normal;font-variant:normal;font-weight:normal;font-stretch:normal;font-size:26.47935867px;font-family:sans-serif;-inkscape-font-specification:sans-serif;baseline-shift:0px;text-anchor:start;fill:#000000">Flux - standalone</text>
    <polyline
       points="934.365,30.5469 956.386,30.5469"
       id="polyline13504"
       style="fill:none;stroke:#000000;stroke-width:1.16461921;stroke-miterlimit:4;stroke-dasharray:6.52447776, 6.52447776;stroke-dashoffset:0"
       transform="matrix(1.8189195,0,0,1.8189195,-950.92349,-12.658645)" />
    <text
       x="791.66925"
       y="76.236458"
       font-size="12"
       baseline-shift="0"
       id="text13506"
       style="font-style:normal;font-variant:normal;font-weight:normal;font-stretch:normal;font-size:26.47935867px;font-family:sans-serif;-inkscape-font-specification:sans-serif;baseline-shift:0px;text-anchor:start;fill:#000000">Flux - coupled</text>
    <polyline
       points="934.365,47.5731 956.386,47.5731"
       id="polyline13508"
       style="fill:none;stroke:#e2191c;stroke-width:1.20331645;stroke-miterlimit:4;stroke-dasharray:none;stroke-dashoffset:0"
       transform="matrix(1.7604253,0,0,1.7604253,-894.98041,-13.52164)" />
    <text
       xml:space="preserve"
       style="font-style:normal;font-weight:normal;font-size:26.47935867px;line-height:125%;font-family:sans-serif;letter-spacing:0px;word-spacing:0px;writing-mode:lr-tb;fill:#000000;fill-opacity:1;stroke:none;stroke-width:1px;stroke-linecap:butt;stroke-linejoin:miter;stroke-opacity:1"
       x="-416.59338"
       y="-38.875477"
       id="text14075"
       sodipodi:linespacing="125%"
       transform="matrix(0.00161005,-0.99542772,1.0045907,0.00159536,0,0)"><tspan
         sodipodi:role="line"
         id="tspan14077"
         x="-416.59338"
         y="-38.875477"
         style="font-size:26.47935867px">Relative flux [ϕ/ϕ<tspan
   style="font-size:26.47935867px;baseline-shift:sub"
   id="tspan14109">R</tspan>]</tspan></text>
  </g>
  <text
     xml:space="preserve"
     style="font-style:normal;font-weight:normal;font-size:25px;line-height:125%;font-family:sans-serif;letter-spacing:0px;word-spacing:0px;writing-mode:lr-tb;fill:#000000;fill-opacity:1;stroke:none;stroke-width:1px;stroke-linecap:butt;stroke-linejoin:miter;stroke-opacity:1;shape-rendering:crispEdges"
     x="450.53735"
     y="641.28131"
     id="text14075-6"
     sodipodi:linespacing="125%"
     transform="matrix(0.9999969,-0.00251863,0.00251862,0.99999675,0,0)"><tspan
       sodipodi:role="line"
       id="tspan14077-0"
       x="450.53735"
       y="641.28131"
       style="font-size:25px">Radial position [cm]</tspan></text>
</svg>
