<?xml version="1.0" encoding="UTF-8" standalone="no"?>
<svg xmlns="http://www.w3.org/2000/svg"
     xmlns:xlink="http://www.w3.org/1999/xlink"
     width="1080px" height="651px" viewBox="0 0 1080 651">
<title>fluxo em x portugues</title>
<desc>
Creator: GL2PS 1.3.9, (C) 1999-2015 C. Geuzaine
For: VTK
CreationDate: Thu Oct  6 16:46:37 2016
</desc>
<defs>
</defs>
<polygon fill="#ffffff" points="0,0 1080,0 1080,651 0,651"/>
<g shape-rendering="crispEdges">
<polyline fill="none" stroke="#f2f2f2" stroke-width="0.7" points="75.57,608.435 75.57,19.53"/>
<polyline fill="none" stroke="#f2f2f2" stroke-width="0.7" points="174.662,608.435 174.662,19.53"/>
<polyline fill="none" stroke="#f2f2f2" stroke-width="0.7" points="273.753,608.435 273.753,19.53"/>
<polyline fill="none" stroke="#f2f2f2" stroke-width="0.7" points="372.845,608.435 372.845,19.53"/>
<polyline fill="none" stroke="#f2f2f2" stroke-width="0.7" points="471.937,608.435 471.937,19.53"/>
<polyline fill="none" stroke="#f2f2f2" stroke-width="0.7" points="571.029,608.435 571.029,19.53"/>
<polyline fill="none" stroke="#f2f2f2" stroke-width="0.7" points="670.121,608.435 670.121,19.53"/>
<polyline fill="none" stroke="#f2f2f2" stroke-width="0.7" points="769.212,608.435 769.212,19.53"/>
<polyline fill="none" stroke="#f2f2f2" stroke-width="0.7" points="868.304,608.435 868.304,19.53"/>
<polyline fill="none" stroke="#f2f2f2" stroke-width="0.7" points="966.395,608.435 966.395,19.53"/>
<polyline fill="none" stroke="#f2f2f2" stroke-width="0.7" points="56.5524,608.435 1060.48,608.435"/>
<polyline fill="none" stroke="#f2f2f2" stroke-width="0.7" points="56.5524,555.353 1060.48,555.353"/>
<polyline fill="none" stroke="#f2f2f2" stroke-width="0.7" points="56.5524,502.272 1060.48,502.272"/>
<polyline fill="none" stroke="#f2f2f2" stroke-width="0.7" points="56.5524,449.19 1060.48,449.19"/>
<polyline fill="none" stroke="#f2f2f2" stroke-width="0.7" points="56.5524,395.107 1060.48,395.107"/>
<polyline fill="none" stroke="#f2f2f2" stroke-width="0.7" points="56.5524,342.025 1060.48,342.025"/>
<polyline fill="none" stroke="#f2f2f2" stroke-width="0.7" points="56.5524,288.944 1060.48,288.944"/>
<polyline fill="none" stroke="#f2f2f2" stroke-width="0.7" points="56.5524,235.862 1060.48,235.862"/>
<polyline fill="none" stroke="#f2f2f2" stroke-width="0.7" points="56.5524,181.779 1060.48,181.779"/>
<polyline fill="none" stroke="#f2f2f2" stroke-width="0.7" points="56.5524,128.698 1060.48,128.698"/>
<polyline fill="none" stroke="#f2f2f2" stroke-width="0.7" points="56.5524,75.6162 1060.48,75.6162"/>
<polyline fill="none" stroke="#f2f2f2" stroke-width="0.7" points="56.5524,22.5347 1060.48,22.5347"/>
<polyline fill="none" stroke="#e2191c" stroke-width="1.4" points="76.2737,584.313 85.3824,584.313 94.4911,579.27 103.6,579.27 112.709,572.449 121.817,564.539 130.926,555.639 140.035,545.949 149.143,527.261 158.252,512.233 167.361,505.213 176.47,498.588 185.578,477.033 194.687,462.696 203.796,425.914 212.904,405.348 222.013,388.738 231.122,366.49 240.23,340.09 249.339,322.293 258.448,322.293 267.557,298.462 276.665,270.975 285.774,247.839 294.883,247.839 303.991,230.733 313.1,230.733 322.209,208.98 331.318,208.98 340.426,189.008 349.535,189.008 358.644,167.552 367.753,167.552 376.861,167.552 385.97,146.195 395.079,146.195 404.187,146.195 413.296,126.025 422.405,126.025 431.513,126.025 440.622,108.226 449.731,108.226 458.84,108.226 467.948,94.6796 477.057,94.6796 486.166,94.6796 495.274,94.6796 504.383,86.2759 513.492,86.2759 522.601,86.8694 531.709,86.1779 540.818,86.1779 549.927,86.1779 559.035,86.1779 568.144,92.4073 577.253,92.4073 586.362,92.4073 595.47,92.4073 604.579,105.459 613.688,105.459 622.796,105.459 631.905,122.959 641.014,122.959 650.123,122.959 659.231,137.988 668.34,137.988 677.449,137.988 686.557,157.269 695.666,157.269 704.775,157.269 713.884,188.02 722.992,188.02 732.101,208.684 741.21,208.684 750.318,230.239 759.427,230.239 768.536,251.399 777.645,251.399 786.753,274.338 795.862,298.462 804.971,325.753 814.079,325.753 823.188,346.815 832.297,367.281 841.406,385.969 850.514,404.063 859.623,422.552 868.732,463.487 877.84,476.341 886.949,499.774 896.058,506.596 905.167,513.616 914.275,528.548 923.384,547.137 932.493,556.728 941.601,565.526 950.71,573.338 959.819,580.161 968.927,580.161 978.036,585.104 987.145,585.104"/>
<polyline fill="none" stroke="#000000" stroke-width="1.4" stroke-dasharray="8,8" points="76.2737,599.047 85.3824,599.047 94.4911,594.003 103.6,594.003 112.709,587.181 121.817,579.27 130.926,570.371 140.035,560.583 149.143,541.796 158.252,526.767 167.361,519.846 176.47,513.221 185.578,491.568 194.687,477.033 203.796,439.559 212.904,418.301 222.013,400.997 231.122,377.564 240.23,349.483 249.339,330.3 258.448,330.3 267.557,304.297 276.665,273.645 285.774,247.443 294.883,247.443 303.991,227.669 313.1,227.669 322.209,202.059 331.318,202.059 340.426,178.033 349.535,178.033 358.644,151.534 367.753,151.534 376.861,151.534 385.97,124.541 395.079,124.541 404.187,124.541 413.296,98.2396 422.405,98.2396 431.513,98.2396 440.622,74.4116 449.731,74.4116 458.84,74.4116 467.948,56.0198 477.057,56.0198 486.166,56.0198 495.274,56.0198 504.383,45.1439 513.492,45.1439 522.601,45.6381 531.709,45.1439 540.818,45.1439 549.927,45.1439 559.035,45.1439 568.144,53.2509 577.253,53.2509 586.362,53.2509 595.47,53.2509 604.579,70.5549 613.688,70.5549 622.796,70.5549 631.905,93.6925 641.014,93.6925 650.123,93.6925 659.231,113.071 668.34,113.071 677.449,113.071 686.557,137.396 695.666,137.396 704.775,137.396 713.884,175.364 722.992,175.364 732.101,200.082 741.21,200.082 750.318,225.394 759.427,225.394 768.536,249.718 777.645,249.718 786.753,275.624 795.862,302.518 804.971,332.476 814.079,332.476 823.188,355.12 832.297,376.872 841.406,396.549 850.514,415.433 859.623,434.615 868.732,476.341 877.84,489.293 886.949,512.925 896.058,519.65 905.167,526.668 914.275,541.698 923.384,560.286 932.493,569.976 941.601,578.876 950.71,586.687 959.819,593.509 968.927,593.509 978.036,598.453 987.145,598.453"/>
<polyline fill="none" stroke="#000000" stroke-width="0.7" points="56.5524,608.435 56.5524,19.53"/>
<!--  Pathified string: Fluxo normalizado($\phi/\phi_{r}$) -->
<g transform="
     translate(21.52 313.98)
     scale(1.0 -1.0)
     rotate(0.00)"
   stroke="none"
   fill="rgb(0,0,0)"
   opacity="1.00"
>
  <path d="
    M -3.00 0.00
    L -2.00 0.00
    L -2.00 4.00
    L 1.48 4.00
    L 1.48 5.00
    L -2.00 5.00
    L -2.00 8.20
    L 1.61 8.20
    L 1.61 9.00
    L -3.00 9.00
    L -3.00 0.00
    M 3.00 0.00
    L 4.00 0.00
    L 4.00 9.00
    L 3.00 9.00
    L 3.00 0.00
    M 11.00 7.00
    L 10.00 7.00
    L 10.00 3.47
    C 10.00 2.62
      9.88 2.09
      9.61 1.67
    C 9.23 1.12
      8.66 0.81
      7.97 0.81
    C 7.23 0.81
      6.61 1.12
      6.31 1.69
    C 6.11 2.03
      6.00 2.58
      6.00 3.30
    L 6.00 7.00
    L 5.00 7.00
    L 5.00 3.31
    C 5.00 2.30
      5.17 1.59
      5.53 1.09
    C 6.05 0.38
      6.88 0.00
      7.89 0.00
    C 8.91 0.00
      9.56 0.36
      10.00 1.19
    L 10.00 0.00
    L 11.00 0.00
    L 11.00 7.00
    M 11.09 0.00
    L 12.11 0.00
    L 13.88 2.80
    L 15.64 0.00
    L 16.66 0.00
    L 14.38 3.58
    L 16.66 7.00
    L 15.64 7.00
    L 13.88 4.30
    L 12.11 7.00
    L 11.09 7.00
    L 13.38 3.58
    L 11.09 0.00
    M 20.52 7.00
    C 18.53 7.00
      17.00 5.50
      17.00 3.55
    C 17.00 1.48
      18.52 0.00
      20.59 0.00
    C 22.55 0.00
      24.00 1.48
      24.00 3.48
    C 24.00 5.52
      22.53 7.00
      20.52 7.00
    M 20.52 6.19
    C 21.94 6.19
      23.00 5.03
      23.00 3.47
    C 23.00 1.94
      21.98 0.81
      20.56 0.81
    C 19.06 0.81
      18.00 1.94
      18.00 3.52
    C 18.00 5.05
      19.08 6.19
      20.52 6.19
    M 29.00 0.00
    L 30.00 0.00
    L 30.00 3.78
    C 30.00 4.55
      30.09 4.95
      30.34 5.34
    C 30.69 5.88
      31.30 6.19
      31.98 6.19
    C 32.62 6.19
      33.22 5.91
      33.58 5.45
    C 33.88 5.02
      34.00 4.52
      34.00 3.61
    L 34.00 0.00
    L 35.00 0.00
    L 35.00 3.59
    C 35.00 4.73
      34.84 5.34
      34.41 5.94
    C 33.88 6.61
      33.05 7.00
      32.09 7.00
    C 31.23 7.00
      30.55 6.66
      30.00 5.98
    L 30.00 7.00
    L 29.00 7.00
    L 29.00 0.00
    M 38.52 7.00
    C 36.53 7.00
      35.00 5.50
      35.00 3.55
    C 35.00 1.48
      36.52 0.00
      38.59 0.00
    C 40.55 0.00
      42.00 1.48
      42.00 3.48
    C 42.00 5.52
      40.53 7.00
      38.52 7.00
    M 38.52 6.19
    C 39.94 6.19
      41.00 5.03
      41.00 3.47
    C 41.00 1.94
      39.98 0.81
      38.56 0.81
    C 37.06 0.81
      36.00 1.94
      36.00 3.52
    C 36.00 5.05
      37.08 6.19
      38.52 6.19
    M 44.00 0.00
    L 45.00 0.00
    L 45.00 4.08
    C 45.00 5.39
      45.62 6.11
      46.86 6.23
    L 46.86 7.00
    C 45.91 7.00
      45.34 6.69
      45.00 6.00
    L 45.00 7.00
    L 44.00 7.00
    L 44.00 0.00
    M 48.00 0.00
    L 49.00 0.00
    L 49.00 4.02
    C 49.00 5.39
      49.56 6.19
      50.50 6.19
    C 50.95 6.19
      51.38 5.97
      51.66 5.56
    C 51.91 5.20
      52.00 4.73
      52.00 4.02
    L 52.00 0.00
    L 53.00 0.00
    L 53.00 3.98
    C 53.00 4.64
      53.11 5.08
      53.36 5.41
    C 53.70 5.91
      54.33 6.19
      55.03 6.19
    C 55.69 6.19
      56.25 5.95
      56.59 5.53
    C 56.86 5.19
      57.00 4.67
      57.00 3.98
    L 57.00 0.00
    L 58.00 0.00
    L 58.00 4.06
    C 58.00 4.95
      57.83 5.55
      57.41 6.03
    C 56.89 6.66
      56.05 7.00
      55.09 7.00
    C 53.94 7.00
      53.14 6.59
      52.52 5.72
    C 52.05 6.61
      51.45 7.00
      50.56 7.00
    C 49.86 7.00
      49.42 6.75
      49.00 6.09
    L 49.00 7.00
    L 48.00 7.00
    L 48.00 0.00
    M 65.00 7.00
    L 64.00 7.00
    L 64.00 5.67
    C 63.38 6.59
      62.59 7.00
      61.48 7.00
    C 59.50 7.00
      58.00 5.48
      58.00 3.48
    C 58.00 1.48
      59.52 0.00
      61.55 0.00
    C 62.62 0.00
      63.33 0.38
      64.00 1.31
    L 64.00 0.00
    L 65.00 0.00
    L 65.00 7.00
    M 61.50 6.19
    C 62.91 6.19
      64.00 5.03
      64.00 3.53
    C 64.00 2.00
      62.92 0.81
      61.55 0.81
    C 60.11 0.81
      59.00 2.00
      59.00 3.55
    C 59.00 5.02
      60.11 6.19
      61.50 6.19
    M 67.00 0.00
    L 68.00 0.00
    L 68.00 9.00
    L 67.00 9.00
    L 67.00 0.00
    M 69.00 0.00
    L 70.00 0.00
    L 70.00 6.55
    L 69.00 6.55
    L 69.00 0.00
    M 69.00 7.48
    L 70.00 7.48
    L 70.00 9.00
    L 69.00 9.00
    L 69.00 7.48
    M 70.12 0.00
    L 74.98 0.00
    L 74.98 0.80
    L 71.16 0.80
    L 74.75 6.25
    L 74.75 7.00
    L 70.23 7.00
    L 70.23 6.20
    L 73.75 6.20
    L 70.12 0.80
    L 70.12 0.00
    M 82.00 7.00
    L 81.00 7.00
    L 81.00 5.67
    C 80.38 6.59
      79.59 7.00
      78.48 7.00
    C 76.50 7.00
      75.00 5.48
      75.00 3.48
    C 75.00 1.48
      76.52 0.00
      78.55 0.00
    C 79.62 0.00
      80.33 0.38
      81.00 1.31
    L 81.00 0.00
    L 82.00 0.00
    L 82.00 7.00
    M 78.50 6.19
    C 79.91 6.19
      81.00 5.03
      81.00 3.53
    C 81.00 2.00
      79.92 0.81
      78.55 0.81
    C 77.11 0.81
      76.00 2.00
      76.00 3.55
    C 76.00 5.02
      77.11 6.19
      78.50 6.19
    M 91.00 9.00
    L 90.00 9.00
    L 90.00 5.80
    C 89.25 6.58
      88.20 7.00
      87.00 7.00
    C 84.73 7.00
      83.00 5.48
      83.00 3.50
    C 83.00 1.52
      84.78 0.00
      87.11 0.00
    C 88.38 0.00
      89.23 0.41
      90.00 1.36
    L 90.00 0.00
    L 91.00 0.00
    L 91.00 9.00
    M 86.98 6.19
    C 88.64 6.19
      90.00 5.00
      90.00 3.52
    C 90.00 2.05
      88.69 0.81
      87.08 0.81
    C 85.34 0.81
      84.00 2.00
      84.00 3.53
    C 84.00 5.00
      85.33 6.19
      86.98 6.19
    M 94.52 7.00
    C 92.53 7.00
      91.00 5.50
      91.00 3.55
    C 91.00 1.48
      92.52 0.00
      94.59 0.00
    C 96.55 0.00
      98.00 1.48
      98.00 3.48
    C 98.00 5.52
      96.53 7.00
      94.52 7.00
    M 94.52 6.19
    C 95.94 6.19
      97.00 5.03
      97.00 3.47
    C 97.00 1.94
      95.98 0.81
      94.56 0.81
    C 93.06 0.81
      92.00 1.94
      92.00 3.52
    C 92.00 5.05
      93.08 6.19
      94.52 6.19
    M 103.45 9.00
    C 102.73 8.77
      102.30 8.52
      101.78 8.00
    C 100.67 6.92
      100.00 5.36
      100.00 3.84
    C 100.00 2.59
      100.39 1.42
      101.19 0.36
    C 101.86 -0.56
      102.52 -1.03
      103.45 -1.38
    L 103.45 -0.59
    C 102.86 -0.22
      102.48 0.09
      102.14 0.55
    C 101.42 1.52
      101.00 2.70
      101.00 3.84
    C 101.00 4.83
      101.30 5.83
      101.91 6.75
    C 102.31 7.41
      102.75 7.83
      103.45 8.25
    L 103.45 9.00
    M 106.00 -0.84
    L 107.00 -0.84
    L 107.00 0.23
    C 108.17 0.38
      109.00 1.36
      109.00 2.66
    C 109.00 3.31
      108.75 3.91
      108.28 4.31
    C 107.92 4.64
      107.53 4.83
      106.59 5.11
    C 105.36 5.47
      105.00 5.78
      105.00 6.53
    C 105.00 7.44
      105.64 8.00
      106.64 8.00
    C 107.48 8.00
      108.00 7.45
      108.00 6.55
    L 109.00 6.55
    C 109.00 7.78
      108.23 8.61
      107.00 8.80
    L 107.00 9.84
    L 106.00 9.84
    L 106.00 8.80
    C 104.77 8.58
      104.00 7.73
      104.00 6.61
    C 104.00 6.09
      104.19 5.56
      104.52 5.20
    C 104.86 4.80
      105.25 4.59
      106.23 4.31
    C 106.89 4.12
      107.19 4.00
      107.45 3.80
    C 107.80 3.53
      108.00 3.11
      108.00 2.62
    C 108.00 1.67
      107.36 1.00
      106.48 1.00
    C 105.56 1.00
      105.00 1.62
      104.89 2.67
    L 104.00 2.67
    C 104.00 1.34
      104.69 0.48
      106.00 0.23
    L 106.00 -0.84
    M 115.56 0.00
    L 111.84 9.00
    L 111.02 9.00
    L 114.73 0.00
    L 115.56 0.00
    M 118.00 7.00
    L 118.00 -2.00
    L 119.00 -2.00
    L 119.00 1.30
    C 119.56 0.45
      120.42 0.00
      121.48 0.00
    C 123.45 0.00
      125.00 1.53
      125.00 3.48
    C 125.00 5.47
      123.48 7.00
      121.52 7.00
    C 120.42 7.00
      119.53 6.55
      119.00 5.70
    L 119.00 7.00
    L 118.00 7.00
    M 121.48 6.19
    C 122.92 6.19
      124.00 5.03
      124.00 3.48
    C 124.00 1.97
      122.91 0.81
      121.48 0.81
    C 120.06 0.81
      119.00 1.98
      119.00 3.53
    C 119.00 5.02
      120.09 6.19
      121.48 6.19
    M 126.00 0.00
    L 127.00 0.00
    L 127.00 3.77
    C 127.00 4.52
      127.09 4.95
      127.36 5.33
    C 127.72 5.88
      128.31 6.19
      128.98 6.19
    C 129.61 6.19
      130.22 5.89
      130.56 5.44
    C 130.88 5.03
      131.00 4.50
      131.00 3.70
    L 131.00 0.00
    L 132.00 0.00
    L 132.00 3.67
    C 132.00 4.70
      131.81 5.41
      131.42 5.94
    C 130.91 6.61
      130.06 7.00
      129.08 7.00
    C 128.19 7.00
      127.44 6.64
      127.00 5.98
    L 127.00 9.00
    L 126.00 9.00
    L 126.00 0.00
    M 133.00 0.00
    L 134.00 0.00
    L 134.00 6.55
    L 133.00 6.55
    L 133.00 0.00
    M 133.00 7.48
    L 134.00 7.48
    L 134.00 9.00
    L 133.00 9.00
    L 133.00 7.48
    M 134.48 -1.41
    L 135.28 -1.41
    L 138.77 9.00
    L 137.92 9.00
    L 134.48 -1.41
    M 144.56 0.00
    L 140.84 9.00
    L 140.02 9.00
    L 143.73 0.00
    L 144.56 0.00
    M 147.00 7.00
    L 147.00 -2.00
    L 148.00 -2.00
    L 148.00 1.30
    C 148.56 0.45
      149.42 0.00
      150.48 0.00
    C 152.45 0.00
      154.00 1.53
      154.00 3.48
    C 154.00 5.47
      152.48 7.00
      150.52 7.00
    C 149.42 7.00
      148.53 6.55
      148.00 5.70
    L 148.00 7.00
    L 147.00 7.00
    M 150.48 6.19
    C 151.92 6.19
      153.00 5.03
      153.00 3.48
    C 153.00 1.97
      151.91 0.81
      150.48 0.81
    C 149.06 0.81
      148.00 1.98
      148.00 3.53
    C 148.00 5.02
      149.09 6.19
      150.48 6.19
    M 155.00 0.00
    L 156.00 0.00
    L 156.00 3.77
    C 156.00 4.52
      156.09 4.95
      156.36 5.33
    C 156.72 5.88
      157.31 6.19
      157.98 6.19
    C 158.61 6.19
      159.22 5.89
      159.56 5.44
    C 159.88 5.03
      160.00 4.50
      160.00 3.70
    L 160.00 0.00
    L 161.00 0.00
    L 161.00 3.67
    C 161.00 4.70
      160.81 5.41
      160.42 5.94
    C 159.91 6.61
      159.06 7.00
      158.08 7.00
    C 157.19 7.00
      156.44 6.64
      156.00 5.98
    L 156.00 9.00
    L 155.00 9.00
    L 155.00 0.00
    M 162.00 0.00
    L 163.00 0.00
    L 163.00 6.55
    L 162.00 6.55
    L 162.00 0.00
    M 162.00 7.48
    L 163.00 7.48
    L 163.00 9.00
    L 162.00 9.00
    L 162.00 7.48
    M 163.00 -1.00
    L 163.00 -2.00
    L 169.00 -2.00
    L 169.00 -1.00
    L 163.00 -1.00
    M 171.00 7.38
    C 171.00 7.73
      171.11 8.02
      171.28 8.09
    C 171.39 8.16
      171.45 8.17
      171.94 8.22
    L 171.94 9.00
    C 171.09 9.00
      170.88 8.97
      170.58 8.77
    C 170.19 8.53
      170.00 8.08
      170.00 7.36
    L 170.00 5.31
    C 170.00 4.58
      169.83 4.38
      169.05 4.25
    L 169.05 3.42
    C 169.83 3.28
      170.00 3.09
      170.00 2.36
    L 170.00 0.31
    C 170.00 -0.41
      170.19 -0.86
      170.58 -1.11
    C 170.88 -1.30
      171.09 -1.34
      171.94 -1.36
    L 171.94 -0.55
    L 171.81 -0.53
    C 171.17 -0.47
      171.00 -0.31
      171.00 0.30
    L 171.00 2.34
    C 171.00 3.16
      170.78 3.50
      170.08 3.75
    C 170.05 3.75
      169.95 3.78
      169.86 3.83
    C 169.97 3.88
      170.05 3.91
      170.09 3.91
    C 170.78 4.16
      171.00 4.50
      171.00 5.33
    L 171.00 7.38
    M 174.00 0.00
    L 175.00 0.00
    L 175.00 4.08
    C 175.00 5.39
      175.62 6.11
      176.86 6.23
    L 176.86 7.00
    C 175.91 7.00
      175.34 6.69
      175.00 6.00
    L 175.00 7.00
    L 174.00 7.00
    L 174.00 0.00
    M 178.00 0.30
    C 178.00 0.06
      177.94 -0.19
      177.86 -0.31
    C 177.77 -0.45
      177.62 -0.50
      177.19 -0.53
    L 177.06 -0.55
    L 177.06 -1.36
    C 177.97 -1.34
      178.27 -1.28
      178.58 -1.00
    C 178.84 -0.77
      179.00 -0.31
      179.00 0.31
    L 179.00 2.36
    C 179.00 3.09
      179.16 3.30
      179.91 3.42
    L 179.91 4.25
    C 179.16 4.38
      179.00 4.58
      179.00 5.31
    L 179.00 7.36
    C 179.00 7.92
      178.88 8.36
      178.64 8.61
    C 178.33 8.92
      178.03 9.00
      177.06 9.00
    L 177.06 8.22
    L 177.19 8.20
    C 177.59 8.17
      177.73 8.14
      177.83 8.02
    C 177.94 7.89
      178.00 7.62
      178.00 7.36
    L 178.00 5.33
    C 178.00 4.50
      178.22 4.16
      178.91 3.91
    C 178.95 3.91
      179.03 3.88
      179.14 3.83
    C 179.05 3.78
      178.95 3.75
      178.92 3.75
    C 178.22 3.50
      178.00 3.17
      178.00 2.34
    L 178.00 0.30
    M 184.00 -0.84
    L 185.00 -0.84
    L 185.00 0.23
    C 186.17 0.38
      187.00 1.36
      187.00 2.66
    C 187.00 3.31
      186.75 3.91
      186.28 4.31
    C 185.92 4.64
      185.53 4.83
      184.59 5.11
    C 183.36 5.47
      183.00 5.78
      183.00 6.53
    C 183.00 7.44
      183.64 8.00
      184.64 8.00
    C 185.48 8.00
      186.00 7.45
      186.00 6.55
    L 187.00 6.55
    C 187.00 7.78
      186.23 8.61
      185.00 8.80
    L 185.00 9.84
    L 184.00 9.84
    L 184.00 8.80
    C 182.77 8.58
      182.00 7.73
      182.00 6.61
    C 182.00 6.09
      182.19 5.56
      182.52 5.20
    C 182.86 4.80
      183.25 4.59
      184.23 4.31
    C 184.89 4.12
      185.19 4.00
      185.45 3.80
    C 185.80 3.53
      186.00 3.11
      186.00 2.62
    C 186.00 1.67
      185.36 1.00
      184.48 1.00
    C 183.56 1.00
      183.00 1.62
      182.89 2.67
    L 182.00 2.67
    C 182.00 1.34
      182.69 0.48
      184.00 0.23
    L 184.00 -0.84
    M 188.55 -1.38
    C 189.27 -1.14
      189.70 -0.88
      190.22 -0.38
    C 191.33 0.72
      192.00 2.28
      192.00 3.80
    C 192.00 5.05
      191.61 6.22
      190.81 7.28
    C 190.14 8.19
      189.48 8.67
      188.55 9.00
    L 188.55 8.22
    C 189.14 7.86
      189.52 7.53
      189.86 7.08
    C 190.58 6.11
      191.00 4.92
      191.00 3.80
    C 191.00 2.81
      190.70 1.83
      190.09 0.89
    C 189.69 0.25
      189.25 -0.19
      188.55 -0.59
    L 188.55 -1.38
    " />
</g>

<polyline fill="none" stroke="#000000" stroke-width="0.7" points="51.5478,608.435 56.5524,608.435"/>
<text fill="#000000" x="49.5459" y="608.435" font-size="12" text-anchor="end" baseline-shift="-6" font-family="Helvetica">5.44</text>
<polyline fill="none" stroke="#000000" stroke-width="0.7" points="51.5478,555.353 56.5524,555.353"/>
<text fill="#000000" x="49.5459" y="555.353" font-size="12" text-anchor="end" baseline-shift="-6" font-family="Helvetica">5.46</text>
<polyline fill="none" stroke="#000000" stroke-width="0.7" points="51.5478,502.272 56.5524,502.272"/>
<text fill="#000000" x="49.5459" y="502.272" font-size="12" text-anchor="end" baseline-shift="-6" font-family="Helvetica">5.48</text>
<polyline fill="none" stroke="#000000" stroke-width="0.7" points="51.5478,449.19 56.5524,449.19"/>
<text fill="#000000" x="49.5459" y="449.19" font-size="12" text-anchor="end" baseline-shift="-6" font-family="Helvetica">5.5</text>
<polyline fill="none" stroke="#000000" stroke-width="0.7" points="51.5478,395.107 56.5524,395.107"/>
<text fill="#000000" x="49.5459" y="395.107" font-size="12" text-anchor="end" baseline-shift="-6" font-family="Helvetica">5.52</text>
<polyline fill="none" stroke="#000000" stroke-width="0.7" points="51.5478,342.025 56.5524,342.025"/>
<text fill="#000000" x="49.5459" y="342.025" font-size="12" text-anchor="end" baseline-shift="-6" font-family="Helvetica">5.54</text>
<polyline fill="none" stroke="#000000" stroke-width="0.7" points="51.5478,288.944 56.5524,288.944"/>
<text fill="#000000" x="49.5459" y="288.944" font-size="12" text-anchor="end" baseline-shift="-6" font-family="Helvetica">5.56</text>
<polyline fill="none" stroke="#000000" stroke-width="0.7" points="51.5478,235.862 56.5524,235.862"/>
<text fill="#000000" x="49.5459" y="235.862" font-size="12" text-anchor="end" baseline-shift="-6" font-family="Helvetica">5.58</text>
<polyline fill="none" stroke="#000000" stroke-width="0.7" points="51.5478,181.779 56.5524,181.779"/>
<text fill="#000000" x="49.5459" y="181.779" font-size="12" text-anchor="end" baseline-shift="-6" font-family="Helvetica">5.6</text>
<polyline fill="none" stroke="#000000" stroke-width="0.7" points="51.5478,128.698 56.5524,128.698"/>
<text fill="#000000" x="49.5459" y="128.698" font-size="12" text-anchor="end" baseline-shift="-6" font-family="Helvetica">5.62</text>
<polyline fill="none" stroke="#000000" stroke-width="0.7" points="51.5478,75.6162 56.5524,75.6162"/>
<text fill="#000000" x="49.5459" y="75.6162" font-size="12" text-anchor="end" baseline-shift="-6" font-family="Helvetica">5.64</text>
<polyline fill="none" stroke="#000000" stroke-width="0.7" points="51.5478,22.5347 56.5524,22.5347"/>
<text fill="#000000" x="49.5459" y="22.5347" font-size="12" text-anchor="end" baseline-shift="-6" font-family="Helvetica">5.66</text>
<polyline fill="none" stroke="#000000" stroke-width="0.7" points="56.5524,608.435 1060.48,608.435"/>
<!--  Pathified string: Largura do modelo($ m$) -->
<g transform="
     translate(558.02 630.47)
     scale(1.0 -1.0)
     rotate(0.00)"
   stroke="none"
   fill="rgb(0,0,0)"
   opacity="1.00"
>
  <path d="
    M -74.00 -8.00
    L -69.44 -8.00
    L -69.44 -6.42
    L -72.16 -6.42
    L -72.16 1.00
    L -74.00 1.00
    L -74.00 -8.00
    M -62.16 -1.00
    L -64.00 -1.00
    L -64.00 -2.00
    C -64.55 -1.30
      -65.22 -1.00
      -66.17 -1.00
    C -68.31 -1.00
      -69.84 -2.48
      -69.84 -4.53
    C -69.84 -6.55
      -68.33 -8.00
      -66.22 -8.00
    C -65.28 -8.00
      -64.64 -7.70
      -64.00 -6.98
    L -64.00 -8.00
    L -62.16 -8.00
    L -62.16 -1.00
    M -66.00 -2.47
    C -64.83 -2.47
      -64.00 -3.33
      -64.00 -4.55
    C -64.00 -5.03
      -64.20 -5.59
      -64.50 -5.92
    C -64.83 -6.31
      -65.36 -6.53
      -65.98 -6.53
    C -67.17 -6.53
      -68.00 -5.73
      -68.00 -4.56
    C -68.00 -3.34
      -67.17 -2.47
      -66.00 -2.47
    M -61.00 -8.00
    L -59.16 -8.00
    L -59.16 -4.11
    C -59.16 -3.02
      -58.69 -2.48
      -57.73 -2.45
    L -57.73 -1.00
    L -57.84 -1.00
    C -58.47 -1.00
      -58.78 -1.17
      -59.16 -1.69
    L -59.16 -1.00
    L -61.00 -1.00
    L -61.00 -8.00
    M -52.00 -1.00
    L -52.00 -2.00
    C -52.50 -1.33
      -53.25 -1.00
      -54.23 -1.00
    C -56.31 -1.00
      -57.84 -2.47
      -57.84 -4.45
    C -57.84 -6.52
      -56.33 -8.00
      -54.23 -8.00
    C -53.28 -8.00
      -52.64 -7.70
      -52.00 -6.97
    C -52.00 -8.91
      -52.64 -9.84
      -53.89 -9.84
    C -54.69 -9.84
      -55.17 -9.52
      -55.67 -8.64
    L -57.72 -8.64
    C -57.12 -10.12
      -55.77 -11.00
      -53.97 -11.00
    C -52.64 -11.00
      -51.59 -10.53
      -50.91 -9.62
    C -50.38 -8.94
      -50.16 -8.02
      -50.16 -6.58
    L -50.16 -1.00
    L -52.00 -1.00
    M -54.03 -2.47
    C -52.83 -2.47
      -52.00 -3.31
      -52.00 -4.53
    C -52.00 -5.73
      -52.80 -6.53
      -54.02 -6.53
    C -55.22 -6.53
      -56.00 -5.75
      -56.00 -4.53
    C -56.00 -3.30
      -55.22 -2.47
      -54.03 -2.47
    M -43.16 -1.00
    L -45.00 -1.00
    L -45.00 -4.25
    C -45.00 -5.16
      -45.05 -5.59
      -45.20 -5.91
    C -45.38 -6.30
      -45.73 -6.53
      -46.16 -6.53
    C -46.48 -6.53
      -46.73 -6.39
      -46.91 -6.09
    C -47.08 -5.80
      -47.16 -5.28
      -47.16 -4.38
    L -47.16 -1.00
    L -49.00 -1.00
    L -49.00 -4.67
    C -49.00 -5.83
      -48.86 -6.42
      -48.48 -6.98
    C -48.03 -7.64
      -47.30 -8.00
      -46.42 -8.00
    C -45.83 -8.00
      -45.45 -7.80
      -45.00 -7.20
    L -45.00 -8.00
    L -43.16 -8.00
    L -43.16 -1.00
    M -42.00 -8.00
    L -40.16 -8.00
    L -40.16 -4.11
    C -40.16 -3.02
      -39.69 -2.48
      -38.73 -2.45
    L -38.73 -1.00
    L -38.84 -1.00
    C -39.47 -1.00
      -39.78 -1.17
      -40.16 -1.69
    L -40.16 -1.00
    L -42.00 -1.00
    L -42.00 -8.00
    M -31.16 -1.00
    L -33.00 -1.00
    L -33.00 -2.00
    C -33.55 -1.30
      -34.22 -1.00
      -35.17 -1.00
    C -37.31 -1.00
      -38.84 -2.48
      -38.84 -4.53
    C -38.84 -6.55
      -37.33 -8.00
      -35.22 -8.00
    C -34.28 -8.00
      -33.64 -7.70
      -33.00 -6.98
    L -33.00 -8.00
    L -31.16 -8.00
    L -31.16 -1.00
    M -35.00 -2.47
    C -33.83 -2.47
      -33.00 -3.33
      -33.00 -4.55
    C -33.00 -5.03
      -33.20 -5.59
      -33.50 -5.92
    C -33.83 -6.31
      -34.36 -6.53
      -34.98 -6.53
    C -36.17 -6.53
      -37.00 -5.73
      -37.00 -4.56
    C -37.00 -3.34
      -36.17 -2.47
      -35.00 -2.47
    M -20.16 1.00
    L -22.00 1.00
    L -22.00 -1.83
    C -22.50 -1.31
      -23.30 -1.00
      -24.19 -1.00
    C -26.23 -1.00
      -27.84 -2.55
      -27.84 -4.53
    C -27.84 -6.48
      -26.25 -8.00
      -24.17 -8.00
    C -23.28 -8.00
      -22.62 -7.70
      -22.00 -6.98
    L -22.00 -8.00
    L -20.16 -8.00
    L -20.16 1.00
    M -23.95 -2.47
    C -22.84 -2.47
      -22.00 -3.36
      -22.00 -4.50
    C -22.00 -5.64
      -22.84 -6.53
      -23.91 -6.53
    C -25.09 -6.53
      -26.00 -5.61
      -26.00 -4.45
    C -26.00 -3.34
      -25.11 -2.47
      -23.95 -2.47
    M -16.02 -1.00
    C -18.12 -1.00
      -19.84 -2.58
      -19.84 -4.50
    C -19.84 -6.44
      -18.12 -8.00
      -16.00 -8.00
    C -13.91 -8.00
      -12.16 -6.44
      -12.16 -4.55
    C -12.16 -2.56
      -13.84 -1.00
      -16.02 -1.00
    M -16.00 -2.47
    C -14.89 -2.47
      -14.00 -3.39
      -14.00 -4.50
    C -14.00 -5.62
      -14.91 -6.53
      -16.00 -6.53
    C -17.12 -6.53
      -18.00 -5.62
      -18.00 -4.47
    C -18.00 -3.38
      -17.09 -2.47
      -16.00 -2.47
    M -8.00 -8.00
    L -6.16 -8.00
    L -6.16 -4.61
    C -6.16 -3.92
      -6.11 -3.47
      -6.02 -3.17
    C -5.86 -2.73
      -5.52 -2.47
      -5.08 -2.47
    C -4.72 -2.47
      -4.41 -2.62
      -4.23 -2.91
    C -4.06 -3.17
      -4.00 -3.58
      -4.00 -4.22
    L -4.00 -8.00
    L -2.16 -8.00
    L -2.16 -4.61
    C -2.16 -3.84
      -2.11 -3.45
      -1.97 -3.12
    C -1.80 -2.70
      -1.45 -2.47
      -1.03 -2.47
    C -0.70 -2.47
      -0.42 -2.62
      -0.25 -2.89
    C -0.06 -3.16
      0.00 -3.53
      0.00 -4.22
    L 0.00 -8.00
    L 1.84 -8.00
    L 1.84 -4.05
    C 1.84 -3.22
      1.70 -2.56
      1.41 -2.09
    C 0.97 -1.39
      0.11 -1.00
      -0.91 -1.00
    C -1.78 -1.00
      -2.39 -1.31
      -2.89 -2.03
    C -3.34 -1.31
      -3.92 -1.00
      -4.83 -1.00
    C -5.42 -1.00
      -5.80 -1.22
      -6.16 -1.78
    L -6.16 -1.00
    L -8.00 -1.00
    L -8.00 -8.00
    M 5.98 -1.00
    C 3.88 -1.00
      2.16 -2.58
      2.16 -4.50
    C 2.16 -6.44
      3.88 -8.00
      6.00 -8.00
    C 8.09 -8.00
      9.84 -6.44
      9.84 -4.55
    C 9.84 -2.56
      8.16 -1.00
      5.98 -1.00
    M 6.00 -2.47
    C 7.11 -2.47
      8.00 -3.39
      8.00 -4.50
    C 8.00 -5.62
      7.09 -6.53
      6.00 -6.53
    C 4.88 -6.53
      4.00 -5.62
      4.00 -4.47
    C 4.00 -3.38
      4.91 -2.47
      6.00 -2.47
    M 17.84 1.00
    L 16.00 1.00
    L 16.00 -1.83
    C 15.50 -1.31
      14.70 -1.00
      13.81 -1.00
    C 11.77 -1.00
      10.16 -2.55
      10.16 -4.53
    C 10.16 -6.48
      11.75 -8.00
      13.83 -8.00
    C 14.72 -8.00
      15.38 -7.70
      16.00 -6.98
    L 16.00 -8.00
    L 17.84 -8.00
    L 17.84 1.00
    M 14.05 -2.47
    C 15.16 -2.47
      16.00 -3.36
      16.00 -4.50
    C 16.00 -5.64
      15.16 -6.53
      14.09 -6.53
    C 12.91 -6.53
      12.00 -5.61
      12.00 -4.45
    C 12.00 -3.34
      12.89 -2.47
      14.05 -2.47
    M 25.23 -5.16
    C 25.28 -4.97
      25.30 -4.86
      25.30 -4.66
    C 25.30 -2.55
      23.84 -1.00
      21.86 -1.00
    C 19.91 -1.00
      18.36 -2.59
      18.36 -4.59
    C 18.36 -6.52
      19.94 -8.00
      21.95 -8.00
    C 23.05 -8.00
      23.91 -7.59
      24.59 -6.78
    C 24.86 -6.47
      25.02 -6.19
      25.12 -5.84
    L 23.39 -5.84
    C 22.98 -6.34
      22.58 -6.53
      21.92 -6.53
    C 20.97 -6.53
      20.28 -6.00
      20.09 -5.16
    L 25.23 -5.16
    M 20.05 -4.00
    C 20.30 -3.02
      20.94 -2.47
      21.89 -2.47
    C 22.88 -2.47
      23.52 -3.02
      23.72 -4.00
    L 20.05 -4.00
    M 27.00 -8.00
    L 28.84 -8.00
    L 28.84 1.00
    L 27.00 1.00
    L 27.00 -8.00
    M 32.98 -1.00
    C 30.88 -1.00
      29.16 -2.58
      29.16 -4.50
    C 29.16 -6.44
      30.88 -8.00
      33.00 -8.00
    C 35.09 -8.00
      36.84 -6.44
      36.84 -4.55
    C 36.84 -2.56
      35.16 -1.00
      32.98 -1.00
    M 33.00 -2.47
    C 34.11 -2.47
      35.00 -3.39
      35.00 -4.50
    C 35.00 -5.62
      34.09 -6.53
      33.00 -6.53
    C 31.88 -6.53
      31.00 -5.62
      31.00 -4.47
    C 31.00 -3.38
      31.91 -2.47
      33.00 -2.47
    M 41.53 -7.77
    C 40.55 -7.12
      39.84 -5.67
      39.84 -4.27
    C 39.84 -2.81
      40.44 -1.58
      41.53 -0.73
    L 41.53 1.00
    C 40.84 0.73
      40.48 0.52
      39.98 0.09
    C 38.75 -0.94
      38.00 -2.58
      38.00 -4.27
    C 38.00 -5.75
      38.61 -7.23
      39.64 -8.33
    C 40.27 -8.95
      40.77 -9.27
      41.53 -9.52
    L 41.53 -7.77
    M 43.66 -5.05
    L 43.66 -5.19
    C 43.66 -5.83
      43.89 -6.50
      44.28 -6.92
    C 44.48 -7.16
      44.67 -7.30
      45.00 -7.42
    L 45.00 -9.00
    L 46.84 -9.00
    L 46.84 -7.42
    C 47.58 -7.11
      48.00 -6.22
      48.00 -5.02
    C 48.00 -4.30
      47.84 -3.72
      47.56 -3.36
    C 47.39 -3.14
      47.20 -3.00
      46.75 -2.77
    C 46.34 -2.56
      46.20 -2.47
      46.08 -2.31
    C 45.94 -2.17
      45.84 -1.91
      45.84 -1.64
    C 45.84 -1.22
      46.05 -0.92
      46.31 -0.92
    C 46.58 -0.92
      46.77 -1.17
      46.83 -1.62
    L 48.00 -1.62
    C 48.00 -0.62
      47.50 0.25
      46.84 0.41
    L 46.84 2.00
    L 45.00 2.00
    L 45.00 0.41
    C 44.73 0.31
      44.58 0.19
      44.42 -0.05
    C 44.16 -0.47
      44.00 -1.08
      44.00 -1.73
    C 44.00 -2.72
      44.34 -3.42
      45.02 -3.78
    C 45.70 -4.16
      45.70 -4.16
      45.84 -4.28
    C 46.06 -4.48
      46.16 -4.72
      46.16 -5.08
    C 46.16 -5.61
      46.20 -6.02
      46.28 -6.02
    C 46.02 -6.02
      45.84 -5.62
      45.84 -5.05
    L 43.66 -5.05
    M 53.00 -8.00
    L 54.84 -8.00
    L 54.84 -4.61
    C 54.84 -3.92
      54.89 -3.47
      54.98 -3.17
    C 55.14 -2.73
      55.48 -2.47
      55.92 -2.47
    C 56.28 -2.47
      56.59 -2.62
      56.77 -2.91
    C 56.94 -3.17
      57.00 -3.58
      57.00 -4.22
    L 57.00 -8.00
    L 58.84 -8.00
    L 58.84 -4.61
    C 58.84 -3.84
      58.89 -3.45
      59.03 -3.12
    C 59.20 -2.70
      59.55 -2.47
      59.97 -2.47
    C 60.30 -2.47
      60.58 -2.62
      60.75 -2.89
    C 60.94 -3.16
      61.00 -3.53
      61.00 -4.22
    L 61.00 -8.00
    L 62.84 -8.00
    L 62.84 -4.05
    C 62.84 -3.22
      62.70 -2.56
      62.41 -2.09
    C 61.97 -1.39
      61.11 -1.00
      60.09 -1.00
    C 59.22 -1.00
      58.61 -1.31
      58.11 -2.03
    C 57.66 -1.31
      57.08 -1.00
      56.17 -1.00
    C 55.58 -1.00
      55.20 -1.22
      54.84 -1.78
    L 54.84 -1.00
    L 53.00 -1.00
    L 53.00 -8.00
    M 64.66 -5.05
    L 64.66 -5.19
    C 64.66 -5.83
      64.89 -6.50
      65.28 -6.92
    C 65.48 -7.16
      65.67 -7.30
      66.00 -7.42
    L 66.00 -9.00
    L 67.84 -9.00
    L 67.84 -7.42
    C 68.58 -7.11
      69.00 -6.22
      69.00 -5.02
    C 69.00 -4.30
      68.84 -3.72
      68.56 -3.36
    C 68.39 -3.14
      68.20 -3.00
      67.75 -2.77
    C 67.34 -2.56
      67.20 -2.47
      67.08 -2.31
    C 66.94 -2.17
      66.84 -1.91
      66.84 -1.64
    C 66.84 -1.22
      67.05 -0.92
      67.31 -0.92
    C 67.58 -0.92
      67.77 -1.17
      67.83 -1.62
    L 69.00 -1.62
    C 69.00 -0.62
      68.50 0.25
      67.84 0.41
    L 67.84 2.00
    L 66.00 2.00
    L 66.00 0.41
    C 65.73 0.31
      65.58 0.19
      65.42 -0.05
    C 65.16 -0.47
      65.00 -1.08
      65.00 -1.73
    C 65.00 -2.72
      65.34 -3.42
      66.02 -3.78
    C 66.70 -4.16
      66.70 -4.16
      66.84 -4.28
    C 67.06 -4.48
      67.16 -4.72
      67.16 -5.08
    C 67.16 -5.61
      67.20 -6.02
      67.28 -6.02
    C 67.02 -6.02
      66.84 -5.62
      66.84 -5.05
    L 64.66 -5.05
    M 70.47 -0.88
    C 71.45 -1.52
      72.16 -2.97
      72.16 -4.38
    C 72.16 -5.83
      71.56 -7.08
      70.47 -7.92
    L 70.47 -9.64
    C 71.16 -9.38
      71.52 -9.16
      72.02 -8.75
    C 73.25 -7.72
      74.00 -6.06
      74.00 -4.38
    C 74.00 -2.89
      73.39 -1.41
      72.36 -0.31
    C 71.73 0.30
      71.23 0.61
      70.47 0.88
    L 70.47 -0.88
    " />
</g>

<polyline fill="none" stroke="#000000" stroke-width="0.7" points="75.57,613.442 75.57,608.435"/>
<text fill="#000000" x="75.57" y="615.445" font-size="12" text-anchor="middle" baseline-shift="-12" font-family="Helvetica">0</text>
<polyline fill="none" stroke="#000000" stroke-width="0.7" points="174.662,613.442 174.662,608.435"/>
<text fill="#000000" x="174.662" y="615.445" font-size="12" text-anchor="middle" baseline-shift="-12" font-family="Helvetica">0.005</text>
<polyline fill="none" stroke="#000000" stroke-width="0.7" points="273.753,613.442 273.753,608.435"/>
<text fill="#000000" x="273.753" y="615.445" font-size="12" text-anchor="middle" baseline-shift="-12" font-family="Helvetica">0.01</text>
<polyline fill="none" stroke="#000000" stroke-width="0.7" points="372.845,613.442 372.845,608.435"/>
<text fill="#000000" x="372.845" y="615.445" font-size="12" text-anchor="middle" baseline-shift="-12" font-family="Helvetica">0.015</text>
<polyline fill="none" stroke="#000000" stroke-width="0.7" points="471.937,613.442 471.937,608.435"/>
<text fill="#000000" x="471.937" y="615.445" font-size="12" text-anchor="middle" baseline-shift="-12" font-family="Helvetica">0.02</text>
<polyline fill="none" stroke="#000000" stroke-width="0.7" points="571.029,613.442 571.029,608.435"/>
<text fill="#000000" x="571.029" y="615.445" font-size="12" text-anchor="middle" baseline-shift="-12" font-family="Helvetica">0.025</text>
<polyline fill="none" stroke="#000000" stroke-width="0.7" points="670.121,613.442 670.121,608.435"/>
<text fill="#000000" x="670.121" y="615.445" font-size="12" text-anchor="middle" baseline-shift="-12" font-family="Helvetica">0.03</text>
<polyline fill="none" stroke="#000000" stroke-width="0.7" points="769.212,613.442 769.212,608.435"/>
<text fill="#000000" x="769.212" y="615.445" font-size="12" text-anchor="middle" baseline-shift="-12" font-family="Helvetica">0.035</text>
<polyline fill="none" stroke="#000000" stroke-width="0.7" points="868.304,613.442 868.304,608.435"/>
<text fill="#000000" x="868.304" y="615.445" font-size="12" text-anchor="middle" baseline-shift="-12" font-family="Helvetica">0.04</text>
<polyline fill="none" stroke="#000000" stroke-width="0.7" points="966.395,613.442 966.395,608.435"/>
<text fill="#000000" x="966.395" y="615.445" font-size="12" text-anchor="middle" baseline-shift="-12" font-family="Helvetica">0.045</text>
<polygon fill="#ffffff" points="921.353,58.59 1060.48,58.59 921.353,19.53"/>
<polygon fill="#ffffff" points="1060.48,58.59 1060.48,19.53 921.353,19.53"/>
<polyline fill="none" stroke="#000000" stroke-width="0.7" points="921.353,58.59 1060.48,58.59 1060.48,19.53 921.353,19.53 921.353,58.59"/>
<text fill="#000000" x="951.381" y="36.5562" font-size="12" text-anchor="start" baseline-shift="0" font-family="Helvetica">Fluxo - acoplado</text>
<polyline fill="none" stroke="#e2191c" stroke-width="1.4" points="926.358,30.5469 948.378,30.5469"/>
<text fill="#000000" x="951.381" y="53.5823" font-size="12" text-anchor="start" baseline-shift="0" font-family="Helvetica">Fluxo - standalone</text>
<polyline fill="none" stroke="#000000" stroke-width="1.4" stroke-dasharray="8,8" points="926.358,47.5731 948.378,47.5731"/>
</g>
</svg>
