<?xml version="1.0" encoding="UTF-8" standalone="no"?>
<svg xmlns="http://www.w3.org/2000/svg"
     xmlns:xlink="http://www.w3.org/1999/xlink"
     width="1080px" height="651px" viewBox="0 0 1080 651">
<title>Normalized_flux_compared_x</title>
<desc>
Creator: GL2PS 1.3.9, (C) 1999-2015 C. Geuzaine
For: VTK
CreationDate: Thu Oct  6 16:42:44 2016
</desc>
<defs>
</defs>
<polygon fill="#ffffff" points="0,0 1080,0 1080,651 0,651"/>
<g shape-rendering="crispEdges">
<polyline fill="none" stroke="#f2f2f2" stroke-width="0.714" points="75.57,610.438 75.57,19.53"/>
<polyline fill="none" stroke="#f2f2f2" stroke-width="0.714" points="174.662,610.438 174.662,19.53"/>
<polyline fill="none" stroke="#f2f2f2" stroke-width="0.714" points="273.753,610.438 273.753,19.53"/>
<polyline fill="none" stroke="#f2f2f2" stroke-width="0.714" points="372.845,610.438 372.845,19.53"/>
<polyline fill="none" stroke="#f2f2f2" stroke-width="0.714" points="471.937,610.438 471.937,19.53"/>
<polyline fill="none" stroke="#f2f2f2" stroke-width="0.714" points="571.029,610.438 571.029,19.53"/>
<polyline fill="none" stroke="#f2f2f2" stroke-width="0.714" points="670.121,610.438 670.121,19.53"/>
<polyline fill="none" stroke="#f2f2f2" stroke-width="0.714" points="769.212,610.438 769.212,19.53"/>
<polyline fill="none" stroke="#f2f2f2" stroke-width="0.714" points="868.304,610.438 868.304,19.53"/>
<polyline fill="none" stroke="#f2f2f2" stroke-width="0.714" points="966.395,610.438 966.395,19.53"/>
<polyline fill="none" stroke="#f2f2f2" stroke-width="0.714" points="56.5524,610.438 1060.48,610.438"/>
<polyline fill="none" stroke="#f2f2f2" stroke-width="0.714" points="56.5524,557.356 1060.48,557.356"/>
<polyline fill="none" stroke="#f2f2f2" stroke-width="0.714" points="56.5524,503.273 1060.48,503.273"/>
<polyline fill="none" stroke="#f2f2f2" stroke-width="0.714" points="56.5524,450.192 1060.48,450.192"/>
<polyline fill="none" stroke="#f2f2f2" stroke-width="0.714" points="56.5524,397.11 1060.48,397.11"/>
<polyline fill="none" stroke="#f2f2f2" stroke-width="0.714" points="56.5524,343.027 1060.48,343.027"/>
<polyline fill="none" stroke="#f2f2f2" stroke-width="0.714" points="56.5524,289.945 1060.48,289.945"/>
<polyline fill="none" stroke="#f2f2f2" stroke-width="0.714" points="56.5524,235.862 1060.48,235.862"/>
<polyline fill="none" stroke="#f2f2f2" stroke-width="0.714" points="56.5524,182.781 1060.48,182.781"/>
<polyline fill="none" stroke="#f2f2f2" stroke-width="0.714" points="56.5524,128.698 1060.48,128.698"/>
<polyline fill="none" stroke="#f2f2f2" stroke-width="0.714" points="56.5524,75.6162 1060.48,75.6162"/>
<polyline fill="none" stroke="#f2f2f2" stroke-width="0.714" points="56.5524,22.5347 1060.48,22.5347"/>
<polyline fill="none" stroke="#e2191c" stroke-width="1.428" points="76.2737,586.234 85.3824,586.234 94.4911,581.175 103.6,581.175 112.709,574.33 121.817,566.393 130.926,557.463 140.035,547.74 149.143,528.99 158.252,513.909 167.361,506.865 176.47,500.219 185.578,478.59 194.687,464.204 203.796,427.297 212.904,406.66 222.013,389.994 231.122,367.671 240.23,341.181 249.339,323.323 258.448,323.323 267.557,299.412 276.665,271.831 285.774,248.615 294.883,248.615 303.991,231.452 313.1,231.452 322.209,209.625 331.318,209.625 340.426,189.584 349.535,189.584 358.644,168.056 367.753,168.056 376.861,168.056 385.97,146.625 395.079,146.625 404.187,146.625 413.296,126.387 422.405,126.387 431.513,126.387 440.622,108.528 449.731,108.528 458.84,108.528 467.948,94.9354 477.057,94.9354 486.166,94.9354 495.274,94.9354 504.383,86.5044 513.492,86.5044 522.601,87.0979 531.709,86.4038 540.818,86.4038 549.927,86.4038 559.035,86.4038 568.144,92.6557 577.253,92.6557 586.362,92.6557 595.47,92.6557 604.579,105.75 613.688,105.75 622.796,105.75 631.905,123.312 641.014,123.312 650.123,123.312 659.231,138.391 668.34,138.391 677.449,138.391 686.557,157.737 695.666,157.737 704.775,157.737 713.884,188.593 722.992,188.593 732.101,209.328 741.21,209.328 750.318,230.957 759.427,230.957 768.536,252.187 777.645,252.187 786.753,275.206 795.862,299.412 804.971,326.795 814.079,326.795 823.188,347.927 832.297,368.465 841.406,387.215 850.514,405.37 859.623,423.923 868.732,464.997 877.84,477.896 886.949,501.408 896.058,508.254 905.167,515.298 914.275,530.279 923.384,548.931 932.493,558.555 941.601,567.384 950.71,575.221 959.819,582.068 968.927,582.068 978.036,587.027 987.145,587.027"/>
<polyline fill="none" stroke="#000000" stroke-width="1.428" stroke-dasharray="8,8" points="76.2737,601.017 85.3824,601.017 94.4911,595.957 103.6,595.957 112.709,589.112 121.817,581.175 130.926,572.245 140.035,562.424 149.143,543.573 158.252,528.493 167.361,521.548 176.47,514.9 185.578,493.174 194.687,478.59 203.796,440.988 212.904,419.658 222.013,402.294 231.122,378.782 240.23,350.606 249.339,331.358 258.448,331.358 267.557,305.266 276.665,274.51 285.774,248.219 294.883,248.219 303.991,228.377 313.1,228.377 322.209,202.68 331.318,202.68 340.426,178.572 349.535,178.572 358.644,151.983 367.753,151.983 376.861,151.983 385.97,124.898 395.079,124.898 404.187,124.898 413.296,98.5078 422.405,98.5078 431.513,98.5078 440.622,74.5979 449.731,74.5979 458.84,74.5979 467.948,56.144 477.057,56.144 486.166,56.144 495.274,56.144 504.383,45.2308 513.492,45.2308 522.601,45.7275 531.709,45.2308 540.818,45.2308 549.927,45.2308 559.035,45.2308 568.144,53.3663 577.253,53.3663 586.362,53.3663 595.47,53.3663 604.579,70.7288 613.688,70.7288 622.796,70.7288 631.905,93.9446 641.014,93.9446 650.123,93.9446 659.231,113.389 668.34,113.389 677.449,113.389 686.557,137.797 695.666,137.797 704.775,137.797 713.884,175.894 722.992,175.894 732.101,200.697 741.21,200.697 750.318,226.095 759.427,226.095 768.536,250.501 777.645,250.501 786.753,276.494 795.862,303.48 804.971,333.541 814.079,333.541 823.188,356.261 832.297,378.088 841.406,397.832 850.514,416.78 859.623,436.027 868.732,477.896 877.84,490.892 886.949,514.604 896.058,521.351 905.167,528.394 914.275,543.474 923.384,562.125 932.493,571.849 941.601,580.778 950.71,588.615 959.819,595.461 968.927,595.461 978.036,600.422 987.145,600.422"/>
<polyline fill="none" stroke="#000000" stroke-width="0.714" points="56.5524,610.438 56.5524,19.53"/>
<!--  Pathified string: Normalized flux ($\phi/\phi_{r}$) -->
<g transform="
     translate(21.52 314.98)
     scale(1.0 -1.0)
     rotate(0.00)"
   stroke="none"
   fill="rgb(0,0,0)"
   opacity="1.00"
>
  <path d="
    M -3.00 0.00
    L -2.00 0.00
    L -2.00 7.92
    L 3.00 0.00
    L 4.00 0.00
    L 4.00 9.00
    L 3.00 9.00
    L 3.00 1.53
    L -1.70 9.00
    L -3.00 9.00
    L -3.00 0.00
    M 8.52 7.00
    C 6.53 7.00
      5.00 5.50
      5.00 3.55
    C 5.00 1.48
      6.52 0.00
      8.59 0.00
    C 10.55 0.00
      12.00 1.48
      12.00 3.48
    C 12.00 5.52
      10.53 7.00
      8.52 7.00
    M 8.52 6.19
    C 9.94 6.19
      11.00 5.03
      11.00 3.47
    C 11.00 1.94
      9.98 0.81
      8.56 0.81
    C 7.06 0.81
      6.00 1.94
      6.00 3.52
    C 6.00 5.05
      7.08 6.19
      8.52 6.19
    M 14.00 0.00
    L 15.00 0.00
    L 15.00 4.08
    C 15.00 5.39
      15.62 6.11
      16.86 6.23
    L 16.86 7.00
    C 15.91 7.00
      15.34 6.69
      15.00 6.00
    L 15.00 7.00
    L 14.00 7.00
    L 14.00 0.00
    M 18.00 0.00
    L 19.00 0.00
    L 19.00 4.02
    C 19.00 5.39
      19.56 6.19
      20.50 6.19
    C 20.95 6.19
      21.38 5.97
      21.66 5.56
    C 21.91 5.20
      22.00 4.73
      22.00 4.02
    L 22.00 0.00
    L 23.00 0.00
    L 23.00 3.98
    C 23.00 4.64
      23.11 5.08
      23.36 5.41
    C 23.70 5.91
      24.33 6.19
      25.03 6.19
    C 25.69 6.19
      26.25 5.95
      26.59 5.53
    C 26.86 5.19
      27.00 4.67
      27.00 3.98
    L 27.00 0.00
    L 28.00 0.00
    L 28.00 4.06
    C 28.00 4.95
      27.83 5.55
      27.41 6.03
    C 26.89 6.66
      26.05 7.00
      25.09 7.00
    C 23.94 7.00
      23.14 6.59
      22.52 5.72
    C 22.05 6.61
      21.45 7.00
      20.56 7.00
    C 19.86 7.00
      19.42 6.75
      19.00 6.09
    L 19.00 7.00
    L 18.00 7.00
    L 18.00 0.00
    M 35.00 7.00
    L 34.00 7.00
    L 34.00 5.67
    C 33.38 6.59
      32.59 7.00
      31.48 7.00
    C 29.50 7.00
      28.00 5.48
      28.00 3.48
    C 28.00 1.48
      29.52 0.00
      31.55 0.00
    C 32.62 0.00
      33.33 0.38
      34.00 1.31
    L 34.00 0.00
    L 35.00 0.00
    L 35.00 7.00
    M 31.50 6.19
    C 32.91 6.19
      34.00 5.03
      34.00 3.53
    C 34.00 2.00
      32.92 0.81
      31.55 0.81
    C 30.11 0.81
      29.00 2.00
      29.00 3.55
    C 29.00 5.02
      30.11 6.19
      31.50 6.19
    M 37.00 0.00
    L 38.00 0.00
    L 38.00 9.00
    L 37.00 9.00
    L 37.00 0.00
    M 39.00 0.00
    L 40.00 0.00
    L 40.00 6.55
    L 39.00 6.55
    L 39.00 0.00
    M 39.00 7.48
    L 40.00 7.48
    L 40.00 9.00
    L 39.00 9.00
    L 39.00 7.48
    M 40.12 0.00
    L 44.98 0.00
    L 44.98 0.80
    L 41.16 0.80
    L 44.75 6.25
    L 44.75 7.00
    L 40.23 7.00
    L 40.23 6.20
    L 43.75 6.20
    L 40.12 0.80
    L 40.12 0.00
    M 52.33 3.00
    C 52.33 3.97
      52.22 4.56
      51.89 5.17
    C 51.30 6.30
      50.16 7.00
      48.91 7.00
    C 47.00 7.00
      45.50 5.42
      45.50 3.41
    C 45.50 1.50
      47.03 0.00
      48.97 0.00
    C 49.81 0.00
      50.61 0.30
      51.20 0.84
    C 51.67 1.27
      51.98 1.70
      52.16 2.22
    L 51.23 2.22
    C 50.88 1.38
      49.94 0.81
      48.95 0.81
    C 47.61 0.81
      46.47 1.78
      46.39 3.00
    L 52.33 3.00
    M 46.42 4.00
    C 46.66 5.31
      47.66 6.19
      48.91 6.19
    C 50.17 6.19
      51.14 5.36
      51.44 4.00
    L 46.42 4.00
    M 61.00 9.00
    L 60.00 9.00
    L 60.00 5.80
    C 59.25 6.58
      58.20 7.00
      57.00 7.00
    C 54.73 7.00
      53.00 5.48
      53.00 3.50
    C 53.00 1.52
      54.78 0.00
      57.11 0.00
    C 58.38 0.00
      59.23 0.41
      60.00 1.36
    L 60.00 0.00
    L 61.00 0.00
    L 61.00 9.00
    M 56.98 6.19
    C 58.64 6.19
      60.00 5.00
      60.00 3.52
    C 60.00 2.05
      58.69 0.81
      57.08 0.81
    C 55.34 0.81
      54.00 2.00
      54.00 3.53
    C 54.00 5.00
      55.33 6.19
      56.98 6.19
    M 65.00 0.00
    L 66.00 0.00
    L 66.00 6.20
    L 67.62 6.20
    L 67.62 7.00
    L 66.00 7.00
    C 66.00 7.94
      66.42 8.28
      67.62 8.30
    L 67.62 9.00
    C 65.88 9.00
      65.00 8.33
      65.00 7.00
    L 64.00 7.00
    L 64.00 6.20
    L 65.00 6.20
    L 65.00 0.00
    M 69.00 0.00
    L 70.00 0.00
    L 70.00 9.00
    L 69.00 9.00
    L 69.00 0.00
    M 77.00 7.00
    L 76.00 7.00
    L 76.00 3.47
    C 76.00 2.62
      75.88 2.09
      75.61 1.67
    C 75.23 1.12
      74.66 0.81
      73.97 0.81
    C 73.23 0.81
      72.61 1.12
      72.31 1.69
    C 72.11 2.03
      72.00 2.58
      72.00 3.30
    L 72.00 7.00
    L 71.00 7.00
    L 71.00 3.31
    C 71.00 2.30
      71.17 1.59
      71.53 1.09
    C 72.05 0.38
      72.88 0.00
      73.89 0.00
    C 74.91 0.00
      75.56 0.36
      76.00 1.19
    L 76.00 0.00
    L 77.00 0.00
    L 77.00 7.00
    M 77.09 0.00
    L 78.11 0.00
    L 79.88 2.80
    L 81.64 0.00
    L 82.66 0.00
    L 80.38 3.58
    L 82.66 7.00
    L 81.64 7.00
    L 79.88 4.30
    L 78.11 7.00
    L 77.09 7.00
    L 79.38 3.58
    L 77.09 0.00
    M 90.45 9.00
    C 89.73 8.77
      89.30 8.52
      88.78 8.00
    C 87.67 6.92
      87.00 5.36
      87.00 3.84
    C 87.00 2.59
      87.39 1.42
      88.19 0.36
    C 88.86 -0.56
      89.52 -1.03
      90.45 -1.38
    L 90.45 -0.59
    C 89.86 -0.22
      89.48 0.09
      89.14 0.55
    C 88.42 1.52
      88.00 2.70
      88.00 3.84
    C 88.00 4.83
      88.30 5.83
      88.91 6.75
    C 89.31 7.41
      89.75 7.83
      90.45 8.25
    L 90.45 9.00
    M 93.00 -0.84
    L 94.00 -0.84
    L 94.00 0.23
    C 95.17 0.38
      96.00 1.36
      96.00 2.66
    C 96.00 3.31
      95.75 3.91
      95.28 4.31
    C 94.92 4.64
      94.53 4.83
      93.59 5.11
    C 92.36 5.47
      92.00 5.78
      92.00 6.53
    C 92.00 7.44
      92.64 8.00
      93.64 8.00
    C 94.48 8.00
      95.00 7.45
      95.00 6.55
    L 96.00 6.55
    C 96.00 7.78
      95.23 8.61
      94.00 8.80
    L 94.00 9.84
    L 93.00 9.84
    L 93.00 8.80
    C 91.77 8.58
      91.00 7.73
      91.00 6.61
    C 91.00 6.09
      91.19 5.56
      91.52 5.20
    C 91.86 4.80
      92.25 4.59
      93.23 4.31
    C 93.89 4.12
      94.19 4.00
      94.45 3.80
    C 94.80 3.53
      95.00 3.11
      95.00 2.62
    C 95.00 1.67
      94.36 1.00
      93.48 1.00
    C 92.56 1.00
      92.00 1.62
      91.89 2.67
    L 91.00 2.67
    C 91.00 1.34
      91.69 0.48
      93.00 0.23
    L 93.00 -0.84
    M 102.56 0.00
    L 98.84 9.00
    L 98.02 9.00
    L 101.73 0.00
    L 102.56 0.00
    M 105.00 7.00
    L 105.00 -2.00
    L 106.00 -2.00
    L 106.00 1.30
    C 106.56 0.45
      107.42 0.00
      108.48 0.00
    C 110.45 0.00
      112.00 1.53
      112.00 3.48
    C 112.00 5.47
      110.48 7.00
      108.52 7.00
    C 107.42 7.00
      106.53 6.55
      106.00 5.70
    L 106.00 7.00
    L 105.00 7.00
    M 108.48 6.19
    C 109.92 6.19
      111.00 5.03
      111.00 3.48
    C 111.00 1.97
      109.91 0.81
      108.48 0.81
    C 107.06 0.81
      106.00 1.98
      106.00 3.53
    C 106.00 5.02
      107.09 6.19
      108.48 6.19
    M 113.00 0.00
    L 114.00 0.00
    L 114.00 3.77
    C 114.00 4.52
      114.09 4.95
      114.36 5.33
    C 114.72 5.88
      115.31 6.19
      115.98 6.19
    C 116.61 6.19
      117.22 5.89
      117.56 5.44
    C 117.88 5.03
      118.00 4.50
      118.00 3.70
    L 118.00 0.00
    L 119.00 0.00
    L 119.00 3.67
    C 119.00 4.70
      118.81 5.41
      118.42 5.94
    C 117.91 6.61
      117.06 7.00
      116.08 7.00
    C 115.19 7.00
      114.44 6.64
      114.00 5.98
    L 114.00 9.00
    L 113.00 9.00
    L 113.00 0.00
    M 120.00 0.00
    L 121.00 0.00
    L 121.00 6.55
    L 120.00 6.55
    L 120.00 0.00
    M 120.00 7.48
    L 121.00 7.48
    L 121.00 9.00
    L 120.00 9.00
    L 120.00 7.48
    M 121.48 -1.41
    L 122.28 -1.41
    L 125.77 9.00
    L 124.92 9.00
    L 121.48 -1.41
    M 131.56 0.00
    L 127.84 9.00
    L 127.02 9.00
    L 130.73 0.00
    L 131.56 0.00
    M 134.00 7.00
    L 134.00 -2.00
    L 135.00 -2.00
    L 135.00 1.30
    C 135.56 0.45
      136.42 0.00
      137.48 0.00
    C 139.45 0.00
      141.00 1.53
      141.00 3.48
    C 141.00 5.47
      139.48 7.00
      137.52 7.00
    C 136.42 7.00
      135.53 6.55
      135.00 5.70
    L 135.00 7.00
    L 134.00 7.00
    M 137.48 6.19
    C 138.92 6.19
      140.00 5.03
      140.00 3.48
    C 140.00 1.97
      138.91 0.81
      137.48 0.81
    C 136.06 0.81
      135.00 1.98
      135.00 3.53
    C 135.00 5.02
      136.09 6.19
      137.48 6.19
    M 142.00 0.00
    L 143.00 0.00
    L 143.00 3.77
    C 143.00 4.52
      143.09 4.95
      143.36 5.33
    C 143.72 5.88
      144.31 6.19
      144.98 6.19
    C 145.61 6.19
      146.22 5.89
      146.56 5.44
    C 146.88 5.03
      147.00 4.50
      147.00 3.70
    L 147.00 0.00
    L 148.00 0.00
    L 148.00 3.67
    C 148.00 4.70
      147.81 5.41
      147.42 5.94
    C 146.91 6.61
      146.06 7.00
      145.08 7.00
    C 144.19 7.00
      143.44 6.64
      143.00 5.98
    L 143.00 9.00
    L 142.00 9.00
    L 142.00 0.00
    M 149.00 0.00
    L 150.00 0.00
    L 150.00 6.55
    L 149.00 6.55
    L 149.00 0.00
    M 149.00 7.48
    L 150.00 7.48
    L 150.00 9.00
    L 149.00 9.00
    L 149.00 7.48
    M 150.00 -1.00
    L 150.00 -2.00
    L 156.00 -2.00
    L 156.00 -1.00
    L 150.00 -1.00
    M 158.00 7.38
    C 158.00 7.73
      158.11 8.02
      158.28 8.09
    C 158.39 8.16
      158.45 8.17
      158.94 8.22
    L 158.94 9.00
    C 158.09 9.00
      157.88 8.97
      157.58 8.77
    C 157.19 8.53
      157.00 8.08
      157.00 7.36
    L 157.00 5.31
    C 157.00 4.58
      156.83 4.38
      156.05 4.25
    L 156.05 3.42
    C 156.83 3.28
      157.00 3.09
      157.00 2.36
    L 157.00 0.31
    C 157.00 -0.41
      157.19 -0.86
      157.58 -1.11
    C 157.88 -1.30
      158.09 -1.34
      158.94 -1.36
    L 158.94 -0.55
    L 158.81 -0.53
    C 158.17 -0.47
      158.00 -0.31
      158.00 0.30
    L 158.00 2.34
    C 158.00 3.16
      157.78 3.50
      157.08 3.75
    C 157.05 3.75
      156.95 3.78
      156.86 3.83
    C 156.97 3.88
      157.05 3.91
      157.09 3.91
    C 157.78 4.16
      158.00 4.50
      158.00 5.33
    L 158.00 7.38
    M 161.00 0.00
    L 162.00 0.00
    L 162.00 4.08
    C 162.00 5.39
      162.62 6.11
      163.86 6.23
    L 163.86 7.00
    C 162.91 7.00
      162.34 6.69
      162.00 6.00
    L 162.00 7.00
    L 161.00 7.00
    L 161.00 0.00
    M 165.00 0.30
    C 165.00 0.06
      164.94 -0.19
      164.86 -0.31
    C 164.77 -0.45
      164.62 -0.50
      164.19 -0.53
    L 164.06 -0.55
    L 164.06 -1.36
    C 164.97 -1.34
      165.27 -1.28
      165.58 -1.00
    C 165.84 -0.77
      166.00 -0.31
      166.00 0.31
    L 166.00 2.36
    C 166.00 3.09
      166.16 3.30
      166.91 3.42
    L 166.91 4.25
    C 166.16 4.38
      166.00 4.58
      166.00 5.31
    L 166.00 7.36
    C 166.00 7.92
      165.88 8.36
      165.64 8.61
    C 165.33 8.92
      165.03 9.00
      164.06 9.00
    L 164.06 8.22
    L 164.19 8.20
    C 164.59 8.17
      164.73 8.14
      164.83 8.02
    C 164.94 7.89
      165.00 7.62
      165.00 7.36
    L 165.00 5.33
    C 165.00 4.50
      165.22 4.16
      165.91 3.91
    C 165.95 3.91
      166.03 3.88
      166.14 3.83
    C 166.05 3.78
      165.95 3.75
      165.92 3.75
    C 165.22 3.50
      165.00 3.17
      165.00 2.34
    L 165.00 0.30
    M 171.00 -0.84
    L 172.00 -0.84
    L 172.00 0.23
    C 173.17 0.38
      174.00 1.36
      174.00 2.66
    C 174.00 3.31
      173.75 3.91
      173.28 4.31
    C 172.92 4.64
      172.53 4.83
      171.59 5.11
    C 170.36 5.47
      170.00 5.78
      170.00 6.53
    C 170.00 7.44
      170.64 8.00
      171.64 8.00
    C 172.48 8.00
      173.00 7.45
      173.00 6.55
    L 174.00 6.55
    C 174.00 7.78
      173.23 8.61
      172.00 8.80
    L 172.00 9.84
    L 171.00 9.84
    L 171.00 8.80
    C 169.77 8.58
      169.00 7.73
      169.00 6.61
    C 169.00 6.09
      169.19 5.56
      169.52 5.20
    C 169.86 4.80
      170.25 4.59
      171.23 4.31
    C 171.89 4.12
      172.19 4.00
      172.45 3.80
    C 172.80 3.53
      173.00 3.11
      173.00 2.62
    C 173.00 1.67
      172.36 1.00
      171.48 1.00
    C 170.56 1.00
      170.00 1.62
      169.89 2.67
    L 169.00 2.67
    C 169.00 1.34
      169.69 0.48
      171.00 0.23
    L 171.00 -0.84
    M 175.55 -1.38
    C 176.27 -1.14
      176.70 -0.88
      177.22 -0.38
    C 178.33 0.72
      179.00 2.28
      179.00 3.80
    C 179.00 5.05
      178.61 6.22
      177.81 7.28
    C 177.14 8.19
      176.48 8.67
      175.55 9.00
    L 175.55 8.22
    C 176.14 7.86
      176.52 7.53
      176.86 7.08
    C 177.58 6.11
      178.00 4.92
      178.00 3.80
    C 178.00 2.81
      177.70 1.83
      177.09 0.89
    C 176.69 0.25
      176.25 -0.19
      175.55 -0.59
    L 175.55 -1.38
    " />
</g>

<polyline fill="none" stroke="#000000" stroke-width="0.714" points="51.5478,610.438 56.5524,610.438"/>
<text fill="#000000" x="49.5459" y="610.438" font-size="12" text-anchor="end" baseline-shift="-6" font-family="Helvetica">5.44</text>
<polyline fill="none" stroke="#000000" stroke-width="0.714" points="51.5478,557.356 56.5524,557.356"/>
<text fill="#000000" x="49.5459" y="557.356" font-size="12" text-anchor="end" baseline-shift="-6" font-family="Helvetica">5.46</text>
<polyline fill="none" stroke="#000000" stroke-width="0.714" points="51.5478,503.273 56.5524,503.273"/>
<text fill="#000000" x="49.5459" y="503.273" font-size="12" text-anchor="end" baseline-shift="-6" font-family="Helvetica">5.48</text>
<polyline fill="none" stroke="#000000" stroke-width="0.714" points="51.5478,450.192 56.5524,450.192"/>
<text fill="#000000" x="49.5459" y="450.192" font-size="12" text-anchor="end" baseline-shift="-6" font-family="Helvetica">5.5</text>
<polyline fill="none" stroke="#000000" stroke-width="0.714" points="51.5478,397.11 56.5524,397.11"/>
<text fill="#000000" x="49.5459" y="397.11" font-size="12" text-anchor="end" baseline-shift="-6" font-family="Helvetica">5.52</text>
<polyline fill="none" stroke="#000000" stroke-width="0.714" points="51.5478,343.027 56.5524,343.027"/>
<text fill="#000000" x="49.5459" y="343.027" font-size="12" text-anchor="end" baseline-shift="-6" font-family="Helvetica">5.54</text>
<polyline fill="none" stroke="#000000" stroke-width="0.714" points="51.5478,289.945 56.5524,289.945"/>
<text fill="#000000" x="49.5459" y="289.945" font-size="12" text-anchor="end" baseline-shift="-6" font-family="Helvetica">5.56</text>
<polyline fill="none" stroke="#000000" stroke-width="0.714" points="51.5478,235.862 56.5524,235.862"/>
<text fill="#000000" x="49.5459" y="235.862" font-size="12" text-anchor="end" baseline-shift="-6" font-family="Helvetica">5.58</text>
<polyline fill="none" stroke="#000000" stroke-width="0.714" points="51.5478,182.781 56.5524,182.781"/>
<text fill="#000000" x="49.5459" y="182.781" font-size="12" text-anchor="end" baseline-shift="-6" font-family="Helvetica">5.6</text>
<polyline fill="none" stroke="#000000" stroke-width="0.714" points="51.5478,128.698 56.5524,128.698"/>
<text fill="#000000" x="49.5459" y="128.698" font-size="12" text-anchor="end" baseline-shift="-6" font-family="Helvetica">5.62</text>
<polyline fill="none" stroke="#000000" stroke-width="0.714" points="51.5478,75.6162 56.5524,75.6162"/>
<text fill="#000000" x="49.5459" y="75.6162" font-size="12" text-anchor="end" baseline-shift="-6" font-family="Helvetica">5.64</text>
<polyline fill="none" stroke="#000000" stroke-width="0.714" points="51.5478,22.5347 56.5524,22.5347"/>
<text fill="#000000" x="49.5459" y="22.5347" font-size="12" text-anchor="end" baseline-shift="-6" font-family="Helvetica">5.66</text>
<polyline fill="none" stroke="#000000" stroke-width="0.714" points="56.5524,610.438 1060.48,610.438"/>
<!--  Pathified string: Model width ($ m$) -->
<g transform="
     translate(558.02 632.47)
     scale(1.0 -1.0)
     rotate(0.00)"
   stroke="none"
   fill="rgb(0,0,0)"
   opacity="1.00"
>
  <path d="
    M -56.00 -8.00
    L -54.16 -8.00
    L -54.16 -1.25
    L -52.09 -8.00
    L -50.91 -8.00
    L -48.84 -1.25
    L -48.84 -8.00
    L -47.00 -8.00
    L -47.00 1.00
    L -49.39 1.00
    L -51.48 -5.81
    L -53.61 1.00
    L -56.00 1.00
    L -56.00 -8.00
    M -42.02 -1.00
    C -44.12 -1.00
      -45.84 -2.58
      -45.84 -4.50
    C -45.84 -6.44
      -44.12 -8.00
      -42.00 -8.00
    C -39.91 -8.00
      -38.16 -6.44
      -38.16 -4.55
    C -38.16 -2.56
      -39.84 -1.00
      -42.02 -1.00
    M -42.00 -2.47
    C -40.89 -2.47
      -40.00 -3.39
      -40.00 -4.50
    C -40.00 -5.62
      -40.91 -6.53
      -42.00 -6.53
    C -43.12 -6.53
      -44.00 -5.62
      -44.00 -4.47
    C -44.00 -3.38
      -43.09 -2.47
      -42.00 -2.47
    M -30.16 1.00
    L -32.00 1.00
    L -32.00 -1.83
    C -32.50 -1.31
      -33.30 -1.00
      -34.19 -1.00
    C -36.23 -1.00
      -37.84 -2.55
      -37.84 -4.53
    C -37.84 -6.48
      -36.25 -8.00
      -34.17 -8.00
    C -33.28 -8.00
      -32.62 -7.70
      -32.00 -6.98
    L -32.00 -8.00
    L -30.16 -8.00
    L -30.16 1.00
    M -33.95 -2.47
    C -32.84 -2.47
      -32.00 -3.36
      -32.00 -4.50
    C -32.00 -5.64
      -32.84 -6.53
      -33.91 -6.53
    C -35.09 -6.53
      -36.00 -5.61
      -36.00 -4.45
    C -36.00 -3.34
      -35.11 -2.47
      -33.95 -2.47
    M -22.77 -5.16
    C -22.72 -4.97
      -22.70 -4.86
      -22.70 -4.66
    C -22.70 -2.55
      -24.16 -1.00
      -26.14 -1.00
    C -28.09 -1.00
      -29.64 -2.59
      -29.64 -4.59
    C -29.64 -6.52
      -28.06 -8.00
      -26.05 -8.00
    C -24.95 -8.00
      -24.09 -7.59
      -23.41 -6.78
    C -23.14 -6.47
      -22.98 -6.19
      -22.88 -5.84
    L -24.61 -5.84
    C -25.02 -6.34
      -25.42 -6.53
      -26.08 -6.53
    C -27.03 -6.53
      -27.72 -6.00
      -27.91 -5.16
    L -22.77 -5.16
    M -27.95 -4.00
    C -27.70 -3.02
      -27.06 -2.47
      -26.11 -2.47
    C -25.12 -2.47
      -24.48 -3.02
      -24.28 -4.00
    L -27.95 -4.00
    M -21.00 -8.00
    L -19.16 -8.00
    L -19.16 1.00
    L -21.00 1.00
    L -21.00 -8.00
    M -13.50 -8.00
    L -12.52 -8.00
    L -11.23 -3.47
    L -9.97 -8.00
    L -8.98 -8.00
    L -6.58 -1.00
    L -8.28 -1.00
    L -9.50 -5.27
    L -10.59 -1.00
    L -11.86 -1.00
    L -12.97 -5.27
    L -14.16 -1.00
    L -15.88 -1.00
    L -13.50 -8.00
    M -5.00 -8.00
    L -3.16 -8.00
    L -3.16 -1.36
    L -5.00 -1.36
    L -5.00 -8.00
    M -5.00 -0.50
    L -3.16 -0.50
    L -3.16 1.00
    L -5.00 1.00
    L -5.00 -0.50
    M 4.84 1.00
    L 3.00 1.00
    L 3.00 -1.83
    C 2.50 -1.31
      1.70 -1.00
      0.81 -1.00
    C -1.23 -1.00
      -2.84 -2.55
      -2.84 -4.53
    C -2.84 -6.48
      -1.25 -8.00
      0.83 -8.00
    C 1.72 -8.00
      2.38 -7.70
      3.00 -6.98
    L 3.00 -8.00
    L 4.84 -8.00
    L 4.84 1.00
    M 1.05 -2.47
    C 2.16 -2.47
      3.00 -3.36
      3.00 -4.50
    C 3.00 -5.64
      2.16 -6.53
      1.09 -6.53
    C -0.09 -6.53
      -1.00 -5.61
      -1.00 -4.45
    C -1.00 -3.34
      -0.11 -2.47
      1.05 -2.47
    M 6.00 -8.00
    L 7.84 -8.00
    L 7.84 -2.45
    L 8.80 -2.45
    L 8.80 -1.00
    L 7.84 -1.00
    L 7.84 1.00
    L 6.00 1.00
    L 6.00 -1.00
    L 5.22 -1.00
    L 5.22 -2.45
    L 6.00 -2.45
    L 6.00 -8.00
    M 10.00 -8.00
    L 11.84 -8.00
    L 11.84 -4.50
    C 11.84 -3.81
      11.89 -3.44
      12.03 -3.12
    C 12.20 -2.70
      12.55 -2.47
      12.97 -2.47
    C 13.72 -2.47
      14.00 -3.05
      14.00 -4.48
    L 14.00 -8.00
    L 15.84 -8.00
    L 15.84 -4.14
    C 15.84 -3.14
      15.72 -2.59
      15.39 -2.08
    C 14.94 -1.38
      14.16 -1.00
      13.19 -1.00
    C 12.64 -1.00
      12.22 -1.19
      11.84 -1.62
    L 11.84 1.00
    L 10.00 1.00
    L 10.00 -8.00
    M 23.53 -7.77
    C 22.55 -7.12
      21.84 -5.67
      21.84 -4.27
    C 21.84 -2.81
      22.44 -1.58
      23.53 -0.73
    L 23.53 1.00
    C 22.84 0.73
      22.48 0.52
      21.98 0.09
    C 20.75 -0.94
      20.00 -2.58
      20.00 -4.27
    C 20.00 -5.75
      20.61 -7.23
      21.64 -8.33
    C 22.27 -8.95
      22.77 -9.27
      23.53 -9.52
    L 23.53 -7.77
    M 25.66 -5.05
    L 25.66 -5.19
    C 25.66 -5.83
      25.89 -6.50
      26.28 -6.92
    C 26.48 -7.16
      26.67 -7.30
      27.00 -7.42
    L 27.00 -9.00
    L 28.84 -9.00
    L 28.84 -7.42
    C 29.58 -7.11
      30.00 -6.22
      30.00 -5.02
    C 30.00 -4.30
      29.84 -3.72
      29.56 -3.36
    C 29.39 -3.14
      29.20 -3.00
      28.75 -2.77
    C 28.34 -2.56
      28.20 -2.47
      28.08 -2.31
    C 27.94 -2.17
      27.84 -1.91
      27.84 -1.64
    C 27.84 -1.22
      28.05 -0.92
      28.31 -0.92
    C 28.58 -0.92
      28.77 -1.17
      28.83 -1.62
    L 30.00 -1.62
    C 30.00 -0.62
      29.50 0.25
      28.84 0.41
    L 28.84 2.00
    L 27.00 2.00
    L 27.00 0.41
    C 26.73 0.31
      26.58 0.19
      26.42 -0.05
    C 26.16 -0.47
      26.00 -1.08
      26.00 -1.73
    C 26.00 -2.72
      26.34 -3.42
      27.02 -3.78
    C 27.70 -4.16
      27.70 -4.16
      27.84 -4.28
    C 28.06 -4.48
      28.16 -4.72
      28.16 -5.08
    C 28.16 -5.61
      28.20 -6.02
      28.28 -6.02
    C 28.02 -6.02
      27.84 -5.62
      27.84 -5.05
    L 25.66 -5.05
    M 35.00 -8.00
    L 36.84 -8.00
    L 36.84 -4.61
    C 36.84 -3.92
      36.89 -3.47
      36.98 -3.17
    C 37.14 -2.73
      37.48 -2.47
      37.92 -2.47
    C 38.28 -2.47
      38.59 -2.62
      38.77 -2.91
    C 38.94 -3.17
      39.00 -3.58
      39.00 -4.22
    L 39.00 -8.00
    L 40.84 -8.00
    L 40.84 -4.61
    C 40.84 -3.84
      40.89 -3.45
      41.03 -3.12
    C 41.20 -2.70
      41.55 -2.47
      41.97 -2.47
    C 42.30 -2.47
      42.58 -2.62
      42.75 -2.89
    C 42.94 -3.16
      43.00 -3.53
      43.00 -4.22
    L 43.00 -8.00
    L 44.84 -8.00
    L 44.84 -4.05
    C 44.84 -3.22
      44.70 -2.56
      44.41 -2.09
    C 43.97 -1.39
      43.11 -1.00
      42.09 -1.00
    C 41.22 -1.00
      40.61 -1.31
      40.11 -2.03
    C 39.66 -1.31
      39.08 -1.00
      38.17 -1.00
    C 37.58 -1.00
      37.20 -1.22
      36.84 -1.78
    L 36.84 -1.00
    L 35.00 -1.00
    L 35.00 -8.00
    M 46.66 -5.05
    L 46.66 -5.19
    C 46.66 -5.83
      46.89 -6.50
      47.28 -6.92
    C 47.48 -7.16
      47.67 -7.30
      48.00 -7.42
    L 48.00 -9.00
    L 49.84 -9.00
    L 49.84 -7.42
    C 50.58 -7.11
      51.00 -6.22
      51.00 -5.02
    C 51.00 -4.30
      50.84 -3.72
      50.56 -3.36
    C 50.39 -3.14
      50.20 -3.00
      49.75 -2.77
    C 49.34 -2.56
      49.20 -2.47
      49.08 -2.31
    C 48.94 -2.17
      48.84 -1.91
      48.84 -1.64
    C 48.84 -1.22
      49.05 -0.92
      49.31 -0.92
    C 49.58 -0.92
      49.77 -1.17
      49.83 -1.62
    L 51.00 -1.62
    C 51.00 -0.62
      50.50 0.25
      49.84 0.41
    L 49.84 2.00
    L 48.00 2.00
    L 48.00 0.41
    C 47.73 0.31
      47.58 0.19
      47.42 -0.05
    C 47.16 -0.47
      47.00 -1.08
      47.00 -1.73
    C 47.00 -2.72
      47.34 -3.42
      48.02 -3.78
    C 48.70 -4.16
      48.70 -4.16
      48.84 -4.28
    C 49.06 -4.48
      49.16 -4.72
      49.16 -5.08
    C 49.16 -5.61
      49.20 -6.02
      49.28 -6.02
    C 49.02 -6.02
      48.84 -5.62
      48.84 -5.05
    L 46.66 -5.05
    M 52.47 -0.88
    C 53.45 -1.52
      54.16 -2.97
      54.16 -4.38
    C 54.16 -5.83
      53.56 -7.08
      52.47 -7.92
    L 52.47 -9.64
    C 53.16 -9.38
      53.52 -9.16
      54.02 -8.75
    C 55.25 -7.72
      56.00 -6.06
      56.00 -4.38
    C 56.00 -2.89
      55.39 -1.41
      54.36 -0.31
    C 53.73 0.30
      53.23 0.61
      52.47 0.88
    L 52.47 -0.88
    " />
</g>

<polyline fill="none" stroke="#000000" stroke-width="0.714" points="75.57,615.445 75.57,610.438"/>
<text fill="#000000" x="75.57" y="617.448" font-size="12" text-anchor="middle" baseline-shift="-12" font-family="Helvetica">0</text>
<polyline fill="none" stroke="#000000" stroke-width="0.714" points="174.662,615.445 174.662,610.438"/>
<text fill="#000000" x="174.662" y="617.448" font-size="12" text-anchor="middle" baseline-shift="-12" font-family="Helvetica">0.005</text>
<polyline fill="none" stroke="#000000" stroke-width="0.714" points="273.753,615.445 273.753,610.438"/>
<text fill="#000000" x="273.753" y="617.448" font-size="12" text-anchor="middle" baseline-shift="-12" font-family="Helvetica">0.01</text>
<polyline fill="none" stroke="#000000" stroke-width="0.714" points="372.845,615.445 372.845,610.438"/>
<text fill="#000000" x="372.845" y="617.448" font-size="12" text-anchor="middle" baseline-shift="-12" font-family="Helvetica">0.015</text>
<polyline fill="none" stroke="#000000" stroke-width="0.714" points="471.937,615.445 471.937,610.438"/>
<text fill="#000000" x="471.937" y="617.448" font-size="12" text-anchor="middle" baseline-shift="-12" font-family="Helvetica">0.02</text>
<polyline fill="none" stroke="#000000" stroke-width="0.714" points="571.029,615.445 571.029,610.438"/>
<text fill="#000000" x="571.029" y="617.448" font-size="12" text-anchor="middle" baseline-shift="-12" font-family="Helvetica">0.025</text>
<polyline fill="none" stroke="#000000" stroke-width="0.714" points="670.121,615.445 670.121,610.438"/>
<text fill="#000000" x="670.121" y="617.448" font-size="12" text-anchor="middle" baseline-shift="-12" font-family="Helvetica">0.03</text>
<polyline fill="none" stroke="#000000" stroke-width="0.714" points="769.212,615.445 769.212,610.438"/>
<text fill="#000000" x="769.212" y="617.448" font-size="12" text-anchor="middle" baseline-shift="-12" font-family="Helvetica">0.035</text>
<polyline fill="none" stroke="#000000" stroke-width="0.714" points="868.304,615.445 868.304,610.438"/>
<text fill="#000000" x="868.304" y="617.448" font-size="12" text-anchor="middle" baseline-shift="-12" font-family="Helvetica">0.04</text>
<polyline fill="none" stroke="#000000" stroke-width="0.714" points="966.395,615.445 966.395,610.438"/>
<text fill="#000000" x="966.395" y="617.448" font-size="12" text-anchor="middle" baseline-shift="-12" font-family="Helvetica">0.045</text>
<polygon fill="#ffffff" points="929.361,58.59 1060.48,58.59 929.361,19.53"/>
<polygon fill="#ffffff" points="1060.48,58.59 1060.48,19.53 929.361,19.53"/>
<polyline fill="none" stroke="#000000" stroke-width="0.714" points="929.361,58.59 1060.48,58.59 1060.48,19.53 929.361,19.53 929.361,58.59"/>
<text fill="#000000" x="959.388" y="36.5562" font-size="12" text-anchor="start" baseline-shift="0" font-family="Helvetica">Flux - coupled</text>
<polyline fill="none" stroke="#e2191c" stroke-width="1.428" points="934.365,30.5469 956.386,30.5469"/>
<text fill="#000000" x="959.388" y="53.5823" font-size="12" text-anchor="start" baseline-shift="0" font-family="Helvetica">Flux - standalone</text>
<polyline fill="none" stroke="#000000" stroke-width="1.428" stroke-dasharray="8,8" points="934.365,47.5731 956.386,47.5731"/>
</g>
</svg>
