<?xml version="1.0" encoding="UTF-8" standalone="no"?>
<svg xmlns="http://www.w3.org/2000/svg"
     xmlns:xlink="http://www.w3.org/1999/xlink"
     width="492px" height="498px" viewBox="0 0 492 498">
<title>ParaView GL2PS Export</title>
<desc>
Creator: GL2PS 1.3.8, (C) 1999-2012 C. Geuzaine
For: VTK
CreationDate: Tue Nov  8 16:43:46 2016
</desc>
<defs>
</defs>
<g shape-rendering="crispEdges">
<polyline fill="none" stroke="#f2f2f2" stroke-width="0.714" points="121.747,463.431 121.747,19.5392"/>
<polyline fill="none" stroke="#f2f2f2" stroke-width="0.714" points="204.917,463.431 204.917,19.5392"/>
<polyline fill="none" stroke="#f2f2f2" stroke-width="0.714" points="288.086,463.431 288.086,19.5392"/>
<polyline fill="none" stroke="#f2f2f2" stroke-width="0.714" points="370.253,463.431 370.253,19.5392"/>
<polyline fill="none" stroke="#f2f2f2" stroke-width="0.714" points="453.422,463.431 453.422,19.5392"/>
<polyline fill="none" stroke="#f2f2f2" stroke-width="0.714" points="70.6436,453.41 472.46,453.41"/>
<polyline fill="none" stroke="#f2f2f2" stroke-width="0.714" points="70.6436,395.294 472.46,395.294"/>
<polyline fill="none" stroke="#f2f2f2" stroke-width="0.714" points="70.6436,337.177 472.46,337.177"/>
<polyline fill="none" stroke="#f2f2f2" stroke-width="0.714" points="70.6436,279.06 472.46,279.06"/>
<polyline fill="none" stroke="#f2f2f2" stroke-width="0.714" points="70.6436,220.944 472.46,220.944"/>
<polyline fill="none" stroke="#f2f2f2" stroke-width="0.714" points="70.6436,162.827 472.46,162.827"/>
<polyline fill="none" stroke="#f2f2f2" stroke-width="0.714" points="70.6436,104.71 472.46,104.71"/>
<polyline fill="none" stroke="#f2f2f2" stroke-width="0.714" points="70.6436,46.5936 472.46,46.5936"/>
<polyline fill="none" stroke="#e2191c" stroke-width="1.428" points="76.9132,452.76 80.7379,452.76 84.5625,350.447 88.3872,350.964 92.2118,351.584 96.0365,352.155 99.8611,352.639 103.686,353.159 107.51,353.673 111.335,354.118 115.16,354.519 118.984,354.974 122.809,355.403 126.634,355.811 130.458,356.113 134.283,356.405 138.108,356.676 141.932,356.945 145.757,357.214 149.581,357.473 153.406,357.72 157.231,357.966 161.055,358.202 164.88,358.437 168.705,358.658 172.529,358.87 176.354,359.082 180.179,359.265 184.003,359.446 187.828,359.627 191.653,359.767 195.477,359.904 199.302,360.041 203.127,360.146 206.951,360.231 210.776,360.316 214.6,360.401 218.425,360.432 222.25,360.462 226.074,360.492 229.899,360.523 233.724,360.501 237.548,360.479 241.373,360.458 245.198,360.436 249.022,360.36 252.847,360.284 256.672,360.208 260.496,360.112 264.321,359.981 268.146,359.85 271.97,359.717 275.795,359.558 279.619,359.398 283.444,359.237 287.269,359.05 291.093,358.863 294.918,358.651 298.743,358.391 302.567,358.131 306.392,357.842 310.217,357.548 314.041,357.265 317.866,356.988 321.691,356.703 325.515,356.411 329.34,356.097 333.165,355.774 336.989,355.38 340.814,354.959 344.638,354.502 348.463,354.059 352.288,353.619 356.112,353.16 359.937,352.694 363.762,352.226 367.586,351.657 371.411,351.005 375.236,350.474 379.06,452.76 382.885,452.76"/>
<polyline fill="none" stroke="#5400ff" stroke-width="1.428" stroke-dasharray="8,8" points="76.9132,452.76 80.7379,452.76 84.5625,350.604 88.3872,351.086 92.2118,351.667 96.0365,352.201 99.8611,352.654 103.686,353.142 107.51,353.624 111.335,354.043 115.16,354.42 118.984,354.848 122.809,355.253 126.634,355.639 130.458,355.926 134.283,356.202 138.108,356.458 141.932,356.713 145.757,356.967 149.581,357.213 153.406,357.447 157.231,357.679 161.055,357.903 164.88,358.127 168.705,358.337 172.529,358.539 176.354,358.74 180.179,358.915 184.003,359.087 187.828,359.259 191.653,359.393 195.477,359.523 199.302,359.654 203.127,359.755 206.951,359.836 210.776,359.918 214.6,360 218.425,360.03 222.25,360.059 226.074,360.088 229.899,360.117 233.724,360.097 237.548,360.076 241.373,360.055 245.198,360.034 249.022,359.961 252.847,359.888 256.672,359.815 260.496,359.722 264.321,359.597 268.146,359.472 271.97,359.345 275.795,359.193 279.619,359.042 283.444,358.888 287.269,358.71 291.093,358.532 294.918,358.33 298.743,358.083 302.567,357.837 306.392,357.562 310.217,357.284 314.041,357.015 317.866,356.753 321.691,356.484 325.515,356.207 329.34,355.911 333.165,355.605 336.989,355.234 340.814,354.836 344.638,354.406 348.463,353.989 352.288,353.575 356.112,353.144 359.937,352.707 363.762,352.269 367.586,351.737 371.411,351.127 375.236,350.631 379.06,452.76 382.885,452.76"/>
<polyline fill="none" stroke="#ff007e" stroke-width="1.428" points="76.9132,452.76 80.7379,452.76 84.5625,247.523 88.3872,248.612 92.2118,249.917 96.0365,251.118 99.8611,252.137 103.686,253.229 107.51,254.324 111.335,255.313 115.16,256.241 118.984,257.298 122.809,258.29 126.634,259.227 130.458,259.915 134.283,260.582 138.108,261.207 141.932,261.828 145.757,262.447 149.581,263.044 153.406,263.611 157.231,264.174 161.055,264.712 164.88,265.249 168.705,265.751 172.529,266.235 176.354,266.718 180.179,267.135 184.003,267.547 187.828,267.958 191.653,268.276 195.477,268.585 199.302,268.895 203.127,269.131 206.951,269.32 210.776,269.51 214.6,269.699 218.425,269.767 222.25,269.833 226.074,269.9 229.899,269.966 233.724,269.918 237.548,269.87 241.373,269.823 245.198,269.773 249.022,269.605 252.847,269.438 256.672,269.27 260.496,269.053 264.321,268.76 268.146,268.466 271.97,268.166 275.795,267.803 279.619,267.441 283.444,267.073 287.269,266.649 291.093,266.225 294.918,265.742 298.743,265.149 302.567,264.556 306.392,263.894 310.217,263.221 314.041,262.571 317.866,261.936 321.691,261.28 325.515,260.605 329.34,259.884 333.165,259.139 336.989,258.232 340.814,257.257 344.638,256.197 348.463,255.181 352.288,254.206 356.112,253.228 359.937,252.248 363.762,251.264 367.586,250.068 371.411,248.695 375.236,247.577 379.06,452.76 382.885,452.76"/>
<polyline fill="none" stroke="#00aa7e" stroke-width="1.428" stroke-dasharray="8,8" points="76.9132,452.76 80.7379,452.76 84.5625,248.66 88.3872,249.611 92.2118,250.756 96.0365,251.808 99.8611,252.701 103.686,253.663 107.51,254.614 111.335,255.44 115.16,256.183 118.984,257.025 122.809,257.824 126.634,258.586 130.458,259.151 134.283,259.696 138.108,260.201 141.932,260.703 145.757,261.204 149.581,261.688 153.406,262.15 157.231,262.608 161.055,263.05 164.88,263.492 168.705,263.905 172.529,264.303 176.354,264.701 180.179,265.045 184.003,265.384 187.828,265.723 191.653,265.988 195.477,266.246 199.302,266.503 203.127,266.702 206.951,266.863 210.776,267.025 214.6,267.187 218.425,267.245 222.25,267.303 226.074,267.36 229.899,267.418 233.724,267.377 237.548,267.336 241.373,267.295 245.198,267.253 249.022,267.109 252.847,266.965 256.672,266.821 260.496,266.638 264.321,266.392 268.146,266.145 271.97,265.894 275.795,265.595 279.619,265.295 283.444,264.992 287.269,264.641 291.093,264.29 294.918,263.892 298.743,263.406 302.567,262.919 306.392,262.378 310.217,261.828 314.041,261.299 317.866,260.783 321.691,260.251 325.515,259.706 329.34,259.122 333.165,258.519 336.989,257.786 340.814,257.003 344.638,256.154 348.463,255.332 352.288,254.516 356.112,253.668 359.937,252.805 363.762,251.942 367.586,250.894 371.411,249.691 375.236,248.715 379.06,452.76 382.885,452.76"/>
<polyline fill="none" stroke="#aa0000" stroke-width="1.428" points="76.9132,452.76 80.7379,452.76 84.5625,38.233 88.3872,41.1409 92.2118,44.594 96.0365,47.7887 99.8611,50.5052 103.686,53.3866 107.51,56.2517 111.335,58.816 115.16,61.1895 118.984,63.8928 122.809,66.4048 126.634,68.7571 130.458,70.4716 134.283,72.1426 138.108,73.727 141.932,75.3044 145.757,76.874 149.581,78.3889 153.406,79.8235 157.231,81.2463 161.055,82.5979 164.88,83.9495 168.705,85.212 172.529,86.4277 176.354,87.6434 180.179,88.6944 184.003,89.7317 187.828,90.7689 191.653,91.5638 195.477,92.3375 199.302,93.111 203.127,93.6931 206.951,94.1563 210.776,94.6196 214.6,95.0829 218.425,95.2455 222.25,95.4047 226.074,95.5638 229.899,95.723 233.724,95.6067 237.548,95.4905 241.373,95.3742 245.198,95.2546 249.022,94.8473 252.847,94.44 256.672,94.0327 260.496,93.5019 264.321,92.7719 268.146,92.0418 271.97,91.2968 275.795,90.3829 279.619,89.4691 283.444,88.5436 287.269,87.4806 291.093,86.4176 294.918,85.2064 298.743,83.7133 302.567,82.2201 306.392,80.5508 310.217,78.8524 314.041,77.2092 317.866,75.6036 321.691,73.9396 325.515,72.2255 329.34,70.4014 333.165,68.522 336.989,66.224 340.814,63.7515 344.638,61.0536 348.463,58.4661 352.288,55.9417 356.112,53.3738 359.937,50.7799 363.762,48.1628 367.586,44.9853 371.411,41.3391 375.236,38.3532 379.06,452.76 382.885,452.76"/>
<polyline fill="none" stroke="#005400" stroke-width="1.428" stroke-dasharray="8,8" points="76.9132,452.76 80.7379,452.76 84.5625,44.8087 88.3872,46.6707 92.2118,48.9124 96.0365,50.9741 99.8611,52.7233 103.686,54.6074 107.51,56.4703 111.335,58.0886 115.16,59.5444 118.984,61.1954 122.809,62.7625 126.634,64.2554 130.458,65.3633 134.283,66.4317 138.108,67.4214 141.932,68.4072 145.757,69.3885 149.581,70.3389 153.406,71.2437 157.231,72.1432 161.055,73.0102 164.88,73.8771 168.705,74.6876 172.529,75.4684 176.354,76.2492 180.179,76.9236 184.003,77.589 187.828,78.2545 191.653,78.7735 195.477,79.2796 199.302,79.7858 203.127,80.1751 206.951,80.4922 210.776,80.8093 214.6,81.1263 218.425,81.2413 222.25,81.3541 226.074,81.4667 229.899,81.5795 233.724,81.4991 237.548,81.4189 241.373,81.3385 245.198,81.2559 249.022,80.9735 252.847,80.6912 256.672,80.4088 260.496,80.0496 264.321,79.5662 268.146,79.0827 271.97,78.5909 275.795,78.0032 279.619,77.4155 283.444,76.8199 287.269,76.1313 291.093,75.4427 294.918,74.6625 298.743,73.708 302.567,72.7535 306.392,71.6926 310.217,70.6142 314.041,69.5753 317.866,68.5632 321.691,67.5208 325.515,66.4523 329.34,65.3078 333.165,64.1251 336.989,62.6892 340.814,61.1533 344.638,59.4889 348.463,57.8793 352.288,56.2804 356.112,54.6174 359.937,52.928 363.762,51.2366 367.586,49.183 371.411,46.8278 375.236,44.9164 379.06,452.76 382.885,452.76"/>
<polyline fill="none" stroke="#000000" stroke-width="0.714" points="70.6436,463.431 70.6436,19.5392"/>
<text fill="#000000" x="15.5316" y="241.986" font-size="12" transform="rotate(-90, 15.5316, 241.986)" text-anchor="middle" baseline-shift="0" font-family="Helvetica" font-weight="bold">Power [kW/m³ ]</text>
<polyline fill="none" stroke="#000000" stroke-width="0.714" points="65.6334,453.41 70.6436,453.41"/>
<text fill="#000000" x="63.6293" y="453.41" font-size="12" text-anchor="end" baseline-shift="-6" font-family="Helvetica">0</text>
<polyline fill="none" stroke="#000000" stroke-width="0.714" points="65.6334,395.294 70.6436,395.294"/>
<text fill="#000000" x="63.6293" y="395.294" font-size="12" text-anchor="end" baseline-shift="-6" font-family="Helvetica">5e+06</text>
<polyline fill="none" stroke="#000000" stroke-width="0.714" points="65.6334,337.177 70.6436,337.177"/>
<text fill="#000000" x="63.6293" y="337.177" font-size="12" text-anchor="end" baseline-shift="-6" font-family="Helvetica">1e+07</text>
<polyline fill="none" stroke="#000000" stroke-width="0.714" points="65.6334,279.06 70.6436,279.06"/>
<text fill="#000000" x="63.6293" y="279.06" font-size="12" text-anchor="end" baseline-shift="-6" font-family="Helvetica">1.5e+07</text>
<polyline fill="none" stroke="#000000" stroke-width="0.714" points="65.6334,220.944 70.6436,220.944"/>
<text fill="#000000" x="63.6293" y="220.944" font-size="12" text-anchor="end" baseline-shift="-6" font-family="Helvetica">2e+07</text>
<polyline fill="none" stroke="#000000" stroke-width="0.714" points="65.6334,162.827 70.6436,162.827"/>
<text fill="#000000" x="63.6293" y="162.827" font-size="12" text-anchor="end" baseline-shift="-6" font-family="Helvetica">2.5e+07</text>
<polyline fill="none" stroke="#000000" stroke-width="0.714" points="65.6334,104.71 70.6436,104.71"/>
<text fill="#000000" x="63.6293" y="104.71" font-size="12" text-anchor="end" baseline-shift="-6" font-family="Helvetica">3e+07</text>
<polyline fill="none" stroke="#000000" stroke-width="0.714" points="65.6334,46.5936 70.6436,46.5936"/>
<text fill="#000000" x="63.6293" y="46.5936" font-size="12" text-anchor="end" baseline-shift="-6" font-family="Helvetica">3.5e+07</text>
<polyline fill="none" stroke="#000000" stroke-width="0.714" points="70.6436,463.431 472.46,463.431"/>
<text fill="#000000" x="271.051" y="482.469" font-size="12" text-anchor="middle" baseline-shift="-12" font-family="Helvetica" font-weight="bold">Radial position [m]</text>
<polyline fill="none" stroke="#000000" stroke-width="0.714" points="121.747,468.441 121.747,463.431"/>
<text fill="#000000" x="121.747" y="470.445" font-size="12" text-anchor="middle" baseline-shift="-12" font-family="Helvetica">0.01</text>
<polyline fill="none" stroke="#000000" stroke-width="0.714" points="204.917,468.441 204.917,463.431"/>
<text fill="#000000" x="204.917" y="470.445" font-size="12" text-anchor="middle" baseline-shift="-12" font-family="Helvetica">0.02</text>
<polyline fill="none" stroke="#000000" stroke-width="0.714" points="288.086,468.441 288.086,463.431"/>
<text fill="#000000" x="288.086" y="470.445" font-size="12" text-anchor="middle" baseline-shift="-12" font-family="Helvetica">0.03</text>
<polyline fill="none" stroke="#000000" stroke-width="0.714" points="370.253,468.441 370.253,463.431"/>
<text fill="#000000" x="370.253" y="470.445" font-size="12" text-anchor="middle" baseline-shift="-12" font-family="Helvetica">0.04</text>
<polyline fill="none" stroke="#000000" stroke-width="0.714" points="453.422,468.441 453.422,463.431"/>
<text fill="#000000" x="453.422" y="470.445" font-size="12" text-anchor="middle" baseline-shift="-12" font-family="Helvetica">0.05</text>
<polygon fill="#ffffff" points="371.255,126.755 472.46,126.755 371.255,19.5392"/>
<polygon fill="#ffffff" points="472.46,126.755 472.46,19.5392 371.255,19.5392"/>
<polyline fill="none" stroke="#000000" stroke-width="0.714" points="371.255,126.755 472.46,126.755 472.46,19.5392 371.255,19.5392 371.255,126.755"/>
<text fill="#000000" x="401.316" y="36.5735" font-size="12" text-anchor="start" baseline-shift="0" font-family="Helvetica">1.98 kW</text>
<polyline fill="none" stroke="#e2191c" stroke-width="1.428" points="376.265,30.5614 398.31,30.5614"/>
<text fill="#000000" x="401.316" y="53.6076" font-size="12" text-anchor="start" baseline-shift="0" font-family="Helvetica">1.98 kW NC</text>
<polyline fill="none" stroke="#5400ff" stroke-width="1.428" stroke-dasharray="8,8" points="376.265,47.5956 398.31,47.5956"/>
<text fill="#000000" x="401.316" y="70.6418" font-size="12" text-anchor="start" baseline-shift="0" font-family="Helvetica">3.97 kW</text>
<polyline fill="none" stroke="#ff007e" stroke-width="1.428" points="376.265,64.6298 398.31,64.6298"/>
<text fill="#000000" x="401.316" y="87.6761" font-size="12" text-anchor="start" baseline-shift="0" font-family="Helvetica">3.97 kW NC</text>
<polyline fill="none" stroke="#00aa7e" stroke-width="1.428" stroke-dasharray="8,8" points="376.265,81.664 398.31,81.664"/>
<text fill="#000000" x="401.316" y="104.71" font-size="12" text-anchor="start" baseline-shift="0" font-family="Helvetica">7.93 kW</text>
<polyline fill="none" stroke="#aa0000" stroke-width="1.428" points="376.265,98.6982 398.31,98.6982"/>
<text fill="#000000" x="401.316" y="121.744" font-size="12" text-anchor="start" baseline-shift="0" font-family="Helvetica">7.93 kW NC</text>
<polyline fill="none" stroke="#005400" stroke-width="1.428" stroke-dasharray="8,8" points="376.265,115.732 398.31,115.732"/>
</g>
</svg>
