<?xml version="1.0" encoding="UTF-8" standalone="no"?>
<svg xmlns="http://www.w3.org/2000/svg"
     xmlns:xlink="http://www.w3.org/1999/xlink"
     width="1002px" height="498px" viewBox="0 0 1002 498">
<title>ParaView GL2PS Export</title>
<desc>
Creator: GL2PS 1.3.8, (C) 1999-2012 C. Geuzaine
For: VTK
CreationDate: Sun Oct 30 09:34:14 2016
</desc>
<defs>
</defs>
<g shape-rendering="crispEdges">
<polyline fill="none" stroke="#f2f2f2" stroke-width="0.714" points="87.5874,463.431 87.5874,19.5392"/>
<polyline fill="none" stroke="#f2f2f2" stroke-width="0.714" points="182.682,463.431 182.682,19.5392"/>
<polyline fill="none" stroke="#f2f2f2" stroke-width="0.714" points="276.776,463.431 276.776,19.5392"/>
<polyline fill="none" stroke="#f2f2f2" stroke-width="0.714" points="370.87,463.431 370.87,19.5392"/>
<polyline fill="none" stroke="#f2f2f2" stroke-width="0.714" points="464.964,463.431 464.964,19.5392"/>
<polyline fill="none" stroke="#f2f2f2" stroke-width="0.714" points="560.059,463.431 560.059,19.5392"/>
<polyline fill="none" stroke="#f2f2f2" stroke-width="0.714" points="654.153,463.431 654.153,19.5392"/>
<polyline fill="none" stroke="#f2f2f2" stroke-width="0.714" points="748.247,463.431 748.247,19.5392"/>
<polyline fill="none" stroke="#f2f2f2" stroke-width="0.714" points="842.341,463.431 842.341,19.5392"/>
<polyline fill="none" stroke="#f2f2f2" stroke-width="0.714" points="937.436,463.431 937.436,19.5392"/>
<polyline fill="none" stroke="#f2f2f2" stroke-width="0.714" points="70.5704,455.414 982.48,455.414"/>
<polyline fill="none" stroke="#f2f2f2" stroke-width="0.714" points="70.5704,397.298 982.48,397.298"/>
<polyline fill="none" stroke="#f2f2f2" stroke-width="0.714" points="70.5704,339.181 982.48,339.181"/>
<polyline fill="none" stroke="#f2f2f2" stroke-width="0.714" points="70.5704,281.064 982.48,281.064"/>
<polyline fill="none" stroke="#f2f2f2" stroke-width="0.714" points="70.5704,222.948 982.48,222.948"/>
<polyline fill="none" stroke="#f2f2f2" stroke-width="0.714" points="70.5704,164.831 982.48,164.831"/>
<polyline fill="none" stroke="#f2f2f2" stroke-width="0.714" points="70.5704,106.714 982.48,106.714"/>
<polyline fill="none" stroke="#f2f2f2" stroke-width="0.714" points="70.5704,48.5976 982.48,48.5976"/>
<polyline fill="none" stroke="#e2191c" stroke-width="1.428" points="80.7952,454.764 89.4751,454.764 98.155,352.451 106.835,352.968 115.515,353.588 124.195,354.159 132.875,354.643 141.555,355.163 150.234,355.677 158.914,356.122 167.594,356.523 176.274,356.978 184.954,357.407 193.634,357.815 202.314,358.117 210.994,358.409 219.674,358.68 228.354,358.949 237.034,359.218 245.713,359.477 254.393,359.724 263.073,359.97 271.753,360.206 280.433,360.441 289.113,360.662 297.793,360.874 306.473,361.086 315.153,361.269 323.833,361.45 332.513,361.631 341.193,361.771 349.872,361.908 358.552,362.045 367.232,362.15 375.912,362.235 384.592,362.32 393.272,362.405 401.952,362.436 410.632,362.466 419.312,362.496 427.992,362.527 436.672,362.505 445.351,362.483 454.031,362.462 462.711,362.44 471.391,362.364 480.071,362.288 488.751,362.212 497.431,362.116 506.111,361.985 514.791,361.854 523.471,361.721 532.151,361.562 540.83,361.402 549.51,361.241 558.19,361.054 566.87,360.867 575.55,360.655 584.23,360.395 592.91,360.135 601.59,359.846 610.27,359.552 618.95,359.269 627.63,358.992 636.309,358.707 644.989,358.415 653.669,358.101 662.349,357.778 671.029,357.384 679.709,356.963 688.389,356.506 697.069,356.063 705.749,355.623 714.429,355.164 723.109,354.698 731.788,354.23 740.468,353.661 749.148,353.009 757.828,352.479 766.508,454.764 775.188,454.764"/>
<polyline fill="none" stroke="#5400ff" stroke-width="1.428" stroke-dasharray="8,8" points="80.7952,454.764 89.4751,454.764 98.155,352.608 106.835,353.09 115.515,353.671 124.195,354.205 132.875,354.658 141.555,355.146 150.234,355.628 158.914,356.047 167.594,356.424 176.274,356.852 184.954,357.257 193.634,357.643 202.314,357.93 210.994,358.206 219.674,358.462 228.354,358.717 237.034,358.971 245.713,359.217 254.393,359.451 263.073,359.683 271.753,359.907 280.433,360.131 289.113,360.341 297.793,360.543 306.473,360.744 315.153,360.919 323.833,361.091 332.513,361.263 341.193,361.397 349.872,361.527 358.552,361.658 367.232,361.759 375.912,361.841 384.592,361.922 393.272,362.004 401.952,362.034 410.632,362.063 419.312,362.092 427.992,362.121 436.672,362.101 445.351,362.08 454.031,362.059 462.711,362.038 471.391,361.965 480.071,361.892 488.751,361.819 497.431,361.726 506.111,361.601 514.791,361.476 523.471,361.349 532.151,361.197 540.83,361.046 549.51,360.892 558.19,360.714 566.87,360.536 575.55,360.334 584.23,360.087 592.91,359.841 601.59,359.566 610.27,359.288 618.95,359.019 627.63,358.757 636.309,358.488 644.989,358.211 653.669,357.915 662.349,357.609 671.029,357.238 679.709,356.84 688.389,356.41 697.069,355.993 705.749,355.579 714.429,355.148 723.109,354.711 731.788,354.273 740.468,353.741 749.148,353.131 757.828,352.635 766.508,454.764 775.188,454.764"/>
<polyline fill="none" stroke="#ff007e" stroke-width="1.428" points="80.7952,454.764 89.4751,454.764 98.155,249.527 106.835,250.616 115.515,251.921 124.195,253.122 132.875,254.141 141.555,255.233 150.234,256.328 158.914,257.317 167.594,258.245 176.274,259.302 184.954,260.294 193.634,261.231 202.314,261.919 210.994,262.586 219.674,263.211 228.354,263.833 237.034,264.451 245.713,265.048 254.393,265.615 263.073,266.178 271.753,266.716 280.433,267.253 289.113,267.755 297.793,268.239 306.473,268.722 315.153,269.139 323.833,269.551 332.513,269.962 341.193,270.28 349.872,270.589 358.552,270.899 367.232,271.135 375.912,271.324 384.592,271.514 393.272,271.703 401.952,271.771 410.632,271.837 419.312,271.904 427.992,271.97 436.672,271.922 445.351,271.874 454.031,271.827 462.711,271.777 471.391,271.609 480.071,271.442 488.751,271.274 497.431,271.058 506.111,270.764 514.791,270.47 523.471,270.17 532.151,269.807 540.83,269.445 549.51,269.077 558.19,268.653 566.87,268.229 575.55,267.746 584.23,267.153 592.91,266.56 601.59,265.898 610.27,265.225 618.95,264.575 627.63,263.94 636.309,263.284 644.989,262.609 653.669,261.888 662.349,261.143 671.029,260.236 679.709,259.261 688.389,258.201 697.069,257.185 705.749,256.21 714.429,255.232 723.109,254.252 731.788,253.268 740.468,252.072 749.148,250.699 757.828,249.581 766.508,454.764 775.188,454.764"/>
<polyline fill="none" stroke="#00aa7e" stroke-width="1.428" stroke-dasharray="8,8" points="80.7952,454.764 89.4751,454.764 98.155,250.664 106.835,251.615 115.515,252.76 124.195,253.812 132.875,254.705 141.555,255.667 150.234,256.618 158.914,257.444 167.594,258.187 176.274,259.029 184.954,259.828 193.634,260.59 202.314,261.155 210.994,261.7 219.674,262.205 228.354,262.707 237.034,263.208 245.713,263.693 254.393,264.154 263.073,264.612 271.753,265.054 280.433,265.496 289.113,265.909 297.793,266.307 306.473,266.705 315.153,267.049 323.833,267.388 332.513,267.727 341.193,267.992 349.872,268.25 358.552,268.507 367.232,268.706 375.912,268.867 384.592,269.029 393.272,269.191 401.952,269.249 410.632,269.307 419.312,269.364 427.992,269.422 436.672,269.381 445.351,269.34 454.031,269.299 462.711,269.257 471.391,269.113 480.071,268.969 488.751,268.825 497.431,268.642 506.111,268.396 514.791,268.149 523.471,267.898 532.151,267.599 540.83,267.299 549.51,266.996 558.19,266.645 566.87,266.294 575.55,265.896 584.23,265.41 592.91,264.923 601.59,264.382 610.27,263.833 618.95,263.303 627.63,262.787 636.309,262.255 644.989,261.71 653.669,261.126 662.349,260.523 671.029,259.79 679.709,259.007 688.389,258.158 697.069,257.336 705.749,256.52 714.429,255.672 723.109,254.809 731.788,253.946 740.468,252.898 749.148,251.695 757.828,250.719 766.508,454.764 775.188,454.764"/>
<polyline fill="none" stroke="#aa0000" stroke-width="1.428" points="80.7952,454.764 89.4751,454.764 98.155,40.237 106.835,43.145 115.515,46.598 124.195,49.7927 132.875,52.5093 141.555,55.3906 150.234,58.2557 158.914,60.82 167.594,63.1935 176.274,65.8969 184.954,68.4088 193.634,70.7611 202.314,72.4756 210.994,74.1466 219.674,75.731 228.354,77.3085 237.034,78.878 245.713,80.393 254.393,81.8275 263.073,83.2503 271.753,84.6019 280.433,85.9536 289.113,87.2161 297.793,88.4317 306.473,89.6474 315.153,90.6984 323.833,91.7357 332.513,92.7729 341.193,93.5679 349.872,94.3415 358.552,95.1151 367.232,95.6971 375.912,96.1603 384.592,96.6237 393.272,97.087 401.952,97.2496 410.632,97.4087 419.312,97.5679 427.992,97.727 436.672,97.6107 445.351,97.4945 454.031,97.3782 462.711,97.2586 471.391,96.8513 480.071,96.444 488.751,96.0367 497.431,95.5059 506.111,94.7759 514.791,94.0458 523.471,93.3008 532.151,92.387 540.83,91.4731 549.51,90.5477 558.19,89.4846 566.87,88.4216 575.55,87.2104 584.23,85.7173 592.91,84.2241 601.59,82.5548 610.27,80.8564 618.95,79.2133 627.63,77.6076 636.309,75.9436 644.989,74.2296 653.669,72.4054 662.349,70.526 671.029,68.2281 679.709,65.7556 688.389,63.0576 697.069,60.4701 705.749,57.9457 714.429,55.3779 723.109,52.7839 731.788,50.1668 740.468,46.9893 749.148,43.3431 757.828,40.3572 766.508,454.764 775.188,454.764"/>
<polyline fill="none" stroke="#005400" stroke-width="1.428" stroke-dasharray="8,8" points="80.7952,454.764 89.4751,454.764 98.155,46.8127 106.835,48.6747 115.515,50.9164 124.195,52.9781 132.875,54.7273 141.555,56.6114 150.234,58.4743 158.914,60.0927 167.594,61.5485 176.274,63.1994 184.954,64.7665 193.634,66.2594 202.314,67.3674 210.994,68.4358 219.674,69.4254 228.354,70.4113 237.034,71.3925 245.713,72.3429 254.393,73.2478 263.073,74.1472 271.753,75.0142 280.433,75.8811 289.113,76.6916 297.793,77.4724 306.473,78.2532 315.153,78.9276 323.833,79.593 332.513,80.2585 341.193,80.7775 349.872,81.2836 358.552,81.7898 367.232,82.1791 375.912,82.4962 384.592,82.8133 393.272,83.1303 401.952,83.2454 410.632,83.3581 419.312,83.4708 427.992,83.5835 436.672,83.5032 445.351,83.4229 454.031,83.3426 462.711,83.2599 471.391,82.9775 480.071,82.6952 488.751,82.4128 497.431,82.0536 506.111,81.5702 514.791,81.0868 523.471,80.5949 532.151,80.0072 540.83,79.4195 549.51,78.824 558.19,78.1354 566.87,77.4467 575.55,76.6665 584.23,75.712 592.91,74.7575 601.59,73.6967 610.27,72.6182 618.95,71.5793 627.63,70.5672 636.309,69.5248 644.989,68.4563 653.669,67.3118 662.349,66.1291 671.029,64.6932 679.709,63.1573 688.389,61.4929 697.069,59.8834 705.749,58.2845 714.429,56.6215 723.109,54.932 731.788,53.2406 740.468,51.187 749.148,48.8318 757.828,46.9205 766.508,454.764 775.188,454.764"/>
<polyline fill="none" stroke="#000000" stroke-width="0.714" points="70.5704,463.431 70.5704,19.5392"/>
<text fill="#000000" x="15.5155" y="241.986" font-size="12" transform="rotate(-90, 15.5155, 241.986)" text-anchor="middle" baseline-shift="0" font-family="Helvetica" font-weight="bold">Power [kW/m³ ]</text>
<polyline fill="none" stroke="#000000" stroke-width="0.714" points="65.5654,455.414 70.5704,455.414"/>
<text fill="#000000" x="63.5634" y="455.414" font-size="12" text-anchor="end" baseline-shift="-6" font-family="Helvetica">0</text>
<polyline fill="none" stroke="#000000" stroke-width="0.714" points="65.5654,397.298 70.5704,397.298"/>
<text fill="#000000" x="63.5634" y="397.298" font-size="12" text-anchor="end" baseline-shift="-6" font-family="Helvetica">5e+06</text>
<polyline fill="none" stroke="#000000" stroke-width="0.714" points="65.5654,339.181 70.5704,339.181"/>
<text fill="#000000" x="63.5634" y="339.181" font-size="12" text-anchor="end" baseline-shift="-6" font-family="Helvetica">1e+07</text>
<polyline fill="none" stroke="#000000" stroke-width="0.714" points="65.5654,281.064 70.5704,281.064"/>
<text fill="#000000" x="63.5634" y="281.064" font-size="12" text-anchor="end" baseline-shift="-6" font-family="Helvetica">1.5e+07</text>
<polyline fill="none" stroke="#000000" stroke-width="0.714" points="65.5654,222.948 70.5704,222.948"/>
<text fill="#000000" x="63.5634" y="222.948" font-size="12" text-anchor="end" baseline-shift="-6" font-family="Helvetica">2e+07</text>
<polyline fill="none" stroke="#000000" stroke-width="0.714" points="65.5654,164.831 70.5704,164.831"/>
<text fill="#000000" x="63.5634" y="164.831" font-size="12" text-anchor="end" baseline-shift="-6" font-family="Helvetica">2.5e+07</text>
<polyline fill="none" stroke="#000000" stroke-width="0.714" points="65.5654,106.714 70.5704,106.714"/>
<text fill="#000000" x="63.5634" y="106.714" font-size="12" text-anchor="end" baseline-shift="-6" font-family="Helvetica">3e+07</text>
<polyline fill="none" stroke="#000000" stroke-width="0.714" points="65.5654,48.5976 70.5704,48.5976"/>
<text fill="#000000" x="63.5634" y="48.5976" font-size="12" text-anchor="end" baseline-shift="-6" font-family="Helvetica">3.5e+07</text>
<polyline fill="none" stroke="#000000" stroke-width="0.714" points="70.5704,463.431 982.48,463.431"/>
<text fill="#000000" x="526.025" y="482.469" font-size="12" text-anchor="middle" baseline-shift="-12" font-family="Helvetica" font-weight="bold">Radial position [m]</text>
<polyline fill="none" stroke="#000000" stroke-width="0.714" points="87.5874,468.441 87.5874,463.431"/>
<text fill="#000000" x="87.5874" y="470.445" font-size="12" text-anchor="middle" baseline-shift="-12" font-family="Helvetica">0.005</text>
<polyline fill="none" stroke="#000000" stroke-width="0.714" points="182.682,468.441 182.682,463.431"/>
<text fill="#000000" x="182.682" y="470.445" font-size="12" text-anchor="middle" baseline-shift="-12" font-family="Helvetica">0.01</text>
<polyline fill="none" stroke="#000000" stroke-width="0.714" points="276.776,468.441 276.776,463.431"/>
<text fill="#000000" x="276.776" y="470.445" font-size="12" text-anchor="middle" baseline-shift="-12" font-family="Helvetica">0.015</text>
<polyline fill="none" stroke="#000000" stroke-width="0.714" points="370.87,468.441 370.87,463.431"/>
<text fill="#000000" x="370.87" y="470.445" font-size="12" text-anchor="middle" baseline-shift="-12" font-family="Helvetica">0.02</text>
<polyline fill="none" stroke="#000000" stroke-width="0.714" points="464.964,468.441 464.964,463.431"/>
<text fill="#000000" x="464.964" y="470.445" font-size="12" text-anchor="middle" baseline-shift="-12" font-family="Helvetica">0.025</text>
<polyline fill="none" stroke="#000000" stroke-width="0.714" points="560.059,468.441 560.059,463.431"/>
<text fill="#000000" x="560.059" y="470.445" font-size="12" text-anchor="middle" baseline-shift="-12" font-family="Helvetica">0.03</text>
<polyline fill="none" stroke="#000000" stroke-width="0.714" points="654.153,468.441 654.153,463.431"/>
<text fill="#000000" x="654.153" y="470.445" font-size="12" text-anchor="middle" baseline-shift="-12" font-family="Helvetica">0.035</text>
<polyline fill="none" stroke="#000000" stroke-width="0.714" points="748.247,468.441 748.247,463.431"/>
<text fill="#000000" x="748.247" y="470.445" font-size="12" text-anchor="middle" baseline-shift="-12" font-family="Helvetica">0.04</text>
<polyline fill="none" stroke="#000000" stroke-width="0.714" points="842.341,468.441 842.341,463.431"/>
<text fill="#000000" x="842.341" y="470.445" font-size="12" text-anchor="middle" baseline-shift="-12" font-family="Helvetica">0.045</text>
<polyline fill="none" stroke="#000000" stroke-width="0.714" points="937.436,468.441 937.436,463.431"/>
<text fill="#000000" x="937.436" y="470.445" font-size="12" text-anchor="middle" baseline-shift="-12" font-family="Helvetica">0.05</text>
<polygon fill="#ffffff" points="881.38,126.755 982.48,126.755 881.38,19.5392"/>
<polygon fill="#ffffff" points="982.48,126.755 982.48,19.5392 881.38,19.5392"/>
<polyline fill="none" stroke="#000000" stroke-width="0.714" points="881.38,126.755 982.48,126.755 982.48,19.5392 881.38,19.5392 881.38,126.755"/>
<text fill="#000000" x="911.41" y="36.5735" font-size="12" text-anchor="start" baseline-shift="0" font-family="Helvetica">1.98 kW</text>
<polyline fill="none" stroke="#e2191c" stroke-width="1.428" points="886.385,30.5614 908.407,30.5614"/>
<text fill="#000000" x="911.41" y="53.6076" font-size="12" text-anchor="start" baseline-shift="0" font-family="Helvetica">1.98 kW NC</text>
<polyline fill="none" stroke="#5400ff" stroke-width="1.428" stroke-dasharray="8,8" points="886.385,47.5956 908.407,47.5956"/>
<text fill="#000000" x="911.41" y="70.6418" font-size="12" text-anchor="start" baseline-shift="0" font-family="Helvetica">3.97 kW</text>
<polyline fill="none" stroke="#ff007e" stroke-width="1.428" points="886.385,64.6298 908.407,64.6298"/>
<text fill="#000000" x="911.41" y="87.6761" font-size="12" text-anchor="start" baseline-shift="0" font-family="Helvetica">3.97 kW NC</text>
<polyline fill="none" stroke="#00aa7e" stroke-width="1.428" stroke-dasharray="8,8" points="886.385,81.664 908.407,81.664"/>
<text fill="#000000" x="911.41" y="104.71" font-size="12" text-anchor="start" baseline-shift="0" font-family="Helvetica">7.93 kW</text>
<polyline fill="none" stroke="#aa0000" stroke-width="1.428" points="886.385,98.6982 908.407,98.6982"/>
<text fill="#000000" x="911.41" y="121.744" font-size="12" text-anchor="start" baseline-shift="0" font-family="Helvetica">7.93 kW NC</text>
<polyline fill="none" stroke="#005400" stroke-width="1.428" stroke-dasharray="8,8" points="886.385,115.732 908.407,115.732"/>
</g>
</svg>
