<?xml version="1.0" encoding="UTF-8" standalone="no"?>
<svg xmlns="http://www.w3.org/2000/svg"
     xmlns:xlink="http://www.w3.org/1999/xlink"
     width="492px" height="498px" viewBox="0 0 492 498">
<title>ParaView GL2PS Export</title>
<desc>
Creator: GL2PS 1.3.8, (C) 1999-2012 C. Geuzaine
For: VTK
CreationDate: Tue Nov  8 16:53:54 2016
</desc>
<defs>
</defs>
<g shape-rendering="crispEdges">
<polyline fill="none" stroke="#f2f2f2" stroke-width="0.714" points="77.6578,463.431 77.6578,19.5392"/>
<polyline fill="none" stroke="#f2f2f2" stroke-width="0.714" points="129.764,463.431 129.764,19.5392"/>
<polyline fill="none" stroke="#f2f2f2" stroke-width="0.714" points="182.872,463.431 182.872,19.5392"/>
<polyline fill="none" stroke="#f2f2f2" stroke-width="0.714" points="234.978,463.431 234.978,19.5392"/>
<polyline fill="none" stroke="#f2f2f2" stroke-width="0.714" points="287.083,463.431 287.083,19.5392"/>
<polyline fill="none" stroke="#f2f2f2" stroke-width="0.714" points="340.191,463.431 340.191,19.5392"/>
<polyline fill="none" stroke="#f2f2f2" stroke-width="0.714" points="392.297,463.431 392.297,19.5392"/>
<polyline fill="none" stroke="#f2f2f2" stroke-width="0.714" points="444.403,463.431 444.403,19.5392"/>
<polyline fill="none" stroke="#f2f2f2" stroke-width="0.714" points="70.6436,459.423 472.46,459.423"/>
<polyline fill="none" stroke="#f2f2f2" stroke-width="0.714" points="70.6436,399.302 472.46,399.302"/>
<polyline fill="none" stroke="#f2f2f2" stroke-width="0.714" points="70.6436,339.181 472.46,339.181"/>
<polyline fill="none" stroke="#f2f2f2" stroke-width="0.714" points="70.6436,279.06 472.46,279.06"/>
<polyline fill="none" stroke="#f2f2f2" stroke-width="0.714" points="70.6436,217.938 472.46,217.938"/>
<polyline fill="none" stroke="#f2f2f2" stroke-width="0.714" points="70.6436,157.817 472.46,157.817"/>
<polyline fill="none" stroke="#f2f2f2" stroke-width="0.714" points="70.6436,97.6962 472.46,97.6962"/>
<polyline fill="none" stroke="#f2f2f2" stroke-width="0.714" points="70.6436,37.5755 472.46,37.5755"/>
<polyline fill="none" stroke="#aa0000" stroke-width="1.428" points="74.0959,458.912 78.9206,458.912 83.7452,28.9494 88.5699,31.9656 93.3946,35.5472 98.2193,38.8609 103.044,41.6786 107.869,44.6672 112.693,47.639 117.518,50.2988 122.343,52.7607 127.167,55.5646 131.992,58.1702 136.817,60.61 141.641,62.3884 146.466,64.1216 151.291,65.765 156.115,67.4012 160.94,69.0292 165.765,70.6006 170.589,72.0885 175.414,73.5643 180.239,74.9663 185.063,76.3682 189.888,77.6777 194.713,78.9387 199.537,80.1996 204.362,81.2898 209.187,82.3657 214.011,83.4415 218.836,84.2661 223.661,85.0685 228.485,85.8708 233.31,86.4745 238.135,86.9551 242.959,87.4356 247.784,87.9162 252.609,88.0848 257.433,88.2499 262.258,88.415 267.083,88.58 271.907,88.4594 276.732,88.3389 281.557,88.2183 286.381,88.0942 291.206,87.6718 296.031,87.2493 300.855,86.8268 305.68,86.2762 310.505,85.519 315.329,84.7618 320.154,83.9891 324.979,83.0411 329.803,82.0933 334.628,81.1334 339.453,80.0308 344.277,78.9282 349.102,77.6719 353.927,76.1231 358.751,74.5743 363.576,72.8429 368.401,71.0812 373.225,69.3769 378.05,67.7115 382.875,65.9855 387.699,64.2076 392.524,62.3156 397.349,60.3661 402.173,57.9827 406.998,55.4181 411.823,52.6197 416.647,49.9359 421.472,47.3174 426.297,44.654 431.121,41.9634 435.946,39.2488 440.771,35.9531 445.596,32.1711 450.42,29.074 455.245,458.912 460.07,458.912"/>
<polyline fill="none" stroke="#005400" stroke-width="1.428" stroke-dasharray="8,8" points="74.0959,458.912 78.9206,458.912 83.7452,35.7699 88.5699,37.7012 93.3946,40.0264 98.2193,42.1649 103.044,43.9792 107.869,45.9334 112.693,47.8657 117.518,49.5443 122.343,51.0544 127.167,52.7668 131.992,54.3923 136.817,55.9407 141.641,57.0899 146.466,58.1981 151.291,59.2246 156.115,60.2472 160.94,61.265 165.765,62.2507 170.589,63.1893 175.414,64.1223 180.239,65.0215 185.063,65.9207 189.888,66.7614 194.713,67.5713 199.537,68.3812 204.362,69.0806 209.187,69.7709 214.011,70.4611 218.836,70.9994 223.661,71.5244 228.485,72.0494 233.31,72.4533 238.135,72.7821 242.959,73.111 247.784,73.4398 252.609,73.5592 257.433,73.6761 262.258,73.793 267.083,73.9099 271.907,73.8266 276.732,73.7433 281.557,73.66 286.381,73.5742 291.206,73.2814 296.031,72.9885 300.855,72.6956 305.68,72.323 310.505,71.8216 315.329,71.3202 320.154,70.81 324.979,70.2004 329.803,69.5909 334.628,68.9731 339.453,68.2589 344.277,67.5446 349.102,66.7354 353.927,65.7453 358.751,64.7552 363.576,63.6549 368.401,62.5363 373.225,61.4587 378.05,60.4089 382.875,59.3276 387.699,58.2194 392.524,57.0323 397.349,55.8055 402.173,54.3162 406.998,52.7231 411.823,50.9968 416.647,49.3273 421.472,47.6688 426.297,45.9439 431.121,44.1915 435.946,42.4371 440.771,40.3071 445.596,37.8642 450.42,35.8817 455.245,458.912 460.07,458.912"/>
<polyline fill="none" stroke="#000000" stroke-width="0.714" points="70.6436,463.431 70.6436,19.5392"/>
<text fill="#000000" x="15.5316" y="241.986" font-size="12" transform="rotate(-90, 15.5316, 241.986)" text-anchor="middle" baseline-shift="0" font-family="Helvetica" font-weight="bold">Power [kW/m³ ]</text>
<polyline fill="none" stroke="#000000" stroke-width="0.714" points="65.6334,459.423 70.6436,459.423"/>
<text fill="#000000" x="63.6293" y="459.423" font-size="12" text-anchor="end" baseline-shift="-6" font-family="Helvetica">0</text>
<polyline fill="none" stroke="#000000" stroke-width="0.714" points="65.6334,399.302 70.6436,399.302"/>
<text fill="#000000" x="63.6293" y="399.302" font-size="12" text-anchor="end" baseline-shift="-6" font-family="Helvetica">5e+06</text>
<polyline fill="none" stroke="#000000" stroke-width="0.714" points="65.6334,339.181 70.6436,339.181"/>
<text fill="#000000" x="63.6293" y="339.181" font-size="12" text-anchor="end" baseline-shift="-6" font-family="Helvetica">1e+07</text>
<polyline fill="none" stroke="#000000" stroke-width="0.714" points="65.6334,279.06 70.6436,279.06"/>
<text fill="#000000" x="63.6293" y="279.06" font-size="12" text-anchor="end" baseline-shift="-6" font-family="Helvetica">1.5e+07</text>
<polyline fill="none" stroke="#000000" stroke-width="0.714" points="65.6334,217.938 70.6436,217.938"/>
<text fill="#000000" x="63.6293" y="217.938" font-size="12" text-anchor="end" baseline-shift="-6" font-family="Helvetica">2e+07</text>
<polyline fill="none" stroke="#000000" stroke-width="0.714" points="65.6334,157.817 70.6436,157.817"/>
<text fill="#000000" x="63.6293" y="157.817" font-size="12" text-anchor="end" baseline-shift="-6" font-family="Helvetica">2.5e+07</text>
<polyline fill="none" stroke="#000000" stroke-width="0.714" points="65.6334,97.6962 70.6436,97.6962"/>
<text fill="#000000" x="63.6293" y="97.6962" font-size="12" text-anchor="end" baseline-shift="-6" font-family="Helvetica">3e+07</text>
<polyline fill="none" stroke="#000000" stroke-width="0.714" points="65.6334,37.5755 70.6436,37.5755"/>
<text fill="#000000" x="63.6293" y="37.5755" font-size="12" text-anchor="end" baseline-shift="-6" font-family="Helvetica">3.5e+07</text>
<polyline fill="none" stroke="#000000" stroke-width="0.714" points="70.6436,463.431 472.46,463.431"/>
<text fill="#000000" x="271.051" y="482.469" font-size="12" text-anchor="middle" baseline-shift="-12" font-family="Helvetica" font-weight="bold">Radial position [m]</text>
<polyline fill="none" stroke="#000000" stroke-width="0.714" points="77.6578,468.441 77.6578,463.431"/>
<text fill="#000000" x="77.6578" y="470.445" font-size="12" text-anchor="middle" baseline-shift="-12" font-family="Helvetica">0.005</text>
<polyline fill="none" stroke="#000000" stroke-width="0.714" points="129.764,468.441 129.764,463.431"/>
<text fill="#000000" x="129.764" y="470.445" font-size="12" text-anchor="middle" baseline-shift="-12" font-family="Helvetica">0.01</text>
<polyline fill="none" stroke="#000000" stroke-width="0.714" points="182.872,468.441 182.872,463.431"/>
<text fill="#000000" x="182.872" y="470.445" font-size="12" text-anchor="middle" baseline-shift="-12" font-family="Helvetica">0.015</text>
<polyline fill="none" stroke="#000000" stroke-width="0.714" points="234.978,468.441 234.978,463.431"/>
<text fill="#000000" x="234.978" y="470.445" font-size="12" text-anchor="middle" baseline-shift="-12" font-family="Helvetica">0.02</text>
<polyline fill="none" stroke="#000000" stroke-width="0.714" points="287.083,468.441 287.083,463.431"/>
<text fill="#000000" x="287.083" y="470.445" font-size="12" text-anchor="middle" baseline-shift="-12" font-family="Helvetica">0.025</text>
<polyline fill="none" stroke="#000000" stroke-width="0.714" points="340.191,468.441 340.191,463.431"/>
<text fill="#000000" x="340.191" y="470.445" font-size="12" text-anchor="middle" baseline-shift="-12" font-family="Helvetica">0.03</text>
<polyline fill="none" stroke="#000000" stroke-width="0.714" points="392.297,468.441 392.297,463.431"/>
<text fill="#000000" x="392.297" y="470.445" font-size="12" text-anchor="middle" baseline-shift="-12" font-family="Helvetica">0.035</text>
<polyline fill="none" stroke="#000000" stroke-width="0.714" points="444.403,468.441 444.403,463.431"/>
<text fill="#000000" x="444.403" y="470.445" font-size="12" text-anchor="middle" baseline-shift="-12" font-family="Helvetica">0.04</text>
<polygon fill="#ffffff" points="371.255,58.6177 472.46,58.6177 371.255,19.5392"/>
<polygon fill="#ffffff" points="472.46,58.6177 472.46,19.5392 371.255,19.5392"/>
<polyline fill="none" stroke="#000000" stroke-width="0.714" points="371.255,58.6177 472.46,58.6177 472.46,19.5392 371.255,19.5392 371.255,58.6177"/>
<text fill="#000000" x="401.316" y="36.5735" font-size="12" text-anchor="start" baseline-shift="0" font-family="Helvetica">7.93 kW</text>
<polyline fill="none" stroke="#aa0000" stroke-width="1.428" points="376.265,30.5614 398.31,30.5614"/>
<text fill="#000000" x="401.316" y="53.6076" font-size="12" text-anchor="start" baseline-shift="0" font-family="Helvetica">7.93 kW NC</text>
<polyline fill="none" stroke="#005400" stroke-width="1.428" stroke-dasharray="8,8" points="376.265,47.5956 398.31,47.5956"/>
</g>
</svg>
