<?xml version="1.0" encoding="UTF-8" standalone="no"?>
<svg xmlns="http://www.w3.org/2000/svg"
     xmlns:xlink="http://www.w3.org/1999/xlink"
     width="1002px" height="498px" viewBox="0 0 1002 498">
<title>ParaView GL2PS Export</title>
<desc>
Creator: GL2PS 1.3.8, (C) 1999-2012 C. Geuzaine
For: VTK
CreationDate: Sun Oct 30 09:38:48 2016
</desc>
<defs>
</defs>
<g shape-rendering="crispEdges">
<polyline fill="none" stroke="#f2f2f2" stroke-width="0.714" points="74.5744,463.431 74.5744,19.5392"/>
<polyline fill="none" stroke="#f2f2f2" stroke-width="0.714" points="124.624,463.431 124.624,19.5392"/>
<polyline fill="none" stroke="#f2f2f2" stroke-width="0.714" points="175.675,463.431 175.675,19.5392"/>
<polyline fill="none" stroke="#f2f2f2" stroke-width="0.714" points="226.726,463.431 226.726,19.5392"/>
<polyline fill="none" stroke="#f2f2f2" stroke-width="0.714" points="277.777,463.431 277.777,19.5392"/>
<polyline fill="none" stroke="#f2f2f2" stroke-width="0.714" points="328.828,463.431 328.828,19.5392"/>
<polyline fill="none" stroke="#f2f2f2" stroke-width="0.714" points="379.879,463.431 379.879,19.5392"/>
<polyline fill="none" stroke="#f2f2f2" stroke-width="0.714" points="429.929,463.431 429.929,19.5392"/>
<polyline fill="none" stroke="#f2f2f2" stroke-width="0.714" points="480.98,463.431 480.98,19.5392"/>
<polyline fill="none" stroke="#f2f2f2" stroke-width="0.714" points="532.031,463.431 532.031,19.5392"/>
<polyline fill="none" stroke="#f2f2f2" stroke-width="0.714" points="583.082,463.431 583.082,19.5392"/>
<polyline fill="none" stroke="#f2f2f2" stroke-width="0.714" points="634.133,463.431 634.133,19.5392"/>
<polyline fill="none" stroke="#f2f2f2" stroke-width="0.714" points="684.183,463.431 684.183,19.5392"/>
<polyline fill="none" stroke="#f2f2f2" stroke-width="0.714" points="735.234,463.431 735.234,19.5392"/>
<polyline fill="none" stroke="#f2f2f2" stroke-width="0.714" points="786.285,463.431 786.285,19.5392"/>
<polyline fill="none" stroke="#f2f2f2" stroke-width="0.714" points="837.336,463.431 837.336,19.5392"/>
<polyline fill="none" stroke="#f2f2f2" stroke-width="0.714" points="888.387,463.431 888.387,19.5392"/>
<polyline fill="none" stroke="#f2f2f2" stroke-width="0.714" points="939.438,463.431 939.438,19.5392"/>
<polyline fill="none" stroke="#f2f2f2" stroke-width="0.714" points="70.5704,399.302 982.48,399.302"/>
<polyline fill="none" stroke="#f2f2f2" stroke-width="0.714" points="70.5704,330.163 982.48,330.163"/>
<polyline fill="none" stroke="#f2f2f2" stroke-width="0.714" points="70.5704,261.024 982.48,261.024"/>
<polyline fill="none" stroke="#f2f2f2" stroke-width="0.714" points="70.5704,192.887 982.48,192.887"/>
<polyline fill="none" stroke="#f2f2f2" stroke-width="0.714" points="70.5704,123.748 982.48,123.748"/>
<polyline fill="none" stroke="#f2f2f2" stroke-width="0.714" points="70.5704,54.6096 982.48,54.6096"/>
<polyline fill="none" stroke="#e2191c" stroke-width="1.428" points="74.7471,456.727 83.6485,454.597 92.5498,452.466 101.451,450.077 110.353,446.132 119.254,442.187 128.155,438.379 137.057,434.913 145.958,431.448 154.859,428.103 163.761,424.92 172.662,421.736 181.563,418.678 190.465,415.714 199.366,412.75 208.268,409.928 217.169,407.164 226.07,404.4 234.972,401.804 243.873,399.236 252.774,396.667 261.676,394.298 270.577,391.929 279.478,389.59 288.38,387.427 297.281,385.263 306.183,383.161 315.084,381.211 323.985,379.261 332.887,377.407 341.788,375.678 350.689,373.95 359.591,372.353 368.492,370.855 377.393,369.357 386.295,368.028 395.196,366.768 404.098,365.507 412.999,364.457 421.9,363.442 430.802,362.427 439.703,361.663 448.604,360.899 457.506,360.172 466.407,359.663 475.308,359.155 484.21,358.72 493.111,358.47 502.013,358.22 510.914,358.081 519.815,358.09 528.717,358.099 537.618,358.255 546.519,358.523 555.421,358.79 564.322,359.242 573.223,359.766 582.125,360.291 591.026,361.033 599.927,361.812 608.829,362.591 617.73,363.619 626.632,364.647 635.533,365.709 644.434,366.98 653.336,368.251 662.237,369.589 671.138,371.094 680.04,372.6 688.941,374.203 697.843,375.935 706.744,377.667 715.645,379.524 724.547,381.474 733.448,383.425 742.349,385.525 751.251,387.686 760.152,389.846 769.053,392.181 777.955,394.544 786.856,396.907 795.757,399.467 804.659,402.028 813.56,404.615 822.462,407.37 831.363,410.124 840.264,412.936 849.166,415.889 858.067,418.842 866.968,421.89 875.87,425.062 884.771,428.234 893.672,431.567 902.574,435.02 911.475,438.474 920.377,442.269 929.278,446.202 938.179,450.135 947.081,452.517 955.982,454.64 964.883,456.764"/>
<polyline fill="none" stroke="#5400ff" stroke-width="1.428" stroke-dasharray="8,8" points="74.7471,456.719 83.6485,454.586 92.5498,452.454 101.451,450.061 110.353,446.109 119.254,442.156 128.155,438.34 137.057,434.863 145.958,431.386 154.859,428.029 163.761,424.831 172.662,421.634 181.563,418.561 190.465,415.583 199.366,412.604 208.268,409.768 217.169,406.989 226.07,404.21 234.972,401.599 243.873,399.015 252.774,396.432 261.676,394.048 270.577,391.664 279.478,389.309 288.38,387.131 297.281,384.953 306.183,382.836 315.084,380.873 323.985,378.909 332.887,377.041 341.788,375.302 350.689,373.562 359.591,371.954 368.492,370.447 377.393,368.939 386.295,367.602 395.196,366.334 404.098,365.065 412.999,364.008 421.9,362.986 430.802,361.964 439.703,361.194 448.604,360.425 457.506,359.692 466.407,359.18 475.308,358.668 484.21,358.231 493.111,357.981 502.013,357.732 510.914,357.595 519.815,357.61 528.717,357.624 537.618,357.789 546.519,358.068 555.421,358.346 564.322,358.811 573.223,359.35 582.125,359.889 591.026,360.648 599.927,361.443 608.829,362.239 617.73,363.284 626.632,364.329 635.533,365.408 644.434,366.696 653.336,367.984 662.237,369.339 671.138,370.863 680.04,372.387 688.941,374.008 697.843,375.759 706.744,377.51 715.645,379.387 724.547,381.357 733.448,383.327 742.349,385.448 751.251,387.628 760.152,389.808 769.053,392.16 777.955,394.542 786.856,396.923 795.757,399.498 804.659,402.073 813.56,404.676 822.462,407.442 831.363,410.208 840.264,413.03 849.166,415.991 858.067,418.952 866.968,422.005 875.87,425.18 884.771,428.355 893.672,431.687 902.574,435.137 911.475,438.587 920.377,442.372 929.278,446.292 938.179,450.211 947.081,452.583 955.982,454.697 964.883,456.812"/>
<polyline fill="none" stroke="#ff007e" stroke-width="1.428" points="74.7471,446.024 83.6485,441.76 92.5498,437.497 101.451,432.716 110.353,424.826 119.254,416.936 128.155,409.324 137.057,402.405 145.958,395.486 154.859,388.812 163.761,382.466 172.662,376.119 181.563,370.027 190.465,364.125 199.366,358.224 208.268,352.619 217.169,347.133 226.07,341.647 234.972,336.527 243.873,331.467 252.774,326.408 261.676,321.765 270.577,317.122 279.478,312.538 288.38,308.301 297.281,304.065 306.183,299.949 315.084,296.133 323.985,292.316 332.887,288.687 341.788,285.307 350.689,281.926 359.591,278.804 368.492,275.875 377.393,272.946 386.295,270.35 395.196,267.887 404.098,265.424 412.999,263.371 421.9,261.386 430.802,259.401 439.703,257.903 448.604,256.405 457.506,254.977 466.407,253.973 475.308,252.968 484.21,252.105 493.111,251.597 502.013,251.089 510.914,250.794 519.815,250.784 528.717,250.775 537.618,251.05 546.519,251.538 555.421,252.027 564.322,252.87 573.223,253.856 582.125,254.842 591.026,256.25 599.927,257.729 608.829,259.208 617.73,261.174 626.632,263.141 635.533,265.176 644.434,267.621 653.336,270.066 662.237,272.644 671.138,275.557 680.04,278.469 688.941,281.575 697.843,284.939 706.744,288.304 715.645,291.919 724.547,295.721 733.448,299.523 742.349,303.646 751.251,307.898 760.152,312.15 769.053,316.785 777.955,321.484 786.856,326.183 795.757,331.289 804.659,336.395 813.56,341.557 822.462,347.055 831.363,352.553 840.264,358.167 849.166,364.069 858.067,369.971 866.968,376.065 875.87,382.413 884.771,388.761 893.672,395.438 902.574,402.361 911.475,409.283 920.377,416.902 929.278,424.799 938.179,432.696 947.081,437.482 955.982,441.75 964.883,446.018"/>
<polyline fill="none" stroke="#00aa7e" stroke-width="1.428" stroke-dasharray="8,8" points="74.7471,446.004 83.6485,441.735 92.5498,437.467 101.451,432.678 110.353,424.768 119.254,416.857 128.155,409.22 137.057,402.266 145.958,395.312 154.859,388.599 163.761,382.21 172.662,375.82 181.563,369.682 190.465,363.732 199.366,357.782 208.268,352.117 217.169,346.565 226.07,341.013 234.972,335.794 243.873,330.631 252.774,325.468 261.676,320.699 270.577,315.93 279.478,311.22 288.38,306.86 297.281,302.501 306.183,298.263 315.084,294.331 323.985,290.399 332.887,286.658 341.788,283.172 350.689,279.686 359.591,276.466 368.492,273.445 377.393,270.423 386.295,267.746 395.196,265.205 404.098,262.665 412.999,260.549 421.9,258.504 430.802,256.459 439.703,254.921 448.604,253.383 457.506,251.919 466.407,250.898 475.308,249.876 484.21,249.004 493.111,248.506 502.013,248.008 510.914,247.736 519.815,247.765 528.717,247.793 537.618,248.122 546.519,248.676 555.421,249.23 564.322,250.156 573.223,251.231 582.125,252.306 591.026,253.819 599.927,255.405 608.829,256.992 617.73,259.079 626.632,261.167 635.533,263.324 644.434,265.9 653.336,268.476 662.237,271.188 671.138,274.237 680.04,277.287 688.941,280.533 697.843,284.039 706.744,287.546 715.645,291.302 724.547,295.247 733.448,299.191 742.349,303.435 751.251,307.798 760.152,312.161 769.053,316.867 777.955,321.63 786.856,326.394 795.757,331.543 804.659,336.692 813.56,341.895 822.462,347.424 831.363,352.952 840.264,358.592 849.166,364.51 858.067,370.427 866.968,376.529 875.87,382.878 884.771,389.226 893.672,395.891 902.574,402.795 911.475,409.698 920.377,417.275 929.278,425.122 938.179,432.969 947.081,437.719 955.982,441.952 964.883,446.185"/>
<polyline fill="none" stroke="#aa0000" stroke-width="1.428" points="74.7471,424.159 83.6485,415.569 92.5498,406.981 101.451,397.357 110.353,381.529 119.254,365.702 128.155,350.466 137.057,336.713 145.958,322.959 154.859,309.739 163.761,297.231 172.662,284.722 181.563,272.767 190.465,261.227 199.366,249.686 208.268,238.783 217.169,228.134 226.07,217.486 234.972,207.598 243.873,197.837 252.774,188.076 261.676,179.169 270.577,170.263 279.478,161.474 288.38,153.394 297.281,145.314 306.183,137.475 315.084,130.235 323.985,122.996 332.887,116.123 341.788,109.739 350.689,103.354 359.591,97.4666 368.492,91.9511 377.393,86.4357 386.295,81.5504 395.196,76.9173 404.098,72.2841 412.999,68.4175 421.9,64.6788 430.802,60.94 439.703,58.1052 448.604,55.2704 457.506,52.5656 466.407,50.6408 475.308,48.7159 484.21,47.0521 493.111,46.0406 502.013,45.029 510.914,44.4099 519.815,44.3141 528.717,44.2184 537.618,44.6479 546.519,45.4714 555.421,46.2949 564.322,47.7779 573.223,49.5247 582.125,51.2714 591.026,53.8116 599.927,56.4841 608.829,59.1566 617.73,62.7531 626.632,66.3496 635.533,70.0771 644.434,74.59 653.336,79.103 662.237,83.8741 671.138,89.2906 680.04,94.7071 688.941,100.504 697.843,106.808 706.744,113.112 715.645,119.913 724.547,127.088 733.448,134.262 742.349,142.078 751.251,150.15 760.152,158.223 769.053,167.081 777.955,176.07 786.856,185.059 795.757,194.918 804.659,204.776 813.56,214.756 822.462,225.464 831.363,236.173 840.264,247.137 849.166,258.741 858.067,270.344 866.968,282.41 875.87,295.094 884.771,307.777 893.672,321.222 902.574,335.237 911.475,349.252 920.377,364.715 929.278,380.757 938.179,396.799 947.081,406.529 955.982,415.207 964.883,423.885"/>
<polyline fill="none" stroke="#005400" stroke-width="1.428" stroke-dasharray="8,8" points="74.7471,424.882 83.6485,416.414 92.5498,407.946 101.451,398.443 110.353,382.729 119.254,367.016 128.155,351.834 137.057,337.982 145.958,324.13 154.859,310.747 163.761,297.991 172.662,285.234 181.563,272.968 190.465,261.07 199.366,249.173 208.268,237.837 217.169,226.725 226.07,215.614 234.972,205.166 243.873,194.827 252.774,184.489 261.676,174.936 270.577,165.384 279.478,155.947 288.38,147.207 297.281,138.466 306.183,129.967 315.084,122.072 323.985,114.177 332.887,106.659 341.788,99.6449 350.689,92.6306 359.591,86.1406 368.492,80.0438 377.393,73.9471 386.295,68.5314 395.196,63.3881 404.098,58.2449 412.999,53.9474 421.9,49.7908 430.802,45.6343 439.703,42.4913 448.604,39.3482 457.506,36.3527 466.407,34.2424 475.308,32.1321 484.21,30.3201 493.111,29.254 502.013,28.188 510.914,27.5716 519.815,27.5547 528.717,27.5378 537.618,28.1207 546.519,29.1533 555.421,30.1859 564.322,31.9648 573.223,34.0424 582.125,36.1199 591.026,39.0843 599.927,42.1965 608.829,45.3087 617.73,49.4373 626.632,53.5659 635.533,57.836 644.434,62.955 653.336,68.074 662.237,73.4669 671.138,79.5442 680.04,85.6215 688.941,92.0944 697.843,99.0947 706.744,106.095 715.645,113.602 724.547,121.489 733.448,129.376 742.349,137.871 751.251,146.61 760.152,155.348 769.053,164.787 777.955,174.344 786.856,183.9 795.757,194.248 804.659,204.596 813.56,215.055 822.462,226.181 831.363,237.307 840.264,248.66 849.166,260.578 858.067,272.497 866.968,284.786 875.87,297.568 884.771,310.351 893.672,323.763 902.574,337.648 911.475,351.533 920.377,366.752 929.278,382.506 938.179,398.259 947.081,407.787 955.982,416.278 964.883,424.768"/>
<polyline fill="none" stroke="#000000" stroke-width="0.714" points="70.5704,463.431 70.5704,19.5392"/>
<text fill="#000000" x="15.5155" y="241.986" font-size="12" transform="rotate(-90, 15.5155, 241.986)" text-anchor="middle" baseline-shift="0" font-family="Helvetica" font-weight="bold">Power [kW/m³ ]</text>
<polyline fill="none" stroke="#000000" stroke-width="0.714" points="65.5654,399.302 70.5704,399.302"/>
<text fill="#000000" x="63.5634" y="399.302" font-size="12" text-anchor="end" baseline-shift="-6" font-family="Helvetica">5e+06</text>
<polyline fill="none" stroke="#000000" stroke-width="0.714" points="65.5654,330.163 70.5704,330.163"/>
<text fill="#000000" x="63.5634" y="330.163" font-size="12" text-anchor="end" baseline-shift="-6" font-family="Helvetica">1e+07</text>
<polyline fill="none" stroke="#000000" stroke-width="0.714" points="65.5654,261.024 70.5704,261.024"/>
<text fill="#000000" x="63.5634" y="261.024" font-size="12" text-anchor="end" baseline-shift="-6" font-family="Helvetica">1.5e+07</text>
<polyline fill="none" stroke="#000000" stroke-width="0.714" points="65.5654,192.887 70.5704,192.887"/>
<text fill="#000000" x="63.5634" y="192.887" font-size="12" text-anchor="end" baseline-shift="-6" font-family="Helvetica">2e+07</text>
<polyline fill="none" stroke="#000000" stroke-width="0.714" points="65.5654,123.748 70.5704,123.748"/>
<text fill="#000000" x="63.5634" y="123.748" font-size="12" text-anchor="end" baseline-shift="-6" font-family="Helvetica">2.5e+07</text>
<polyline fill="none" stroke="#000000" stroke-width="0.714" points="65.5654,54.6096 70.5704,54.6096"/>
<text fill="#000000" x="63.5634" y="54.6096" font-size="12" text-anchor="end" baseline-shift="-6" font-family="Helvetica">3e+07</text>
<polyline fill="none" stroke="#000000" stroke-width="0.714" points="70.5704,463.431 982.48,463.431"/>
<text fill="#000000" x="526.025" y="482.469" font-size="12" text-anchor="middle" baseline-shift="-12" font-family="Helvetica" font-weight="bold">Axial position [m]</text>
<polyline fill="none" stroke="#000000" stroke-width="0.714" points="74.5744,468.441 74.5744,463.431"/>
<text fill="#000000" x="74.5744" y="470.445" font-size="12" text-anchor="middle" baseline-shift="-12" font-family="Helvetica">0</text>
<polyline fill="none" stroke="#000000" stroke-width="0.714" points="124.624,468.441 124.624,463.431"/>
<text fill="#000000" x="124.624" y="470.445" font-size="12" text-anchor="middle" baseline-shift="-12" font-family="Helvetica">0.02</text>
<polyline fill="none" stroke="#000000" stroke-width="0.714" points="175.675,468.441 175.675,463.431"/>
<text fill="#000000" x="175.675" y="470.445" font-size="12" text-anchor="middle" baseline-shift="-12" font-family="Helvetica">0.04</text>
<polyline fill="none" stroke="#000000" stroke-width="0.714" points="226.726,468.441 226.726,463.431"/>
<text fill="#000000" x="226.726" y="470.445" font-size="12" text-anchor="middle" baseline-shift="-12" font-family="Helvetica">0.06</text>
<polyline fill="none" stroke="#000000" stroke-width="0.714" points="277.777,468.441 277.777,463.431"/>
<text fill="#000000" x="277.777" y="470.445" font-size="12" text-anchor="middle" baseline-shift="-12" font-family="Helvetica">0.08</text>
<polyline fill="none" stroke="#000000" stroke-width="0.714" points="328.828,468.441 328.828,463.431"/>
<text fill="#000000" x="328.828" y="470.445" font-size="12" text-anchor="middle" baseline-shift="-12" font-family="Helvetica">0.1</text>
<polyline fill="none" stroke="#000000" stroke-width="0.714" points="379.879,468.441 379.879,463.431"/>
<text fill="#000000" x="379.879" y="470.445" font-size="12" text-anchor="middle" baseline-shift="-12" font-family="Helvetica">0.12</text>
<polyline fill="none" stroke="#000000" stroke-width="0.714" points="429.929,468.441 429.929,463.431"/>
<text fill="#000000" x="429.929" y="470.445" font-size="12" text-anchor="middle" baseline-shift="-12" font-family="Helvetica">0.14</text>
<polyline fill="none" stroke="#000000" stroke-width="0.714" points="480.98,468.441 480.98,463.431"/>
<text fill="#000000" x="480.98" y="470.445" font-size="12" text-anchor="middle" baseline-shift="-12" font-family="Helvetica">0.16</text>
<polyline fill="none" stroke="#000000" stroke-width="0.714" points="532.031,468.441 532.031,463.431"/>
<text fill="#000000" x="532.031" y="470.445" font-size="12" text-anchor="middle" baseline-shift="-12" font-family="Helvetica">0.18</text>
<polyline fill="none" stroke="#000000" stroke-width="0.714" points="583.082,468.441 583.082,463.431"/>
<text fill="#000000" x="583.082" y="470.445" font-size="12" text-anchor="middle" baseline-shift="-12" font-family="Helvetica">0.2</text>
<polyline fill="none" stroke="#000000" stroke-width="0.714" points="634.133,468.441 634.133,463.431"/>
<text fill="#000000" x="634.133" y="470.445" font-size="12" text-anchor="middle" baseline-shift="-12" font-family="Helvetica">0.22</text>
<polyline fill="none" stroke="#000000" stroke-width="0.714" points="684.183,468.441 684.183,463.431"/>
<text fill="#000000" x="684.183" y="470.445" font-size="12" text-anchor="middle" baseline-shift="-12" font-family="Helvetica">0.24</text>
<polyline fill="none" stroke="#000000" stroke-width="0.714" points="735.234,468.441 735.234,463.431"/>
<text fill="#000000" x="735.234" y="470.445" font-size="12" text-anchor="middle" baseline-shift="-12" font-family="Helvetica">0.26</text>
<polyline fill="none" stroke="#000000" stroke-width="0.714" points="786.285,468.441 786.285,463.431"/>
<text fill="#000000" x="786.285" y="470.445" font-size="12" text-anchor="middle" baseline-shift="-12" font-family="Helvetica">0.28</text>
<polyline fill="none" stroke="#000000" stroke-width="0.714" points="837.336,468.441 837.336,463.431"/>
<text fill="#000000" x="837.336" y="470.445" font-size="12" text-anchor="middle" baseline-shift="-12" font-family="Helvetica">0.3</text>
<polyline fill="none" stroke="#000000" stroke-width="0.714" points="888.387,468.441 888.387,463.431"/>
<text fill="#000000" x="888.387" y="470.445" font-size="12" text-anchor="middle" baseline-shift="-12" font-family="Helvetica">0.32</text>
<polyline fill="none" stroke="#000000" stroke-width="0.714" points="939.438,468.441 939.438,463.431"/>
<text fill="#000000" x="939.438" y="470.445" font-size="12" text-anchor="middle" baseline-shift="-12" font-family="Helvetica">0.34</text>
<polygon fill="#ffffff" points="881.38,126.755 982.48,126.755 881.38,19.5392"/>
<polygon fill="#ffffff" points="982.48,126.755 982.48,19.5392 881.38,19.5392"/>
<polyline fill="none" stroke="#000000" stroke-width="0.714" points="881.38,126.755 982.48,126.755 982.48,19.5392 881.38,19.5392 881.38,126.755"/>
<text fill="#000000" x="911.41" y="36.5735" font-size="12" text-anchor="start" baseline-shift="0" font-family="Helvetica">1.98 kW</text>
<polyline fill="none" stroke="#e2191c" stroke-width="1.428" points="886.385,30.5614 908.407,30.5614"/>
<text fill="#000000" x="911.41" y="53.6076" font-size="12" text-anchor="start" baseline-shift="0" font-family="Helvetica">1.98 kW NC</text>
<polyline fill="none" stroke="#5400ff" stroke-width="1.428" stroke-dasharray="8,8" points="886.385,47.5956 908.407,47.5956"/>
<text fill="#000000" x="911.41" y="70.6418" font-size="12" text-anchor="start" baseline-shift="0" font-family="Helvetica">3.97 kW</text>
<polyline fill="none" stroke="#ff007e" stroke-width="1.428" points="886.385,64.6298 908.407,64.6298"/>
<text fill="#000000" x="911.41" y="87.6761" font-size="12" text-anchor="start" baseline-shift="0" font-family="Helvetica">3.97 kW NC</text>
<polyline fill="none" stroke="#00aa7e" stroke-width="1.428" stroke-dasharray="8,8" points="886.385,81.664 908.407,81.664"/>
<text fill="#000000" x="911.41" y="104.71" font-size="12" text-anchor="start" baseline-shift="0" font-family="Helvetica">7.93 kW</text>
<polyline fill="none" stroke="#aa0000" stroke-width="1.428" points="886.385,98.6982 908.407,98.6982"/>
<text fill="#000000" x="911.41" y="121.744" font-size="12" text-anchor="start" baseline-shift="0" font-family="Helvetica">7.93 kW NC</text>
<polyline fill="none" stroke="#005400" stroke-width="1.428" stroke-dasharray="8,8" points="886.385,115.732 908.407,115.732"/>
</g>
</svg>
