<?xml version="1.0" encoding="UTF-8" standalone="no"?>
<svg
   xmlns:dc="http://purl.org/dc/elements/1.1/"
   xmlns:cc="http://creativecommons.org/ns#"
   xmlns:rdf="http://www.w3.org/1999/02/22-rdf-syntax-ns#"
   xmlns:svg="http://www.w3.org/2000/svg"
   xmlns="http://www.w3.org/2000/svg"
   xmlns:sodipodi="http://sodipodi.sourceforge.net/DTD/sodipodi-0.dtd"
   xmlns:inkscape="http://www.inkscape.org/namespaces/inkscape"
   width="492px"
   height="498px"
   viewBox="0 0 492 498"
   id="svg5528"
   version="1.1"
   inkscape:version="0.91 r13725"
   sodipodi:docname="Q_z_200_square.svg">
  <metadata
     id="metadata5652">
    <rdf:RDF>
      <cc:Work
         rdf:about="">
        <dc:format>image/svg+xml</dc:format>
        <dc:type
           rdf:resource="http://purl.org/dc/dcmitype/StillImage" />
        <dc:title>ParaView GL2PS Export</dc:title>
      </cc:Work>
    </rdf:RDF>
  </metadata>
  <sodipodi:namedview
     pagecolor="#ffffff"
     bordercolor="#666666"
     borderopacity="1"
     objecttolerance="10"
     gridtolerance="10"
     guidetolerance="10"
     inkscape:pageopacity="0"
     inkscape:pageshadow="2"
     inkscape:window-width="1366"
     inkscape:window-height="720"
     id="namedview5650"
     showgrid="false"
     inkscape:zoom="1.0074671"
     inkscape:cx="246"
     inkscape:cy="255.41425"
     inkscape:window-x="0"
     inkscape:window-y="0"
     inkscape:window-maximized="1"
     inkscape:current-layer="g5538" />
  <title
     id="title5530">ParaView GL2PS Export</title>
  <desc
     id="desc5532">
Creator: GL2PS 1.3.8, (C) 1999-2012 C. Geuzaine
For: VTK
CreationDate: Tue Nov  8 16:59:18 2016
</desc>
  <defs
     id="defs5534" />
  <polygon
     points="492,498 0,498 0,0 492,0 "
     id="polygon5536"
     transform="matrix(0.93441589,0,0,0.93441589,31.762825,0)"
     style="fill:#ffffff" />
  <g
     id="g5538"
     transform="matrix(0.90114466,0,0,0.90114466,56.636826,-10)"
     style="shape-rendering:crispEdges">
    <polyline
       points="73.6497,463.431 73.6497,19.5392"
       id="polyline5540"
       style="fill:none;stroke:#f2f2f2;stroke-width:0.71399999"
       transform="matrix(1.0369211,0,0,1.0369211,-18.397304,-0.40971302)" />
    <polyline
       points="128.762,463.431 128.762,19.5392"
       id="polyline5542"
       style="fill:none;stroke:#f2f2f2;stroke-width:0.71399999"
       transform="matrix(1.0369211,0,0,1.0369211,-18.397304,-0.40971302)" />
    <polyline
       points="183.874,463.431 183.874,19.5392"
       id="polyline5544"
       style="fill:none;stroke:#f2f2f2;stroke-width:0.71399999"
       transform="matrix(1.0369211,0,0,1.0369211,-18.397304,-0.40971302)" />
    <polyline
       points="238.986,463.431 238.986,19.5392"
       id="polyline5546"
       style="fill:none;stroke:#f2f2f2;stroke-width:0.71399999"
       transform="matrix(1.0369211,0,0,1.0369211,-18.397304,-0.40971302)" />
    <polyline
       points="294.098,463.431 294.098,19.5392"
       id="polyline5548"
       style="fill:none;stroke:#f2f2f2;stroke-width:0.71399999"
       transform="matrix(1.0369211,0,0,1.0369211,-18.397304,-0.40971302)" />
    <polyline
       points="349.21,463.431 349.21,19.5392"
       id="polyline5550"
       style="fill:none;stroke:#f2f2f2;stroke-width:0.71399999"
       transform="matrix(1.0369211,0,0,1.0369211,-18.397304,-0.40971302)" />
    <polyline
       points="404.322,463.431 404.322,19.5392"
       id="polyline5552"
       style="fill:none;stroke:#f2f2f2;stroke-width:0.71399999"
       transform="matrix(1.0369211,0,0,1.0369211,-18.397304,-0.40971302)" />
    <polyline
       points="459.434,463.431 459.434,19.5392"
       id="polyline5554"
       style="fill:none;stroke:#f2f2f2;stroke-width:0.71399999"
       transform="matrix(1.0369211,0,0,1.0369211,-18.397304,-0.40971302)" />
    <polyline
       points="70.6436,432.368 472.46,432.368"
       id="polyline5556"
       style="fill:none;stroke:#f2f2f2;stroke-width:0.71399999"
       transform="matrix(1.0369211,0,0,1.0369211,-18.397304,-0.40971302)" />
    <polyline
       points="70.6436,358.219 472.46,358.219"
       id="polyline5558"
       style="fill:none;stroke:#f2f2f2;stroke-width:0.71399999"
       transform="matrix(1.0369211,0,0,1.0369211,-18.397304,-0.40971302)" />
    <polyline
       points="70.6436,284.07 472.46,284.07"
       id="polyline5560"
       style="fill:none;stroke:#f2f2f2;stroke-width:0.71399999"
       transform="matrix(1.0369211,0,0,1.0369211,-18.397304,-0.40971302)" />
    <polyline
       points="70.6436,209.922 472.46,209.922"
       id="polyline5562"
       style="fill:none;stroke:#f2f2f2;stroke-width:0.71399999"
       transform="matrix(1.0369211,0,0,1.0369211,-18.397304,-0.40971302)" />
    <polyline
       points="70.6436,135.773 472.46,135.773"
       id="polyline5564"
       style="fill:none;stroke:#f2f2f2;stroke-width:0.71399999"
       transform="matrix(1.0369211,0,0,1.0369211,-18.397304,-0.40971302)" />
    <polyline
       points="70.6436,61.6237 472.46,61.6237"
       id="polyline5566"
       style="fill:none;stroke:#f2f2f2;stroke-width:0.71399999"
       transform="matrix(1.0369211,0,0,1.0369211,-18.397304,-0.40971302)" />
    <polyline
       points="74.2422,459.48 78.0956,450.217 81.9489,440.955 85.8022,430.577 89.6555,413.508 93.5089,396.439 97.3622,380.01 101.215,365.178 105.069,350.346 108.922,336.089 112.775,322.6 116.629,309.111 120.482,296.218 124.335,283.773 128.189,271.328 132.042,259.57 135.895,248.086 139.749,236.603 143.602,225.94 147.455,215.414 151.309,204.887 155.162,195.282 159.015,185.677 162.869,176.199 166.722,167.486 170.575,158.772 174.429,150.318 178.282,142.511 182.135,134.704 185.989,127.293 189.842,120.408 193.695,113.523 197.549,107.173 201.402,101.225 205.255,95.2775 209.109,90.0092 212.962,85.0128 216.815,80.0163 220.669,75.8466 224.522,71.8147 228.375,67.7828 232.229,64.7257 236.082,61.6686 239.935,58.7518 243.789,56.676 247.642,54.6003 251.495,52.806 255.348,51.7151 259.202,50.6243 263.055,49.9566 266.908,49.8533 270.762,49.7501 274.615,50.2133 278.468,51.1014 282.322,51.9895 286.175,53.5887 290.028,55.4724 293.882,57.3561 297.735,60.0955 301.588,62.9775 305.442,65.8596 309.295,69.738 313.148,73.6165 317.002,77.6362 320.855,82.503 324.708,87.3698 328.562,92.515 332.415,98.3562 336.268,104.197 340.122,110.449 343.975,117.247 347.828,124.045 351.682,131.38 355.535,139.117 359.388,146.854 363.242,155.282 367.095,163.988 370.948,172.693 374.802,182.246 378.655,191.94 382.508,201.634 386.362,212.265 390.215,222.896 394.068,233.658 397.922,245.207 401.775,256.755 405.628,268.579 409.482,281.092 413.335,293.605 417.188,306.617 421.041,320.295 424.895,333.974 428.748,348.472 432.601,363.586 436.455,378.7 440.308,395.375 444.161,412.675 448.015,429.975 451.868,440.468 455.721,449.826 459.575,459.185"
       id="polyline5568"
       style="fill:none;stroke:#aa0000;stroke-width:1.42799997"
       transform="matrix(1.0369211,0,0,1.0369211,-18.397304,-0.40971302)" />
    <polyline
       points="74.2422,460.26 78.0956,451.128 81.9489,441.996 85.8022,431.747 89.6555,414.802 93.5089,397.857 97.3622,381.485 101.215,366.546 105.069,351.608 108.922,337.176 112.775,323.42 116.629,309.663 120.482,296.435 124.335,283.605 128.189,270.774 132.042,258.549 135.895,246.567 139.749,234.584 143.602,223.316 147.455,212.168 151.309,201.019 155.162,190.717 159.015,180.416 162.869,170.239 166.722,160.813 170.575,151.388 174.429,142.222 178.282,133.708 182.135,125.194 185.989,117.087 189.842,109.522 193.695,101.958 197.549,94.9593 201.402,88.3845 205.255,81.8097 209.109,75.9694 212.962,70.4229 216.815,64.8764 220.669,60.2419 224.522,55.7595 228.375,51.277 232.229,47.8876 236.082,44.4981 239.935,41.2678 243.789,38.992 247.642,36.7162 251.495,34.7621 255.348,33.6125 259.202,32.4629 263.055,31.7981 266.908,31.7799 270.762,31.7617 274.615,32.3903 278.468,33.5038 282.322,34.6173 286.175,36.5358 290.028,38.7762 293.882,41.0167 297.735,44.2135 301.588,47.5697 305.442,50.9258 309.295,55.3782 313.148,59.8305 317.002,64.4354 320.855,69.9557 324.708,75.4762 328.562,81.2918 332.415,87.8456 336.268,94.3995 340.122,101.38 343.975,108.929 347.828,116.478 351.682,124.574 355.535,133.079 359.388,141.585 363.242,150.746 367.095,160.17 370.948,169.593 374.802,179.772 378.655,190.078 382.508,200.384 386.362,211.543 390.215,222.702 394.068,233.981 397.922,245.979 401.775,257.978 405.628,270.221 409.482,283.074 413.335,295.927 417.188,309.179 421.041,322.964 424.895,336.749 428.748,351.213 432.601,366.186 436.455,381.159 440.308,397.572 444.161,414.561 448.015,431.55 451.868,441.825 455.721,450.981 459.575,460.137"
       id="polyline5570"
       style="fill:none;stroke:#005400;stroke-width:1.42799997;stroke-dasharray:8, 8"
       transform="matrix(1.0369211,0,0,1.0369211,-18.397304,-0.40971302)" />
    <polyline
       points="70.6436,463.431 70.6436,19.5392"
       id="polyline5572"
       style="fill:none;stroke:#000000;stroke-width:0.71399999"
       transform="matrix(1.0369211,0,0,1.0369211,-18.397304,-0.40971302)" />
    <text
       x="-241.98599"
       y="-37.734001"
       font-size="12"
       transform="matrix(0,-1,1,0,0,0)"
       baseline-shift="0"
       font-weight="bold"
       id="text5574"
       style="font-style:normal;font-variant:normal;font-weight:normal;font-stretch:normal;font-size:16.64549637px;font-family:sans-serif;-inkscape-font-specification:sans-serif;baseline-shift:0px;text-anchor:middle;fill:#000000">Power [kW/m³ ]</text>
    <polyline
       points="65.6334,432.368 70.6436,432.368"
       id="polyline5576"
       style="fill:none;stroke:#000000;stroke-width:0.71399999"
       transform="matrix(1.0369211,0,0,1.0369211,-18.397304,-0.40971302)" />
    <text
       x="47.581257"
       y="447.92178"
       font-size="12"
       baseline-shift="-6"
       id="text5578"
       style="font-style:normal;font-variant:normal;font-weight:normal;font-stretch:normal;font-size:17.26006508px;font-family:sans-serif;-inkscape-font-specification:sans-serif;baseline-shift:-6px;text-anchor:end;fill:#000000">5e+06</text>
    <polyline
       points="65.6334,358.219 70.6436,358.219"
       id="polyline5580"
       style="fill:none;stroke:#000000;stroke-width:0.71399999"
       transform="matrix(1.0369211,0,0,1.0369211,-18.397304,-0.40971302)" />
    <text
       x="47.581257"
       y="371.0351"
       font-size="12"
       baseline-shift="-6"
       id="text5582"
       style="font-style:normal;font-variant:normal;font-weight:normal;font-stretch:normal;font-size:17.26006508px;font-family:sans-serif;-inkscape-font-specification:sans-serif;baseline-shift:-6px;text-anchor:end;fill:#000000">1e+07</text>
    <polyline
       points="65.6334,284.07 70.6436,284.07"
       id="polyline5584"
       style="fill:none;stroke:#000000;stroke-width:0.71399999"
       transform="matrix(1.0369211,0,0,1.0369211,-18.397304,-0.40971302)" />
    <text
       x="47.581257"
       y="294.14847"
       font-size="12"
       baseline-shift="-6"
       id="text5586"
       style="font-style:normal;font-variant:normal;font-weight:normal;font-stretch:normal;font-size:17.26006508px;font-family:sans-serif;-inkscape-font-specification:sans-serif;baseline-shift:-6px;text-anchor:end;fill:#000000">1.5e+07</text>
    <polyline
       points="65.6334,209.922 70.6436,209.922"
       id="polyline5588"
       style="fill:none;stroke:#000000;stroke-width:0.71399999"
       transform="matrix(1.0369211,0,0,1.0369211,-18.397304,-0.40971302)" />
    <text
       x="47.581257"
       y="217.26283"
       font-size="12"
       baseline-shift="-6"
       id="text5590"
       style="font-style:normal;font-variant:normal;font-weight:normal;font-stretch:normal;font-size:17.26006508px;font-family:sans-serif;-inkscape-font-specification:sans-serif;baseline-shift:-6px;text-anchor:end;fill:#000000">2e+07</text>
    <polyline
       points="65.6334,135.773 70.6436,135.773"
       id="polyline5592"
       style="fill:none;stroke:#000000;stroke-width:0.71399999"
       transform="matrix(1.0369211,0,0,1.0369211,-18.397304,-0.40971302)" />
    <text
       x="47.581257"
       y="140.37616"
       font-size="12"
       baseline-shift="-6"
       id="text5594"
       style="font-style:normal;font-variant:normal;font-weight:normal;font-stretch:normal;font-size:17.26006508px;font-family:sans-serif;-inkscape-font-specification:sans-serif;baseline-shift:-6px;text-anchor:end;fill:#000000">2.5e+07</text>
    <polyline
       points="65.6334,61.6237 70.6436,61.6237"
       id="polyline5596"
       style="fill:none;stroke:#000000;stroke-width:0.71399999"
       transform="matrix(1.0369211,0,0,1.0369211,-18.397304,-0.40971302)" />
    <text
       x="47.581257"
       y="63.489201"
       font-size="12"
       baseline-shift="-6"
       id="text5598"
       style="font-style:normal;font-variant:normal;font-weight:normal;font-stretch:normal;font-size:17.26006508px;font-family:sans-serif;-inkscape-font-specification:sans-serif;baseline-shift:-6px;text-anchor:end;fill:#000000">3e+07</text>
    <polyline
       points="70.6436,463.431 472.46,463.431"
       id="polyline5600"
       style="fill:none;stroke:#000000;stroke-width:0.71399999"
       transform="matrix(1.0369211,0,0,1.0369211,-18.397304,-0.40971302)" />
    <text
       x="271.05099"
       y="542.39294"
       font-size="12"
       baseline-shift="-12"
       font-weight="bold"
       id="text5602"
       style="font-style:normal;font-variant:normal;font-weight:normal;font-stretch:normal;font-size:16.64549637px;font-family:sans-serif;-inkscape-font-specification:sans-serif;baseline-shift:-12px;text-anchor:middle;fill:#000000">Axial position [m]</text>
    <polyline
       points="73.6497,468.441 73.6497,463.431"
       id="polyline5604"
       style="fill:none;stroke:#000000;stroke-width:0.71399999"
       transform="matrix(1.0369211,0,0,1.0369211,-18.397304,-0.40971302)" />
    <text
       x="57.971619"
       y="511.81793"
       font-size="12"
       baseline-shift="-12"
       id="text5606"
       style="font-style:normal;font-variant:normal;font-weight:normal;font-stretch:normal;font-size:17.26006508px;font-family:sans-serif;-inkscape-font-specification:sans-serif;baseline-shift:-12px;text-anchor:middle;fill:#000000">0</text>
    <polyline
       points="128.762,468.441 128.762,463.431"
       id="polyline5608"
       style="fill:none;stroke:#000000;stroke-width:0.71399999"
       transform="matrix(1.0369211,0,0,1.0369211,-18.397304,-0.40971302)" />
    <text
       x="115.11872"
       y="511.81793"
       font-size="12"
       baseline-shift="-12"
       id="text5610"
       style="font-style:normal;font-variant:normal;font-weight:normal;font-stretch:normal;font-size:17.26006508px;font-family:sans-serif;-inkscape-font-specification:sans-serif;baseline-shift:-12px;text-anchor:middle;fill:#000000">0.05</text>
    <polyline
       points="183.874,468.441 183.874,463.431"
       id="polyline5612"
       style="fill:none;stroke:#000000;stroke-width:0.71399999"
       transform="matrix(1.0369211,0,0,1.0369211,-18.397304,-0.40971302)" />
    <text
       x="172.26552"
       y="511.81793"
       font-size="12"
       baseline-shift="-12"
       id="text5614"
       style="font-style:normal;font-variant:normal;font-weight:normal;font-stretch:normal;font-size:17.26006508px;font-family:sans-serif;-inkscape-font-specification:sans-serif;baseline-shift:-12px;text-anchor:middle;fill:#000000">0.1</text>
    <polyline
       points="238.986,468.441 238.986,463.431"
       id="polyline5616"
       style="fill:none;stroke:#000000;stroke-width:0.71399999"
       transform="matrix(1.0369211,0,0,1.0369211,-18.397304,-0.40971302)" />
    <text
       x="229.41231"
       y="511.81793"
       font-size="12"
       baseline-shift="-12"
       id="text5618"
       style="font-style:normal;font-variant:normal;font-weight:normal;font-stretch:normal;font-size:17.26006508px;font-family:sans-serif;-inkscape-font-specification:sans-serif;baseline-shift:-12px;text-anchor:middle;fill:#000000">0.15</text>
    <polyline
       points="294.098,468.441 294.098,463.431"
       id="polyline5620"
       style="fill:none;stroke:#000000;stroke-width:0.71399999"
       transform="matrix(1.0369211,0,0,1.0369211,-18.397304,-0.40971302)" />
    <text
       x="286.55911"
       y="511.81793"
       font-size="12"
       baseline-shift="-12"
       id="text5622"
       style="font-style:normal;font-variant:normal;font-weight:normal;font-stretch:normal;font-size:17.26006508px;font-family:sans-serif;-inkscape-font-specification:sans-serif;baseline-shift:-12px;text-anchor:middle;fill:#000000">0.2</text>
    <polyline
       points="349.21,468.441 349.21,463.431"
       id="polyline5624"
       style="fill:none;stroke:#000000;stroke-width:0.71399999"
       transform="matrix(1.0369211,0,0,1.0369211,-18.397304,-0.40971302)" />
    <text
       x="343.7059"
       y="511.81793"
       font-size="12"
       baseline-shift="-12"
       id="text5626"
       style="font-style:normal;font-variant:normal;font-weight:normal;font-stretch:normal;font-size:17.26006508px;font-family:sans-serif;-inkscape-font-specification:sans-serif;baseline-shift:-12px;text-anchor:middle;fill:#000000">0.25</text>
    <polyline
       points="404.322,468.441 404.322,463.431"
       id="polyline5628"
       style="fill:none;stroke:#000000;stroke-width:0.71399999"
       transform="matrix(1.0369211,0,0,1.0369211,-18.397304,-0.40971302)" />
    <text
       x="400.85269"
       y="511.81793"
       font-size="12"
       baseline-shift="-12"
       id="text5630"
       style="font-style:normal;font-variant:normal;font-weight:normal;font-stretch:normal;font-size:17.26006508px;font-family:sans-serif;-inkscape-font-specification:sans-serif;baseline-shift:-12px;text-anchor:middle;fill:#000000">0.3</text>
    <polyline
       points="459.434,468.441 459.434,463.431"
       id="polyline5632"
       style="fill:none;stroke:#000000;stroke-width:0.71399999"
       transform="matrix(1.0369211,0,0,1.0369211,-18.397304,-0.40971302)" />
    <text
       x="457.99948"
       y="511.81793"
       font-size="12"
       baseline-shift="-12"
       id="text5634"
       style="font-style:normal;font-variant:normal;font-weight:normal;font-stretch:normal;font-size:17.26006508px;font-family:sans-serif;-inkscape-font-specification:sans-serif;baseline-shift:-12px;text-anchor:middle;fill:#000000">0.35</text>
    <polygon
       points="472.46,58.6177 371.255,19.5392 371.255,58.6177 "
       id="polygon5636"
       style="fill:#ffffff"
       transform="matrix(1.0369211,0,0,1.0369211,-277.45776,389.51243)" />
    <polygon
       points="472.46,19.5392 371.255,19.5392 472.46,58.6177 "
       id="polygon5638"
       style="fill:#ffffff"
       transform="matrix(1.0369211,0,0,1.0369211,-277.45776,389.51243)" />
    <polyline
       points="371.255,58.6177 472.46,58.6177 472.46,19.5392 371.255,19.5392 371.255,58.6177"
       id="polyline5640"
       style="fill:none;stroke:#000000;stroke-width:0.71399999"
       transform="matrix(1.3515199,0,0,1.0342649,-394.20225,389.61623)" />
    <text
       x="138.67537"
       y="427.43625"
       font-size="12"
       baseline-shift="0"
       id="text5642"
       style="font-style:normal;font-variant:normal;font-weight:normal;font-stretch:normal;font-size:17.26006508px;font-family:sans-serif;-inkscape-font-specification:sans-serif;baseline-shift:0px;text-anchor:start;fill:#000000">7.93 kW</text>
    <polyline
       points="376.265,30.5614 398.31,30.5614"
       id="polyline5644"
       style="fill:none;stroke:#aa0000;stroke-width:1.42799997"
       transform="matrix(1.0369211,0,0,1.0369211,-277.45776,389.51243)" />
    <text
       x="138.67537"
       y="445.09927"
       font-size="12"
       baseline-shift="0"
       id="text5646"
       style="font-style:normal;font-variant:normal;font-weight:normal;font-stretch:normal;font-size:17.26006508px;font-family:sans-serif;-inkscape-font-specification:sans-serif;baseline-shift:0px;text-anchor:start;fill:#000000">7.93 kW NC</text>
    <polyline
       points="376.265,47.5956 398.31,47.5956"
       id="polyline5648"
       style="fill:none;stroke:#005400;stroke-width:1.42799997;stroke-dasharray:8, 8"
       transform="matrix(1.0369211,0,0,1.0369211,-277.45776,389.51243)" />
    <flowRoot
       xml:space="preserve"
       id="flowRoot5654"
       style="fill:black;stroke:none;stroke-opacity:1;stroke-width:1px;stroke-linejoin:miter;stroke-linecap:butt;fill-opacity:1;font-family:sans-serif;font-style:normal;font-weight:normal;font-size:17.5px;line-height:125%;letter-spacing:0px;word-spacing:0px"><flowRegion
         id="flowRegion5656"><rect
           id="rect5658"
           width="588.60486"
           height="503.24225"
           x="4.9629416"
           y="-15.168145" /></flowRegion><flowPara
         id="flowPara5660"></flowPara></flowRoot>  </g>
</svg>
