<?xml version="1.0" encoding="UTF-8" standalone="no"?>
<svg xmlns="http://www.w3.org/2000/svg"
     xmlns:xlink="http://www.w3.org/1999/xlink"
     width="1002px" height="498px" viewBox="0 0 1002 498">
<title>ParaView GL2PS Export</title>
<desc>
Creator: GL2PS 1.3.8, (C) 1999-2012 C. Geuzaine
For: VTK
CreationDate: Sun Oct 30 09:41:56 2016
</desc>
<defs>
</defs>
<g shape-rendering="crispEdges">
<polyline fill="none" stroke="#f2f2f2" stroke-width="0.714" points="71.5714,463.431 71.5714,19.5392"/>
<polyline fill="none" stroke="#f2f2f2" stroke-width="0.714" points="122.622,463.431 122.622,19.5392"/>
<polyline fill="none" stroke="#f2f2f2" stroke-width="0.714" points="174.674,463.431 174.674,19.5392"/>
<polyline fill="none" stroke="#f2f2f2" stroke-width="0.714" points="225.725,463.431 225.725,19.5392"/>
<polyline fill="none" stroke="#f2f2f2" stroke-width="0.714" points="276.776,463.431 276.776,19.5392"/>
<polyline fill="none" stroke="#f2f2f2" stroke-width="0.714" points="327.827,463.431 327.827,19.5392"/>
<polyline fill="none" stroke="#f2f2f2" stroke-width="0.714" points="378.878,463.431 378.878,19.5392"/>
<polyline fill="none" stroke="#f2f2f2" stroke-width="0.714" points="430.93,463.431 430.93,19.5392"/>
<polyline fill="none" stroke="#f2f2f2" stroke-width="0.714" points="481.981,463.431 481.981,19.5392"/>
<polyline fill="none" stroke="#f2f2f2" stroke-width="0.714" points="533.032,463.431 533.032,19.5392"/>
<polyline fill="none" stroke="#f2f2f2" stroke-width="0.714" points="584.083,463.431 584.083,19.5392"/>
<polyline fill="none" stroke="#f2f2f2" stroke-width="0.714" points="636.135,463.431 636.135,19.5392"/>
<polyline fill="none" stroke="#f2f2f2" stroke-width="0.714" points="687.186,463.431 687.186,19.5392"/>
<polyline fill="none" stroke="#f2f2f2" stroke-width="0.714" points="738.237,463.431 738.237,19.5392"/>
<polyline fill="none" stroke="#f2f2f2" stroke-width="0.714" points="789.288,463.431 789.288,19.5392"/>
<polyline fill="none" stroke="#f2f2f2" stroke-width="0.714" points="841.34,463.431 841.34,19.5392"/>
<polyline fill="none" stroke="#f2f2f2" stroke-width="0.714" points="892.391,463.431 892.391,19.5392"/>
<polyline fill="none" stroke="#f2f2f2" stroke-width="0.714" points="943.442,463.431 943.442,19.5392"/>
<polyline fill="none" stroke="#f2f2f2" stroke-width="0.714" points="70.5704,447.398 982.48,447.398"/>
<polyline fill="none" stroke="#f2f2f2" stroke-width="0.714" points="70.5704,387.278 982.48,387.278"/>
<polyline fill="none" stroke="#f2f2f2" stroke-width="0.714" points="70.5704,327.157 982.48,327.157"/>
<polyline fill="none" stroke="#f2f2f2" stroke-width="0.714" points="70.5704,267.036 982.48,267.036"/>
<polyline fill="none" stroke="#f2f2f2" stroke-width="0.714" points="70.5704,206.915 982.48,206.915"/>
<polyline fill="none" stroke="#f2f2f2" stroke-width="0.714" points="70.5704,146.795 982.48,146.795"/>
<polyline fill="none" stroke="#f2f2f2" stroke-width="0.714" points="70.5704,86.674 982.48,86.674"/>
<polyline fill="none" stroke="#f2f2f2" stroke-width="0.714" points="70.5704,26.5533 982.48,26.5533"/>
<polyline fill="none" stroke="#ff007e" stroke-width="1.428" points="72.1253,460.506 81.1008,451.198 90.0762,441.89 99.0517,431.452 108.027,414.226 117.003,397 125.978,380.38 134.953,365.273 143.929,350.167 152.904,335.597 161.88,321.741 170.855,307.885 179.831,294.584 188.806,281.699 197.781,268.814 206.757,256.577 215.732,244.6 224.708,232.623 233.683,221.443 242.659,210.397 251.634,199.35 260.61,189.214 269.585,179.077 278.56,169.068 287.536,159.819 296.511,150.57 305.487,141.583 314.462,133.251 323.438,124.919 332.413,116.995 341.389,109.615 350.364,102.234 359.339,95.4169 368.315,89.0223 377.29,82.6277 386.266,76.9597 395.241,71.5825 404.217,66.2052 413.192,61.7224 422.168,57.3886 431.143,53.0549 440.118,49.7845 449.094,46.5143 458.069,43.3978 467.045,41.2042 476.02,39.0105 484.996,37.1266 493.971,36.0173 502.947,34.9079 511.922,34.2648 520.897,34.2433 529.873,34.2219 538.848,34.8223 547.824,35.8891 556.799,36.9559 565.775,38.7976 574.75,40.9493 583.725,43.101 592.701,46.1761 601.676,49.405 610.652,52.634 619.627,56.9273 628.603,61.2206 637.578,65.6631 646.554,71.0016 655.529,76.3401 664.504,81.9698 673.48,88.3278 682.455,94.6857 691.431,101.467 700.406,108.813 709.382,116.159 718.357,124.051 727.333,132.351 736.308,140.652 745.283,149.655 754.259,158.938 763.234,168.221 772.21,178.341 781.185,188.6 790.161,198.859 799.136,210.007 808.111,221.155 817.087,232.425 826.062,244.429 835.038,256.434 844.013,268.69 852.989,281.576 861.964,294.462 870.94,307.766 879.915,321.626 888.89,335.486 897.866,350.062 906.841,365.177 915.817,380.291 924.792,396.925 933.768,414.166 942.743,431.407 951.719,441.857 960.694,451.175 969.669,460.493"/>
<polyline fill="none" stroke="#00aa7e" stroke-width="1.428" stroke-dasharray="8,8" points="72.1253,460.462 81.1008,451.143 90.0762,441.824 99.0517,431.368 108.027,414.098 117.003,396.828 125.978,380.154 134.953,364.97 143.929,349.787 152.904,335.132 161.88,321.182 170.855,307.231 179.831,293.83 188.806,280.84 197.781,267.849 206.757,255.48 215.732,243.359 224.708,231.238 233.683,219.844 242.659,208.571 251.634,197.298 260.61,186.886 269.585,176.474 278.56,166.19 287.536,156.672 296.511,147.154 305.487,137.903 314.462,129.318 323.438,120.733 332.413,112.565 341.389,104.955 350.364,97.3441 359.339,90.313 368.315,83.7167 377.29,77.1204 386.266,71.2743 395.241,65.7283 404.217,60.1823 413.192,55.563 422.168,51.0981 431.143,46.6332 440.118,43.2754 449.094,39.9175 458.069,36.7208 467.045,34.4907 476.02,32.2607 484.996,30.3571 493.971,29.2697 502.947,28.1825 511.922,27.5879 520.897,27.6502 529.873,27.7125 538.848,28.4306 547.824,29.6404 556.799,30.8503 565.775,32.8719 574.75,35.218 583.725,37.5642 592.701,40.8682 601.676,44.3318 610.652,47.7954 619.627,52.353 628.603,56.9106 637.578,61.6205 646.554,67.2449 655.529,72.8693 664.504,78.7891 673.48,85.4476 682.455,92.1062 691.431,99.192 700.406,106.848 709.382,114.503 718.357,122.705 727.333,131.317 736.308,139.929 745.283,149.194 754.259,158.719 763.234,168.245 772.21,178.52 781.185,188.92 790.161,199.32 799.136,210.562 808.111,221.804 817.087,233.164 826.062,245.234 835.038,257.305 844.013,269.617 852.989,282.537 861.964,295.457 870.94,308.78 879.915,322.64 888.89,336.5 897.866,351.052 906.841,366.124 915.817,381.196 924.792,397.74 933.768,414.872 942.743,432.004 951.719,442.373 960.694,451.615 969.669,460.858"/>
<polyline fill="none" stroke="#000000" stroke-width="0.714" points="70.5704,463.431 70.5704,19.5392"/>
<text fill="#000000" x="15.5155" y="241.986" font-size="12" transform="rotate(-90, 15.5155, 241.986)" text-anchor="middle" baseline-shift="0" font-family="Helvetica" font-weight="bold">Power [kW/m³ ]</text>
<polyline fill="none" stroke="#000000" stroke-width="0.714" points="65.5654,447.398 70.5704,447.398"/>
<text fill="#000000" x="63.5634" y="447.398" font-size="12" text-anchor="end" baseline-shift="-6" font-family="Helvetica">2e+06</text>
<polyline fill="none" stroke="#000000" stroke-width="0.714" points="65.5654,387.278 70.5704,387.278"/>
<text fill="#000000" x="63.5634" y="387.278" font-size="12" text-anchor="end" baseline-shift="-6" font-family="Helvetica">4e+06</text>
<polyline fill="none" stroke="#000000" stroke-width="0.714" points="65.5654,327.157 70.5704,327.157"/>
<text fill="#000000" x="63.5634" y="327.157" font-size="12" text-anchor="end" baseline-shift="-6" font-family="Helvetica">6e+06</text>
<polyline fill="none" stroke="#000000" stroke-width="0.714" points="65.5654,267.036 70.5704,267.036"/>
<text fill="#000000" x="63.5634" y="267.036" font-size="12" text-anchor="end" baseline-shift="-6" font-family="Helvetica">8e+06</text>
<polyline fill="none" stroke="#000000" stroke-width="0.714" points="65.5654,206.915 70.5704,206.915"/>
<text fill="#000000" x="63.5634" y="206.915" font-size="12" text-anchor="end" baseline-shift="-6" font-family="Helvetica">1e+07</text>
<polyline fill="none" stroke="#000000" stroke-width="0.714" points="65.5654,146.795 70.5704,146.795"/>
<text fill="#000000" x="63.5634" y="146.795" font-size="12" text-anchor="end" baseline-shift="-6" font-family="Helvetica">1.2e+07</text>
<polyline fill="none" stroke="#000000" stroke-width="0.714" points="65.5654,86.674 70.5704,86.674"/>
<text fill="#000000" x="63.5634" y="86.674" font-size="12" text-anchor="end" baseline-shift="-6" font-family="Helvetica">1.4e+07</text>
<polyline fill="none" stroke="#000000" stroke-width="0.714" points="65.5654,26.5533 70.5704,26.5533"/>
<text fill="#000000" x="63.5634" y="26.5533" font-size="12" text-anchor="end" baseline-shift="-6" font-family="Helvetica">1.6e+07</text>
<polyline fill="none" stroke="#000000" stroke-width="0.714" points="70.5704,463.431 982.48,463.431"/>
<text fill="#000000" x="526.025" y="482.469" font-size="12" text-anchor="middle" baseline-shift="-12" font-family="Helvetica" font-weight="bold">Axial position [m]</text>
<polyline fill="none" stroke="#000000" stroke-width="0.714" points="71.5714,468.441 71.5714,463.431"/>
<text fill="#000000" x="71.5714" y="470.445" font-size="12" text-anchor="middle" baseline-shift="-12" font-family="Helvetica">0</text>
<polyline fill="none" stroke="#000000" stroke-width="0.714" points="122.622,468.441 122.622,463.431"/>
<text fill="#000000" x="122.622" y="470.445" font-size="12" text-anchor="middle" baseline-shift="-12" font-family="Helvetica">0.02</text>
<polyline fill="none" stroke="#000000" stroke-width="0.714" points="174.674,468.441 174.674,463.431"/>
<text fill="#000000" x="174.674" y="470.445" font-size="12" text-anchor="middle" baseline-shift="-12" font-family="Helvetica">0.04</text>
<polyline fill="none" stroke="#000000" stroke-width="0.714" points="225.725,468.441 225.725,463.431"/>
<text fill="#000000" x="225.725" y="470.445" font-size="12" text-anchor="middle" baseline-shift="-12" font-family="Helvetica">0.06</text>
<polyline fill="none" stroke="#000000" stroke-width="0.714" points="276.776,468.441 276.776,463.431"/>
<text fill="#000000" x="276.776" y="470.445" font-size="12" text-anchor="middle" baseline-shift="-12" font-family="Helvetica">0.08</text>
<polyline fill="none" stroke="#000000" stroke-width="0.714" points="327.827,468.441 327.827,463.431"/>
<text fill="#000000" x="327.827" y="470.445" font-size="12" text-anchor="middle" baseline-shift="-12" font-family="Helvetica">0.1</text>
<polyline fill="none" stroke="#000000" stroke-width="0.714" points="378.878,468.441 378.878,463.431"/>
<text fill="#000000" x="378.878" y="470.445" font-size="12" text-anchor="middle" baseline-shift="-12" font-family="Helvetica">0.12</text>
<polyline fill="none" stroke="#000000" stroke-width="0.714" points="430.93,468.441 430.93,463.431"/>
<text fill="#000000" x="430.93" y="470.445" font-size="12" text-anchor="middle" baseline-shift="-12" font-family="Helvetica">0.14</text>
<polyline fill="none" stroke="#000000" stroke-width="0.714" points="481.981,468.441 481.981,463.431"/>
<text fill="#000000" x="481.981" y="470.445" font-size="12" text-anchor="middle" baseline-shift="-12" font-family="Helvetica">0.16</text>
<polyline fill="none" stroke="#000000" stroke-width="0.714" points="533.032,468.441 533.032,463.431"/>
<text fill="#000000" x="533.032" y="470.445" font-size="12" text-anchor="middle" baseline-shift="-12" font-family="Helvetica">0.18</text>
<polyline fill="none" stroke="#000000" stroke-width="0.714" points="584.083,468.441 584.083,463.431"/>
<text fill="#000000" x="584.083" y="470.445" font-size="12" text-anchor="middle" baseline-shift="-12" font-family="Helvetica">0.2</text>
<polyline fill="none" stroke="#000000" stroke-width="0.714" points="636.135,468.441 636.135,463.431"/>
<text fill="#000000" x="636.135" y="470.445" font-size="12" text-anchor="middle" baseline-shift="-12" font-family="Helvetica">0.22</text>
<polyline fill="none" stroke="#000000" stroke-width="0.714" points="687.186,468.441 687.186,463.431"/>
<text fill="#000000" x="687.186" y="470.445" font-size="12" text-anchor="middle" baseline-shift="-12" font-family="Helvetica">0.24</text>
<polyline fill="none" stroke="#000000" stroke-width="0.714" points="738.237,468.441 738.237,463.431"/>
<text fill="#000000" x="738.237" y="470.445" font-size="12" text-anchor="middle" baseline-shift="-12" font-family="Helvetica">0.26</text>
<polyline fill="none" stroke="#000000" stroke-width="0.714" points="789.288,468.441 789.288,463.431"/>
<text fill="#000000" x="789.288" y="470.445" font-size="12" text-anchor="middle" baseline-shift="-12" font-family="Helvetica">0.28</text>
<polyline fill="none" stroke="#000000" stroke-width="0.714" points="841.34,468.441 841.34,463.431"/>
<text fill="#000000" x="841.34" y="470.445" font-size="12" text-anchor="middle" baseline-shift="-12" font-family="Helvetica">0.3</text>
<polyline fill="none" stroke="#000000" stroke-width="0.714" points="892.391,468.441 892.391,463.431"/>
<text fill="#000000" x="892.391" y="470.445" font-size="12" text-anchor="middle" baseline-shift="-12" font-family="Helvetica">0.32</text>
<polyline fill="none" stroke="#000000" stroke-width="0.714" points="943.442,468.441 943.442,463.431"/>
<text fill="#000000" x="943.442" y="470.445" font-size="12" text-anchor="middle" baseline-shift="-12" font-family="Helvetica">0.34</text>
<polygon fill="#ffffff" points="881.38,58.6177 982.48,58.6177 881.38,19.5392"/>
<polygon fill="#ffffff" points="982.48,58.6177 982.48,19.5392 881.38,19.5392"/>
<polyline fill="none" stroke="#000000" stroke-width="0.714" points="881.38,58.6177 982.48,58.6177 982.48,19.5392 881.38,19.5392 881.38,58.6177"/>
<text fill="#000000" x="911.41" y="36.5735" font-size="12" text-anchor="start" baseline-shift="0" font-family="Helvetica">3.97 kW</text>
<polyline fill="none" stroke="#ff007e" stroke-width="1.428" points="886.385,30.5614 908.407,30.5614"/>
<text fill="#000000" x="911.41" y="53.6076" font-size="12" text-anchor="start" baseline-shift="0" font-family="Helvetica">3.97 kW NC</text>
<polyline fill="none" stroke="#00aa7e" stroke-width="1.428" stroke-dasharray="8,8" points="886.385,47.5956 908.407,47.5956"/>
</g>
</svg>
