<?xml version="1.0" encoding="UTF-8" standalone="no"?>
<svg xmlns="http://www.w3.org/2000/svg"
     xmlns:xlink="http://www.w3.org/1999/xlink"
     width="1002px" height="498px" viewBox="0 0 1002 498">
<title>ParaView GL2PS Export</title>
<desc>
Creator: GL2PS 1.3.8, (C) 1999-2012 C. Geuzaine
For: VTK
CreationDate: Sun Oct 30 09:39:17 2016
</desc>
<defs>
</defs>
<g shape-rendering="crispEdges">
<polyline fill="none" stroke="#f2f2f2" stroke-width="0.714" points="74.5744,463.431 74.5744,19.5392"/>
<polyline fill="none" stroke="#f2f2f2" stroke-width="0.714" points="124.624,463.431 124.624,19.5392"/>
<polyline fill="none" stroke="#f2f2f2" stroke-width="0.714" points="175.675,463.431 175.675,19.5392"/>
<polyline fill="none" stroke="#f2f2f2" stroke-width="0.714" points="226.726,463.431 226.726,19.5392"/>
<polyline fill="none" stroke="#f2f2f2" stroke-width="0.714" points="277.777,463.431 277.777,19.5392"/>
<polyline fill="none" stroke="#f2f2f2" stroke-width="0.714" points="328.828,463.431 328.828,19.5392"/>
<polyline fill="none" stroke="#f2f2f2" stroke-width="0.714" points="379.879,463.431 379.879,19.5392"/>
<polyline fill="none" stroke="#f2f2f2" stroke-width="0.714" points="429.929,463.431 429.929,19.5392"/>
<polyline fill="none" stroke="#f2f2f2" stroke-width="0.714" points="480.98,463.431 480.98,19.5392"/>
<polyline fill="none" stroke="#f2f2f2" stroke-width="0.714" points="532.031,463.431 532.031,19.5392"/>
<polyline fill="none" stroke="#f2f2f2" stroke-width="0.714" points="583.082,463.431 583.082,19.5392"/>
<polyline fill="none" stroke="#f2f2f2" stroke-width="0.714" points="634.133,463.431 634.133,19.5392"/>
<polyline fill="none" stroke="#f2f2f2" stroke-width="0.714" points="684.183,463.431 684.183,19.5392"/>
<polyline fill="none" stroke="#f2f2f2" stroke-width="0.714" points="735.234,463.431 735.234,19.5392"/>
<polyline fill="none" stroke="#f2f2f2" stroke-width="0.714" points="786.285,463.431 786.285,19.5392"/>
<polyline fill="none" stroke="#f2f2f2" stroke-width="0.714" points="837.336,463.431 837.336,19.5392"/>
<polyline fill="none" stroke="#f2f2f2" stroke-width="0.714" points="888.387,463.431 888.387,19.5392"/>
<polyline fill="none" stroke="#f2f2f2" stroke-width="0.714" points="939.438,463.431 939.438,19.5392"/>
<polyline fill="none" stroke="#f2f2f2" stroke-width="0.714" points="70.5704,399.302 982.48,399.302"/>
<polyline fill="none" stroke="#f2f2f2" stroke-width="0.714" points="70.5704,330.163 982.48,330.163"/>
<polyline fill="none" stroke="#f2f2f2" stroke-width="0.714" points="70.5704,261.024 982.48,261.024"/>
<polyline fill="none" stroke="#f2f2f2" stroke-width="0.714" points="70.5704,192.887 982.48,192.887"/>
<polyline fill="none" stroke="#f2f2f2" stroke-width="0.714" points="70.5704,123.748 982.48,123.748"/>
<polyline fill="none" stroke="#f2f2f2" stroke-width="0.714" points="70.5704,54.6096 982.48,54.6096"/>
<polyline fill="none" stroke="#aa0000" stroke-width="1.428" points="74.7471,424.159 83.6485,415.569 92.5498,406.981 101.451,397.357 110.353,381.529 119.254,365.702 128.155,350.466 137.057,336.713 145.958,322.959 154.859,309.739 163.761,297.231 172.662,284.722 181.563,272.767 190.465,261.227 199.366,249.686 208.268,238.783 217.169,228.134 226.07,217.486 234.972,207.598 243.873,197.837 252.774,188.076 261.676,179.169 270.577,170.263 279.478,161.474 288.38,153.394 297.281,145.314 306.183,137.475 315.084,130.235 323.985,122.996 332.887,116.123 341.788,109.739 350.689,103.354 359.591,97.4666 368.492,91.9511 377.393,86.4357 386.295,81.5504 395.196,76.9173 404.098,72.2841 412.999,68.4175 421.9,64.6788 430.802,60.94 439.703,58.1052 448.604,55.2704 457.506,52.5656 466.407,50.6408 475.308,48.7159 484.21,47.0521 493.111,46.0406 502.013,45.029 510.914,44.4099 519.815,44.3141 528.717,44.2184 537.618,44.6479 546.519,45.4714 555.421,46.2949 564.322,47.7779 573.223,49.5247 582.125,51.2714 591.026,53.8116 599.927,56.4841 608.829,59.1566 617.73,62.7531 626.632,66.3496 635.533,70.0771 644.434,74.59 653.336,79.103 662.237,83.8741 671.138,89.2906 680.04,94.7071 688.941,100.504 697.843,106.808 706.744,113.112 715.645,119.913 724.547,127.088 733.448,134.262 742.349,142.078 751.251,150.15 760.152,158.223 769.053,167.081 777.955,176.07 786.856,185.059 795.757,194.918 804.659,204.776 813.56,214.756 822.462,225.464 831.363,236.173 840.264,247.137 849.166,258.741 858.067,270.344 866.968,282.41 875.87,295.094 884.771,307.777 893.672,321.222 902.574,335.237 911.475,349.252 920.377,364.715 929.278,380.757 938.179,396.799 947.081,406.529 955.982,415.207 964.883,423.885"/>
<polyline fill="none" stroke="#005400" stroke-width="1.428" stroke-dasharray="8,8" points="74.7471,424.882 83.6485,416.414 92.5498,407.946 101.451,398.443 110.353,382.729 119.254,367.016 128.155,351.834 137.057,337.982 145.958,324.13 154.859,310.747 163.761,297.991 172.662,285.234 181.563,272.968 190.465,261.07 199.366,249.173 208.268,237.837 217.169,226.725 226.07,215.614 234.972,205.166 243.873,194.827 252.774,184.489 261.676,174.936 270.577,165.384 279.478,155.947 288.38,147.207 297.281,138.466 306.183,129.967 315.084,122.072 323.985,114.177 332.887,106.659 341.788,99.6449 350.689,92.6306 359.591,86.1406 368.492,80.0438 377.393,73.9471 386.295,68.5314 395.196,63.3881 404.098,58.2449 412.999,53.9474 421.9,49.7908 430.802,45.6343 439.703,42.4913 448.604,39.3482 457.506,36.3527 466.407,34.2424 475.308,32.1321 484.21,30.3201 493.111,29.254 502.013,28.188 510.914,27.5716 519.815,27.5547 528.717,27.5378 537.618,28.1207 546.519,29.1533 555.421,30.1859 564.322,31.9648 573.223,34.0424 582.125,36.1199 591.026,39.0843 599.927,42.1965 608.829,45.3087 617.73,49.4373 626.632,53.5659 635.533,57.836 644.434,62.955 653.336,68.074 662.237,73.4669 671.138,79.5442 680.04,85.6215 688.941,92.0944 697.843,99.0947 706.744,106.095 715.645,113.602 724.547,121.489 733.448,129.376 742.349,137.871 751.251,146.61 760.152,155.348 769.053,164.787 777.955,174.344 786.856,183.9 795.757,194.248 804.659,204.596 813.56,215.055 822.462,226.181 831.363,237.307 840.264,248.66 849.166,260.578 858.067,272.497 866.968,284.786 875.87,297.568 884.771,310.351 893.672,323.763 902.574,337.648 911.475,351.533 920.377,366.752 929.278,382.506 938.179,398.259 947.081,407.787 955.982,416.278 964.883,424.768"/>
<polyline fill="none" stroke="#000000" stroke-width="0.714" points="70.5704,463.431 70.5704,19.5392"/>
<text fill="#000000" x="15.5155" y="241.986" font-size="12" transform="rotate(-90, 15.5155, 241.986)" text-anchor="middle" baseline-shift="0" font-family="Helvetica" font-weight="bold">Power [kW/m³ ]</text>
<polyline fill="none" stroke="#000000" stroke-width="0.714" points="65.5654,399.302 70.5704,399.302"/>
<text fill="#000000" x="63.5634" y="399.302" font-size="12" text-anchor="end" baseline-shift="-6" font-family="Helvetica">5e+06</text>
<polyline fill="none" stroke="#000000" stroke-width="0.714" points="65.5654,330.163 70.5704,330.163"/>
<text fill="#000000" x="63.5634" y="330.163" font-size="12" text-anchor="end" baseline-shift="-6" font-family="Helvetica">1e+07</text>
<polyline fill="none" stroke="#000000" stroke-width="0.714" points="65.5654,261.024 70.5704,261.024"/>
<text fill="#000000" x="63.5634" y="261.024" font-size="12" text-anchor="end" baseline-shift="-6" font-family="Helvetica">1.5e+07</text>
<polyline fill="none" stroke="#000000" stroke-width="0.714" points="65.5654,192.887 70.5704,192.887"/>
<text fill="#000000" x="63.5634" y="192.887" font-size="12" text-anchor="end" baseline-shift="-6" font-family="Helvetica">2e+07</text>
<polyline fill="none" stroke="#000000" stroke-width="0.714" points="65.5654,123.748 70.5704,123.748"/>
<text fill="#000000" x="63.5634" y="123.748" font-size="12" text-anchor="end" baseline-shift="-6" font-family="Helvetica">2.5e+07</text>
<polyline fill="none" stroke="#000000" stroke-width="0.714" points="65.5654,54.6096 70.5704,54.6096"/>
<text fill="#000000" x="63.5634" y="54.6096" font-size="12" text-anchor="end" baseline-shift="-6" font-family="Helvetica">3e+07</text>
<polyline fill="none" stroke="#000000" stroke-width="0.714" points="70.5704,463.431 982.48,463.431"/>
<text fill="#000000" x="526.025" y="482.469" font-size="12" text-anchor="middle" baseline-shift="-12" font-family="Helvetica" font-weight="bold">Axial position [m]</text>
<polyline fill="none" stroke="#000000" stroke-width="0.714" points="74.5744,468.441 74.5744,463.431"/>
<text fill="#000000" x="74.5744" y="470.445" font-size="12" text-anchor="middle" baseline-shift="-12" font-family="Helvetica">0</text>
<polyline fill="none" stroke="#000000" stroke-width="0.714" points="124.624,468.441 124.624,463.431"/>
<text fill="#000000" x="124.624" y="470.445" font-size="12" text-anchor="middle" baseline-shift="-12" font-family="Helvetica">0.02</text>
<polyline fill="none" stroke="#000000" stroke-width="0.714" points="175.675,468.441 175.675,463.431"/>
<text fill="#000000" x="175.675" y="470.445" font-size="12" text-anchor="middle" baseline-shift="-12" font-family="Helvetica">0.04</text>
<polyline fill="none" stroke="#000000" stroke-width="0.714" points="226.726,468.441 226.726,463.431"/>
<text fill="#000000" x="226.726" y="470.445" font-size="12" text-anchor="middle" baseline-shift="-12" font-family="Helvetica">0.06</text>
<polyline fill="none" stroke="#000000" stroke-width="0.714" points="277.777,468.441 277.777,463.431"/>
<text fill="#000000" x="277.777" y="470.445" font-size="12" text-anchor="middle" baseline-shift="-12" font-family="Helvetica">0.08</text>
<polyline fill="none" stroke="#000000" stroke-width="0.714" points="328.828,468.441 328.828,463.431"/>
<text fill="#000000" x="328.828" y="470.445" font-size="12" text-anchor="middle" baseline-shift="-12" font-family="Helvetica">0.1</text>
<polyline fill="none" stroke="#000000" stroke-width="0.714" points="379.879,468.441 379.879,463.431"/>
<text fill="#000000" x="379.879" y="470.445" font-size="12" text-anchor="middle" baseline-shift="-12" font-family="Helvetica">0.12</text>
<polyline fill="none" stroke="#000000" stroke-width="0.714" points="429.929,468.441 429.929,463.431"/>
<text fill="#000000" x="429.929" y="470.445" font-size="12" text-anchor="middle" baseline-shift="-12" font-family="Helvetica">0.14</text>
<polyline fill="none" stroke="#000000" stroke-width="0.714" points="480.98,468.441 480.98,463.431"/>
<text fill="#000000" x="480.98" y="470.445" font-size="12" text-anchor="middle" baseline-shift="-12" font-family="Helvetica">0.16</text>
<polyline fill="none" stroke="#000000" stroke-width="0.714" points="532.031,468.441 532.031,463.431"/>
<text fill="#000000" x="532.031" y="470.445" font-size="12" text-anchor="middle" baseline-shift="-12" font-family="Helvetica">0.18</text>
<polyline fill="none" stroke="#000000" stroke-width="0.714" points="583.082,468.441 583.082,463.431"/>
<text fill="#000000" x="583.082" y="470.445" font-size="12" text-anchor="middle" baseline-shift="-12" font-family="Helvetica">0.2</text>
<polyline fill="none" stroke="#000000" stroke-width="0.714" points="634.133,468.441 634.133,463.431"/>
<text fill="#000000" x="634.133" y="470.445" font-size="12" text-anchor="middle" baseline-shift="-12" font-family="Helvetica">0.22</text>
<polyline fill="none" stroke="#000000" stroke-width="0.714" points="684.183,468.441 684.183,463.431"/>
<text fill="#000000" x="684.183" y="470.445" font-size="12" text-anchor="middle" baseline-shift="-12" font-family="Helvetica">0.24</text>
<polyline fill="none" stroke="#000000" stroke-width="0.714" points="735.234,468.441 735.234,463.431"/>
<text fill="#000000" x="735.234" y="470.445" font-size="12" text-anchor="middle" baseline-shift="-12" font-family="Helvetica">0.26</text>
<polyline fill="none" stroke="#000000" stroke-width="0.714" points="786.285,468.441 786.285,463.431"/>
<text fill="#000000" x="786.285" y="470.445" font-size="12" text-anchor="middle" baseline-shift="-12" font-family="Helvetica">0.28</text>
<polyline fill="none" stroke="#000000" stroke-width="0.714" points="837.336,468.441 837.336,463.431"/>
<text fill="#000000" x="837.336" y="470.445" font-size="12" text-anchor="middle" baseline-shift="-12" font-family="Helvetica">0.3</text>
<polyline fill="none" stroke="#000000" stroke-width="0.714" points="888.387,468.441 888.387,463.431"/>
<text fill="#000000" x="888.387" y="470.445" font-size="12" text-anchor="middle" baseline-shift="-12" font-family="Helvetica">0.32</text>
<polyline fill="none" stroke="#000000" stroke-width="0.714" points="939.438,468.441 939.438,463.431"/>
<text fill="#000000" x="939.438" y="470.445" font-size="12" text-anchor="middle" baseline-shift="-12" font-family="Helvetica">0.34</text>
<polygon fill="#ffffff" points="881.38,58.6177 982.48,58.6177 881.38,19.5392"/>
<polygon fill="#ffffff" points="982.48,58.6177 982.48,19.5392 881.38,19.5392"/>
<polyline fill="none" stroke="#000000" stroke-width="0.714" points="881.38,58.6177 982.48,58.6177 982.48,19.5392 881.38,19.5392 881.38,58.6177"/>
<text fill="#000000" x="911.41" y="36.5735" font-size="12" text-anchor="start" baseline-shift="0" font-family="Helvetica">7.93 kW</text>
<polyline fill="none" stroke="#aa0000" stroke-width="1.428" points="886.385,30.5614 908.407,30.5614"/>
<text fill="#000000" x="911.41" y="53.6076" font-size="12" text-anchor="start" baseline-shift="0" font-family="Helvetica">7.93 kW NC</text>
<polyline fill="none" stroke="#005400" stroke-width="1.428" stroke-dasharray="8,8" points="886.385,47.5956 908.407,47.5956"/>
</g>
</svg>
