<?xml version="1.0" encoding="UTF-8" standalone="no"?>
<svg xmlns="http://www.w3.org/2000/svg"
     xmlns:xlink="http://www.w3.org/1999/xlink"
     width="492px" height="498px" viewBox="0 0 492 498">
<title>ParaView GL2PS Export</title>
<desc>
Creator: GL2PS 1.3.8, (C) 1999-2012 C. Geuzaine
For: VTK
CreationDate: Tue Nov  8 17:01:17 2016
</desc>
<defs>
</defs>
<g shape-rendering="crispEdges">
<polyline fill="none" stroke="#f2f2f2" stroke-width="0.714" points="73.6497,463.431 73.6497,19.5392"/>
<polyline fill="none" stroke="#f2f2f2" stroke-width="0.714" points="128.762,463.431 128.762,19.5392"/>
<polyline fill="none" stroke="#f2f2f2" stroke-width="0.714" points="182.872,463.431 182.872,19.5392"/>
<polyline fill="none" stroke="#f2f2f2" stroke-width="0.714" points="237.984,463.431 237.984,19.5392"/>
<polyline fill="none" stroke="#f2f2f2" stroke-width="0.714" points="293.096,463.431 293.096,19.5392"/>
<polyline fill="none" stroke="#f2f2f2" stroke-width="0.714" points="347.206,463.431 347.206,19.5392"/>
<polyline fill="none" stroke="#f2f2f2" stroke-width="0.714" points="402.318,463.431 402.318,19.5392"/>
<polyline fill="none" stroke="#f2f2f2" stroke-width="0.714" points="457.43,463.431 457.43,19.5392"/>
<polyline fill="none" stroke="#f2f2f2" stroke-width="0.714" points="70.6436,402.308 472.46,402.308"/>
<polyline fill="none" stroke="#f2f2f2" stroke-width="0.714" points="70.6436,332.167 472.46,332.167"/>
<polyline fill="none" stroke="#f2f2f2" stroke-width="0.714" points="70.6436,263.028 472.46,263.028"/>
<polyline fill="none" stroke="#f2f2f2" stroke-width="0.714" points="70.6436,192.887 472.46,192.887"/>
<polyline fill="none" stroke="#f2f2f2" stroke-width="0.714" points="70.6436,123.748 472.46,123.748"/>
<polyline fill="none" stroke="#f2f2f2" stroke-width="0.714" points="70.6436,53.6076 472.46,53.6076"/>
<polyline fill="none" stroke="#e2191c" stroke-width="1.428" points="74.0143,460.307 77.8523,458.152 81.6902,455.997 85.5282,453.58 89.3662,449.589 93.2042,445.598 97.0421,441.746 100.88,438.24 104.718,434.735 108.556,431.351 112.394,428.13 116.232,424.91 120.07,421.816 123.908,418.817 127.746,415.818 131.584,412.964 135.422,410.168 139.26,407.372 143.098,404.745 146.936,402.147 150.774,399.549 154.612,397.153 158.45,394.756 162.288,392.389 166.126,390.201 169.964,388.012 173.802,385.886 177.64,383.913 181.478,381.941 185.316,380.064 189.154,378.316 192.991,376.568 196.829,374.952 200.667,373.436 204.505,371.92 208.343,370.576 212.181,369.301 216.019,368.026 219.857,366.964 223.695,365.937 227.533,364.91 231.371,364.137 235.209,363.364 239.047,362.628 242.885,362.114 246.723,361.6 250.561,361.161 254.399,360.907 258.237,360.654 262.075,360.514 265.913,360.523 269.751,360.531 273.589,360.69 277.427,360.961 281.265,361.231 285.103,361.688 288.941,362.219 292.779,362.749 296.617,363.5 300.455,364.288 304.293,365.076 308.131,366.116 311.969,367.156 315.807,368.231 319.645,369.516 323.483,370.802 327.321,372.155 331.158,373.678 334.996,375.202 338.834,376.823 342.672,378.575 346.51,380.328 350.348,382.206 354.186,384.179 358.024,386.152 361.862,388.277 365.7,390.463 369.538,392.649 373.376,395.01 377.214,397.401 381.052,399.792 384.89,402.382 388.728,404.972 392.566,407.59 396.404,410.376 400.242,413.163 404.08,416.007 407.918,418.995 411.756,421.982 415.594,425.065 419.432,428.274 423.27,431.483 427.108,434.855 430.946,438.348 434.784,441.842 438.622,445.682 442.46,449.66 446.298,453.639 450.136,456.048 453.974,458.197 457.812,460.345"/>
<polyline fill="none" stroke="#5400ff" stroke-width="1.428" stroke-dasharray="8,8" points="74.0143,460.3 77.8523,458.142 81.6902,455.985 85.5282,453.565 89.3662,449.566 93.2042,445.568 97.0421,441.707 100.88,438.189 104.718,434.672 108.556,431.275 112.394,428.041 116.232,424.806 120.07,421.698 123.908,418.685 127.746,415.671 131.584,412.802 135.422,409.991 139.26,407.179 143.098,404.538 146.936,401.924 150.774,399.311 154.612,396.899 158.45,394.487 162.288,392.105 166.126,389.902 169.964,387.698 173.802,385.557 177.64,383.57 181.478,381.584 185.316,379.695 189.154,377.935 192.991,376.174 196.829,374.548 200.667,373.023 204.505,371.498 208.343,370.145 212.181,368.862 216.019,367.579 219.857,366.51 223.695,365.476 227.533,364.442 231.371,363.663 235.209,362.885 239.047,362.143 242.885,361.626 246.723,361.108 250.561,360.666 254.399,360.413 258.237,360.16 262.075,360.022 265.913,360.037 269.751,360.051 273.589,360.219 277.427,360.5 281.265,360.782 285.103,361.252 288.941,361.798 292.779,362.343 296.617,363.111 300.455,363.915 304.293,364.72 308.131,365.777 311.969,366.834 315.807,367.926 319.645,369.229 323.483,370.532 327.321,371.903 331.158,373.444 334.996,374.986 338.834,376.626 342.672,378.397 346.51,380.169 350.348,382.067 354.186,384.061 358.024,386.054 361.862,388.199 365.7,390.404 369.538,392.61 373.376,394.99 377.214,397.398 381.052,399.807 384.89,402.413 388.728,405.018 392.566,407.651 396.404,410.449 400.242,413.247 404.08,416.102 407.918,419.097 411.756,422.093 415.594,425.181 419.432,428.393 423.27,431.605 427.108,434.976 430.946,438.466 434.784,441.956 438.622,445.786 442.46,449.751 446.298,453.716 450.136,456.116 453.974,458.255 457.812,460.393"/>
<polyline fill="none" stroke="#ff007e" stroke-width="1.428" points="74.0143,449.48 77.8523,445.167 81.6902,440.854 85.5282,436.017 89.3662,428.036 93.2042,420.054 97.0421,412.353 100.88,405.353 104.718,398.354 108.556,391.603 112.394,385.182 116.232,378.762 120.07,372.599 123.908,366.628 127.746,360.658 131.584,354.988 135.422,349.439 139.26,343.889 143.098,338.709 146.936,333.59 150.774,328.472 154.612,323.775 158.45,319.078 162.288,314.44 166.126,310.155 169.964,305.869 173.802,301.705 177.64,297.844 181.478,293.984 185.316,290.312 189.154,286.892 192.991,283.472 196.829,280.314 200.667,277.351 204.505,274.388 208.343,271.761 212.181,269.27 216.019,266.778 219.857,264.701 223.695,262.693 227.533,260.685 231.371,259.169 235.209,257.654 239.047,256.21 242.885,255.194 246.723,254.177 250.561,253.304 254.399,252.79 258.237,252.276 262.075,251.978 265.913,251.968 269.751,251.958 273.589,252.237 277.427,252.731 281.265,253.225 285.103,254.079 288.941,255.076 292.779,256.073 296.617,257.497 300.455,258.994 304.293,260.49 308.131,262.479 311.969,264.468 315.807,266.527 319.645,269.001 323.483,271.474 327.321,274.083 331.158,277.029 334.996,279.975 338.834,283.117 342.672,286.521 346.51,289.925 350.348,293.581 354.186,297.427 358.024,301.274 361.862,305.445 365.7,309.746 369.538,314.048 373.376,318.737 377.214,323.49 381.052,328.244 384.89,333.409 388.728,338.575 392.566,343.797 396.404,349.359 400.242,354.922 404.08,360.601 407.918,366.572 411.756,372.542 415.594,378.707 419.432,385.129 423.27,391.551 427.108,398.305 430.946,405.309 434.784,412.312 438.622,420.019 442.46,428.008 446.298,435.997 450.136,440.839 453.974,445.156 457.812,449.474"/>
<polyline fill="none" stroke="#00aa7e" stroke-width="1.428" stroke-dasharray="8,8" points="74.0143,449.46 77.8523,445.141 81.6902,440.823 85.5282,435.979 89.3662,427.977 93.2042,419.974 97.0421,412.248 100.88,405.213 104.718,398.177 108.556,391.387 112.394,384.923 116.232,378.459 120.07,372.249 123.908,366.23 127.746,360.211 131.584,354.48 135.422,348.864 139.26,343.247 143.098,337.968 146.936,332.744 150.774,327.521 154.612,322.696 158.45,317.872 162.288,313.107 166.126,308.697 169.964,304.286 173.802,300 177.64,296.022 181.478,292.044 185.316,288.259 189.154,284.733 192.991,281.206 196.829,277.949 200.667,274.892 204.505,271.836 208.343,269.127 212.181,266.557 216.019,263.987 219.857,261.847 223.695,259.778 227.533,257.709 231.371,256.153 235.209,254.597 239.047,253.116 242.885,252.083 246.723,251.05 250.561,250.168 254.399,249.664 258.237,249.16 262.075,248.884 265.913,248.913 269.751,248.942 273.589,249.275 277.427,249.836 281.265,250.396 285.103,251.333 288.941,252.42 292.779,253.507 296.617,255.038 300.455,256.643 304.293,258.248 308.131,260.36 311.969,262.471 315.807,264.654 319.645,267.26 323.483,269.866 327.321,272.609 331.158,275.694 334.996,278.779 338.834,282.063 342.672,285.61 346.51,289.157 350.348,292.958 354.186,296.948 358.024,300.939 361.862,305.231 365.7,309.645 369.538,314.059 373.376,318.82 377.214,323.639 381.052,328.458 384.89,333.667 388.728,338.876 392.566,344.14 396.404,349.732 400.242,355.325 404.08,361.031 407.918,367.017 411.756,373.004 415.594,379.177 419.432,385.599 423.27,392.021 427.108,398.764 430.946,405.748 434.784,412.731 438.622,420.397 442.46,428.335 446.298,436.273 450.136,441.078 453.974,445.361 457.812,449.643"/>
<polyline fill="none" stroke="#aa0000" stroke-width="1.428" points="74.0143,427.36 77.8523,418.671 81.6902,409.982 85.5282,400.247 89.3662,384.235 93.2042,368.223 97.0421,352.81 100.88,338.897 104.718,324.983 108.556,311.609 112.394,298.955 116.232,286.301 120.07,274.207 123.908,262.532 127.746,250.857 131.584,239.827 135.422,229.055 139.26,218.282 143.098,208.279 146.936,198.405 150.774,188.53 154.612,179.52 158.45,170.509 162.288,161.618 166.126,153.444 169.964,145.271 173.802,137.34 177.64,130.016 181.478,122.693 185.316,115.74 189.154,109.281 192.991,102.822 196.829,96.866 200.667,91.2863 204.505,85.7067 208.343,80.7646 212.181,76.0775 216.019,71.3904 219.857,67.4789 223.695,63.6966 227.533,59.9143 231.371,57.0465 235.209,54.1787 239.047,51.4424 242.885,49.4952 246.723,47.548 250.561,45.8647 254.399,44.8414 258.237,43.8181 262.075,43.1918 265.913,43.0949 269.751,42.9981 273.589,43.4326 277.427,44.2657 281.265,45.0988 285.103,46.599 288.941,48.3661 292.779,50.1332 296.617,52.703 300.455,55.4066 304.293,58.1101 308.131,61.7485 311.969,65.3869 315.807,69.1577 319.645,73.7231 323.483,78.2887 327.321,83.1153 331.158,88.5948 334.996,94.0744 338.834,99.9388 342.672,106.316 346.51,112.694 350.348,119.574 354.186,126.832 358.024,134.09 361.862,141.997 365.7,150.163 369.538,158.329 373.376,167.29 377.214,176.384 381.052,185.478 384.89,195.451 388.728,205.424 392.566,215.52 396.404,226.353 400.242,237.187 404.08,248.279 407.918,260.017 411.756,271.755 415.594,283.962 419.432,296.793 423.27,309.625 427.108,323.226 430.946,337.404 434.784,351.582 438.622,367.225 442.46,383.454 446.298,399.683 450.136,409.526 453.974,418.305 457.812,427.083"/>
<polyline fill="none" stroke="#005400" stroke-width="1.428" stroke-dasharray="8,8" points="74.0143,428.092 77.8523,419.526 81.6902,410.959 85.5282,401.345 89.3662,385.449 93.2042,369.552 97.0421,354.194 100.88,340.181 104.718,326.167 108.556,312.629 112.394,299.724 116.232,286.819 120.07,274.41 123.908,262.374 127.746,250.338 131.584,238.87 135.422,227.629 139.26,216.389 143.098,205.819 146.936,195.36 150.774,184.901 154.612,175.238 158.45,165.574 162.288,156.027 166.126,147.185 169.964,138.343 173.802,129.745 177.64,121.758 181.478,113.771 185.316,106.166 189.154,99.0697 192.991,91.9738 196.829,85.4083 200.667,79.2405 204.505,73.0728 208.343,67.594 212.181,62.3909 216.019,57.1879 219.857,52.8403 223.695,48.6354 227.533,44.4305 231.371,41.2509 235.209,38.0712 239.047,35.0409 242.885,32.906 246.723,30.7711 250.561,28.938 254.399,27.8596 258.237,26.7811 262.075,26.1575 265.913,26.1405 269.751,26.1234 273.589,26.713 277.427,27.7576 281.265,28.8022 285.103,30.6019 288.941,32.7036 292.779,34.8054 296.617,37.8042 300.455,40.9526 304.293,44.101 308.131,48.2777 311.969,52.4543 315.807,56.7741 319.645,61.9528 323.483,67.1314 327.321,72.5869 331.158,78.735 334.996,84.8831 338.834,91.4313 342.672,98.5131 346.51,105.595 350.348,113.189 354.186,121.168 358.024,129.147 361.862,137.741 365.7,146.581 369.538,155.421 373.376,164.97 377.214,174.638 381.052,184.306 384.89,194.774 388.728,205.242 392.566,215.823 396.404,227.078 400.242,238.334 404.08,249.819 407.918,261.876 411.756,273.933 415.594,286.365 419.432,299.297 423.27,312.228 427.108,325.797 430.946,339.843 434.784,353.889 438.622,369.286 442.46,385.223 446.298,401.16 450.136,410.799 453.974,419.388 457.812,427.977"/>
<polyline fill="none" stroke="#000000" stroke-width="0.714" points="70.6436,463.431 70.6436,19.5392"/>
<text fill="#000000" x="15.5316" y="241.986" font-size="12" transform="rotate(-90, 15.5316, 241.986)" text-anchor="middle" baseline-shift="0" font-family="Helvetica" font-weight="bold">Power [kW/m³ ]</text>
<polyline fill="none" stroke="#000000" stroke-width="0.714" points="65.6334,402.308 70.6436,402.308"/>
<text fill="#000000" x="63.6293" y="402.308" font-size="12" text-anchor="end" baseline-shift="-6" font-family="Helvetica">5e+06</text>
<polyline fill="none" stroke="#000000" stroke-width="0.714" points="65.6334,332.167 70.6436,332.167"/>
<text fill="#000000" x="63.6293" y="332.167" font-size="12" text-anchor="end" baseline-shift="-6" font-family="Helvetica">1e+07</text>
<polyline fill="none" stroke="#000000" stroke-width="0.714" points="65.6334,263.028 70.6436,263.028"/>
<text fill="#000000" x="63.6293" y="263.028" font-size="12" text-anchor="end" baseline-shift="-6" font-family="Helvetica">1.5e+07</text>
<polyline fill="none" stroke="#000000" stroke-width="0.714" points="65.6334,192.887 70.6436,192.887"/>
<text fill="#000000" x="63.6293" y="192.887" font-size="12" text-anchor="end" baseline-shift="-6" font-family="Helvetica">2e+07</text>
<polyline fill="none" stroke="#000000" stroke-width="0.714" points="65.6334,123.748 70.6436,123.748"/>
<text fill="#000000" x="63.6293" y="123.748" font-size="12" text-anchor="end" baseline-shift="-6" font-family="Helvetica">2.5e+07</text>
<polyline fill="none" stroke="#000000" stroke-width="0.714" points="65.6334,53.6076 70.6436,53.6076"/>
<text fill="#000000" x="63.6293" y="53.6076" font-size="12" text-anchor="end" baseline-shift="-6" font-family="Helvetica">3e+07</text>
<polyline fill="none" stroke="#000000" stroke-width="0.714" points="70.6436,463.431 472.46,463.431"/>
<text fill="#000000" x="271.051" y="482.469" font-size="12" text-anchor="middle" baseline-shift="-12" font-family="Helvetica" font-weight="bold">Axial position [m]</text>
<polyline fill="none" stroke="#000000" stroke-width="0.714" points="73.6497,468.441 73.6497,463.431"/>
<text fill="#000000" x="73.6497" y="470.445" font-size="12" text-anchor="middle" baseline-shift="-12" font-family="Helvetica">0</text>
<polyline fill="none" stroke="#000000" stroke-width="0.714" points="128.762,468.441 128.762,463.431"/>
<text fill="#000000" x="128.762" y="470.445" font-size="12" text-anchor="middle" baseline-shift="-12" font-family="Helvetica">0.05</text>
<polyline fill="none" stroke="#000000" stroke-width="0.714" points="182.872,468.441 182.872,463.431"/>
<text fill="#000000" x="182.872" y="470.445" font-size="12" text-anchor="middle" baseline-shift="-12" font-family="Helvetica">0.1</text>
<polyline fill="none" stroke="#000000" stroke-width="0.714" points="237.984,468.441 237.984,463.431"/>
<text fill="#000000" x="237.984" y="470.445" font-size="12" text-anchor="middle" baseline-shift="-12" font-family="Helvetica">0.15</text>
<polyline fill="none" stroke="#000000" stroke-width="0.714" points="293.096,468.441 293.096,463.431"/>
<text fill="#000000" x="293.096" y="470.445" font-size="12" text-anchor="middle" baseline-shift="-12" font-family="Helvetica">0.2</text>
<polyline fill="none" stroke="#000000" stroke-width="0.714" points="347.206,468.441 347.206,463.431"/>
<text fill="#000000" x="347.206" y="470.445" font-size="12" text-anchor="middle" baseline-shift="-12" font-family="Helvetica">0.25</text>
<polyline fill="none" stroke="#000000" stroke-width="0.714" points="402.318,468.441 402.318,463.431"/>
<text fill="#000000" x="402.318" y="470.445" font-size="12" text-anchor="middle" baseline-shift="-12" font-family="Helvetica">0.3</text>
<polyline fill="none" stroke="#000000" stroke-width="0.714" points="457.43,468.441 457.43,463.431"/>
<text fill="#000000" x="457.43" y="470.445" font-size="12" text-anchor="middle" baseline-shift="-12" font-family="Helvetica">0.35</text>
<polygon fill="#ffffff" points="371.255,126.755 472.46,126.755 371.255,19.5392"/>
<polygon fill="#ffffff" points="472.46,126.755 472.46,19.5392 371.255,19.5392"/>
<polyline fill="none" stroke="#000000" stroke-width="0.714" points="371.255,126.755 472.46,126.755 472.46,19.5392 371.255,19.5392 371.255,126.755"/>
<text fill="#000000" x="401.316" y="36.5735" font-size="12" text-anchor="start" baseline-shift="0" font-family="Helvetica">1.98 kW</text>
<polyline fill="none" stroke="#e2191c" stroke-width="1.428" points="376.265,30.5614 398.31,30.5614"/>
<text fill="#000000" x="401.316" y="53.6076" font-size="12" text-anchor="start" baseline-shift="0" font-family="Helvetica">1.98 kW NC</text>
<polyline fill="none" stroke="#5400ff" stroke-width="1.428" stroke-dasharray="8,8" points="376.265,47.5956 398.31,47.5956"/>
<text fill="#000000" x="401.316" y="70.6418" font-size="12" text-anchor="start" baseline-shift="0" font-family="Helvetica">3.97 kW</text>
<polyline fill="none" stroke="#ff007e" stroke-width="1.428" points="376.265,64.6298 398.31,64.6298"/>
<text fill="#000000" x="401.316" y="87.6761" font-size="12" text-anchor="start" baseline-shift="0" font-family="Helvetica">3.97 kW NC</text>
<polyline fill="none" stroke="#00aa7e" stroke-width="1.428" stroke-dasharray="8,8" points="376.265,81.664 398.31,81.664"/>
<text fill="#000000" x="401.316" y="104.71" font-size="12" text-anchor="start" baseline-shift="0" font-family="Helvetica">7.93 kW</text>
<polyline fill="none" stroke="#aa0000" stroke-width="1.428" points="376.265,98.6982 398.31,98.6982"/>
<text fill="#000000" x="401.316" y="121.744" font-size="12" text-anchor="start" baseline-shift="0" font-family="Helvetica">7.93 kW NC</text>
<polyline fill="none" stroke="#005400" stroke-width="1.428" stroke-dasharray="8,8" points="376.265,115.732 398.31,115.732"/>
</g>
</svg>
