<?xml version="1.0" encoding="UTF-8" standalone="no"?>
<svg xmlns="http://www.w3.org/2000/svg"
     xmlns:xlink="http://www.w3.org/1999/xlink"
     width="497px" height="498px" viewBox="0 0 497 498">
<title>ParaView GL2PS Export</title>
<desc>
Creator: GL2PS 1.3.8, (C) 1999-2012 C. Geuzaine
For: VTK
CreationDate: Sun Oct 30 09:20:54 2016
</desc>
<defs>
</defs>
<g shape-rendering="crispEdges">
<polyline fill="none" stroke="#f2f2f2" stroke-width="0.714" points="47.5957,463.431 47.5957,19.5392"/>
<polyline fill="none" stroke="#f2f2f2" stroke-width="0.714" points="139.781,463.431 139.781,19.5392"/>
<polyline fill="none" stroke="#f2f2f2" stroke-width="0.714" points="231.967,463.431 231.967,19.5392"/>
<polyline fill="none" stroke="#f2f2f2" stroke-width="0.714" points="324.152,463.431 324.152,19.5392"/>
<polyline fill="none" stroke="#f2f2f2" stroke-width="0.714" points="416.338,463.431 416.338,19.5392"/>
<polyline fill="none" stroke="#f2f2f2" stroke-width="0.714" points="46.5937,399.302 477.461,399.302"/>
<polyline fill="none" stroke="#f2f2f2" stroke-width="0.714" points="46.5937,324.151 477.461,324.151"/>
<polyline fill="none" stroke="#f2f2f2" stroke-width="0.714" points="46.5937,249 477.461,249"/>
<polyline fill="none" stroke="#f2f2f2" stroke-width="0.714" points="46.5937,173.849 477.461,173.849"/>
<polyline fill="none" stroke="#f2f2f2" stroke-width="0.714" points="46.5937,99.7002 477.461,99.7002"/>
<polyline fill="none" stroke="#f2f2f2" stroke-width="0.714" points="46.5937,24.5493 477.461,24.5493"/>
<polyline fill="none" stroke="#aa0000" stroke-width="1.428" points="48.3086,460.156 52.5435,458.731 56.7783,456.53 61.0132,452.995 65.248,447.743 69.4828,440.869 73.7177,431.583 77.9525,418.262 82.1874,393.98 86.4222,345.916 90.657,250.743 94.8919,249.814 99.1267,242.077 103.362,231.538 107.596,219.073 111.831,207.241 116.066,196.978 120.301,186.231 124.536,175.684 128.771,166.361 133.005,157.909 137.24,148.13 141.475,139.2 145.71,130.954 149.945,124.986 154.18,119.054 158.414,113.195 162.649,107.324 166.884,101.439 171.119,95.7441 175.354,90.3297 179.589,84.9622 183.824,79.8797 188.058,74.7973 192.293,70.0053 196.528,65.3661 200.763,60.7269 204.998,56.6506 209.233,52.6213 213.467,48.5922 217.702,45.5282 221.937,42.5494 226.172,39.5707 230.407,37.3771 234.642,35.6704 238.876,33.9635 243.111,32.2568 247.346,31.6773 251.581,31.1111 255.816,30.5447 260.051,29.9785 264.286,30.3969 268.52,30.8153 272.755,31.2338 276.99,31.6642 281.225,33.127 285.46,34.59 289.695,36.0529 293.929,38.0118 298.164,40.7711 302.399,43.5303 306.634,46.3528 310.869,49.8918 315.104,53.4308 319.338,57.0069 323.573,61.0266 327.808,65.0464 332.043,69.6268 336.278,75.2739 340.513,80.9211 344.747,87.1861 348.982,93.5533 353.217,99.6786 357.452,105.64 361.687,111.811 365.922,118.163 370.157,124.792 374.391,131.56 378.626,139.774 382.861,148.605 387.096,158.234 391.331,167.328 395.566,176.471 399.8,186.01 404.035,195.778 408.27,205.622 412.505,217.387 416.74,230.678 420.975,241.521 425.209,249.889 429.444,250.834 433.679,345.972 437.914,394.015 442.149,418.286 446.384,431.6 450.619,440.882 454.853,447.753 459.088,453.002 463.323,456.536 467.558,458.736 471.793,460.16"/>
<polyline fill="none" stroke="#005400" stroke-width="1.428" stroke-dasharray="8,8" points="48.3086,460.277 52.5435,458.856 56.7783,456.66 61.0132,453.13 65.248,447.88 69.4828,440.998 73.7177,431.687 77.9525,418.31 82.1874,393.873 86.4222,345.428 90.657,249.406 94.8919,248.469 99.1267,240.657 103.362,230.007 107.596,217.391 111.831,205.398 116.066,194.98 120.301,184.055 124.536,173.321 128.771,163.818 133.005,155.191 137.24,145.194 141.475,136.054 145.71,127.608 149.945,121.482 154.18,115.39 158.414,109.364 162.649,103.321 166.884,97.2585 171.119,91.3861 175.354,85.7945 179.589,80.25 183.824,74.9901 188.058,69.7302 192.293,64.7641 196.528,59.9525 200.763,55.1407 204.998,50.9041 209.233,46.7156 213.467,42.5272 217.702,39.3362 221.937,36.2333 226.172,33.1303 230.407,30.8434 234.642,29.0622 238.876,27.281 243.111,25.4998 247.346,24.894 251.581,24.3019 255.816,23.7096 260.051,23.1175 264.286,23.5529 268.52,23.9883 272.755,24.4239 276.99,24.8718 281.225,26.396 285.46,27.9203 289.695,29.4446 293.929,31.4846 298.164,34.3565 302.399,37.2286 306.634,40.166 310.869,43.8437 315.104,47.5216 319.338,51.2374 323.573,55.4063 327.808,59.5753 332.043,64.3216 336.278,70.1666 340.513,76.0114 344.747,82.4837 348.982,89.0598 353.217,95.3774 357.452,101.52 361.687,107.872 365.922,114.404 370.157,121.212 374.391,128.159 378.626,136.575 382.861,145.614 387.096,155.461 391.331,164.744 395.566,174.066 399.8,183.777 404.035,193.708 408.27,203.705 412.505,215.634 416.74,229.09 420.975,240.052 425.209,248.501 429.444,249.455 433.679,345.461 437.914,393.894 442.149,418.324 446.384,431.698 450.619,441.005 454.853,447.886 459.088,453.135 463.323,456.663 467.558,458.859 471.793,460.28"/>
<polyline fill="none" stroke="#000000" stroke-width="0.714" points="46.5937,463.431 46.5937,19.5392"/>
<text fill="#000000" x="15.5312" y="241.986" font-size="12" transform="rotate(-90, 15.5312, 241.986)" text-anchor="middle" baseline-shift="0" font-family="Helvetica" font-weight="bold">Temperature [K]</text>
<polyline fill="none" stroke="#000000" stroke-width="0.714" points="41.5836,399.302 46.5937,399.302"/>
<text fill="#000000" x="39.5796" y="399.302" font-size="12" text-anchor="end" baseline-shift="-6" font-family="Helvetica">350</text>
<polyline fill="none" stroke="#000000" stroke-width="0.714" points="41.5836,324.151 46.5937,324.151"/>
<text fill="#000000" x="39.5796" y="324.151" font-size="12" text-anchor="end" baseline-shift="-6" font-family="Helvetica">400</text>
<polyline fill="none" stroke="#000000" stroke-width="0.714" points="41.5836,249 46.5937,249"/>
<text fill="#000000" x="39.5796" y="249" font-size="12" text-anchor="end" baseline-shift="-6" font-family="Helvetica">450</text>
<polyline fill="none" stroke="#000000" stroke-width="0.714" points="41.5836,173.849 46.5937,173.849"/>
<text fill="#000000" x="39.5796" y="173.849" font-size="12" text-anchor="end" baseline-shift="-6" font-family="Helvetica">500</text>
<polyline fill="none" stroke="#000000" stroke-width="0.714" points="41.5836,99.7002 46.5937,99.7002"/>
<text fill="#000000" x="39.5796" y="99.7002" font-size="12" text-anchor="end" baseline-shift="-6" font-family="Helvetica">550</text>
<polyline fill="none" stroke="#000000" stroke-width="0.714" points="41.5836,24.5493 46.5937,24.5493"/>
<text fill="#000000" x="39.5796" y="24.5493" font-size="12" text-anchor="end" baseline-shift="-6" font-family="Helvetica">600</text>
<polyline fill="none" stroke="#000000" stroke-width="0.714" points="46.5937,463.431 477.461,463.431"/>
<text fill="#000000" x="262.027" y="482.469" font-size="12" text-anchor="middle" baseline-shift="-12" font-family="Helvetica" font-weight="bold">Radial position [m]</text>
<polyline fill="none" stroke="#000000" stroke-width="0.714" points="47.5957,468.441 47.5957,463.431"/>
<text fill="#000000" x="47.5957" y="470.445" font-size="12" text-anchor="middle" baseline-shift="-12" font-family="Helvetica">0</text>
<polyline fill="none" stroke="#000000" stroke-width="0.714" points="139.781,468.441 139.781,463.431"/>
<text fill="#000000" x="139.781" y="470.445" font-size="12" text-anchor="middle" baseline-shift="-12" font-family="Helvetica">0.01</text>
<polyline fill="none" stroke="#000000" stroke-width="0.714" points="231.967,468.441 231.967,463.431"/>
<text fill="#000000" x="231.967" y="470.445" font-size="12" text-anchor="middle" baseline-shift="-12" font-family="Helvetica">0.02</text>
<polyline fill="none" stroke="#000000" stroke-width="0.714" points="324.152,468.441 324.152,463.431"/>
<text fill="#000000" x="324.152" y="470.445" font-size="12" text-anchor="middle" baseline-shift="-12" font-family="Helvetica">0.03</text>
<polyline fill="none" stroke="#000000" stroke-width="0.714" points="416.338,468.441 416.338,463.431"/>
<text fill="#000000" x="416.338" y="470.445" font-size="12" text-anchor="middle" baseline-shift="-12" font-family="Helvetica">0.04</text>
<polygon fill="#ffffff" points="376.257,58.6177 477.461,58.6177 376.257,19.5392"/>
<polygon fill="#ffffff" points="477.461,58.6177 477.461,19.5392 376.257,19.5392"/>
<polyline fill="none" stroke="#000000" stroke-width="0.714" points="376.257,58.6177 477.461,58.6177 477.461,19.5392 376.257,19.5392 376.257,58.6177"/>
<text fill="#000000" x="406.318" y="36.5735" font-size="12" text-anchor="start" baseline-shift="0" font-family="Helvetica">7.93 kW</text>
<polyline fill="none" stroke="#aa0000" stroke-width="1.428" points="381.267,30.5614 403.311,30.5614"/>
<text fill="#000000" x="406.318" y="53.6076" font-size="12" text-anchor="start" baseline-shift="0" font-family="Helvetica">7.93 kW NC</text>
<polyline fill="none" stroke="#005400" stroke-width="1.428" stroke-dasharray="8,8" points="381.267,47.5956 403.311,47.5956"/>
</g>
</svg>
