<?xml version="1.0" encoding="UTF-8" standalone="no"?>
<svg xmlns="http://www.w3.org/2000/svg"
     xmlns:xlink="http://www.w3.org/1999/xlink"
     width="497px" height="498px" viewBox="0 0 497 498">
<title>ParaView GL2PS Export</title>
<desc>
Creator: GL2PS 1.3.8, (C) 1999-2012 C. Geuzaine
For: VTK
CreationDate: Sun Oct 30 09:17:11 2016
</desc>
<defs>
</defs>
<g shape-rendering="crispEdges">
<polyline fill="none" stroke="#f2f2f2" stroke-width="0.714" points="48.5978,463.431 48.5978,19.5392"/>
<polyline fill="none" stroke="#f2f2f2" stroke-width="0.714" points="135.773,463.431 135.773,19.5392"/>
<polyline fill="none" stroke="#f2f2f2" stroke-width="0.714" points="222.949,463.431 222.949,19.5392"/>
<polyline fill="none" stroke="#f2f2f2" stroke-width="0.714" points="310.124,463.431 310.124,19.5392"/>
<polyline fill="none" stroke="#f2f2f2" stroke-width="0.714" points="397.299,463.431 397.299,19.5392"/>
<polyline fill="none" stroke="#f2f2f2" stroke-width="0.714" points="46.5937,393.29 477.461,393.29"/>
<polyline fill="none" stroke="#f2f2f2" stroke-width="0.714" points="46.5937,321.145 477.461,321.145"/>
<polyline fill="none" stroke="#f2f2f2" stroke-width="0.714" points="46.5937,250.002 477.461,250.002"/>
<polyline fill="none" stroke="#f2f2f2" stroke-width="0.714" points="46.5937,177.857 477.461,177.857"/>
<polyline fill="none" stroke="#f2f2f2" stroke-width="0.714" points="46.5937,106.714 477.461,106.714"/>
<polyline fill="none" stroke="#f2f2f2" stroke-width="0.714" points="46.5937,35.5714 477.461,35.5714"/>
<polyline fill="none" stroke="#ff0000" stroke-width="1.428" points="48.6033,460.82 52.6233,460.483 56.6432,459.962 60.6632,459.126 64.6832,457.882 68.7031,456.252 72.7231,454.047 76.7431,450.882 80.763,445.101 84.783,433.644 88.803,410.943 92.8229,410.726 96.8429,408.887 100.863,406.381 104.883,403.417 108.903,400.605 112.923,398.168 116.943,395.617 120.963,393.117 124.983,390.908 129.003,388.908 133.023,386.598 137.043,384.491 141.063,382.548 145.083,381.145 149.102,379.752 153.122,378.377 157.142,377.002 161.162,375.625 165.182,374.295 169.202,373.034 173.222,371.784 177.242,370.604 181.262,369.425 185.282,368.317 189.302,367.245 193.322,366.174 197.342,365.236 201.362,364.31 205.382,363.384 209.402,362.683 213.422,362.002 217.442,361.32 221.462,360.82 225.482,360.431 229.502,360.042 233.522,359.653 237.542,359.522 241.562,359.393 245.582,359.264 249.602,359.135 253.622,359.23 257.642,359.325 261.662,359.42 265.681,359.517 269.701,359.85 273.721,360.182 277.741,360.514 281.761,360.961 285.781,361.591 289.801,362.221 293.821,362.865 297.841,363.677 301.861,364.488 305.881,365.309 309.901,366.235 313.921,367.161 317.941,368.219 321.961,369.526 325.981,370.834 330.001,372.291 334.021,373.772 338.041,375.201 342.061,376.595 346.081,378.04 350.101,379.529 354.121,381.086 358.141,382.677 362.161,384.613 366.181,386.697 370.201,388.972 374.221,391.125 378.241,393.291 382.261,395.554 386.28,397.872 390.3,400.21 394.32,403.006 398.34,406.167 402.36,408.746 406.38,410.734 410.4,410.956 414.42,433.653 418.44,445.106 422.46,450.885 426.48,454.05 430.5,456.254 434.52,457.884 438.54,459.127 442.56,459.964 446.58,460.484 450.6,460.821"/>
<polyline fill="none" stroke="#0000ff" stroke-width="1.428" stroke-dasharray="8,8" points="48.6033,460.833 52.6233,460.497 56.6432,459.978 60.6632,459.143 64.6832,457.901 68.7031,456.273 72.7231,454.071 76.7431,450.906 80.763,445.123 84.783,433.654 88.803,410.92 92.8229,410.703 96.8429,408.861 100.863,406.35 104.883,403.381 108.903,400.563 112.923,398.119 116.943,395.563 120.963,393.056 124.983,390.842 129.003,388.836 133.023,386.519 137.043,384.405 141.063,382.456 145.083,381.049 149.102,379.651 153.122,378.271 157.142,376.891 161.162,375.51 165.182,374.175 169.202,372.908 173.222,371.653 177.242,370.469 181.262,369.285 185.282,368.172 189.302,367.096 193.322,366.02 197.342,365.079 201.362,364.149 205.382,363.219 209.402,362.515 213.422,361.83 217.442,361.146 221.462,360.643 225.482,360.253 229.502,359.862 233.522,359.471 237.542,359.339 241.562,359.21 245.582,359.08 249.602,358.951 253.622,359.046 257.642,359.141 261.662,359.236 265.681,359.334 269.701,359.668 273.721,360.002 277.741,360.336 281.761,360.784 285.781,361.417 289.801,362.05 293.821,362.697 297.841,363.512 301.861,364.327 305.881,365.151 309.901,366.081 313.921,367.011 317.941,368.073 321.961,369.386 325.981,370.699 330.001,372.161 334.021,373.649 338.041,375.083 342.061,376.481 346.081,377.931 350.101,379.426 354.121,380.988 358.141,382.584 362.161,384.527 366.181,386.617 370.201,388.899 374.221,391.057 378.241,393.23 382.261,395.498 386.28,397.822 390.3,400.166 394.32,402.968 398.34,406.134 402.36,408.718 406.38,410.71 410.4,410.932 414.42,433.662 418.44,445.128 422.46,450.909 426.48,454.073 430.5,456.275 434.52,457.902 438.54,459.144 442.56,459.978 446.58,460.498 450.6,460.834"/>
<polyline fill="none" stroke="#ff007e" stroke-width="1.428" points="48.6033,457.704 52.6233,457.028 56.6432,455.983 60.6632,454.305 64.6832,451.809 68.7031,448.539 72.7231,444.12 76.7431,437.774 80.763,426.194 84.783,403.253 88.803,357.805 92.8229,357.366 96.8429,353.684 100.863,348.667 104.883,342.736 108.903,337.109 112.923,332.232 116.943,327.13 120.963,322.13 124.983,317.714 129.003,313.716 133.023,309.099 137.043,304.889 141.063,301.007 145.083,298.205 149.102,295.422 153.122,292.677 157.142,289.931 161.162,287.182 165.182,284.527 169.202,282.008 173.222,279.513 177.242,277.158 181.262,274.804 185.282,272.592 189.302,270.453 193.322,268.314 197.342,266.444 201.362,264.596 205.382,262.748 209.402,261.349 213.422,259.989 217.442,258.63 221.462,257.631 225.482,256.855 229.502,256.079 233.522,255.303 237.542,255.04 241.562,254.783 245.582,254.526 249.602,254.269 253.622,254.458 257.642,254.648 261.662,254.837 265.681,255.032 269.701,255.696 273.721,256.36 277.741,257.024 281.761,257.915 285.781,259.172 289.801,260.43 293.821,261.716 297.841,263.336 301.861,264.956 305.881,266.593 309.901,268.442 313.921,270.291 317.941,272.403 321.961,275.014 325.981,277.625 330.001,280.533 334.021,283.49 338.041,286.344 342.061,289.126 346.081,292.011 350.101,294.985 354.121,298.095 358.141,301.274 362.161,305.142 366.181,309.306 370.201,313.852 374.221,318.155 378.241,322.486 382.261,327.01 386.28,331.647 390.3,336.325 394.32,341.919 398.34,348.244 402.36,353.407 406.38,357.389 410.4,357.835 414.42,403.273 418.44,426.207 422.46,437.783 426.48,444.126 430.5,448.544 434.52,451.812 438.54,454.307 442.56,455.985 446.58,457.03 450.6,457.706"/>
<polyline fill="none" stroke="#00aa7e" stroke-width="1.428" stroke-dasharray="8,8" points="48.6033,457.748 52.6233,457.074 56.6432,456.033 60.6632,454.361 64.6832,451.872 68.7031,448.609 72.7231,444.194 76.7431,437.85 80.763,426.256 84.783,403.266 88.803,357.688 92.8229,357.249 96.8429,353.554 100.863,348.52 104.883,342.564 108.903,336.911 112.923,332.01 116.943,326.879 120.963,321.849 124.983,317.405 129.003,313.378 133.023,308.727 137.043,304.483 141.063,300.568 145.083,297.74 149.102,294.931 153.122,292.159 157.142,289.386 161.162,286.609 165.182,283.925 169.202,281.378 173.222,278.855 177.242,276.473 181.262,274.091 185.282,271.85 189.302,269.685 193.322,267.519 197.342,265.624 201.362,263.752 205.382,261.879 209.402,260.461 213.422,259.083 217.442,257.704 221.462,256.691 225.482,255.904 229.502,255.117 233.522,254.33 237.542,254.063 241.562,253.802 245.582,253.541 249.602,253.281 253.622,253.472 257.642,253.664 261.662,253.856 265.681,254.053 269.701,254.726 273.721,255.399 277.741,256.072 281.761,256.976 285.781,258.25 289.801,259.525 293.821,260.829 297.841,262.47 301.861,264.11 305.881,265.769 309.901,267.641 313.921,269.513 317.941,271.65 321.961,274.292 325.981,276.934 330.001,279.875 334.021,282.866 338.041,285.749 342.061,288.561 346.081,291.475 350.101,294.478 354.121,297.617 358.141,300.824 362.161,304.725 366.181,308.922 370.201,313.504 374.221,317.837 378.241,322.198 382.261,326.749 386.28,331.412 390.3,336.114 394.32,341.735 398.34,348.086 402.36,353.268 406.38,357.264 410.4,357.711 414.42,403.281 418.44,426.266 422.46,437.856 426.48,444.199 430.5,448.612 434.52,451.874 438.54,454.363 442.56,456.035 446.58,457.076 450.6,457.749"/>
<polyline fill="none" stroke="#aa0000" stroke-width="1.428" points="48.6033,451.385 52.6233,450.025 56.6432,447.923 60.6632,444.547 64.6832,439.533 68.7031,432.968 72.7231,424.102 76.7431,411.382 80.763,388.195 84.783,342.3 88.803,251.422 92.8229,250.535 96.8429,243.147 100.863,233.083 104.883,221.181 108.903,209.883 112.923,200.083 116.943,189.821 120.963,179.75 124.983,170.847 129.003,162.776 133.023,153.44 137.043,144.912 141.063,137.039 145.083,131.34 149.102,125.676 153.122,120.08 157.142,114.474 161.162,108.855 165.182,103.417 169.202,98.2471 173.222,93.1219 177.242,88.2687 181.262,83.4156 185.282,78.8399 189.302,74.41 193.322,69.9802 197.342,66.0878 201.362,62.2403 205.382,58.393 209.402,55.4673 213.422,52.6229 217.442,49.7786 221.462,47.6841 225.482,46.0543 229.502,44.4245 233.522,42.7947 237.542,42.2415 241.562,41.7007 245.582,41.16 249.602,40.6193 253.622,41.0188 257.642,41.4183 261.662,41.8179 265.681,42.2289 269.701,43.6257 273.721,45.0226 277.741,46.4196 281.761,48.2901 285.781,50.9249 289.801,53.5596 293.821,56.2547 297.841,59.634 301.861,63.0133 305.881,66.428 309.901,70.2664 313.921,74.1048 317.941,78.4785 321.961,83.8708 325.981,89.2632 330.001,95.2455 334.021,101.325 338.041,107.174 342.061,112.867 346.081,118.759 350.101,124.824 354.121,131.154 358.141,137.617 362.161,145.46 366.181,153.893 370.201,163.087 374.221,171.77 378.241,180.502 382.261,189.61 386.28,198.937 390.3,208.337 394.32,219.571 398.34,232.262 402.36,242.616 406.38,250.606 410.4,251.509 414.42,342.354 418.44,388.229 422.46,411.404 426.48,424.118 430.5,432.981 434.52,439.542 438.54,444.554 442.56,447.929 446.58,450.029 450.6,451.389"/>
<polyline fill="none" stroke="#005400" stroke-width="1.428" stroke-dasharray="8,8" points="48.6033,451.501 52.6233,450.144 56.6432,448.047 60.6632,444.677 64.6832,439.663 68.7031,433.092 72.7231,424.201 76.7431,411.427 80.763,388.093 84.783,341.834 88.803,250.145 92.8229,249.251 96.8429,241.791 100.863,231.622 104.883,219.575 108.903,208.123 112.923,198.175 116.943,187.743 120.963,177.493 124.983,168.419 129.003,160.182 133.023,150.636 137.043,141.908 141.063,133.844 145.083,127.994 149.102,122.177 153.122,116.423 157.142,110.653 161.162,104.863 165.182,99.2559 169.202,93.9166 173.222,88.6223 177.242,83.5997 181.262,78.5772 185.282,73.8352 189.302,69.2407 193.322,64.6461 197.342,60.6006 201.362,56.6012 205.382,52.6017 209.402,49.5547 213.422,46.5919 217.442,43.6289 221.462,41.4451 225.482,39.7443 229.502,38.0435 233.522,36.3427 237.542,35.7642 241.562,35.1988 245.582,34.6333 249.602,34.0678 253.622,34.4836 257.642,34.8994 261.662,35.3152 265.681,35.743 269.701,37.1984 273.721,38.6539 277.741,40.1094 281.761,42.0574 285.781,44.7998 289.801,47.5422 293.821,50.347 297.841,53.8588 301.861,57.3707 305.881,60.9188 309.901,64.8997 313.921,68.8805 317.941,73.4126 321.961,78.9938 325.981,84.575 330.001,90.7552 334.021,97.0346 338.041,103.067 342.061,108.932 346.081,114.997 350.101,121.235 354.121,127.736 358.141,134.37 362.161,142.405 366.181,151.037 370.201,160.439 374.221,169.303 378.241,178.205 382.261,187.478 386.28,196.961 390.3,206.506 394.32,217.897 398.34,230.746 402.36,241.213 406.38,249.281 410.4,250.192 414.42,341.866 418.44,388.113 422.46,411.441 426.48,424.211 430.5,433.099 434.52,439.669 438.54,444.681 442.56,448.05 446.58,450.147 450.6,451.504"/>
<polyline fill="none" stroke="#000000" stroke-width="0.714" points="46.5937,463.431 46.5937,19.5392"/>
<text fill="#000000" x="15.5312" y="241.986" font-size="12" transform="rotate(-90, 15.5312, 241.986)" text-anchor="middle" baseline-shift="0" font-family="Helvetica" font-weight="bold">Temperature [K]</text>
<polyline fill="none" stroke="#000000" stroke-width="0.714" points="41.5836,393.29 46.5937,393.29"/>
<text fill="#000000" x="39.5796" y="393.29" font-size="12" text-anchor="end" baseline-shift="-6" font-family="Helvetica">350</text>
<polyline fill="none" stroke="#000000" stroke-width="0.714" points="41.5836,321.145 46.5937,321.145"/>
<text fill="#000000" x="39.5796" y="321.145" font-size="12" text-anchor="end" baseline-shift="-6" font-family="Helvetica">400</text>
<polyline fill="none" stroke="#000000" stroke-width="0.714" points="41.5836,250.002 46.5937,250.002"/>
<text fill="#000000" x="39.5796" y="250.002" font-size="12" text-anchor="end" baseline-shift="-6" font-family="Helvetica">450</text>
<polyline fill="none" stroke="#000000" stroke-width="0.714" points="41.5836,177.857 46.5937,177.857"/>
<text fill="#000000" x="39.5796" y="177.857" font-size="12" text-anchor="end" baseline-shift="-6" font-family="Helvetica">500</text>
<polyline fill="none" stroke="#000000" stroke-width="0.714" points="41.5836,106.714 46.5937,106.714"/>
<text fill="#000000" x="39.5796" y="106.714" font-size="12" text-anchor="end" baseline-shift="-6" font-family="Helvetica">550</text>
<polyline fill="none" stroke="#000000" stroke-width="0.714" points="41.5836,35.5714 46.5937,35.5714"/>
<text fill="#000000" x="39.5796" y="35.5714" font-size="12" text-anchor="end" baseline-shift="-6" font-family="Helvetica">600</text>
<polyline fill="none" stroke="#000000" stroke-width="0.714" points="46.5937,463.431 477.461,463.431"/>
<text fill="#000000" x="262.027" y="482.469" font-size="12" text-anchor="middle" baseline-shift="-12" font-family="Helvetica" font-weight="bold">Radial position [m]</text>
<polyline fill="none" stroke="#000000" stroke-width="0.714" points="48.5978,468.441 48.5978,463.431"/>
<text fill="#000000" x="48.5978" y="470.445" font-size="12" text-anchor="middle" baseline-shift="-12" font-family="Helvetica">0</text>
<polyline fill="none" stroke="#000000" stroke-width="0.714" points="135.773,468.441 135.773,463.431"/>
<text fill="#000000" x="135.773" y="470.445" font-size="12" text-anchor="middle" baseline-shift="-12" font-family="Helvetica">0.01</text>
<polyline fill="none" stroke="#000000" stroke-width="0.714" points="222.949,468.441 222.949,463.431"/>
<text fill="#000000" x="222.949" y="470.445" font-size="12" text-anchor="middle" baseline-shift="-12" font-family="Helvetica">0.02</text>
<polyline fill="none" stroke="#000000" stroke-width="0.714" points="310.124,468.441 310.124,463.431"/>
<text fill="#000000" x="310.124" y="470.445" font-size="12" text-anchor="middle" baseline-shift="-12" font-family="Helvetica">0.03</text>
<polyline fill="none" stroke="#000000" stroke-width="0.714" points="397.299,468.441 397.299,463.431"/>
<text fill="#000000" x="397.299" y="470.445" font-size="12" text-anchor="middle" baseline-shift="-12" font-family="Helvetica">0.04</text>
<polygon fill="#ffffff" points="376.257,126.755 477.461,126.755 376.257,19.5392"/>
<polygon fill="#ffffff" points="477.461,126.755 477.461,19.5392 376.257,19.5392"/>
<polyline fill="none" stroke="#000000" stroke-width="0.714" points="376.257,126.755 477.461,126.755 477.461,19.5392 376.257,19.5392 376.257,126.755"/>
<text fill="#000000" x="406.318" y="36.5735" font-size="12" text-anchor="start" baseline-shift="0" font-family="Helvetica">1.98 kW</text>
<polyline fill="none" stroke="#ff0000" stroke-width="1.428" points="381.267,30.5614 403.311,30.5614"/>
<text fill="#000000" x="406.318" y="53.6076" font-size="12" text-anchor="start" baseline-shift="0" font-family="Helvetica">1.98 kW NC</text>
<polyline fill="none" stroke="#0000ff" stroke-width="1.428" stroke-dasharray="8,8" points="381.267,47.5956 403.311,47.5956"/>
<text fill="#000000" x="406.318" y="70.6418" font-size="12" text-anchor="start" baseline-shift="0" font-family="Helvetica">3.97 kW</text>
<polyline fill="none" stroke="#ff007e" stroke-width="1.428" points="381.267,64.6298 403.311,64.6298"/>
<text fill="#000000" x="406.318" y="87.6761" font-size="12" text-anchor="start" baseline-shift="0" font-family="Helvetica">3.97 kW NC</text>
<polyline fill="none" stroke="#00aa7e" stroke-width="1.428" stroke-dasharray="8,8" points="381.267,81.664 403.311,81.664"/>
<text fill="#000000" x="406.318" y="104.71" font-size="12" text-anchor="start" baseline-shift="0" font-family="Helvetica">7.93 kW</text>
<polyline fill="none" stroke="#aa0000" stroke-width="1.428" points="381.267,98.6982 403.311,98.6982"/>
<text fill="#000000" x="406.318" y="121.744" font-size="12" text-anchor="start" baseline-shift="0" font-family="Helvetica">7.93 kW NC</text>
<polyline fill="none" stroke="#005400" stroke-width="1.428" stroke-dasharray="8,8" points="381.267,115.732 403.311,115.732"/>
</g>
</svg>
