<?xml version="1.0" encoding="UTF-8" standalone="no"?>
<svg xmlns="http://www.w3.org/2000/svg"
     xmlns:xlink="http://www.w3.org/1999/xlink"
     width="497px" height="498px" viewBox="0 0 497 498">
<title>ParaView GL2PS Export</title>
<desc>
Creator: GL2PS 1.3.8, (C) 1999-2012 C. Geuzaine
For: VTK
CreationDate: Sun Oct 30 09:19:03 2016
</desc>
<defs>
</defs>
<g shape-rendering="crispEdges">
<polyline fill="none" stroke="#f2f2f2" stroke-width="0.714" points="48.5978,463.431 48.5978,19.5392"/>
<polyline fill="none" stroke="#f2f2f2" stroke-width="0.714" points="137.777,463.431 137.777,19.5392"/>
<polyline fill="none" stroke="#f2f2f2" stroke-width="0.714" points="226.957,463.431 226.957,19.5392"/>
<polyline fill="none" stroke="#f2f2f2" stroke-width="0.714" points="316.136,463.431 316.136,19.5392"/>
<polyline fill="none" stroke="#f2f2f2" stroke-width="0.714" points="404.313,463.431 404.313,19.5392"/>
<polyline fill="none" stroke="#f2f2f2" stroke-width="0.714" points="45.5917,463.431 477.461,463.431"/>
<polyline fill="none" stroke="#f2f2f2" stroke-width="0.714" points="45.5917,408.32 477.461,408.32"/>
<polyline fill="none" stroke="#f2f2f2" stroke-width="0.714" points="45.5917,353.209 477.461,353.209"/>
<polyline fill="none" stroke="#f2f2f2" stroke-width="0.714" points="45.5917,297.097 477.461,297.097"/>
<polyline fill="none" stroke="#f2f2f2" stroke-width="0.714" points="45.5917,241.986 477.461,241.986"/>
<polyline fill="none" stroke="#f2f2f2" stroke-width="0.714" points="45.5917,186.875 477.461,186.875"/>
<polyline fill="none" stroke="#f2f2f2" stroke-width="0.714" points="45.5917,130.763 477.461,130.763"/>
<polyline fill="none" stroke="#f2f2f2" stroke-width="0.714" points="45.5917,75.6519 477.461,75.6519"/>
<polyline fill="none" stroke="#f2f2f2" stroke-width="0.714" points="45.5917,19.5392 477.461,19.5392"/>
<polyline fill="none" stroke="#ff0000" stroke-width="1.428" points="49.2108,451.459 53.3051,450.152 57.3995,448.131 61.4939,444.886 65.5882,440.062 69.6826,433.739 73.777,425.188 77.8713,412.908 81.9657,390.484 86.0601,346.046 90.1544,257.99 94.2488,257.146 98.3432,250.015 102.438,240.294 106.532,228.799 110.626,217.891 114.721,208.436 118.815,198.542 122.909,188.843 127.004,180.277 131.098,172.518 135.192,163.557 139.287,155.384 143.381,147.847 147.476,142.406 151.57,137.002 155.664,131.67 159.759,126.336 163.853,120.996 167.947,115.837 172.042,110.943 176.136,106.094 180.231,101.52 184.325,96.9457 188.419,92.6455 192.514,88.4892 196.608,84.3331 200.702,80.6972 204.797,77.1051 208.891,73.5129 212.985,70.7933 217.08,68.1505 221.174,65.5078 225.269,63.5656 229.363,62.0576 233.457,60.5497 237.552,59.0419 241.646,58.5308 245.74,58.0312 249.835,57.5318 253.929,57.0324 258.024,57.4 262.118,57.7676 266.212,58.1352 270.307,58.5135 274.401,59.8029 278.495,61.0923 282.59,62.3818 286.684,64.1129 290.778,66.5564 294.873,69.0002 298.967,71.5007 303.062,74.648 307.156,77.7957 311.25,80.9777 315.345,84.57 319.439,88.1627 323.533,92.2651 327.628,97.3383 331.722,102.411 335.817,108.062 339.911,113.808 344.005,119.351 348.1,124.756 352.194,130.361 356.288,136.138 360.383,142.177 364.477,148.348 368.571,155.857 372.666,163.941 376.76,172.767 380.855,181.117 384.949,189.521 389.043,198.296 393.138,207.288 397.232,216.358 401.326,227.204 405.421,239.462 409.515,249.466 413.61,257.179 417.704,258.039 421.798,346.078 425.893,390.505 429.987,412.922 434.081,425.199 438.176,433.747 442.27,440.068 446.364,444.891 450.459,448.136 454.553,450.155 458.648,451.461"/>
<polyline fill="none" stroke="#0000ff" stroke-width="1.428" stroke-dasharray="8,8" points="49.2108,451.509 53.3051,450.205 57.3995,448.19 61.4939,444.953 65.5882,440.136 69.6826,433.821 73.777,425.279 77.8713,413.003 81.9657,390.569 86.0601,346.085 90.1544,257.902 94.2488,257.057 98.3432,249.913 102.438,240.174 106.532,228.656 110.626,217.726 114.721,208.248 118.815,198.33 122.909,188.607 127.004,180.019 131.098,172.237 135.192,163.25 139.287,155.052 143.381,147.491 147.476,142.032 151.57,136.609 155.664,131.259 159.759,125.905 163.853,120.546 167.947,115.368 172.042,110.456 176.136,105.588 180.231,100.996 184.325,96.4034 188.419,92.0853 192.514,87.9114 196.608,83.7375 200.702,80.0865 204.797,76.4789 208.891,72.8716 212.985,70.14 217.08,67.4859 221.174,64.832 225.269,62.881 229.363,61.3659 233.457,59.8509 237.552,58.3356 241.646,57.822 245.74,57.3202 249.835,56.8182 253.929,56.3165 258.024,56.6855 262.118,57.0547 266.212,57.4243 270.307,57.804 274.401,59.0993 278.495,60.3947 282.59,61.6901 286.684,63.429 290.778,65.883 294.873,68.3374 298.967,70.8488 303.062,74.0097 307.156,77.1704 311.25,80.366 315.345,83.9738 319.439,87.5813 323.533,91.7006 327.628,96.7938 331.722,101.887 335.817,107.559 339.911,113.328 344.005,118.891 348.1,124.315 352.194,129.94 356.288,135.737 360.383,141.797 364.477,147.989 368.571,155.523 372.666,163.631 376.76,172.483 380.855,180.855 384.949,189.282 389.043,198.08 393.138,207.094 397.232,216.185 401.326,227.055 405.421,239.338 409.515,249.359 413.61,257.086 417.704,257.946 421.798,346.115 425.893,390.588 429.987,413.015 434.081,425.287 438.176,433.828 442.27,440.141 446.364,444.957 450.459,448.194 454.553,450.208 458.648,451.511"/>
<polyline fill="none" stroke="#000000" stroke-width="0.714" points="45.5917,463.431 45.5917,19.5392"/>
<text fill="#000000" x="15.5312" y="241.986" font-size="12" transform="rotate(-90, 15.5312, 241.986)" text-anchor="middle" baseline-shift="0" font-family="Helvetica" font-weight="bold">Temperature [K]</text>
<polyline fill="none" stroke="#000000" stroke-width="0.714" points="40.5816,463.431 45.5917,463.431"/>
<text fill="#000000" x="38.5776" y="463.431" font-size="12" text-anchor="end" baseline-shift="-6" font-family="Helvetica">300</text>
<polyline fill="none" stroke="#000000" stroke-width="0.714" points="40.5816,408.32 45.5917,408.32"/>
<text fill="#000000" x="38.5776" y="408.32" font-size="12" text-anchor="end" baseline-shift="-6" font-family="Helvetica">310</text>
<polyline fill="none" stroke="#000000" stroke-width="0.714" points="40.5816,353.209 45.5917,353.209"/>
<text fill="#000000" x="38.5776" y="353.209" font-size="12" text-anchor="end" baseline-shift="-6" font-family="Helvetica">320</text>
<polyline fill="none" stroke="#000000" stroke-width="0.714" points="40.5816,297.097 45.5917,297.097"/>
<text fill="#000000" x="38.5776" y="297.097" font-size="12" text-anchor="end" baseline-shift="-6" font-family="Helvetica">330</text>
<polyline fill="none" stroke="#000000" stroke-width="0.714" points="40.5816,241.986 45.5917,241.986"/>
<text fill="#000000" x="38.5776" y="241.986" font-size="12" text-anchor="end" baseline-shift="-6" font-family="Helvetica">340</text>
<polyline fill="none" stroke="#000000" stroke-width="0.714" points="40.5816,186.875 45.5917,186.875"/>
<text fill="#000000" x="38.5776" y="186.875" font-size="12" text-anchor="end" baseline-shift="-6" font-family="Helvetica">350</text>
<polyline fill="none" stroke="#000000" stroke-width="0.714" points="40.5816,130.763 45.5917,130.763"/>
<text fill="#000000" x="38.5776" y="130.763" font-size="12" text-anchor="end" baseline-shift="-6" font-family="Helvetica">360</text>
<polyline fill="none" stroke="#000000" stroke-width="0.714" points="40.5816,75.6519 45.5917,75.6519"/>
<text fill="#000000" x="38.5776" y="75.6519" font-size="12" text-anchor="end" baseline-shift="-6" font-family="Helvetica">370</text>
<polyline fill="none" stroke="#000000" stroke-width="0.714" points="40.5816,19.5392 45.5917,19.5392"/>
<text fill="#000000" x="38.5776" y="19.5392" font-size="12" text-anchor="end" baseline-shift="-6" font-family="Helvetica">380</text>
<polyline fill="none" stroke="#000000" stroke-width="0.714" points="45.5917,463.431 477.461,463.431"/>
<text fill="#000000" x="261.025" y="482.469" font-size="12" text-anchor="middle" baseline-shift="-12" font-family="Helvetica" font-weight="bold">Radial position [m]</text>
<polyline fill="none" stroke="#000000" stroke-width="0.714" points="48.5978,468.441 48.5978,463.431"/>
<text fill="#000000" x="48.5978" y="470.445" font-size="12" text-anchor="middle" baseline-shift="-12" font-family="Helvetica">0</text>
<polyline fill="none" stroke="#000000" stroke-width="0.714" points="137.777,468.441 137.777,463.431"/>
<text fill="#000000" x="137.777" y="470.445" font-size="12" text-anchor="middle" baseline-shift="-12" font-family="Helvetica">0.01</text>
<polyline fill="none" stroke="#000000" stroke-width="0.714" points="226.957,468.441 226.957,463.431"/>
<text fill="#000000" x="226.957" y="470.445" font-size="12" text-anchor="middle" baseline-shift="-12" font-family="Helvetica">0.02</text>
<polyline fill="none" stroke="#000000" stroke-width="0.714" points="316.136,468.441 316.136,463.431"/>
<text fill="#000000" x="316.136" y="470.445" font-size="12" text-anchor="middle" baseline-shift="-12" font-family="Helvetica">0.03</text>
<polyline fill="none" stroke="#000000" stroke-width="0.714" points="404.313,468.441 404.313,463.431"/>
<text fill="#000000" x="404.313" y="470.445" font-size="12" text-anchor="middle" baseline-shift="-12" font-family="Helvetica">0.04</text>
<polygon fill="#ffffff" points="376.257,58.6177 477.461,58.6177 376.257,19.5392"/>
<polygon fill="#ffffff" points="477.461,58.6177 477.461,19.5392 376.257,19.5392"/>
<polyline fill="none" stroke="#000000" stroke-width="0.714" points="376.257,58.6177 477.461,58.6177 477.461,19.5392 376.257,19.5392 376.257,58.6177"/>
<text fill="#000000" x="406.318" y="36.5735" font-size="12" text-anchor="start" baseline-shift="0" font-family="Helvetica">1.98 kW</text>
<polyline fill="none" stroke="#ff0000" stroke-width="1.428" points="381.267,30.5614 403.311,30.5614"/>
<text fill="#000000" x="406.318" y="53.6076" font-size="12" text-anchor="start" baseline-shift="0" font-family="Helvetica">1.98 kW NC</text>
<polyline fill="none" stroke="#0000ff" stroke-width="1.428" stroke-dasharray="8,8" points="381.267,47.5956 403.311,47.5956"/>
</g>
</svg>
