<?xml version="1.0" encoding="UTF-8" standalone="no"?>
<svg xmlns="http://www.w3.org/2000/svg"
     xmlns:xlink="http://www.w3.org/1999/xlink"
     width="492px" height="498px" viewBox="0 0 492 498">
<title>ParaView GL2PS Export</title>
<desc>
Creator: GL2PS 1.3.8, (C) 1999-2012 C. Geuzaine
For: VTK
CreationDate: Tue Nov  8 16:55:27 2016
</desc>
<defs>
</defs>
<g shape-rendering="crispEdges">
<polyline fill="none" stroke="#f2f2f2" stroke-width="0.714" points="51.6049,463.431 51.6049,19.5392"/>
<polyline fill="none" stroke="#f2f2f2" stroke-width="0.714" points="141.788,463.431 141.788,19.5392"/>
<polyline fill="none" stroke="#f2f2f2" stroke-width="0.714" points="230.969,463.431 230.969,19.5392"/>
<polyline fill="none" stroke="#f2f2f2" stroke-width="0.714" points="320.151,463.431 320.151,19.5392"/>
<polyline fill="none" stroke="#f2f2f2" stroke-width="0.714" points="410.334,463.431 410.334,19.5392"/>
<polyline fill="none" stroke="#f2f2f2" stroke-width="0.714" points="46.5947,398.3 472.46,398.3"/>
<polyline fill="none" stroke="#f2f2f2" stroke-width="0.714" points="46.5947,324.151 472.46,324.151"/>
<polyline fill="none" stroke="#f2f2f2" stroke-width="0.714" points="46.5947,250.002 472.46,250.002"/>
<polyline fill="none" stroke="#f2f2f2" stroke-width="0.714" points="46.5947,174.851 472.46,174.851"/>
<polyline fill="none" stroke="#f2f2f2" stroke-width="0.714" points="46.5947,100.702 472.46,100.702"/>
<polyline fill="none" stroke="#f2f2f2" stroke-width="0.714" points="46.5947,26.5533 472.46,26.5533"/>
<polyline fill="none" stroke="#005400" stroke-width="1.428" stroke-dasharray="8,8" points="52.265,459.418 56.3877,458.006 60.5103,455.824 64.633,452.318 68.7556,447.103 72.8783,440.266 77.001,431.016 81.1236,417.727 85.2463,393.451 89.3689,345.326 93.4916,249.938 97.6143,249.007 101.737,241.246 105.86,230.667 109.982,218.134 114.105,206.22 118.228,195.871 122.35,185.018 126.473,174.354 130.596,164.914 134.718,156.344 138.841,146.413 142.964,137.333 147.086,128.943 151.209,122.858 155.332,116.806 159.454,110.82 163.577,104.817 167.699,98.7937 171.822,92.96 175.945,87.4053 180.067,81.8974 184.19,76.6721 188.313,71.447 192.435,66.5136 196.558,61.7337 200.681,56.9537 204.803,52.7451 208.926,48.5842 213.049,44.4235 217.171,41.2535 221.294,38.1711 225.417,35.0885 229.539,32.8167 233.662,31.0472 237.785,29.2778 241.907,27.5084 246.03,26.9065 250.153,26.3183 254.275,25.73 258.398,25.1418 262.521,25.5743 266.643,26.0068 270.766,26.4395 274.889,26.8844 279.011,28.3986 283.134,29.9128 287.257,31.4271 291.379,33.4536 295.502,36.3066 299.625,39.1597 303.747,42.0777 307.87,45.7312 311.993,49.3848 316.115,53.0761 320.238,57.2176 324.361,61.359 328.483,66.074 332.606,71.8804 336.729,77.6868 340.851,84.1164 344.974,90.6491 349.097,96.925 353.219,103.027 357.342,109.337 361.465,115.826 365.587,122.589 369.71,129.491 373.833,137.851 377.955,146.831 382.078,156.612 386.201,165.834 390.323,175.094 394.446,184.742 398.568,194.607 402.691,204.538 406.814,216.388 410.936,229.756 415.059,240.645 419.182,249.039 423.304,249.987 427.427,345.359 431.55,393.472 435.672,417.741 439.795,431.027 443.918,440.273 448.04,447.108 452.163,452.322 456.286,455.828 460.408,458.009 464.531,459.421"/>
<polyline fill="none" stroke="#aa0000" stroke-width="1.428" points="52.265,459.297 56.3877,457.882 60.5103,455.695 64.633,452.183 68.7556,446.967 72.8783,440.137 77.001,430.913 81.1236,417.68 85.2463,393.558 89.3689,345.811 93.4916,251.266 97.6143,250.343 101.737,242.657 105.86,232.187 109.982,219.805 114.105,208.051 118.228,197.856 122.35,187.179 126.473,176.702 130.596,167.44 134.718,159.044 138.841,149.33 142.964,140.458 147.086,132.267 151.209,126.338 155.332,120.446 159.454,114.625 163.577,108.792 167.699,102.946 171.822,97.2893 175.945,91.9106 180.067,86.5785 184.19,81.5295 188.313,76.4806 192.435,71.7203 196.558,67.1117 200.681,62.5031 204.803,58.4536 208.926,54.4509 213.049,50.4484 217.171,47.4046 221.294,44.4456 225.417,41.4864 229.539,39.3073 233.662,37.6118 237.785,35.9163 241.907,34.2207 246.03,33.6451 250.153,33.0826 254.275,32.52 258.398,31.9574 262.521,32.3731 266.643,32.7888 270.766,33.2045 274.889,33.632 279.011,35.0853 283.134,36.5385 287.257,37.9918 291.379,39.9378 295.502,42.6789 299.625,45.42 303.747,48.2238 307.87,51.7394 311.993,55.2551 316.115,58.8076 320.238,62.8008 324.361,66.7941 328.483,71.3442 332.606,76.9541 336.729,82.5641 340.851,88.7878 344.974,95.1129 349.097,101.198 353.219,107.12 357.342,113.25 361.465,119.56 365.587,126.145 369.71,132.869 373.833,141.029 377.955,149.801 382.078,159.367 386.201,168.4 390.323,177.484 394.446,186.96 398.568,196.663 402.691,206.443 406.814,218.13 410.936,231.333 415.059,242.105 419.182,250.417 423.304,251.356 427.427,345.867 431.55,393.593 435.672,417.703 439.795,430.93 443.918,440.15 448.04,446.976 452.163,452.191 456.286,455.701 460.408,457.887 464.531,459.301"/>
<polyline fill="none" stroke="#000000" stroke-width="0.714" points="46.5947,463.431 46.5947,19.5392"/>
<text fill="#000000" x="15.5316" y="241.986" font-size="12" transform="rotate(-90, 15.5316, 241.986)" text-anchor="middle" baseline-shift="0" font-family="Helvetica" font-weight="bold">Temperature [K]</text>
<polyline fill="none" stroke="#000000" stroke-width="0.714" points="41.5845,398.3 46.5947,398.3"/>
<text fill="#000000" x="39.5804" y="398.3" font-size="12" text-anchor="end" baseline-shift="-6" font-family="Helvetica">350</text>
<polyline fill="none" stroke="#000000" stroke-width="0.714" points="41.5845,324.151 46.5947,324.151"/>
<text fill="#000000" x="39.5804" y="324.151" font-size="12" text-anchor="end" baseline-shift="-6" font-family="Helvetica">400</text>
<polyline fill="none" stroke="#000000" stroke-width="0.714" points="41.5845,250.002 46.5947,250.002"/>
<text fill="#000000" x="39.5804" y="250.002" font-size="12" text-anchor="end" baseline-shift="-6" font-family="Helvetica">450</text>
<polyline fill="none" stroke="#000000" stroke-width="0.714" points="41.5845,174.851 46.5947,174.851"/>
<text fill="#000000" x="39.5804" y="174.851" font-size="12" text-anchor="end" baseline-shift="-6" font-family="Helvetica">500</text>
<polyline fill="none" stroke="#000000" stroke-width="0.714" points="41.5845,100.702 46.5947,100.702"/>
<text fill="#000000" x="39.5804" y="100.702" font-size="12" text-anchor="end" baseline-shift="-6" font-family="Helvetica">550</text>
<polyline fill="none" stroke="#000000" stroke-width="0.714" points="41.5845,26.5533 46.5947,26.5533"/>
<text fill="#000000" x="39.5804" y="26.5533" font-size="12" text-anchor="end" baseline-shift="-6" font-family="Helvetica">600</text>
<polyline fill="none" stroke="#000000" stroke-width="0.714" points="46.5947,463.431 472.46,463.431"/>
<text fill="#000000" x="259.026" y="482.469" font-size="12" text-anchor="middle" baseline-shift="-12" font-family="Helvetica" font-weight="bold">Radial position [m]</text>
<polyline fill="none" stroke="#000000" stroke-width="0.714" points="51.6049,468.441 51.6049,463.431"/>
<text fill="#000000" x="51.6049" y="470.445" font-size="12" text-anchor="middle" baseline-shift="-12" font-family="Helvetica">0</text>
<polyline fill="none" stroke="#000000" stroke-width="0.714" points="141.788,468.441 141.788,463.431"/>
<text fill="#000000" x="141.788" y="470.445" font-size="12" text-anchor="middle" baseline-shift="-12" font-family="Helvetica">0.01</text>
<polyline fill="none" stroke="#000000" stroke-width="0.714" points="230.969,468.441 230.969,463.431"/>
<text fill="#000000" x="230.969" y="470.445" font-size="12" text-anchor="middle" baseline-shift="-12" font-family="Helvetica">0.02</text>
<polyline fill="none" stroke="#000000" stroke-width="0.714" points="320.151,468.441 320.151,463.431"/>
<text fill="#000000" x="320.151" y="470.445" font-size="12" text-anchor="middle" baseline-shift="-12" font-family="Helvetica">0.03</text>
<polyline fill="none" stroke="#000000" stroke-width="0.714" points="410.334,468.441 410.334,463.431"/>
<text fill="#000000" x="410.334" y="470.445" font-size="12" text-anchor="middle" baseline-shift="-12" font-family="Helvetica">0.04</text>
<polygon fill="#ffffff" points="371.255,58.6177 472.46,58.6177 371.255,19.5392"/>
<polygon fill="#ffffff" points="472.46,58.6177 472.46,19.5392 371.255,19.5392"/>
<polyline fill="none" stroke="#000000" stroke-width="0.714" points="371.255,58.6177 472.46,58.6177 472.46,19.5392 371.255,19.5392 371.255,58.6177"/>
<text fill="#000000" x="401.316" y="36.5735" font-size="12" text-anchor="start" baseline-shift="0" font-family="Helvetica">7.93 kW NC</text>
<polyline fill="none" stroke="#005400" stroke-width="1.428" stroke-dasharray="8,8" points="376.265,30.5614 398.31,30.5614"/>
<text fill="#000000" x="401.316" y="53.6076" font-size="12" text-anchor="start" baseline-shift="0" font-family="Helvetica">7.93 kW</text>
<polyline fill="none" stroke="#aa0000" stroke-width="1.428" points="376.265,47.5956 398.31,47.5956"/>
</g>
</svg>
