<?xml version="1.0" encoding="UTF-8" standalone="no"?>
<svg xmlns="http://www.w3.org/2000/svg"
     xmlns:xlink="http://www.w3.org/1999/xlink"
     width="1002px" height="498px" viewBox="0 0 1002 498">
<title>ParaView GL2PS Export</title>
<desc>
Creator: GL2PS 1.3.8, (C) 1999-2012 C. Geuzaine
For: VTK
CreationDate: Sun Oct 30 09:46:34 2016
</desc>
<defs>
</defs>
<g shape-rendering="crispEdges">
<polyline fill="none" stroke="#f2f2f2" stroke-width="0.714" points="95.5954,463.431 95.5954,19.5392"/>
<polyline fill="none" stroke="#f2f2f2" stroke-width="0.714" points="145.645,463.431 145.645,19.5392"/>
<polyline fill="none" stroke="#f2f2f2" stroke-width="0.714" points="195.695,463.431 195.695,19.5392"/>
<polyline fill="none" stroke="#f2f2f2" stroke-width="0.714" points="245.745,463.431 245.745,19.5392"/>
<polyline fill="none" stroke="#f2f2f2" stroke-width="0.714" points="295.795,463.431 295.795,19.5392"/>
<polyline fill="none" stroke="#f2f2f2" stroke-width="0.714" points="345.845,463.431 345.845,19.5392"/>
<polyline fill="none" stroke="#f2f2f2" stroke-width="0.714" points="395.895,463.431 395.895,19.5392"/>
<polyline fill="none" stroke="#f2f2f2" stroke-width="0.714" points="445.945,463.431 445.945,19.5392"/>
<polyline fill="none" stroke="#f2f2f2" stroke-width="0.714" points="494.994,463.431 494.994,19.5392"/>
<polyline fill="none" stroke="#f2f2f2" stroke-width="0.714" points="545.044,463.431 545.044,19.5392"/>
<polyline fill="none" stroke="#f2f2f2" stroke-width="0.714" points="595.094,463.431 595.094,19.5392"/>
<polyline fill="none" stroke="#f2f2f2" stroke-width="0.714" points="645.144,463.431 645.144,19.5392"/>
<polyline fill="none" stroke="#f2f2f2" stroke-width="0.714" points="695.194,463.431 695.194,19.5392"/>
<polyline fill="none" stroke="#f2f2f2" stroke-width="0.714" points="745.244,463.431 745.244,19.5392"/>
<polyline fill="none" stroke="#f2f2f2" stroke-width="0.714" points="795.294,463.431 795.294,19.5392"/>
<polyline fill="none" stroke="#f2f2f2" stroke-width="0.714" points="845.344,463.431 845.344,19.5392"/>
<polyline fill="none" stroke="#f2f2f2" stroke-width="0.714" points="895.394,463.431 895.394,19.5392"/>
<polyline fill="none" stroke="#f2f2f2" stroke-width="0.714" points="945.444,463.431 945.444,19.5392"/>
<polyline fill="none" stroke="#f2f2f2" stroke-width="0.714" points="46.5465,400.304 982.48,400.304"/>
<polyline fill="none" stroke="#f2f2f2" stroke-width="0.714" points="46.5465,326.155 982.48,326.155"/>
<polyline fill="none" stroke="#f2f2f2" stroke-width="0.714" points="46.5465,252.006 982.48,252.006"/>
<polyline fill="none" stroke="#f2f2f2" stroke-width="0.714" points="46.5465,177.857 982.48,177.857"/>
<polyline fill="none" stroke="#f2f2f2" stroke-width="0.714" points="46.5465,104.71 982.48,104.71"/>
<polyline fill="none" stroke="#f2f2f2" stroke-width="0.714" points="46.5465,30.5614 982.48,30.5614"/>
<polyline fill="none" stroke="#e2181c" stroke-width="1.428" points="46.023,439.186 54.7722,438.206 63.5213,437.225 72.2705,436.06 81.0196,433.79 89.7687,431.52 98.5179,429.144 107.267,426.503 116.016,423.863 124.765,421.21 133.514,418.542 142.264,415.874 151.013,413.267 159.762,410.706 168.511,408.145 177.26,405.699 186.009,403.3 194.758,400.901 203.508,398.662 212.257,396.449 221.006,394.236 229.755,392.222 238.504,390.207 247.253,388.221 256.002,386.413 264.752,384.604 273.501,382.856 282.25,381.259 290.999,379.663 299.748,378.16 308.497,376.782 317.246,375.404 325.996,374.154 334.745,373.001 343.494,371.847 352.243,370.857 360.992,369.932 369.741,369.007 378.49,368.282 387.24,367.59 395.989,366.898 404.738,366.442 413.487,365.986 422.236,365.565 430.985,365.347 439.734,365.13 448.483,364.98 457.233,365.002 465.982,365.024 474.731,365.148 483.48,365.409 492.229,365.669 500.978,366.066 509.727,366.564 518.477,367.062 527.226,367.728 535.975,368.46 544.724,369.193 553.473,370.123 562.222,371.087 570.971,372.051 579.721,373.241 588.47,374.431 597.219,375.652 605.968,377.064 614.717,378.475 623.466,379.948 632.215,381.575 640.965,383.202 649.714,384.918 658.463,386.755 667.212,388.591 675.961,390.542 684.71,392.581 693.459,394.62 702.208,396.799 710.958,399.033 719.707,401.268 728.456,403.663 737.205,406.086 745.954,408.508 754.703,411.108 763.453,413.709 772.202,416.332 780.951,419.096 789.7,421.859 798.449,424.66 807.198,427.557 815.947,430.455 824.696,433.382 833.446,436.349 842.195,439.317 850.944,442.24 859.693,445.129 868.442,448.018 877.191,450.59 885.941,453.036 894.69,455.481 903.439,456.726 912.188,457.772 920.937,458.818"/>
<polyline fill="none" stroke="#5400ff" stroke-width="1.428" stroke-dasharray="8,8" points="46.023,439.117 54.7722,438.133 63.5213,437.149 72.2705,435.98 81.0196,433.703 89.7687,431.425 98.5179,429.041 107.267,426.391 116.016,423.741 124.765,421.078 133.514,418.398 142.264,415.719 151.013,413.1 159.762,410.526 168.511,407.952 177.26,405.494 186.009,403.083 194.758,400.671 203.508,398.419 212.257,396.193 221.006,393.968 229.755,391.941 238.504,389.915 247.253,387.918 256.002,386.1 264.752,384.282 273.501,382.525 282.25,380.923 290.999,379.32 299.748,377.812 308.497,376.432 317.246,375.051 325.996,373.8 334.745,372.647 343.494,371.494 352.243,370.506 360.992,369.585 369.741,368.664 378.49,367.945 387.24,367.26 395.989,366.575 404.738,366.129 413.487,365.683 422.236,365.271 430.985,365.066 439.734,364.86 448.483,364.724 457.233,364.761 465.982,364.798 474.731,364.939 483.48,365.218 492.229,365.496 500.978,365.912 509.727,366.43 518.477,366.949 527.226,367.636 535.975,368.39 544.724,369.144 553.473,370.096 562.222,371.081 570.971,372.066 579.721,373.277 588.47,374.488 597.219,375.73 605.968,377.16 614.717,378.59 623.466,380.082 632.215,381.726 640.965,383.37 649.714,385.103 658.463,386.954 667.212,388.805 675.961,390.771 684.71,392.823 693.459,394.875 702.208,397.065 710.958,399.309 719.707,401.554 728.456,403.957 737.205,406.385 745.954,408.814 754.703,411.416 763.453,414.018 772.202,416.643 780.951,419.402 789.7,422.162 798.449,424.958 807.198,427.847 815.947,430.735 824.696,433.652 833.446,436.605 842.195,439.559 850.944,442.467 859.693,445.339 868.442,448.211 877.191,450.767 885.941,453.195 894.69,455.623 903.439,456.86 912.188,457.898 920.937,458.937"/>
<polyline fill="none" stroke="#ff007e" stroke-width="1.428" points="46.023,404.486 54.7722,402.523 63.5213,400.559 72.2705,398.228 81.0196,393.685 89.7687,389.142 98.5179,384.389 107.267,379.107 116.016,373.825 124.765,368.52 133.514,363.184 142.264,357.847 151.013,352.633 159.762,347.509 168.511,342.386 177.26,337.493 186.009,332.693 194.758,327.894 203.508,323.415 212.257,318.99 221.006,314.566 229.755,310.542 238.504,306.519 247.253,302.554 256.002,298.946 264.752,295.338 273.501,291.851 282.25,288.669 290.999,285.487 299.748,282.493 308.497,279.748 317.246,277.003 325.996,274.512 334.745,272.214 343.494,269.915 352.243,267.94 360.992,266.095 369.741,264.25 378.49,262.801 387.24,261.417 395.989,260.033 404.738,259.115 413.487,258.198 422.236,257.348 430.985,256.901 439.734,256.454 448.483,256.143 457.233,256.169 465.982,256.195 474.731,256.423 483.48,256.922 492.229,257.421 500.978,258.188 509.727,259.157 518.477,260.126 527.226,261.427 535.975,262.861 544.724,264.295 553.473,266.122 562.222,268.015 570.971,269.907 579.721,272.251 588.47,274.595 597.219,277.002 605.968,279.788 614.717,282.575 623.466,285.485 632.215,288.706 640.965,291.927 649.714,295.331 658.463,298.977 667.212,302.624 675.961,306.509 684.71,310.572 693.459,314.635 702.208,318.988 710.958,323.457 719.707,327.925 728.456,332.727 737.205,337.583 745.954,342.44 754.703,347.659 763.453,352.879 772.202,358.146 780.951,363.696 789.7,369.246 798.449,374.873 807.198,380.695 815.947,386.517 824.696,392.401 833.446,398.369 842.195,404.336 850.944,410.216 859.693,416.031 868.442,421.846 877.191,427.025 885.941,431.949 894.69,436.874 903.439,439.384 912.188,441.492 920.937,443.599"/>
<polyline fill="none" stroke="#00aa7e" stroke-width="1.428" stroke-dasharray="8,8" points="46.023,404.298 54.7722,402.326 63.5213,400.353 72.2705,398.01 81.0196,393.445 89.7687,388.879 98.5179,384.099 107.267,378.788 116.016,373.476 124.765,368.14 133.514,362.771 142.264,357.402 151.013,352.154 159.762,346.997 168.511,341.84 177.26,336.913 186.009,332.077 194.758,327.242 203.508,322.723 212.257,318.256 221.006,313.79 229.755,309.719 238.504,305.648 247.253,301.636 256.002,297.979 264.752,294.322 273.501,290.787 282.25,287.56 290.999,284.333 299.748,281.295 308.497,278.512 317.246,275.729 325.996,273.207 334.745,270.881 343.494,268.555 352.243,266.563 360.992,264.704 369.741,262.846 378.49,261.396 387.24,260.014 395.989,258.632 404.738,257.733 413.487,256.833 422.236,256.004 430.985,255.591 439.734,255.178 448.483,254.905 457.233,254.98 465.982,255.055 474.731,255.338 483.48,255.9 492.229,256.461 500.978,257.298 509.727,258.34 518.477,259.383 527.226,260.765 535.975,262.282 544.724,263.799 553.473,265.715 562.222,267.697 570.971,269.678 579.721,272.114 588.47,274.55 597.219,277.049 605.968,279.927 614.717,282.806 623.466,285.807 632.215,289.115 640.965,292.423 649.714,295.909 658.463,299.633 667.212,303.357 675.961,307.31 684.71,311.434 693.459,315.558 702.208,319.957 710.958,324.466 719.707,328.975 728.456,333.797 737.205,338.672 745.954,343.547 754.703,348.767 763.453,353.986 772.202,359.25 780.951,364.782 789.7,370.314 798.449,375.919 807.198,381.707 815.947,387.495 824.696,393.339 833.446,399.258 842.195,405.177 850.944,411.003 859.693,416.76 868.442,422.517 877.191,427.638 885.941,432.505 894.69,437.372 903.439,439.851 912.188,441.932 920.937,444.013"/>
<polyline fill="none" stroke="#aa0000" stroke-width="1.428" points="46.023,334.227 54.7722,330.275 63.5213,326.323 72.2705,321.632 81.0196,312.507 89.7687,303.381 98.5179,293.84 107.267,283.262 116.016,272.683 124.765,262.068 133.514,251.402 142.264,240.736 151.013,230.319 159.762,220.087 168.511,209.855 177.26,200.079 186.009,190.485 194.758,180.892 203.508,171.921 212.257,163.055 221.006,154.188 229.755,146.091 238.504,137.994 247.253,130.01 256.002,122.708 264.752,115.406 273.501,108.338 282.25,101.857 290.999,95.3759 299.748,89.2595 308.497,83.629 317.246,77.9984 325.996,72.8718 334.745,68.1232 343.494,63.3745 352.243,59.2777 360.992,55.4418 369.741,51.6058 378.49,48.575 387.24,45.6784 395.989,42.7817 404.738,40.8441 413.487,38.9067 422.236,37.1077 430.985,36.1403 439.734,35.1731 448.483,34.4839 457.233,34.4904 465.982,34.4968 474.731,34.9195 483.48,35.8973 492.229,36.8749 500.978,38.4028 509.727,40.3435 518.477,42.2841 527.226,44.9036 535.975,47.7947 544.724,50.6857 553.473,54.3777 562.222,58.2032 570.971,62.0289 579.721,66.7694 588.47,71.5099 597.219,76.3779 605.968,82.0102 614.717,87.6426 623.466,93.5224 632.215,100.021 640.965,106.52 649.714,113.379 658.463,120.718 667.212,128.057 675.961,135.863 684.71,144.019 693.459,152.175 702.208,160.9 710.958,169.852 719.707,178.804 728.456,188.415 737.205,198.136 745.954,207.857 754.703,218.31 763.453,228.764 772.202,239.315 780.951,250.453 789.7,261.592 798.449,272.898 807.198,284.626 815.947,296.353 824.696,308.231 833.446,320.309 842.195,332.387 850.944,344.314 859.693,356.127 868.442,367.941 877.191,378.475 885.941,388.498 894.69,398.521 903.439,403.633 912.188,407.927 920.937,412.221"/>
<polyline fill="none" stroke="#005400" stroke-width="1.428" stroke-dasharray="8,8" points="46.023,334.955 54.7722,331.019 63.5213,327.084 72.2705,322.407 81.0196,313.282 89.7687,304.157 98.5179,294.596 107.267,283.947 116.016,273.297 124.765,262.579 133.514,251.77 142.264,240.96 151.013,230.365 159.762,219.931 168.511,209.496 177.26,199.486 186.009,189.646 194.758,179.806 203.508,170.558 212.257,161.41 221.006,152.262 229.755,143.86 238.504,135.458 247.253,127.168 256.002,119.555 264.752,111.942 273.501,104.566 282.25,97.7826 290.999,90.9991 299.748,84.5894 308.497,78.6778 317.246,72.7661 325.996,67.3776 334.745,62.3813 343.494,57.385 352.243,53.0732 360.992,49.0352 369.741,44.9971 378.49,41.8134 387.24,38.7722 395.989,35.7309 404.738,33.7177 413.487,31.7045 422.236,29.8411 430.985,28.8763 439.734,27.9115 448.483,27.2486 457.233,27.3403 465.982,27.4321 474.731,27.975 483.48,29.1197 492.229,30.2644 500.978,32.0027 509.727,34.1862 518.477,36.3696 527.226,39.2786 535.975,42.4777 544.724,45.6768 553.473,49.7197 562.222,53.9032 570.971,58.0867 579.721,63.2171 588.47,68.3474 597.219,73.6071 605.968,79.6422 614.717,85.6775 623.466,91.9587 632.215,98.8552 640.965,105.752 649.714,112.999 658.463,120.714 667.212,128.43 675.961,136.591 684.71,145.086 693.459,153.58 702.208,162.606 710.958,171.843 719.707,181.081 728.456,190.924 737.205,200.868 745.954,210.813 754.703,221.423 763.453,232.033 772.202,242.73 780.951,253.947 789.7,265.164 798.449,276.522 807.198,288.233 815.947,299.944 824.696,311.759 833.446,323.715 842.195,335.67 850.944,347.427 859.693,359.035 868.442,370.643 877.191,380.96 885.941,390.759 894.69,400.558 903.439,405.547 912.188,409.733 920.937,413.92"/>
<polyline fill="none" stroke="#000000" stroke-width="0.714" points="46.5465,463.431 46.5465,19.5392"/>
<text fill="#000000" x="15.5155" y="241.986" font-size="12" transform="rotate(-90, 15.5155, 241.986)" text-anchor="middle" baseline-shift="0" font-family="Helvetica" font-weight="bold">T [K]</text>
<polyline fill="none" stroke="#000000" stroke-width="0.714" points="41.5415,400.304 46.5465,400.304"/>
<text fill="#000000" x="39.5395" y="400.304" font-size="12" text-anchor="end" baseline-shift="-6" font-family="Helvetica">350</text>
<polyline fill="none" stroke="#000000" stroke-width="0.714" points="41.5415,326.155 46.5465,326.155"/>
<text fill="#000000" x="39.5395" y="326.155" font-size="12" text-anchor="end" baseline-shift="-6" font-family="Helvetica">400</text>
<polyline fill="none" stroke="#000000" stroke-width="0.714" points="41.5415,252.006 46.5465,252.006"/>
<text fill="#000000" x="39.5395" y="252.006" font-size="12" text-anchor="end" baseline-shift="-6" font-family="Helvetica">450</text>
<polyline fill="none" stroke="#000000" stroke-width="0.714" points="41.5415,177.857 46.5465,177.857"/>
<text fill="#000000" x="39.5395" y="177.857" font-size="12" text-anchor="end" baseline-shift="-6" font-family="Helvetica">500</text>
<polyline fill="none" stroke="#000000" stroke-width="0.714" points="41.5415,104.71 46.5465,104.71"/>
<text fill="#000000" x="39.5395" y="104.71" font-size="12" text-anchor="end" baseline-shift="-6" font-family="Helvetica">550</text>
<polyline fill="none" stroke="#000000" stroke-width="0.714" points="41.5415,30.5614 46.5465,30.5614"/>
<text fill="#000000" x="39.5395" y="30.5614" font-size="12" text-anchor="end" baseline-shift="-6" font-family="Helvetica">600</text>
<polyline fill="none" stroke="#000000" stroke-width="0.714" points="46.5465,463.431 982.48,463.431"/>
<text fill="#000000" x="514.013" y="482.469" font-size="12" text-anchor="middle" baseline-shift="-12" font-family="Helvetica" font-weight="bold">Axial position [m]</text>
<polyline fill="none" stroke="#000000" stroke-width="0.714" points="95.5954,468.441 95.5954,463.431"/>
<text fill="#000000" x="95.5954" y="470.445" font-size="12" text-anchor="middle" baseline-shift="-12" font-family="Helvetica">0.02</text>
<polyline fill="none" stroke="#000000" stroke-width="0.714" points="145.645,468.441 145.645,463.431"/>
<text fill="#000000" x="145.645" y="470.445" font-size="12" text-anchor="middle" baseline-shift="-12" font-family="Helvetica">0.04</text>
<polyline fill="none" stroke="#000000" stroke-width="0.714" points="195.695,468.441 195.695,463.431"/>
<text fill="#000000" x="195.695" y="470.445" font-size="12" text-anchor="middle" baseline-shift="-12" font-family="Helvetica">0.06</text>
<polyline fill="none" stroke="#000000" stroke-width="0.714" points="245.745,468.441 245.745,463.431"/>
<text fill="#000000" x="245.745" y="470.445" font-size="12" text-anchor="middle" baseline-shift="-12" font-family="Helvetica">0.08</text>
<polyline fill="none" stroke="#000000" stroke-width="0.714" points="295.795,468.441 295.795,463.431"/>
<text fill="#000000" x="295.795" y="470.445" font-size="12" text-anchor="middle" baseline-shift="-12" font-family="Helvetica">0.1</text>
<polyline fill="none" stroke="#000000" stroke-width="0.714" points="345.845,468.441 345.845,463.431"/>
<text fill="#000000" x="345.845" y="470.445" font-size="12" text-anchor="middle" baseline-shift="-12" font-family="Helvetica">0.12</text>
<polyline fill="none" stroke="#000000" stroke-width="0.714" points="395.895,468.441 395.895,463.431"/>
<text fill="#000000" x="395.895" y="470.445" font-size="12" text-anchor="middle" baseline-shift="-12" font-family="Helvetica">0.14</text>
<polyline fill="none" stroke="#000000" stroke-width="0.714" points="445.945,468.441 445.945,463.431"/>
<text fill="#000000" x="445.945" y="470.445" font-size="12" text-anchor="middle" baseline-shift="-12" font-family="Helvetica">0.16</text>
<polyline fill="none" stroke="#000000" stroke-width="0.714" points="494.994,468.441 494.994,463.431"/>
<text fill="#000000" x="494.994" y="470.445" font-size="12" text-anchor="middle" baseline-shift="-12" font-family="Helvetica">0.18</text>
<polyline fill="none" stroke="#000000" stroke-width="0.714" points="545.044,468.441 545.044,463.431"/>
<text fill="#000000" x="545.044" y="470.445" font-size="12" text-anchor="middle" baseline-shift="-12" font-family="Helvetica">0.2</text>
<polyline fill="none" stroke="#000000" stroke-width="0.714" points="595.094,468.441 595.094,463.431"/>
<text fill="#000000" x="595.094" y="470.445" font-size="12" text-anchor="middle" baseline-shift="-12" font-family="Helvetica">0.22</text>
<polyline fill="none" stroke="#000000" stroke-width="0.714" points="645.144,468.441 645.144,463.431"/>
<text fill="#000000" x="645.144" y="470.445" font-size="12" text-anchor="middle" baseline-shift="-12" font-family="Helvetica">0.24</text>
<polyline fill="none" stroke="#000000" stroke-width="0.714" points="695.194,468.441 695.194,463.431"/>
<text fill="#000000" x="695.194" y="470.445" font-size="12" text-anchor="middle" baseline-shift="-12" font-family="Helvetica">0.26</text>
<polyline fill="none" stroke="#000000" stroke-width="0.714" points="745.244,468.441 745.244,463.431"/>
<text fill="#000000" x="745.244" y="470.445" font-size="12" text-anchor="middle" baseline-shift="-12" font-family="Helvetica">0.28</text>
<polyline fill="none" stroke="#000000" stroke-width="0.714" points="795.294,468.441 795.294,463.431"/>
<text fill="#000000" x="795.294" y="470.445" font-size="12" text-anchor="middle" baseline-shift="-12" font-family="Helvetica">0.3</text>
<polyline fill="none" stroke="#000000" stroke-width="0.714" points="845.344,468.441 845.344,463.431"/>
<text fill="#000000" x="845.344" y="470.445" font-size="12" text-anchor="middle" baseline-shift="-12" font-family="Helvetica">0.32</text>
<polyline fill="none" stroke="#000000" stroke-width="0.714" points="895.394,468.441 895.394,463.431"/>
<text fill="#000000" x="895.394" y="470.445" font-size="12" text-anchor="middle" baseline-shift="-12" font-family="Helvetica">0.34</text>
<polyline fill="none" stroke="#000000" stroke-width="0.714" points="945.444,468.441 945.444,463.431"/>
<text fill="#000000" x="945.444" y="470.445" font-size="12" text-anchor="middle" baseline-shift="-12" font-family="Helvetica">0.36</text>
<polygon fill="#ffffff" points="881.38,126.755 982.48,126.755 881.38,19.5392"/>
<polygon fill="#ffffff" points="982.48,126.755 982.48,19.5392 881.38,19.5392"/>
<polyline fill="none" stroke="#000000" stroke-width="0.714" points="881.38,126.755 982.48,126.755 982.48,19.5392 881.38,19.5392 881.38,126.755"/>
<text fill="#000000" x="911.41" y="36.5735" font-size="12" text-anchor="start" baseline-shift="0" font-family="Helvetica">1.98 kW</text>
<polyline fill="none" stroke="#e2181c" stroke-width="1.428" points="886.385,30.5614 908.407,30.5614"/>
<text fill="#000000" x="911.41" y="53.6076" font-size="12" text-anchor="start" baseline-shift="0" font-family="Helvetica">1.98 kW NC</text>
<polyline fill="none" stroke="#5400ff" stroke-width="1.428" stroke-dasharray="8,8" points="886.385,47.5956 908.407,47.5956"/>
<text fill="#000000" x="911.41" y="70.6418" font-size="12" text-anchor="start" baseline-shift="0" font-family="Helvetica">3.97 kW</text>
<polyline fill="none" stroke="#ff007e" stroke-width="1.428" points="886.385,64.6298 908.407,64.6298"/>
<text fill="#000000" x="911.41" y="87.6761" font-size="12" text-anchor="start" baseline-shift="0" font-family="Helvetica">3.97 kW NC</text>
<polyline fill="none" stroke="#00aa7e" stroke-width="1.428" stroke-dasharray="8,8" points="886.385,81.664 908.407,81.664"/>
<text fill="#000000" x="911.41" y="104.71" font-size="12" text-anchor="start" baseline-shift="0" font-family="Helvetica">7.93 kW</text>
<polyline fill="none" stroke="#aa0000" stroke-width="1.428" points="886.385,98.6982 908.407,98.6982"/>
<text fill="#000000" x="911.41" y="121.744" font-size="12" text-anchor="start" baseline-shift="0" font-family="Helvetica">7.93 kW NC</text>
<polyline fill="none" stroke="#005400" stroke-width="1.428" stroke-dasharray="8,8" points="886.385,115.732 908.407,115.732"/>
</g>
</svg>
