<?xml version="1.0" encoding="UTF-8" standalone="no"?>
<svg xmlns="http://www.w3.org/2000/svg"
     xmlns:xlink="http://www.w3.org/1999/xlink"
     width="1002px" height="498px" viewBox="0 0 1002 498">
<title>ParaView GL2PS Export</title>
<desc>
Creator: GL2PS 1.3.8, (C) 1999-2012 C. Geuzaine
For: VTK
CreationDate: Sun Oct 30 09:48:05 2016
</desc>
<defs>
</defs>
<g shape-rendering="crispEdges">
<polyline fill="none" stroke="#f2f2f2" stroke-width="0.714" points="45.5455,463.431 45.5455,19.5392"/>
<polyline fill="none" stroke="#f2f2f2" stroke-width="0.714" points="97.5974,463.431 97.5974,19.5392"/>
<polyline fill="none" stroke="#f2f2f2" stroke-width="0.714" points="149.649,463.431 149.649,19.5392"/>
<polyline fill="none" stroke="#f2f2f2" stroke-width="0.714" points="201.701,463.431 201.701,19.5392"/>
<polyline fill="none" stroke="#f2f2f2" stroke-width="0.714" points="253.753,463.431 253.753,19.5392"/>
<polyline fill="none" stroke="#f2f2f2" stroke-width="0.714" points="305.805,463.431 305.805,19.5392"/>
<polyline fill="none" stroke="#f2f2f2" stroke-width="0.714" points="357.857,463.431 357.857,19.5392"/>
<polyline fill="none" stroke="#f2f2f2" stroke-width="0.714" points="409.909,463.431 409.909,19.5392"/>
<polyline fill="none" stroke="#f2f2f2" stroke-width="0.714" points="461.961,463.431 461.961,19.5392"/>
<polyline fill="none" stroke="#f2f2f2" stroke-width="0.714" points="514.013,463.431 514.013,19.5392"/>
<polyline fill="none" stroke="#f2f2f2" stroke-width="0.714" points="566.065,463.431 566.065,19.5392"/>
<polyline fill="none" stroke="#f2f2f2" stroke-width="0.714" points="618.117,463.431 618.117,19.5392"/>
<polyline fill="none" stroke="#f2f2f2" stroke-width="0.714" points="670.169,463.431 670.169,19.5392"/>
<polyline fill="none" stroke="#f2f2f2" stroke-width="0.714" points="722.221,463.431 722.221,19.5392"/>
<polyline fill="none" stroke="#f2f2f2" stroke-width="0.714" points="774.273,463.431 774.273,19.5392"/>
<polyline fill="none" stroke="#f2f2f2" stroke-width="0.714" points="826.325,463.431 826.325,19.5392"/>
<polyline fill="none" stroke="#f2f2f2" stroke-width="0.714" points="878.377,463.431 878.377,19.5392"/>
<polyline fill="none" stroke="#f2f2f2" stroke-width="0.714" points="930.429,463.431 930.429,19.5392"/>
<polyline fill="none" stroke="#f2f2f2" stroke-width="0.714" points="982.48,463.431 982.48,19.5392"/>
<polyline fill="none" stroke="#f2f2f2" stroke-width="0.714" points="45.5455,463.431 982.48,463.431"/>
<polyline fill="none" stroke="#f2f2f2" stroke-width="0.714" points="45.5455,429.362 982.48,429.362"/>
<polyline fill="none" stroke="#f2f2f2" stroke-width="0.714" points="45.5455,395.294 982.48,395.294"/>
<polyline fill="none" stroke="#f2f2f2" stroke-width="0.714" points="45.5455,361.225 982.48,361.225"/>
<polyline fill="none" stroke="#f2f2f2" stroke-width="0.714" points="45.5455,327.157 982.48,327.157"/>
<polyline fill="none" stroke="#f2f2f2" stroke-width="0.714" points="45.5455,293.089 982.48,293.089"/>
<polyline fill="none" stroke="#f2f2f2" stroke-width="0.714" points="45.5455,259.02 982.48,259.02"/>
<polyline fill="none" stroke="#f2f2f2" stroke-width="0.714" points="45.5455,224.952 982.48,224.952"/>
<polyline fill="none" stroke="#f2f2f2" stroke-width="0.714" points="45.5455,190.883 982.48,190.883"/>
<polyline fill="none" stroke="#f2f2f2" stroke-width="0.714" points="45.5455,156.815 982.48,156.815"/>
<polyline fill="none" stroke="#f2f2f2" stroke-width="0.714" points="45.5455,122.746 982.48,122.746"/>
<polyline fill="none" stroke="#f2f2f2" stroke-width="0.714" points="45.5455,88.6781 982.48,88.6781"/>
<polyline fill="none" stroke="#f2f2f2" stroke-width="0.714" points="45.5455,54.6096 982.48,54.6096"/>
<polyline fill="none" stroke="#f2f2f2" stroke-width="0.714" points="45.5455,19.5392 982.48,19.5392"/>
<polyline fill="none" stroke="#ff007e" stroke-width="1.428" points="45.5455,371.796 54.6546,367.266 63.7636,362.736 72.8728,357.356 81.9818,346.874 91.091,336.393 100.2,325.424 109.309,313.237 118.418,301.051 127.527,288.81 136.636,276.497 145.745,264.184 154.855,252.151 163.964,240.33 173.073,228.508 182.182,217.219 191.291,206.144 200.4,195.069 209.509,184.736 218.618,174.526 227.727,164.317 236.836,155.033 245.945,145.749 255.055,136.602 264.164,128.276 273.273,119.95 282.382,111.905 291.491,104.564 300.6,97.222 309.709,90.3122 318.818,83.9784 327.927,77.6447 337.036,71.8992 346.145,66.5947 355.255,61.29 364.364,56.7339 373.473,52.4771 382.582,48.2203 391.691,44.8753 400.8,41.6821 409.909,38.489 419.018,36.3723 428.127,34.2557 437.236,32.2942 446.345,31.2634 455.455,30.2326 464.564,29.5135 473.673,29.5734 482.782,29.6334 491.891,30.1608 501,31.3116 510.109,32.4626 519.218,34.2332 528.327,36.4686 537.436,38.7039 546.545,41.7058 555.655,45.0146 564.764,48.3232 573.873,52.539 582.982,56.906 592.091,61.2731 601.2,66.6808 610.309,72.0885 619.418,77.6423 628.527,84.072 637.636,90.5016 646.745,97.2177 655.854,104.65 664.964,112.082 674.073,119.935 683.182,128.349 692.291,136.763 701.4,145.727 710.509,155.101 719.618,164.476 728.727,174.52 737.836,184.831 746.945,195.142 756.055,206.221 765.164,217.427 774.273,228.633 783.382,240.676 792.491,252.72 801.6,264.872 810.709,277.678 819.818,290.483 828.927,303.468 838.036,316.902 847.146,330.335 856.255,343.912 865.364,357.681 874.473,371.45 883.582,385.018 892.691,398.435 901.8,411.852 910.909,423.801 920.018,435.164 929.127,446.526 938.236,452.318 947.345,457.182 956.455,462.045"/>
<polyline fill="none" stroke="#00aa7e" stroke-width="1.428" stroke-dasharray="8,8" points="45.5455,371.363 54.6546,366.812 63.7636,362.261 72.8728,356.855 81.9818,346.319 91.091,335.784 100.2,324.757 109.309,312.501 118.418,300.245 127.527,287.932 136.636,275.544 145.745,263.156 154.855,251.047 163.964,239.148 173.073,227.249 182.182,215.88 191.291,204.722 200.4,193.565 209.509,183.138 218.618,172.832 227.727,162.527 236.836,153.134 245.945,143.74 255.055,134.483 264.164,126.045 273.273,117.606 282.382,109.451 291.491,102.004 300.6,94.5576 309.709,87.5499 318.818,81.128 327.927,74.706 337.036,68.8867 346.145,63.5193 355.255,58.1521 364.364,53.5558 373.473,49.2679 382.582,44.9801 391.691,41.6344 400.8,38.4458 409.909,35.2571 419.018,33.1822 428.127,31.1072 437.236,29.1926 446.345,28.2402 455.455,27.2876 464.564,26.6567 473.673,26.8301 482.782,27.0033 491.891,27.6574 501,28.9527 510.109,30.2478 519.218,32.1779 528.327,34.584 537.436,36.9903 546.545,40.178 555.655,43.6787 564.764,47.1792 573.873,51.599 582.982,56.1721 592.091,60.7451 601.2,66.3654 610.309,71.9858 619.418,77.7521 628.527,84.3935 637.636,91.0349 646.745,97.9596 655.854,105.592 664.964,113.225 674.073,121.269 683.182,129.861 692.291,138.454 701.4,147.574 710.509,157.091 719.618,166.607 728.727,176.757 737.836,187.16 746.945,197.564 756.055,208.691 765.164,219.939 774.273,231.188 783.382,243.231 792.491,255.274 801.6,267.42 810.709,280.184 819.818,292.949 828.927,305.883 838.036,319.237 847.146,332.591 856.255,346.076 865.364,359.733 874.473,373.391 883.582,386.834 892.691,400.117 901.8,413.4 910.909,425.216 920.018,436.446 929.127,447.675 938.236,453.395 947.345,458.197 956.455,462.999"/>
<polyline fill="none" stroke="#000000" stroke-width="0.714" points="45.5455,463.431 45.5455,19.5392"/>
<text fill="#000000" x="15.5155" y="241.986" font-size="12" transform="rotate(-90, 15.5155, 241.986)" text-anchor="middle" baseline-shift="0" font-family="Helvetica" font-weight="bold">T [K]</text>
<polyline fill="none" stroke="#000000" stroke-width="0.714" points="40.5405,463.431 45.5455,463.431"/>
<text fill="#000000" x="38.5385" y="463.431" font-size="12" text-anchor="end" baseline-shift="-6" font-family="Helvetica">320</text>
<polyline fill="none" stroke="#000000" stroke-width="0.714" points="40.5405,429.362 45.5455,429.362"/>
<text fill="#000000" x="38.5385" y="429.362" font-size="12" text-anchor="end" baseline-shift="-6" font-family="Helvetica">330</text>
<polyline fill="none" stroke="#000000" stroke-width="0.714" points="40.5405,395.294 45.5455,395.294"/>
<text fill="#000000" x="38.5385" y="395.294" font-size="12" text-anchor="end" baseline-shift="-6" font-family="Helvetica">340</text>
<polyline fill="none" stroke="#000000" stroke-width="0.714" points="40.5405,361.225 45.5455,361.225"/>
<text fill="#000000" x="38.5385" y="361.225" font-size="12" text-anchor="end" baseline-shift="-6" font-family="Helvetica">350</text>
<polyline fill="none" stroke="#000000" stroke-width="0.714" points="40.5405,327.157 45.5455,327.157"/>
<text fill="#000000" x="38.5385" y="327.157" font-size="12" text-anchor="end" baseline-shift="-6" font-family="Helvetica">360</text>
<polyline fill="none" stroke="#000000" stroke-width="0.714" points="40.5405,293.089 45.5455,293.089"/>
<text fill="#000000" x="38.5385" y="293.089" font-size="12" text-anchor="end" baseline-shift="-6" font-family="Helvetica">370</text>
<polyline fill="none" stroke="#000000" stroke-width="0.714" points="40.5405,259.02 45.5455,259.02"/>
<text fill="#000000" x="38.5385" y="259.02" font-size="12" text-anchor="end" baseline-shift="-6" font-family="Helvetica">380</text>
<polyline fill="none" stroke="#000000" stroke-width="0.714" points="40.5405,224.952 45.5455,224.952"/>
<text fill="#000000" x="38.5385" y="224.952" font-size="12" text-anchor="end" baseline-shift="-6" font-family="Helvetica">390</text>
<polyline fill="none" stroke="#000000" stroke-width="0.714" points="40.5405,190.883 45.5455,190.883"/>
<text fill="#000000" x="38.5385" y="190.883" font-size="12" text-anchor="end" baseline-shift="-6" font-family="Helvetica">400</text>
<polyline fill="none" stroke="#000000" stroke-width="0.714" points="40.5405,156.815 45.5455,156.815"/>
<text fill="#000000" x="38.5385" y="156.815" font-size="12" text-anchor="end" baseline-shift="-6" font-family="Helvetica">410</text>
<polyline fill="none" stroke="#000000" stroke-width="0.714" points="40.5405,122.746 45.5455,122.746"/>
<text fill="#000000" x="38.5385" y="122.746" font-size="12" text-anchor="end" baseline-shift="-6" font-family="Helvetica">420</text>
<polyline fill="none" stroke="#000000" stroke-width="0.714" points="40.5405,88.6781 45.5455,88.6781"/>
<text fill="#000000" x="38.5385" y="88.6781" font-size="12" text-anchor="end" baseline-shift="-6" font-family="Helvetica">430</text>
<polyline fill="none" stroke="#000000" stroke-width="0.714" points="40.5405,54.6096 45.5455,54.6096"/>
<text fill="#000000" x="38.5385" y="54.6096" font-size="12" text-anchor="end" baseline-shift="-6" font-family="Helvetica">440</text>
<polyline fill="none" stroke="#000000" stroke-width="0.714" points="40.5405,19.5392 45.5455,19.5392"/>
<text fill="#000000" x="38.5385" y="19.5392" font-size="12" text-anchor="end" baseline-shift="-6" font-family="Helvetica">450</text>
<polyline fill="none" stroke="#000000" stroke-width="0.714" points="45.5455,463.431 982.48,463.431"/>
<text fill="#000000" x="514.013" y="482.469" font-size="12" text-anchor="middle" baseline-shift="-12" font-family="Helvetica" font-weight="bold">Axial position [m]</text>
<polyline fill="none" stroke="#000000" stroke-width="0.714" points="45.5455,468.441 45.5455,463.431"/>
<text fill="#000000" x="45.5455" y="470.445" font-size="12" text-anchor="middle" baseline-shift="-12" font-family="Helvetica">0</text>
<polyline fill="none" stroke="#000000" stroke-width="0.714" points="97.5974,468.441 97.5974,463.431"/>
<text fill="#000000" x="97.5974" y="470.445" font-size="12" text-anchor="middle" baseline-shift="-12" font-family="Helvetica">0.02</text>
<polyline fill="none" stroke="#000000" stroke-width="0.714" points="149.649,468.441 149.649,463.431"/>
<text fill="#000000" x="149.649" y="470.445" font-size="12" text-anchor="middle" baseline-shift="-12" font-family="Helvetica">0.04</text>
<polyline fill="none" stroke="#000000" stroke-width="0.714" points="201.701,468.441 201.701,463.431"/>
<text fill="#000000" x="201.701" y="470.445" font-size="12" text-anchor="middle" baseline-shift="-12" font-family="Helvetica">0.06</text>
<polyline fill="none" stroke="#000000" stroke-width="0.714" points="253.753,468.441 253.753,463.431"/>
<text fill="#000000" x="253.753" y="470.445" font-size="12" text-anchor="middle" baseline-shift="-12" font-family="Helvetica">0.08</text>
<polyline fill="none" stroke="#000000" stroke-width="0.714" points="305.805,468.441 305.805,463.431"/>
<text fill="#000000" x="305.805" y="470.445" font-size="12" text-anchor="middle" baseline-shift="-12" font-family="Helvetica">0.1</text>
<polyline fill="none" stroke="#000000" stroke-width="0.714" points="357.857,468.441 357.857,463.431"/>
<text fill="#000000" x="357.857" y="470.445" font-size="12" text-anchor="middle" baseline-shift="-12" font-family="Helvetica">0.12</text>
<polyline fill="none" stroke="#000000" stroke-width="0.714" points="409.909,468.441 409.909,463.431"/>
<text fill="#000000" x="409.909" y="470.445" font-size="12" text-anchor="middle" baseline-shift="-12" font-family="Helvetica">0.14</text>
<polyline fill="none" stroke="#000000" stroke-width="0.714" points="461.961,468.441 461.961,463.431"/>
<text fill="#000000" x="461.961" y="470.445" font-size="12" text-anchor="middle" baseline-shift="-12" font-family="Helvetica">0.16</text>
<polyline fill="none" stroke="#000000" stroke-width="0.714" points="514.013,468.441 514.013,463.431"/>
<text fill="#000000" x="514.013" y="470.445" font-size="12" text-anchor="middle" baseline-shift="-12" font-family="Helvetica">0.18</text>
<polyline fill="none" stroke="#000000" stroke-width="0.714" points="566.065,468.441 566.065,463.431"/>
<text fill="#000000" x="566.065" y="470.445" font-size="12" text-anchor="middle" baseline-shift="-12" font-family="Helvetica">0.2</text>
<polyline fill="none" stroke="#000000" stroke-width="0.714" points="618.117,468.441 618.117,463.431"/>
<text fill="#000000" x="618.117" y="470.445" font-size="12" text-anchor="middle" baseline-shift="-12" font-family="Helvetica">0.22</text>
<polyline fill="none" stroke="#000000" stroke-width="0.714" points="670.169,468.441 670.169,463.431"/>
<text fill="#000000" x="670.169" y="470.445" font-size="12" text-anchor="middle" baseline-shift="-12" font-family="Helvetica">0.24</text>
<polyline fill="none" stroke="#000000" stroke-width="0.714" points="722.221,468.441 722.221,463.431"/>
<text fill="#000000" x="722.221" y="470.445" font-size="12" text-anchor="middle" baseline-shift="-12" font-family="Helvetica">0.26</text>
<polyline fill="none" stroke="#000000" stroke-width="0.714" points="774.273,468.441 774.273,463.431"/>
<text fill="#000000" x="774.273" y="470.445" font-size="12" text-anchor="middle" baseline-shift="-12" font-family="Helvetica">0.28</text>
<polyline fill="none" stroke="#000000" stroke-width="0.714" points="826.325,468.441 826.325,463.431"/>
<text fill="#000000" x="826.325" y="470.445" font-size="12" text-anchor="middle" baseline-shift="-12" font-family="Helvetica">0.3</text>
<polyline fill="none" stroke="#000000" stroke-width="0.714" points="878.377,468.441 878.377,463.431"/>
<text fill="#000000" x="878.377" y="470.445" font-size="12" text-anchor="middle" baseline-shift="-12" font-family="Helvetica">0.32</text>
<polyline fill="none" stroke="#000000" stroke-width="0.714" points="930.429,468.441 930.429,463.431"/>
<text fill="#000000" x="930.429" y="470.445" font-size="12" text-anchor="middle" baseline-shift="-12" font-family="Helvetica">0.34</text>
<polyline fill="none" stroke="#000000" stroke-width="0.714" points="982.48,468.441 982.48,463.431"/>
<text fill="#000000" x="982.48" y="470.445" font-size="12" text-anchor="middle" baseline-shift="-12" font-family="Helvetica">0.36</text>
<polygon fill="#ffffff" points="881.38,58.6177 982.48,58.6177 881.38,19.5392"/>
<polygon fill="#ffffff" points="982.48,58.6177 982.48,19.5392 881.38,19.5392"/>
<polyline fill="none" stroke="#000000" stroke-width="0.714" points="881.38,58.6177 982.48,58.6177 982.48,19.5392 881.38,19.5392 881.38,58.6177"/>
<text fill="#000000" x="911.41" y="36.5735" font-size="12" text-anchor="start" baseline-shift="0" font-family="Helvetica">3.97 kW</text>
<polyline fill="none" stroke="#ff007e" stroke-width="1.428" points="886.385,30.5614 908.407,30.5614"/>
<text fill="#000000" x="911.41" y="53.6076" font-size="12" text-anchor="start" baseline-shift="0" font-family="Helvetica">3.97 kW NC</text>
<polyline fill="none" stroke="#00aa7e" stroke-width="1.428" stroke-dasharray="8,8" points="886.385,47.5956 908.407,47.5956"/>
</g>
</svg>
