<?xml version="1.0" encoding="UTF-8" standalone="no"?>
<svg
   xmlns:dc="http://purl.org/dc/elements/1.1/"
   xmlns:cc="http://creativecommons.org/ns#"
   xmlns:rdf="http://www.w3.org/1999/02/22-rdf-syntax-ns#"
   xmlns:svg="http://www.w3.org/2000/svg"
   xmlns="http://www.w3.org/2000/svg"
   xmlns:sodipodi="http://sodipodi.sourceforge.net/DTD/sodipodi-0.dtd"
   xmlns:inkscape="http://www.inkscape.org/namespaces/inkscape"
   width="599px"
   height="637px"
   viewBox="0 0 599 637"
   id="svg8519"
   version="1.1"
   inkscape:version="0.91 r13725"
   sodipodi:docname="Temp_x_non-coupled_3power_work.svg">
  <metadata
     id="metadata8687">
    <rdf:RDF>
      <cc:Work
         rdf:about="">
        <dc:format>image/svg+xml</dc:format>
        <dc:type
           rdf:resource="http://purl.org/dc/dcmitype/StillImage" />
        <dc:title>ParaView GL2PS Export</dc:title>
      </cc:Work>
    </rdf:RDF>
  </metadata>
  <sodipodi:namedview
     pagecolor="#ffffff"
     bordercolor="#666666"
     borderopacity="1"
     objecttolerance="10"
     gridtolerance="10"
     guidetolerance="10"
     inkscape:pageopacity="0"
     inkscape:pageshadow="2"
     inkscape:window-width="1600"
     inkscape:window-height="853"
     id="namedview8685"
     showgrid="false"
     inkscape:zoom="1.05"
     inkscape:cx="234.78652"
     inkscape:cy="333.98327"
     inkscape:window-x="897"
     inkscape:window-y="267"
     inkscape:window-maximized="1"
     inkscape:current-layer="svg8519" />
  <title
     id="title8521">ParaView GL2PS Export</title>
  <desc
     id="desc8523">
Creator: GL2PS 1.3.8, (C) 1999-2012 C. Geuzaine
For: VTK
CreationDate: Mon Oct 10 11:26:14 2016
</desc>
  <defs
     id="defs8525" />
  <polygon
     points="599,0 599,637 0,637 0,0 "
     id="polygon8527"
     transform="matrix(0.90499558,0,0,0.90017441,54.90765,5.588904)"
     style="fill:#ffffff" />
  <g
     id="g8529"
     transform="matrix(0.90499558,0,0,0.93367706,54.90765,6.655964)"
     style="shape-rendering:crispEdges">
    <polyline
       points="39.566,613.463 39.566,19.5307"
       id="polyline8531"
       transform="translate(0,-24)"
       style="fill:none;stroke:#f2f2f2;stroke-width:0.77674174" />
    <polyline
       points="96.6614,613.463 96.6614,19.5307"
       id="polyline8533"
       transform="translate(0,-24)"
       style="fill:none;stroke:#f2f2f2;stroke-width:0.77674174" />
    <polyline
       points="152.755,613.463 152.755,19.5307"
       id="polyline8535"
       transform="translate(0,-24)"
       style="fill:none;stroke:#f2f2f2;stroke-width:0.77674174" />
    <polyline
       points="209.85,613.463 209.85,19.5307"
       id="polyline8537"
       transform="translate(0,-24)"
       style="fill:none;stroke:#f2f2f2;stroke-width:0.77674174" />
    <polyline
       points="265.944,613.463 265.944,19.5307"
       id="polyline8539"
       transform="translate(0,-24)"
       style="fill:none;stroke:#f2f2f2;stroke-width:0.77674174" />
    <polyline
       points="323.039,613.463 323.039,19.5307"
       id="polyline8541"
       transform="translate(0,-24)"
       style="fill:none;stroke:#f2f2f2;stroke-width:0.77674174" />
    <polyline
       points="379.133,613.463 379.133,19.5307"
       id="polyline8543"
       transform="translate(0,-24)"
       style="fill:none;stroke:#f2f2f2;stroke-width:0.77674174" />
    <polyline
       points="436.228,613.463 436.228,19.5307"
       id="polyline8545"
       transform="translate(0,-24)"
       style="fill:none;stroke:#f2f2f2;stroke-width:0.77674174" />
    <polyline
       points="492.322,613.463 492.322,19.5307"
       id="polyline8547"
       transform="translate(0,-24)"
       style="fill:none;stroke:#f2f2f2;stroke-width:0.77674174" />
    <polyline
       points="549.417,613.463 549.417,19.5307"
       id="polyline8549"
       transform="translate(0,-24)"
       style="fill:none;stroke:#f2f2f2;stroke-width:0.77674174" />
    <polyline
       points="35.5594,612.461 579.467,612.461"
       id="polyline8551"
       transform="translate(0,-24)"
       style="fill:none;stroke:#f2f2f2;stroke-width:0.77674174" />
    <polyline
       points="35.5594,558.377 579.467,558.377"
       id="polyline8553"
       transform="translate(0,-24)"
       style="fill:none;stroke:#f2f2f2;stroke-width:0.77674174" />
    <polyline
       points="35.5594,504.292 579.467,504.292"
       id="polyline8555"
       transform="translate(0,-24)"
       style="fill:none;stroke:#f2f2f2;stroke-width:0.77674174" />
    <polyline
       points="35.5594,450.207 579.467,450.207"
       id="polyline8557"
       transform="translate(0,-24)"
       style="fill:none;stroke:#f2f2f2;stroke-width:0.77674174" />
    <polyline
       points="35.5594,396.122 579.467,396.122"
       id="polyline8559"
       transform="translate(0,-24)"
       style="fill:none;stroke:#f2f2f2;stroke-width:0.77674174" />
    <polyline
       points="35.5594,342.037 579.467,342.037"
       id="polyline8561"
       transform="translate(0,-24)"
       style="fill:none;stroke:#f2f2f2;stroke-width:0.77674174" />
    <polyline
       points="35.5594,287.952 579.467,287.952"
       id="polyline8563"
       transform="translate(0,-24)"
       style="fill:none;stroke:#f2f2f2;stroke-width:0.77674174" />
    <polyline
       points="35.5594,233.867 579.467,233.867"
       id="polyline8565"
       transform="translate(0,-24)"
       style="fill:none;stroke:#f2f2f2;stroke-width:0.77674174" />
    <polyline
       points="35.5594,179.782 579.467,179.782"
       id="polyline8567"
       transform="translate(0,-24)"
       style="fill:none;stroke:#f2f2f2;stroke-width:0.77674174" />
    <polyline
       points="35.5594,125.697 579.467,125.697"
       id="polyline8569"
       transform="translate(0,-24)"
       style="fill:none;stroke:#f2f2f2;stroke-width:0.77674174" />
    <polyline
       points="35.5594,71.6125 579.467,71.6125"
       id="polyline8571"
       transform="translate(0,-24)"
       style="fill:none;stroke:#f2f2f2;stroke-width:0.77674174" />
    <polyline
       points="40.2415,584.495 45.4511,582.156 50.6607,578.604 55.8702,572.97 61.0798,564.924 66.2894,554.761 71.4989,541.558 76.7085,523.358 81.918,491.646 87.1276,430.674 92.3372,311.754 97.5468,310.605 102.756,301.01 107.966,287.913 113.175,272.374 118.385,257.584 123.595,244.723 128.804,231.224 134.014,217.953 139.223,206.198 144.433,195.521 149.642,183.142 154.852,171.825 160.062,161.368 165.271,153.783 170.481,146.239 175.69,138.777 180.9,131.295 186.109,123.79 191.319,116.523 196.528,109.607 201.738,102.75 206.948,96.2529 212.157,89.7556 217.367,83.6276 222.576,77.6935 227.786,71.7596 232.995,66.5441 238.205,61.3888 243.415,56.2336 248.624,52.3124 253.834,48.5003 259.043,44.6881 264.253,41.8797 269.462,39.6937 274.672,37.5076 279.882,35.3214 285.091,34.5768 290.301,33.849 295.51,33.1209 300.72,32.393 305.929,32.923 311.139,33.4532 316.349,33.9831 321.558,34.5284 326.768,36.3918 331.977,38.2548 337.187,40.1178 342.396,42.6145 347.606,46.1332 352.815,49.652 358.025,53.2513 363.235,57.7662 368.444,62.2809 373.654,66.8433 378.863,71.9727 384.073,77.1021 389.282,82.9474 394.492,90.1555 399.702,97.3635 404.911,105.357 410.121,113.479 415.33,121.289 420.54,128.887 425.749,136.747 430.959,144.833 436.169,153.261 441.378,161.863 446.588,172.285 451.797,183.481 457.007,195.676 462.216,207.17 467.426,218.707 472.635,230.718 477.845,242.992 483.055,255.337 488.264,270.053 493.474,286.635 498.683,300.122 503.893,310.505 509.102,311.676 514.312,430.633 519.522,491.62 524.731,523.338 529.941,541.542 535.15,554.747 540.36,564.913 545.569,572.961 550.779,578.597 555.989,582.149 561.198,584.488"
       id="polyline8573"
       transform="translate(0,-24)"
       style="fill:none;stroke:#000000;stroke-width:1.55348349" />
    <polyline
       points="40.2415,605.206 45.4511,604.625 50.6607,603.742 55.8702,602.341 61.0798,600.341 66.2894,597.814 71.4989,594.532 76.7085,590.008 81.918,582.125 87.1276,566.967 92.3372,537.406 97.5468,537.124 102.756,534.744 107.966,531.494 113.175,527.64 118.385,523.972 123.595,520.785 128.804,517.441 134.014,514.156 139.223,511.248 144.433,508.608 149.642,505.549 154.852,502.755 160.062,500.174 165.271,498.305 170.481,496.446 175.69,494.609 180.9,492.768 186.109,490.922 191.319,489.135 196.528,487.438 201.738,485.755 206.948,484.162 212.157,482.569 217.367,481.068 222.576,479.616 227.786,478.164 232.995,476.89 238.205,475.631 243.415,474.372 248.624,473.416 253.834,472.486 259.043,471.557 264.253,470.873 269.462,470.34 274.672,469.808 279.882,469.276 285.091,469.095 290.301,468.918 295.51,468.741 300.72,468.564 305.929,468.693 311.139,468.822 316.349,468.951 321.558,469.083 326.768,469.537 331.977,469.99 337.187,470.444 342.396,471.052 347.606,471.909 352.815,472.767 358.025,473.644 363.235,474.746 368.444,475.848 373.654,476.962 378.863,478.217 384.073,479.471 389.282,480.902 394.492,482.668 399.702,484.434 404.911,486.395 410.121,488.388 415.33,490.307 420.54,492.175 425.749,494.109 430.959,496.1 436.169,498.177 441.378,500.297 446.588,502.869 451.797,505.633 457.007,508.646 462.216,511.488 467.426,514.342 472.635,517.316 477.845,520.356 483.055,523.415 488.264,527.064 493.474,531.177 498.683,534.523 503.893,537.099 509.102,537.387 514.312,566.957 519.522,582.118 524.731,590.003 529.941,594.528 535.15,597.811 540.36,600.339 545.569,602.339 550.779,603.74 555.989,604.623 561.198,605.205"
       id="polyline8575"
       transform="translate(0,-24)"
       style="fill:none;stroke:#0000ff;stroke-width:1.55348349" />
    <polyline
       points="40.2415,598.328 45.4511,597.163 50.6607,595.394 55.8702,592.588 61.0798,588.58 66.2894,583.517 71.4989,576.941 76.7085,567.875 81.918,552.078 87.1276,521.706 92.3372,462.471 97.5468,461.903 102.756,457.13 107.966,450.614 113.175,442.884 118.385,435.53 123.595,429.137 128.804,422.432 134.014,415.843 139.223,410.01 144.433,404.714 149.642,398.58 154.852,392.975 160.062,387.798 165.271,384.048 170.481,380.319 175.69,376.632 180.9,372.938 186.109,369.234 191.319,365.65 196.528,362.243 201.738,358.865 206.948,355.669 212.157,352.473 217.367,349.461 222.576,346.547 227.786,343.632 232.995,341.075 238.205,338.547 243.415,336.02 248.624,334.1 253.834,332.234 259.043,330.369 264.253,328.995 269.462,327.927 274.672,326.858 279.882,325.79 285.091,325.426 290.301,325.071 295.51,324.716 300.72,324.36 305.929,324.619 311.139,324.878 316.349,325.137 321.558,325.403 326.768,326.314 331.977,327.224 337.187,328.134 342.396,329.355 347.606,331.077 352.815,332.798 358.025,334.56 363.235,336.772 368.444,338.984 373.654,341.22 378.863,343.738 384.073,346.256 389.282,349.127 394.492,352.671 399.702,356.215 404.911,360.151 410.121,364.151 415.33,368.002 420.54,371.75 425.749,375.63 430.959,379.624 436.169,383.791 441.378,388.044 446.588,393.203 451.797,398.748 457.007,404.791 462.216,410.492 467.426,416.217 472.635,422.18 477.845,428.277 483.055,434.412 488.264,441.729 493.474,449.977 498.683,456.688 503.893,461.853 509.102,462.431 514.312,521.685 519.522,552.065 524.731,567.865 529.941,576.932 535.15,583.511 540.36,588.574 545.569,592.583 550.779,595.391 555.989,597.16 561.198,598.326"
       id="polyline8577"
       transform="translate(0,-24)"
       style="fill:none;stroke:#e2191c;stroke-width:1.55348349" />
    <polyline
       points="35.5594,613.463 35.5594,19.5307"
       id="polyline8579"
       transform="translate(0,-24)"
       style="fill:none;stroke:#000000;stroke-width:0.77674174" />
    <polyline
       points="30.551,612.461 35.5594,612.461"
       id="polyline8581"
       style="fill:none;stroke:#000000;stroke-width:0.77674174"
       transform="translate(0,-24)" />
    <text
       x="28.547701"
       y="588.461"
       font-size="12"
       baseline-shift="-6"
       id="text8583"
       style="font-size:25px;font-family:Helvetica;baseline-shift:-6px;text-anchor:end;fill:#000000">300</text>
    <polyline
       points="30.551,558.377 35.5594,558.377"
       id="polyline8585"
       style="fill:none;stroke:#000000;stroke-width:0.77674174"
       transform="translate(0,-24)" />
    <text
       x="28.547701"
       y="534.37701"
       font-size="12"
       baseline-shift="-6"
       id="text8587"
       style="font-size:25px;font-family:Helvetica;baseline-shift:-6px;text-anchor:end;fill:#000000">320</text>
    <polyline
       points="30.551,504.292 35.5594,504.292"
       id="polyline8589"
       style="fill:none;stroke:#000000;stroke-width:0.77674174"
       transform="translate(0,-24)" />
    <text
       x="28.547701"
       y="480.29199"
       font-size="12"
       baseline-shift="-6"
       id="text8591"
       style="font-size:25px;font-family:Helvetica;baseline-shift:-6px;text-anchor:end;fill:#000000">340</text>
    <polyline
       points="30.551,450.207 35.5594,450.207"
       id="polyline8593"
       style="fill:none;stroke:#000000;stroke-width:0.77674174"
       transform="translate(0,-24)" />
    <text
       x="28.547701"
       y="426.207"
       font-size="12"
       baseline-shift="-6"
       id="text8595"
       style="font-size:25px;font-family:Helvetica;baseline-shift:-6px;text-anchor:end;fill:#000000">360</text>
    <polyline
       points="30.551,396.122 35.5594,396.122"
       id="polyline8597"
       style="fill:none;stroke:#000000;stroke-width:0.77674174"
       transform="translate(0,-24)" />
    <text
       x="28.547701"
       y="372.12201"
       font-size="12"
       baseline-shift="-6"
       id="text8599"
       style="font-size:25px;font-family:Helvetica;baseline-shift:-6px;text-anchor:end;fill:#000000">380</text>
    <polyline
       points="30.551,342.037 35.5594,342.037"
       id="polyline8601"
       style="fill:none;stroke:#000000;stroke-width:0.77674174"
       transform="translate(0,-24)" />
    <text
       x="28.547701"
       y="318.03699"
       font-size="12"
       baseline-shift="-6"
       id="text8603"
       style="font-size:25px;font-family:Helvetica;baseline-shift:-6px;text-anchor:end;fill:#000000">400</text>
    <polyline
       points="30.551,287.952 35.5594,287.952"
       id="polyline8605"
       style="fill:none;stroke:#000000;stroke-width:0.77674174"
       transform="translate(0,-24)" />
    <text
       x="28.547701"
       y="263.952"
       font-size="12"
       baseline-shift="-6"
       id="text8607"
       style="font-size:25px;font-family:Helvetica;baseline-shift:-6px;text-anchor:end;fill:#000000">420</text>
    <polyline
       points="30.551,233.867 35.5594,233.867"
       id="polyline8609"
       style="fill:none;stroke:#000000;stroke-width:0.77674174"
       transform="translate(0,-24)" />
    <text
       x="28.547701"
       y="209.867"
       font-size="12"
       baseline-shift="-6"
       id="text8611"
       style="font-size:25px;font-family:Helvetica;baseline-shift:-6px;text-anchor:end;fill:#000000">440</text>
    <polyline
       points="30.551,179.782 35.5594,179.782"
       id="polyline8613"
       style="fill:none;stroke:#000000;stroke-width:0.77674174"
       transform="translate(0,-24)" />
    <text
       x="28.547701"
       y="155.782"
       font-size="12"
       baseline-shift="-6"
       id="text8615"
       style="font-size:25px;font-family:Helvetica;baseline-shift:-6px;text-anchor:end;fill:#000000">460</text>
    <polyline
       points="30.551,125.697 35.5594,125.697"
       id="polyline8617"
       style="fill:none;stroke:#000000;stroke-width:0.77674174"
       transform="translate(0,-24)" />
    <text
       x="28.547701"
       y="101.697"
       font-size="12"
       baseline-shift="-6"
       id="text8619"
       style="font-size:25px;font-family:Helvetica;baseline-shift:-6px;text-anchor:end;fill:#000000">480</text>
    <polyline
       points="30.551,71.6125 35.5594,71.6125"
       id="polyline8621"
       style="fill:none;stroke:#000000;stroke-width:0.77674174"
       transform="translate(0,-24)" />
    <text
       x="28.547701"
       y="47.612503"
       font-size="12"
       baseline-shift="-6"
       id="text8623"
       style="font-size:25px;font-family:Helvetica;baseline-shift:-6px;text-anchor:end;fill:#000000">500</text>
    <polyline
       points="35.5594,613.463 579.467,613.463"
       id="polyline8625"
       transform="translate(0,-24)"
       style="fill:none;stroke:#000000;stroke-width:0.77674174" />
    <polyline
       points="39.566,618.471 39.566,613.463"
       id="polyline8627"
       transform="translate(0,-24)"
       style="fill:none;stroke:#000000;stroke-width:0.77674174" />
    <text
       x="39.566002"
       y="628.60535"
       font-size="12"
       baseline-shift="-12"
       id="text8629"
       style="font-size:25px;font-family:Helvetica;baseline-shift:-12px;text-anchor:middle;fill:#000000">0</text>
    <polyline
       points="96.6614,618.471 96.6614,613.463"
       id="polyline8631"
       transform="translate(0,-24)"
       style="fill:none;stroke:#000000;stroke-width:0.77674174" />
    <text
       x="96.6614"
       y="628.60535"
       font-size="12"
       baseline-shift="-12"
       id="text8633"
       style="font-size:25px;font-family:Helvetica;baseline-shift:-12px;text-anchor:middle;fill:#000000">0.5</text>
    <polyline
       points="152.755,618.471 152.755,613.463"
       id="polyline8635"
       transform="translate(0,-24)"
       style="fill:none;stroke:#000000;stroke-width:0.77674174" />
    <text
       x="152.755"
       y="628.60535"
       font-size="12"
       baseline-shift="-12"
       id="text8637"
       style="font-size:25px;font-family:Helvetica;baseline-shift:-12px;text-anchor:middle;fill:#000000">1.0</text>
    <polyline
       points="209.85,618.471 209.85,613.463"
       id="polyline8639"
       transform="translate(0,-24)"
       style="fill:none;stroke:#000000;stroke-width:0.77674174" />
    <text
       x="209.85001"
       y="628.60535"
       font-size="12"
       baseline-shift="-12"
       id="text8641"
       style="font-size:25px;font-family:Helvetica;baseline-shift:-12px;text-anchor:middle;fill:#000000">1.5</text>
    <polyline
       points="265.944,618.471 265.944,613.463"
       id="polyline8643"
       transform="translate(0,-24)"
       style="fill:none;stroke:#000000;stroke-width:0.77674174" />
    <text
       x="265.944"
       y="628.60535"
       font-size="12"
       baseline-shift="-12"
       id="text8645"
       style="font-size:25px;font-family:Helvetica;baseline-shift:-12px;text-anchor:middle;fill:#000000">2.0</text>
    <polyline
       points="323.039,618.471 323.039,613.463"
       id="polyline8647"
       transform="translate(0,-24)"
       style="fill:none;stroke:#000000;stroke-width:0.77674174" />
    <text
       x="323.039"
       y="628.60535"
       font-size="12"
       baseline-shift="-12"
       id="text8649"
       style="font-size:25px;font-family:Helvetica;baseline-shift:-12px;text-anchor:middle;fill:#000000">2.5</text>
    <polyline
       points="379.133,618.471 379.133,613.463"
       id="polyline8651"
       transform="translate(0,-24)"
       style="fill:none;stroke:#000000;stroke-width:0.77674174" />
    <text
       x="379.133"
       y="628.60535"
       font-size="12"
       baseline-shift="-12"
       id="text8653"
       style="font-size:25px;font-family:Helvetica;baseline-shift:-12px;text-anchor:middle;fill:#000000">3.0</text>
    <polyline
       points="436.228,618.471 436.228,613.463"
       id="polyline8655"
       transform="translate(0,-24)"
       style="fill:none;stroke:#000000;stroke-width:0.77674174" />
    <text
       x="436.228"
       y="628.60535"
       font-size="12"
       baseline-shift="-12"
       id="text8657"
       style="font-size:25px;font-family:Helvetica;baseline-shift:-12px;text-anchor:middle;fill:#000000">3.5</text>
    <polyline
       points="492.322,618.471 492.322,613.463"
       id="polyline8659"
       transform="translate(0,-24)"
       style="fill:none;stroke:#000000;stroke-width:0.77674174" />
    <text
       x="492.32199"
       y="628.60535"
       font-size="12"
       baseline-shift="-12"
       id="text8661"
       style="font-size:25px;font-family:Helvetica;baseline-shift:-12px;text-anchor:middle;fill:#000000">4.0</text>
    <polyline
       points="549.417,618.471 549.417,613.463"
       id="polyline8663"
       transform="translate(0,-24)"
       style="fill:none;stroke:#000000;stroke-width:0.77674174" />
    <text
       x="549.41699"
       y="628.60535"
       font-size="12"
       baseline-shift="-12"
       id="text8665"
       style="font-size:25px;font-family:Helvetica;baseline-shift:-12px;text-anchor:middle;fill:#000000">4.5</text>
    <polygon
       points="483.307,19.5307 483.307,75.6188 579.467,75.6188 "
       id="polygon8667"
       transform="translate(-70,-24)"
       style="fill:#ffffff" />
    <polygon
       points="483.307,19.5307 579.467,75.6188 579.467,19.5307 "
       id="polygon8669"
       transform="translate(-70,-24)"
       style="fill:#ffffff" />
    <polyline
       points="483.307,75.6188 579.467,75.6188 579.467,19.5307 483.307,19.5307 483.307,75.6188"
       id="polyline8671"
       transform="matrix(1.8715898,0,0,1.390621,-489.43719,-17.631315)"
       style="fill:none;fill-opacity:1;stroke:#000000;stroke-width:0.67432415;stroke-miterlimit:4;stroke-dasharray:none" />
    <text
       x="451.35699"
       y="32.5574"
       font-size="12"
       baseline-shift="0"
       id="text8673"
       style="font-size:25px;font-family:Helvetica;baseline-shift:0px;text-anchor:start;fill:#000000">T - 7.93 kW</text>
    <polyline
       points="488.315,30.548 510.352,30.548"
       id="polyline8675"
       transform="translate(-62,-4)"
       style="fill:none;stroke:#000000;stroke-width:2.17574715;stroke-miterlimit:4;stroke-dasharray:none" />
    <text
       x="451.35699"
       y="57.584202"
       font-size="12"
       baseline-shift="0"
       id="text8677"
       style="font-size:25px;font-family:Helvetica;baseline-shift:0px;text-anchor:start;fill:#000000">T - 1.98 kW</text>
    <polyline
       points="488.315,47.5747 510.352,47.5747"
       id="polyline8679"
       transform="translate(-62,4)"
       style="fill:none;stroke:#0000ff;stroke-width:2.17574715;stroke-miterlimit:4;stroke-dasharray:none" />
    <text
       x="451.35699"
       y="82.610802"
       font-size="12"
       baseline-shift="0"
       id="text8681"
       style="font-size:25px;font-family:Helvetica;baseline-shift:0px;text-anchor:start;fill:#000000">T - 3.97 kW</text>
    <polyline
       points="488.315,64.6014 510.352,64.6014"
       id="polyline8683"
       transform="translate(-62,12)"
       style="fill:none;stroke:#e2191c;stroke-width:2.17574715;stroke-miterlimit:4;stroke-dasharray:none" />
    <text
       xml:space="preserve"
       style="font-style:normal;font-weight:normal;font-size:27.19683838px;line-height:125%;font-family:sans-serif;letter-spacing:0px;word-spacing:0px;fill:#000000;fill-opacity:1;stroke:none;stroke-width:1px;stroke-linecap:butt;stroke-linejoin:miter;stroke-opacity:1"
       x="144.06242"
       y="678.79291"
       id="text9275"
       sodipodi:linespacing="125%"
       transform="scale(1.0157226,0.98452077)"><tspan
         sodipodi:role="line"
         id="tspan9277"
         x="144.06242"
         y="678.79291">Axial coordinate [cm]</tspan></text>
    <text
       xml:space="preserve"
       style="font-style:normal;font-weight:normal;font-size:27.19683838px;line-height:125%;font-family:sans-serif;letter-spacing:0px;word-spacing:0px;writing-mode:lr-tb;fill:#000000;fill-opacity:1;stroke:none;stroke-width:1px;stroke-linecap:butt;stroke-linejoin:miter;stroke-opacity:1"
       x="-428.03342"
       y="-35.65123"
       id="text9287"
       sodipodi:linespacing="125%"
       transform="matrix(-0.00422583,-0.98451226,1.0157138,-0.00409601,0,0)"><tspan
         sodipodi:role="line"
         id="tspan9289"
         x="-428.03342"
         y="-35.65123">Temperature [K]</tspan></text>
    <path
       style="fill:none;fill-rule:evenodd;stroke:#000000;stroke-width:1.08787358px;stroke-linecap:butt;stroke-linejoin:miter;stroke-opacity:1"
       d="M 92.9728,512.93479 Z"
       id="path32585"
       inkscape:connector-curvature="0" />
  </g>
  <text
     xml:space="preserve"
     style="font-style:normal;font-weight:normal;font-size:30px;line-height:125%;font-family:sans-serif;letter-spacing:0px;word-spacing:0px;writing-mode:lr-tb;fill:#000000;fill-opacity:1;stroke:none;stroke-width:1px;stroke-linecap:butt;stroke-linejoin:miter;stroke-opacity:1"
     x="158.09525"
     y="97"
     id="text32687"
     sodipodi:linespacing="125%"><tspan
       sodipodi:role="line"
       id="tspan32689"
       x="158.09525"
       y="97"></tspan></text>
  <path
     style="fill:none;fill-rule:evenodd;stroke:#000000;stroke-width:1;stroke-linecap:butt;stroke-linejoin:miter;stroke-opacity:1;stroke-miterlimit:4;stroke-dasharray:1,2;stroke-dashoffset:0"
     d="m 138.28571,556.04762 0,-557.1428581"
     id="path32691"
     inkscape:connector-curvature="0" />
  <path
     style="fill:none;fill-rule:evenodd;stroke:#000000;stroke-width:1;stroke-linecap:butt;stroke-linejoin:miter;stroke-miterlimit:4;stroke-dasharray:1, 2;stroke-dashoffset:0;stroke-opacity:1"
     d="m 143.80953,557.66667 0,-557.1428571"
     id="path32691-6"
     inkscape:connector-curvature="0" />
  <path
     style="fill:none;fill-rule:evenodd;stroke:#000000;stroke-width:1;stroke-linecap:butt;stroke-linejoin:miter;stroke-miterlimit:4;stroke-dasharray:1, 2;stroke-dashoffset:0;stroke-opacity:1"
     d="m 510.38095,555.66667 0,-461.904766"
     id="path32691-2"
     inkscape:connector-curvature="0" />
  <path
     style="fill:none;fill-rule:evenodd;stroke:#000000;stroke-width:1;stroke-linecap:butt;stroke-linejoin:miter;stroke-miterlimit:4;stroke-dasharray:1, 2;stroke-dashoffset:0;stroke-opacity:1"
     d="m 516.09524,556.14286 0,-460.000004"
     id="path32691-4"
     inkscape:connector-curvature="0" />
</svg>
