<?xml version="1.0" encoding="UTF-8" standalone="no"?>
<svg xmlns="http://www.w3.org/2000/svg"
     xmlns:xlink="http://www.w3.org/1999/xlink"
     width="600px" height="637px" viewBox="0 0 600 637">
<title>ParaView GL2PS Export</title>
<desc>
Creator: GL2PS 1.3.8, (C) 1999-2012 C. Geuzaine
For: VTK
CreationDate: Sun Oct  9 16:07:39 2016
</desc>
<defs>
</defs>
<polygon fill="#ffffff" points="0,0 600,0 600,637 0,637"/>
<g shape-rendering="crispEdges">
<polyline fill="none" stroke="#f2f2f2" stroke-width="0.714" points="56.5943,599.441 56.5943,19.5307"/>
<polyline fill="none" stroke="#f2f2f2" stroke-width="0.714" points="112.688,599.441 112.688,19.5307"/>
<polyline fill="none" stroke="#f2f2f2" stroke-width="0.714" points="169.783,599.441 169.783,19.5307"/>
<polyline fill="none" stroke="#f2f2f2" stroke-width="0.714" points="225.876,599.441 225.876,19.5307"/>
<polyline fill="none" stroke="#f2f2f2" stroke-width="0.714" points="282.972,599.441 282.972,19.5307"/>
<polyline fill="none" stroke="#f2f2f2" stroke-width="0.714" points="339.065,599.441 339.065,19.5307"/>
<polyline fill="none" stroke="#f2f2f2" stroke-width="0.714" points="395.159,599.441 395.159,19.5307"/>
<polyline fill="none" stroke="#f2f2f2" stroke-width="0.714" points="452.254,599.441 452.254,19.5307"/>
<polyline fill="none" stroke="#f2f2f2" stroke-width="0.714" points="508.347,599.441 508.347,19.5307"/>
<polyline fill="none" stroke="#f2f2f2" stroke-width="0.714" points="565.442,599.441 565.442,19.5307"/>
<polyline fill="none" stroke="#f2f2f2" stroke-width="0.714" points="51.586,595.435 580.467,595.435"/>
<polyline fill="none" stroke="#f2f2f2" stroke-width="0.714" points="51.586,542.351 580.467,542.351"/>
<polyline fill="none" stroke="#f2f2f2" stroke-width="0.714" points="51.586,490.27 580.467,490.27"/>
<polyline fill="none" stroke="#f2f2f2" stroke-width="0.714" points="51.586,437.186 580.467,437.186"/>
<polyline fill="none" stroke="#f2f2f2" stroke-width="0.714" points="51.586,385.105 580.467,385.105"/>
<polyline fill="none" stroke="#f2f2f2" stroke-width="0.714" points="51.586,332.021 580.467,332.021"/>
<polyline fill="none" stroke="#f2f2f2" stroke-width="0.714" points="51.586,279.94 580.467,279.94"/>
<polyline fill="none" stroke="#f2f2f2" stroke-width="0.714" points="51.586,226.856 580.467,226.856"/>
<polyline fill="none" stroke="#f2f2f2" stroke-width="0.714" points="51.586,174.774 580.467,174.774"/>
<polyline fill="none" stroke="#f2f2f2" stroke-width="0.714" points="51.586,121.691 580.467,121.691"/>
<polyline fill="none" stroke="#f2f2f2" stroke-width="0.714" points="51.586,69.6093 580.467,69.6093"/>
<polyline fill="none" stroke="#5454ff" stroke-width="1.428" points="57.0474,592.592 62.2459,592.344 67.4443,591.96 72.6428,591.344 77.8412,590.429 83.0396,589.229 88.2381,587.607 93.4365,585.277 98.635,581.024 103.833,572.598 109.032,555.904 114.23,555.744 119.429,554.392 124.627,552.549 129.826,550.37 135.024,548.302 140.222,546.509 145.421,544.633 150.619,542.794 155.818,541.17 161.016,539.699 166.215,538 171.413,536.451 176.612,535.022 181.81,533.99 187.008,532.966 192.207,531.955 197.405,530.943 202.604,529.931 207.802,528.953 213.001,528.025 218.199,527.106 223.398,526.239 228.596,525.371 233.794,524.556 238.993,523.768 244.191,522.98 249.39,522.291 254.588,521.609 259.787,520.929 264.985,520.413 270.184,519.912 275.382,519.411 280.58,519.043 285.779,518.757 290.977,518.471 296.176,518.185 301.374,518.089 306.573,517.994 311.771,517.899 316.969,517.804 322.168,517.874 327.366,517.944 332.565,518.013 337.763,518.085 342.962,518.329 348.16,518.574 353.359,518.818 358.557,519.147 363.755,519.61 368.954,520.073 374.152,520.547 379.351,521.144 384.549,521.741 389.748,522.344 394.946,523.025 400.145,523.706 405.343,524.484 410.541,525.446 415.74,526.408 420.938,527.479 426.137,528.568 431.335,529.619 436.534,530.644 441.732,531.707 446.93,532.802 452.129,533.947 457.327,535.117 462.526,536.541 467.724,538.073 472.923,539.746 478.121,541.329 483.32,542.923 488.518,544.586 493.716,546.291 498.915,548.011 504.113,550.067 509.312,552.391 514.51,554.288 519.709,555.75 524.907,555.913 530.106,572.604 535.304,581.028 540.502,585.28 545.701,587.609 550.899,589.23 556.098,590.43 561.296,591.345 566.495,591.961 571.693,592.344 576.891,592.592"/>
<polyline fill="none" stroke="#ff00ff" stroke-width="1.428" points="57.0474,590.301 62.2459,589.803 67.4443,589.034 72.6428,587.799 77.8412,585.962 83.0396,583.557 88.2381,580.305 93.4365,575.636 98.635,567.118 103.833,550.244 109.032,516.82 114.23,516.498 119.429,513.788 124.627,510.097 129.826,505.733 135.024,501.593 140.222,498.004 145.421,494.25 150.619,490.571 155.818,487.322 161.016,484.38 166.215,480.983 171.413,477.885 176.612,475.028 181.81,472.966 187.008,470.918 192.207,468.899 197.405,466.878 202.604,464.856 207.802,462.902 213.001,461.048 218.199,459.212 223.398,457.48 228.596,455.748 233.794,454.119 238.993,452.545 244.191,450.972 249.39,449.595 254.588,448.235 259.787,446.875 264.985,445.846 270.184,444.846 275.382,443.845 280.58,443.11 285.779,442.539 290.977,441.968 296.176,441.397 301.374,441.204 306.573,441.014 311.771,440.825 316.969,440.636 322.168,440.775 327.366,440.915 332.565,441.054 337.763,441.197 342.962,441.686 348.16,442.174 353.359,442.663 358.557,443.319 363.755,444.244 368.954,445.169 374.152,446.116 379.351,447.308 384.549,448.5 389.748,449.705 394.946,451.065 400.145,452.426 405.343,453.98 410.541,455.901 415.74,457.822 420.938,459.962 426.137,462.139 431.335,464.238 436.534,466.285 441.732,468.409 446.93,470.597 452.129,472.885 457.327,475.224 462.526,478.07 467.724,481.134 472.923,484.479 478.121,487.645 483.32,490.832 488.518,494.161 493.716,497.573 498.915,501.015 504.113,505.131 509.312,509.785 514.51,513.584 519.709,516.514 524.907,516.842 530.106,550.259 535.304,567.127 540.502,575.643 545.701,580.309 550.899,583.56 556.098,585.964 561.296,587.8 566.495,589.035 571.693,589.804 576.891,590.302"/>
<polyline fill="none" stroke="#ff0000" stroke-width="1.428" points="57.0474,589.174 62.2459,588.58 67.4443,587.663 72.6428,586.193 77.8412,584.022 83.0396,581.196 88.2381,577.402 93.4365,571.991 98.635,562.196 103.833,542.887 109.032,504.612 114.23,504.173 119.429,499.471 124.627,492.97 129.826,485.172 135.024,477.685 140.222,471.136 145.421,464.234 150.619,457.429 155.818,451.384 161.016,445.878 166.215,439.489 171.413,433.648 176.612,428.249 181.81,424.33 187.008,420.43 192.207,416.568 197.405,412.696 202.604,408.812 207.802,405.053 213.001,401.479 218.199,397.936 223.398,394.581 228.596,391.225 233.794,388.058 238.993,384.99 244.191,381.922 249.39,379.223 254.588,376.554 259.787,373.885 264.985,371.856 270.184,369.883 275.382,367.91 280.58,366.458 285.779,365.328 290.977,364.199 296.176,363.07 301.374,362.688 306.573,362.314 311.771,361.941 316.969,361.567 322.168,361.847 327.366,362.126 332.565,362.405 337.763,362.693 342.962,363.664 348.16,364.636 353.359,365.608 358.557,366.908 363.755,368.739 368.954,370.569 374.152,372.44 379.351,374.784 384.549,377.128 389.748,379.496 394.946,382.152 400.145,384.809 405.343,387.835 410.541,391.563 415.74,395.292 420.938,399.425 426.137,403.625 431.335,407.666 436.534,411.598 441.732,415.666 446.93,419.85 452.129,424.209 457.327,428.655 462.526,434.038 467.724,439.818 472.923,446.112 478.121,452.037 483.32,457.974 488.518,464.14 493.716,470.42 498.915,476.707 504.113,484.155 509.312,492.469 514.51,499.151 519.709,504.228 524.907,504.678 530.106,542.926 535.304,562.22 540.502,572.008 545.701,577.414 550.899,581.205 556.098,584.029 561.296,586.198 566.495,587.667 571.693,588.583 576.891,589.177"/>
<polyline fill="none" stroke="#00aa00" stroke-width="1.428" points="57.0474,584.488 62.2459,583.415 67.4443,581.76 72.6428,579.108 77.8412,575.197 83.0396,570.111 88.2381,563.29 93.4365,553.575 98.635,536.005 103.833,501.39 109.032,432.707 114.23,431.871 119.429,422.383 124.627,408.93 129.826,392.377 135.024,376.143 140.222,361.699 145.421,346.239 150.619,330.779 155.818,316.848 161.016,303.978 166.215,288.763 171.413,274.693 176.612,261.559 181.81,251.782 187.008,241.962 192.207,232.058 197.405,221.986 202.604,211.72 207.802,201.628 213.001,191.794 218.199,181.978 223.398,172.271 228.596,162.563 233.794,153.004 238.993,143.523 244.191,134.042 249.39,125.012 254.588,116.02 259.787,107.028 264.985,99.562 270.184,92.2305 275.382,84.899 280.58,79.2403 285.779,74.6183 290.977,69.9963 296.176,65.3741 301.374,63.7167 306.573,62.0936 311.771,60.4705 316.969,58.8474 322.168,60.0978 327.366,61.3482 332.565,62.5986 337.763,63.8814 342.962,67.9639 348.16,72.0463 353.359,76.1287 358.557,81.3052 363.755,88.2468 368.954,95.1884 374.152,102.226 379.351,110.349 384.549,118.472 389.748,126.617 394.946,135.037 400.145,143.457 405.343,152.766 410.541,163.766 415.74,174.767 420.938,186.371 426.137,198.074 431.335,209.022 436.534,219.458 441.732,230.063 446.93,240.813 452.129,251.795 457.327,262.894 462.526,275.997 467.724,289.919 472.923,304.895 478.121,318.736 483.32,332.423 488.518,346.446 493.716,360.531 498.915,374.42 504.113,390.57 509.312,408.211 514.51,422.005 519.709,432.217 524.907,433.073 530.106,501.602 535.304,536.136 540.502,553.663 545.701,563.356 550.899,570.161 556.098,575.235 561.296,579.138 566.495,581.785 571.693,583.435 576.891,584.507"/>
<polyline fill="none" stroke="#000000" stroke-width="0.714" points="51.586,599.441 51.586,19.5307"/>
<!--  Pathified string: Temperature [$ K$] -->
<g transform="
     translate(20.53 309.99)
     scale(1.0 -1.0)
     rotate(0.00)"
   stroke="none"
   fill="rgb(0,0,0)"
   opacity="1.00"
>
  <path d="
    M -2.00 0.00
    L -1.00 0.00
    L -1.00 8.20
    L 1.03 8.20
    L 1.03 9.00
    L -4.03 9.00
    L -4.03 8.20
    L -2.00 8.20
    L -2.00 0.00
    M 8.33 3.00
    C 8.33 3.97
      8.22 4.56
      7.89 5.17
    C 7.30 6.30
      6.16 7.00
      4.91 7.00
    C 3.00 7.00
      1.50 5.42
      1.50 3.41
    C 1.50 1.50
      3.03 0.00
      4.97 0.00
    C 5.81 0.00
      6.61 0.30
      7.20 0.84
    C 7.67 1.27
      7.98 1.70
      8.16 2.22
    L 7.23 2.22
    C 6.88 1.38
      5.94 0.81
      4.95 0.81
    C 3.61 0.81
      2.47 1.78
      2.39 3.00
    L 8.33 3.00
    M 2.42 4.00
    C 2.66 5.31
      3.66 6.19
      4.91 6.19
    C 6.17 6.19
      7.14 5.36
      7.44 4.00
    L 2.42 4.00
    M 10.00 0.00
    L 11.00 0.00
    L 11.00 4.02
    C 11.00 5.39
      11.56 6.19
      12.50 6.19
    C 12.95 6.19
      13.38 5.97
      13.66 5.56
    C 13.91 5.20
      14.00 4.73
      14.00 4.02
    L 14.00 0.00
    L 15.00 0.00
    L 15.00 3.98
    C 15.00 4.64
      15.11 5.08
      15.36 5.41
    C 15.70 5.91
      16.33 6.19
      17.03 6.19
    C 17.69 6.19
      18.25 5.95
      18.59 5.53
    C 18.86 5.19
      19.00 4.67
      19.00 3.98
    L 19.00 0.00
    L 20.00 0.00
    L 20.00 4.06
    C 20.00 4.95
      19.83 5.55
      19.41 6.03
    C 18.89 6.66
      18.05 7.00
      17.09 7.00
    C 15.94 7.00
      15.14 6.59
      14.52 5.72
    C 14.05 6.61
      13.45 7.00
      12.56 7.00
    C 11.86 7.00
      11.42 6.75
      11.00 6.09
    L 11.00 7.00
    L 10.00 7.00
    L 10.00 0.00
    M 21.00 7.00
    L 21.00 -2.00
    L 22.00 -2.00
    L 22.00 1.30
    C 22.56 0.45
      23.42 0.00
      24.48 0.00
    C 26.45 0.00
      28.00 1.53
      28.00 3.48
    C 28.00 5.47
      26.48 7.00
      24.52 7.00
    C 23.42 7.00
      22.53 6.55
      22.00 5.70
    L 22.00 7.00
    L 21.00 7.00
    M 24.50 6.19
    C 25.92 6.19
      27.00 5.03
      27.00 3.48
    C 27.00 1.97
      25.91 0.81
      24.48 0.81
    C 23.06 0.81
      22.00 1.98
      22.00 3.53
    C 22.00 5.02
      23.11 6.19
      24.50 6.19
    M 35.33 3.00
    C 35.33 3.97
      35.22 4.56
      34.89 5.17
    C 34.30 6.30
      33.16 7.00
      31.91 7.00
    C 30.00 7.00
      28.50 5.42
      28.50 3.41
    C 28.50 1.50
      30.03 0.00
      31.97 0.00
    C 32.81 0.00
      33.61 0.30
      34.20 0.84
    C 34.67 1.27
      34.98 1.70
      35.16 2.22
    L 34.23 2.22
    C 33.88 1.38
      32.94 0.81
      31.95 0.81
    C 30.61 0.81
      29.47 1.78
      29.39 3.00
    L 35.33 3.00
    M 29.42 4.00
    C 29.66 5.31
      30.66 6.19
      31.91 6.19
    C 33.17 6.19
      34.14 5.36
      34.44 4.00
    L 29.42 4.00
    M 37.00 0.00
    L 38.00 0.00
    L 38.00 4.08
    C 38.00 5.39
      38.62 6.11
      39.86 6.23
    L 39.86 7.00
    C 38.91 7.00
      38.34 6.69
      38.00 6.00
    L 38.00 7.00
    L 37.00 7.00
    L 37.00 0.00
    M 47.00 7.00
    L 46.00 7.00
    L 46.00 5.67
    C 45.38 6.59
      44.59 7.00
      43.48 7.00
    C 41.50 7.00
      40.00 5.48
      40.00 3.48
    C 40.00 1.48
      41.52 0.00
      43.55 0.00
    C 44.62 0.00
      45.33 0.38
      46.00 1.31
    L 46.00 0.00
    L 47.00 0.00
    L 47.00 7.00
    M 43.50 6.19
    C 44.91 6.19
      46.00 5.03
      46.00 3.53
    C 46.00 2.00
      44.92 0.81
      43.55 0.81
    C 42.11 0.81
      41.00 2.00
      41.00 3.55
    C 41.00 5.02
      42.12 6.19
      43.50 6.19
    M 50.00 0.00
    L 51.00 0.00
    L 51.00 6.20
    L 52.47 6.20
    L 52.47 7.00
    L 51.00 7.00
    L 51.00 9.00
    L 50.00 9.00
    L 50.00 7.00
    L 48.58 7.00
    L 48.58 6.20
    L 50.00 6.20
    L 50.00 0.00
    M 59.00 7.00
    L 58.00 7.00
    L 58.00 3.47
    C 58.00 2.62
      57.88 2.09
      57.61 1.67
    C 57.23 1.12
      56.66 0.81
      55.97 0.81
    C 55.23 0.81
      54.61 1.12
      54.31 1.69
    C 54.11 2.03
      54.00 2.58
      54.00 3.30
    L 54.00 7.00
    L 53.00 7.00
    L 53.00 3.31
    C 53.00 2.30
      53.17 1.59
      53.53 1.09
    C 54.05 0.38
      54.88 0.00
      55.89 0.00
    C 56.91 0.00
      57.56 0.36
      58.00 1.19
    L 58.00 0.00
    L 59.00 0.00
    L 59.00 7.00
    M 60.00 0.00
    L 61.00 0.00
    L 61.00 4.08
    C 61.00 5.39
      61.62 6.11
      62.86 6.23
    L 62.86 7.00
    C 61.91 7.00
      61.34 6.69
      61.00 6.00
    L 61.00 7.00
    L 60.00 7.00
    L 60.00 0.00
    M 70.33 3.00
    C 70.33 3.97
      70.22 4.56
      69.89 5.17
    C 69.30 6.30
      68.16 7.00
      66.91 7.00
    C 65.00 7.00
      63.50 5.42
      63.50 3.41
    C 63.50 1.50
      65.03 0.00
      66.97 0.00
    C 67.81 0.00
      68.61 0.30
      69.20 0.84
    C 69.67 1.27
      69.98 1.70
      70.16 2.22
    L 69.23 2.22
    C 68.88 1.38
      67.94 0.81
      66.95 0.81
    C 65.61 0.81
      64.47 1.78
      64.39 3.00
    L 70.33 3.00
    M 64.42 4.00
    C 64.66 5.31
      65.66 6.19
      66.91 6.19
    C 68.17 6.19
      69.14 5.36
      69.44 4.00
    L 64.42 4.00
    M 77.58 -0.47
    C 76.39 0.06
      76.00 0.72
      76.00 2.25
    L 76.00 5.52
    C 76.00 6.92
      76.39 7.58
      77.58 8.09
    L 77.58 9.00
    C 76.91 8.83
      76.42 8.56
      75.94 8.09
    C 75.30 7.47
      75.00 6.72
      75.00 5.67
    L 75.00 2.09
    C 75.00 0.94
      75.25 0.23
      75.84 -0.39
    C 76.33 -0.88
      76.88 -1.19
      77.58 -1.38
    L 77.58 -0.47
    M 81.00 -0.84
    L 82.00 -0.84
    L 82.00 0.23
    C 83.17 0.38
      84.00 1.36
      84.00 2.66
    C 84.00 3.31
      83.75 3.91
      83.28 4.31
    C 82.92 4.64
      82.53 4.83
      81.59 5.11
    C 80.36 5.47
      80.00 5.78
      80.00 6.53
    C 80.00 7.44
      80.64 8.00
      81.64 8.00
    C 82.48 8.00
      83.00 7.45
      83.00 6.55
    L 84.00 6.55
    C 84.00 7.78
      83.23 8.61
      82.00 8.80
    L 82.00 9.84
    L 81.00 9.84
    L 81.00 8.80
    C 79.77 8.58
      79.00 7.73
      79.00 6.61
    C 79.00 6.09
      79.19 5.56
      79.52 5.20
    C 79.86 4.80
      80.25 4.59
      81.23 4.31
    C 81.89 4.12
      82.19 4.00
      82.45 3.80
    C 82.80 3.53
      83.00 3.11
      83.00 2.62
    C 83.00 1.67
      82.36 1.00
      81.48 1.00
    C 80.56 1.00
      80.00 1.62
      79.89 2.67
    L 79.00 2.67
    C 79.00 1.34
      79.69 0.48
      81.00 0.23
    L 81.00 -0.84
    M 89.00 0.00
    L 90.00 0.00
    L 90.00 2.45
    L 91.16 3.89
    L 94.11 0.00
    L 95.22 0.00
    L 91.72 4.61
    L 95.22 9.00
    L 94.11 9.00
    L 90.00 3.83
    L 90.00 9.00
    L 89.00 9.00
    L 89.00 0.00
    M 98.00 -0.84
    L 99.00 -0.84
    L 99.00 0.23
    C 100.17 0.38
      101.00 1.36
      101.00 2.66
    C 101.00 3.31
      100.75 3.91
      100.28 4.31
    C 99.92 4.64
      99.53 4.83
      98.59 5.11
    C 97.36 5.47
      97.00 5.78
      97.00 6.53
    C 97.00 7.44
      97.64 8.00
      98.64 8.00
    C 99.48 8.00
      100.00 7.45
      100.00 6.55
    L 101.00 6.55
    C 101.00 7.78
      100.23 8.61
      99.00 8.80
    L 99.00 9.84
    L 98.00 9.84
    L 98.00 8.80
    C 96.77 8.58
      96.00 7.73
      96.00 6.61
    C 96.00 6.09
      96.19 5.56
      96.52 5.20
    C 96.86 4.80
      97.25 4.59
      98.23 4.31
    C 98.89 4.12
      99.19 4.00
      99.45 3.80
    C 99.80 3.53
      100.00 3.11
      100.00 2.62
    C 100.00 1.67
      99.36 1.00
      98.48 1.00
    C 97.56 1.00
      97.00 1.62
      96.89 2.67
    L 96.00 2.67
    C 96.00 1.34
      96.69 0.48
      98.00 0.23
    L 98.00 -0.84
    M 102.42 7.97
    C 103.61 7.44
      104.00 6.78
      104.00 5.25
    L 104.00 1.98
    C 104.00 0.58
      103.61 -0.08
      102.42 -0.59
    L 102.42 -1.50
    C 103.09 -1.33
      103.58 -1.06
      104.06 -0.59
    C 104.70 0.03
      105.00 0.78
      105.00 1.84
    L 105.00 5.41
    C 105.00 6.56
      104.75 7.27
      104.16 7.89
    C 103.67 8.38
      103.12 8.67
      102.42 8.88
    L 102.42 7.97
    " />
</g>

<polyline fill="none" stroke="#000000" stroke-width="0.714" points="46.5776,595.435 51.586,595.435"/>
<text fill="#000000" x="44.5743" y="595.435" font-size="12" text-anchor="end" baseline-shift="-6" font-family="Helvetica">300</text>
<polyline fill="none" stroke="#000000" stroke-width="0.714" points="46.5776,542.351 51.586,542.351"/>
<text fill="#000000" x="44.5743" y="542.351" font-size="12" text-anchor="end" baseline-shift="-6" font-family="Helvetica">350</text>
<polyline fill="none" stroke="#000000" stroke-width="0.714" points="46.5776,490.27 51.586,490.27"/>
<text fill="#000000" x="44.5743" y="490.27" font-size="12" text-anchor="end" baseline-shift="-6" font-family="Helvetica">400</text>
<polyline fill="none" stroke="#000000" stroke-width="0.714" points="46.5776,437.186 51.586,437.186"/>
<text fill="#000000" x="44.5743" y="437.186" font-size="12" text-anchor="end" baseline-shift="-6" font-family="Helvetica">450</text>
<polyline fill="none" stroke="#000000" stroke-width="0.714" points="46.5776,385.105 51.586,385.105"/>
<text fill="#000000" x="44.5743" y="385.105" font-size="12" text-anchor="end" baseline-shift="-6" font-family="Helvetica">500</text>
<polyline fill="none" stroke="#000000" stroke-width="0.714" points="46.5776,332.021 51.586,332.021"/>
<text fill="#000000" x="44.5743" y="332.021" font-size="12" text-anchor="end" baseline-shift="-6" font-family="Helvetica">550</text>
<polyline fill="none" stroke="#000000" stroke-width="0.714" points="46.5776,279.94 51.586,279.94"/>
<text fill="#000000" x="44.5743" y="279.94" font-size="12" text-anchor="end" baseline-shift="-6" font-family="Helvetica">600</text>
<polyline fill="none" stroke="#000000" stroke-width="0.714" points="46.5776,226.856 51.586,226.856"/>
<text fill="#000000" x="44.5743" y="226.856" font-size="12" text-anchor="end" baseline-shift="-6" font-family="Helvetica">650</text>
<polyline fill="none" stroke="#000000" stroke-width="0.714" points="46.5776,174.774 51.586,174.774"/>
<text fill="#000000" x="44.5743" y="174.774" font-size="12" text-anchor="end" baseline-shift="-6" font-family="Helvetica">700</text>
<polyline fill="none" stroke="#000000" stroke-width="0.714" points="46.5776,121.691 51.586,121.691"/>
<text fill="#000000" x="44.5743" y="121.691" font-size="12" text-anchor="end" baseline-shift="-6" font-family="Helvetica">750</text>
<polyline fill="none" stroke="#000000" stroke-width="0.714" points="46.5776,69.6093 51.586,69.6093"/>
<text fill="#000000" x="44.5743" y="69.6093" font-size="12" text-anchor="end" baseline-shift="-6" font-family="Helvetica">800</text>
<polyline fill="none" stroke="#000000" stroke-width="0.714" points="51.586,599.441 580.467,599.441"/>
<!--  Pathified string: Model width (x axis) [$ m$] -->
<g transform="
     translate(316.03 618.47)
     scale(1.0 -1.0)
     rotate(0.00)"
   stroke="none"
   fill="rgb(0,0,0)"
   opacity="1.00"
>
  <path d="
    M -74.00 -9.00
    L -73.00 -9.00
    L -73.00 -0.98
    L -69.88 -9.00
    L -69.14 -9.00
    L -66.00 -0.98
    L -66.00 -9.00
    L -65.00 -9.00
    L -65.00 0.00
    L -66.47 0.00
    L -69.50 -7.66
    L -72.53 0.00
    L -74.00 0.00
    L -74.00 -9.00
    M -60.48 -2.00
    C -62.47 -2.00
      -64.00 -3.50
      -64.00 -5.45
    C -64.00 -7.52
      -62.48 -9.00
      -60.41 -9.00
    C -58.45 -9.00
      -57.00 -7.52
      -57.00 -5.52
    C -57.00 -3.48
      -58.47 -2.00
      -60.48 -2.00
    M -60.48 -2.81
    C -59.06 -2.81
      -58.00 -3.97
      -58.00 -5.53
    C -58.00 -7.06
      -59.02 -8.19
      -60.44 -8.19
    C -61.94 -8.19
      -63.00 -7.06
      -63.00 -5.48
    C -63.00 -3.95
      -61.92 -2.81
      -60.48 -2.81
    M -48.00 0.00
    L -49.00 0.00
    L -49.00 -3.20
    C -49.75 -2.42
      -50.80 -2.00
      -52.00 -2.00
    C -54.27 -2.00
      -56.00 -3.52
      -56.00 -5.50
    C -56.00 -7.48
      -54.22 -9.00
      -51.89 -9.00
    C -50.62 -9.00
      -49.77 -8.59
      -49.00 -7.64
    L -49.00 -9.00
    L -48.00 -9.00
    L -48.00 0.00
    M -52.05 -2.81
    C -50.38 -2.81
      -49.00 -4.00
      -49.00 -5.48
    C -49.00 -6.95
      -50.31 -8.19
      -51.92 -8.19
    C -53.66 -8.19
      -55.00 -7.00
      -55.00 -5.47
    C -55.00 -4.00
      -53.69 -2.81
      -52.05 -2.81
    M -40.67 -6.00
    C -40.67 -5.03
      -40.78 -4.44
      -41.11 -3.83
    C -41.70 -2.70
      -42.84 -2.00
      -44.09 -2.00
    C -46.00 -2.00
      -47.50 -3.58
      -47.50 -5.59
    C -47.50 -7.50
      -45.97 -9.00
      -44.03 -9.00
    C -43.19 -9.00
      -42.39 -8.70
      -41.80 -8.16
    C -41.33 -7.73
      -41.02 -7.30
      -40.84 -6.78
    L -41.77 -6.78
    C -42.12 -7.62
      -43.06 -8.19
      -44.05 -8.19
    C -45.39 -8.19
      -46.53 -7.22
      -46.61 -6.00
    L -40.67 -6.00
    M -46.58 -5.00
    C -46.34 -3.69
      -45.34 -2.81
      -44.09 -2.81
    C -42.83 -2.81
      -41.86 -3.64
      -41.56 -5.00
    L -46.58 -5.00
    M -39.00 -9.00
    L -38.00 -9.00
    L -38.00 0.00
    L -39.00 0.00
    L -39.00 -9.00
    M -32.41 -9.00
    L -31.45 -9.00
    L -30.03 -4.36
    L -28.61 -9.00
    L -27.66 -9.00
    L -25.11 -2.00
    L -25.97 -2.00
    L -28.11 -7.86
    L -29.66 -2.86
    L -30.39 -2.86
    L -31.94 -7.86
    L -34.03 -2.00
    L -34.92 -2.00
    L -32.41 -9.00
    M -24.00 -9.00
    L -23.00 -9.00
    L -23.00 -2.45
    L -24.00 -2.45
    L -24.00 -9.00
    M -24.00 -1.52
    L -23.00 -1.52
    L -23.00 0.00
    L -24.00 0.00
    L -24.00 -1.52
    M -15.00 0.00
    L -16.00 0.00
    L -16.00 -3.20
    C -16.75 -2.42
      -17.80 -2.00
      -19.00 -2.00
    C -21.27 -2.00
      -23.00 -3.52
      -23.00 -5.50
    C -23.00 -7.48
      -21.22 -9.00
      -18.89 -9.00
    C -17.62 -9.00
      -16.77 -8.59
      -16.00 -7.64
    L -16.00 -9.00
    L -15.00 -9.00
    L -15.00 0.00
    M -19.05 -2.81
    C -17.38 -2.81
      -16.00 -4.00
      -16.00 -5.48
    C -16.00 -6.95
      -17.31 -8.19
      -18.92 -8.19
    C -20.66 -8.19
      -22.00 -7.00
      -22.00 -5.47
    C -22.00 -4.00
      -20.69 -2.81
      -19.05 -2.81
    M -13.00 -9.00
    L -12.00 -9.00
    L -12.00 -2.80
    L -10.53 -2.80
    L -10.53 -2.00
    L -12.00 -2.00
    L -12.00 0.00
    L -13.00 0.00
    L -13.00 -2.00
    L -14.42 -2.00
    L -14.42 -2.80
    L -13.00 -2.80
    L -13.00 -9.00
    M -10.00 -9.00
    L -9.00 -9.00
    L -9.00 -5.23
    C -9.00 -4.48
      -8.91 -4.05
      -8.64 -3.67
    C -8.28 -3.12
      -7.69 -2.81
      -7.02 -2.81
    C -6.39 -2.81
      -5.78 -3.11
      -5.44 -3.56
    C -5.12 -3.97
      -5.00 -4.50
      -5.00 -5.30
    L -5.00 -9.00
    L -4.00 -9.00
    L -4.00 -5.33
    C -4.00 -4.30
      -4.19 -3.59
      -4.58 -3.06
    C -5.09 -2.39
      -5.94 -2.00
      -6.92 -2.00
    C -7.81 -2.00
      -8.56 -2.36
      -9.00 -3.02
    L -9.00 0.00
    L -10.00 0.00
    L -10.00 -9.00
    M 3.45 0.00
    C 2.73 -0.23
      2.30 -0.48
      1.78 -1.00
    C 0.67 -2.08
      0.00 -3.64
      0.00 -5.16
    C 0.00 -6.41
      0.39 -7.58
      1.19 -8.64
    C 1.86 -9.56
      2.52 -10.03
      3.45 -10.38
    L 3.45 -9.59
    C 2.86 -9.22
      2.48 -8.91
      2.14 -8.45
    C 1.42 -7.48
      1.00 -6.30
      1.00 -5.16
    C 1.00 -4.17
      1.30 -3.17
      1.91 -2.25
    C 2.31 -1.59
      2.75 -1.17
      3.45 -0.75
    L 3.45 0.00
    M 3.09 -9.00
    L 4.11 -9.00
    L 5.88 -6.20
    L 7.64 -9.00
    L 8.66 -9.00
    L 6.38 -5.42
    L 8.66 -2.00
    L 7.64 -2.00
    L 5.88 -4.70
    L 4.11 -2.00
    L 3.09 -2.00
    L 5.38 -5.42
    L 3.09 -9.00
    M 19.00 -2.00
    L 18.00 -2.00
    L 18.00 -3.33
    C 17.38 -2.41
      16.59 -2.00
      15.48 -2.00
    C 13.50 -2.00
      12.00 -3.52
      12.00 -5.52
    C 12.00 -7.52
      13.52 -9.00
      15.55 -9.00
    C 16.62 -9.00
      17.33 -8.62
      18.00 -7.69
    L 18.00 -9.00
    L 19.00 -9.00
    L 19.00 -2.00
    M 15.50 -2.81
    C 16.91 -2.81
      18.00 -3.97
      18.00 -5.47
    C 18.00 -7.00
      16.92 -8.19
      15.55 -8.19
    C 14.11 -8.19
      13.00 -7.00
      13.00 -5.45
    C 13.00 -3.98
      14.12 -2.81
      15.50 -2.81
    M 20.09 -9.00
    L 21.11 -9.00
    L 22.88 -6.20
    L 24.64 -9.00
    L 25.66 -9.00
    L 23.38 -5.42
    L 25.66 -2.00
    L 24.64 -2.00
    L 22.88 -4.70
    L 21.11 -2.00
    L 20.09 -2.00
    L 22.38 -5.42
    L 20.09 -9.00
    M 27.00 -9.00
    L 28.00 -9.00
    L 28.00 -2.45
    L 27.00 -2.45
    L 27.00 -9.00
    M 27.00 -1.52
    L 28.00 -1.52
    L 28.00 0.00
    L 27.00 0.00
    L 27.00 -1.52
    M 28.00 -6.89
    C 28.00 -8.17
      28.81 -9.00
      30.05 -9.00
    C 31.19 -9.00
      32.00 -8.16
      32.00 -6.94
    C 32.00 -6.11
      31.62 -5.55
      30.84 -5.22
    C 29.84 -4.80
      29.80 -4.77
      29.61 -4.67
    C 29.19 -4.45
      29.00 -4.17
      29.00 -3.78
    C 29.00 -3.23
      29.45 -2.81
      30.02 -2.81
    C 30.64 -2.81
      31.00 -3.16
      31.00 -3.80
    L 32.00 -3.80
    C 32.00 -2.73
      31.17 -2.00
      30.03 -2.00
    C 28.86 -2.00
      28.00 -2.80
      28.00 -3.88
    C 28.00 -4.36
      28.17 -4.77
      28.50 -5.08
    C 28.78 -5.33
      28.78 -5.33
      29.72 -5.73
    C 30.11 -5.89
      30.41 -6.03
      30.58 -6.14
    C 30.84 -6.33
      31.00 -6.64
      31.00 -7.02
    C 31.00 -7.69
      30.59 -8.19
      30.05 -8.19
    C 29.41 -8.19
      29.00 -7.70
      29.00 -6.89
    L 28.00 -6.89
    M 33.55 -10.38
    C 34.27 -10.14
      34.70 -9.88
      35.22 -9.38
    C 36.33 -8.28
      37.00 -6.72
      37.00 -5.20
    C 37.00 -3.95
      36.61 -2.78
      35.81 -1.72
    C 35.14 -0.81
      34.48 -0.33
      33.55 0.00
    L 33.55 -0.78
    C 34.14 -1.14
      34.52 -1.47
      34.86 -1.92
    C 35.58 -2.89
      36.00 -4.08
      36.00 -5.20
    C 36.00 -6.19
      35.70 -7.17
      35.09 -8.11
    C 34.69 -8.75
      34.25 -9.19
      33.55 -9.59
    L 33.55 -10.38
    M 43.58 -9.47
    C 42.39 -8.94
      42.00 -8.28
      42.00 -6.75
    L 42.00 -3.48
    C 42.00 -2.08
      42.39 -1.42
      43.58 -0.91
    L 43.58 0.00
    C 42.91 -0.17
      42.42 -0.44
      41.94 -0.91
    C 41.30 -1.53
      41.00 -2.28
      41.00 -3.33
    L 41.00 -6.91
    C 41.00 -8.06
      41.25 -8.77
      41.84 -9.39
    C 42.33 -9.88
      42.88 -10.19
      43.58 -10.38
    L 43.58 -9.47
    M 47.00 -9.84
    L 48.00 -9.84
    L 48.00 -8.77
    C 49.17 -8.62
      50.00 -7.64
      50.00 -6.34
    C 50.00 -5.69
      49.75 -5.09
      49.28 -4.69
    C 48.92 -4.36
      48.53 -4.17
      47.59 -3.89
    C 46.36 -3.53
      46.00 -3.22
      46.00 -2.47
    C 46.00 -1.56
      46.64 -1.00
      47.64 -1.00
    C 48.48 -1.00
      49.00 -1.55
      49.00 -2.45
    L 50.00 -2.45
    C 50.00 -1.22
      49.23 -0.39
      48.00 -0.20
    L 48.00 0.84
    L 47.00 0.84
    L 47.00 -0.20
    C 45.77 -0.42
      45.00 -1.27
      45.00 -2.39
    C 45.00 -2.91
      45.19 -3.44
      45.52 -3.80
    C 45.86 -4.20
      46.25 -4.41
      47.23 -4.69
    C 47.89 -4.88
      48.19 -5.00
      48.45 -5.20
    C 48.80 -5.47
      49.00 -5.89
      49.00 -6.38
    C 49.00 -7.33
      48.36 -8.00
      47.48 -8.00
    C 46.56 -8.00
      46.00 -7.38
      45.89 -6.33
    L 45.00 -6.33
    C 45.00 -7.66
      45.69 -8.52
      47.00 -8.77
    L 47.00 -9.84
    M 55.00 -9.00
    L 56.00 -9.00
    L 56.00 -4.98
    C 56.00 -3.61
      56.56 -2.81
      57.50 -2.81
    C 57.95 -2.81
      58.38 -3.03
      58.66 -3.44
    C 58.91 -3.80
      59.00 -4.27
      59.00 -4.98
    L 59.00 -9.00
    L 60.00 -9.00
    L 60.00 -5.02
    C 60.00 -4.36
      60.11 -3.92
      60.36 -3.59
    C 60.70 -3.09
      61.33 -2.81
      62.03 -2.81
    C 62.69 -2.81
      63.25 -3.05
      63.59 -3.47
    C 63.86 -3.81
      64.00 -4.33
      64.00 -5.02
    L 64.00 -9.00
    L 65.00 -9.00
    L 65.00 -4.94
    C 65.00 -4.05
      64.83 -3.45
      64.41 -2.97
    C 63.89 -2.34
      63.05 -2.00
      62.09 -2.00
    C 60.94 -2.00
      60.14 -2.41
      59.52 -3.28
    C 59.05 -2.39
      58.45 -2.00
      57.56 -2.00
    C 56.86 -2.00
      56.42 -2.25
      56.00 -2.91
    L 56.00 -2.00
    L 55.00 -2.00
    L 55.00 -9.00
    M 68.00 -9.84
    L 69.00 -9.84
    L 69.00 -8.77
    C 70.17 -8.62
      71.00 -7.64
      71.00 -6.34
    C 71.00 -5.69
      70.75 -5.09
      70.28 -4.69
    C 69.92 -4.36
      69.53 -4.17
      68.59 -3.89
    C 67.36 -3.53
      67.00 -3.22
      67.00 -2.47
    C 67.00 -1.56
      67.64 -1.00
      68.64 -1.00
    C 69.48 -1.00
      70.00 -1.55
      70.00 -2.45
    L 71.00 -2.45
    C 71.00 -1.22
      70.23 -0.39
      69.00 -0.20
    L 69.00 0.84
    L 68.00 0.84
    L 68.00 -0.20
    C 66.77 -0.42
      66.00 -1.27
      66.00 -2.39
    C 66.00 -2.91
      66.19 -3.44
      66.52 -3.80
    C 66.86 -4.20
      67.25 -4.41
      68.23 -4.69
    C 68.89 -4.88
      69.19 -5.00
      69.45 -5.20
    C 69.80 -5.47
      70.00 -5.89
      70.00 -6.38
    C 70.00 -7.33
      69.36 -8.00
      68.48 -8.00
    C 67.56 -8.00
      67.00 -7.38
      66.89 -6.33
    L 66.00 -6.33
    C 66.00 -7.66
      66.69 -8.52
      68.00 -8.77
    L 68.00 -9.84
    M 72.42 -1.03
    C 73.61 -1.56
      74.00 -2.22
      74.00 -3.75
    L 74.00 -7.02
    C 74.00 -8.42
      73.61 -9.08
      72.42 -9.59
    L 72.42 -10.50
    C 73.09 -10.33
      73.58 -10.06
      74.06 -9.59
    C 74.70 -8.97
      75.00 -8.22
      75.00 -7.16
    L 75.00 -3.59
    C 75.00 -2.44
      74.75 -1.73
      74.16 -1.11
    C 73.67 -0.62
      73.12 -0.33
      72.42 -0.12
    L 72.42 -1.03
    " />
</g>

<polyline fill="none" stroke="#000000" stroke-width="0.714" points="56.5943,604.449 56.5943,599.441"/>
<text fill="#000000" x="56.5943" y="606.452" font-size="12" text-anchor="middle" baseline-shift="-12" font-family="Helvetica">0</text>
<polyline fill="none" stroke="#000000" stroke-width="0.714" points="112.688,604.449 112.688,599.441"/>
<text fill="#000000" x="112.688" y="606.452" font-size="12" text-anchor="middle" baseline-shift="-12" font-family="Helvetica">0.005</text>
<polyline fill="none" stroke="#000000" stroke-width="0.714" points="169.783,604.449 169.783,599.441"/>
<text fill="#000000" x="169.783" y="606.452" font-size="12" text-anchor="middle" baseline-shift="-12" font-family="Helvetica">0.01</text>
<polyline fill="none" stroke="#000000" stroke-width="0.714" points="225.876,604.449 225.876,599.441"/>
<text fill="#000000" x="225.876" y="606.452" font-size="12" text-anchor="middle" baseline-shift="-12" font-family="Helvetica">0.015</text>
<polyline fill="none" stroke="#000000" stroke-width="0.714" points="282.972,604.449 282.972,599.441"/>
<text fill="#000000" x="282.972" y="606.452" font-size="12" text-anchor="middle" baseline-shift="-12" font-family="Helvetica">0.02</text>
<polyline fill="none" stroke="#000000" stroke-width="0.714" points="339.065,604.449 339.065,599.441"/>
<text fill="#000000" x="339.065" y="606.452" font-size="12" text-anchor="middle" baseline-shift="-12" font-family="Helvetica">0.025</text>
<polyline fill="none" stroke="#000000" stroke-width="0.714" points="395.159,604.449 395.159,599.441"/>
<text fill="#000000" x="395.159" y="606.452" font-size="12" text-anchor="middle" baseline-shift="-12" font-family="Helvetica">0.03</text>
<polyline fill="none" stroke="#000000" stroke-width="0.714" points="452.254,604.449 452.254,599.441"/>
<text fill="#000000" x="452.254" y="606.452" font-size="12" text-anchor="middle" baseline-shift="-12" font-family="Helvetica">0.035</text>
<polyline fill="none" stroke="#000000" stroke-width="0.714" points="508.347,604.449 508.347,599.441"/>
<text fill="#000000" x="508.347" y="606.452" font-size="12" text-anchor="middle" baseline-shift="-12" font-family="Helvetica">0.04</text>
<polyline fill="none" stroke="#000000" stroke-width="0.714" points="565.442,604.449 565.442,599.441"/>
<text fill="#000000" x="565.442" y="606.452" font-size="12" text-anchor="middle" baseline-shift="-12" font-family="Helvetica">0.045</text>
<polygon fill="#ffffff" points="502.337,92.6454 580.467,92.6454 502.337,19.5307"/>
<polygon fill="#ffffff" points="580.467,92.6454 580.467,19.5307 502.337,19.5307"/>
<polyline fill="none" stroke="#000000" stroke-width="0.714" points="502.337,92.6454 580.467,92.6454 580.467,19.5307 502.337,19.5307 502.337,92.6454"/>
<text fill="#000000" x="532.387" y="36.5574" font-size="12" text-anchor="start" baseline-shift="0" font-family="Helvetica">50 kW</text>
<polyline fill="none" stroke="#5454ff" stroke-width="1.428" points="507.346,30.548 529.382,30.548"/>
<text fill="#000000" x="532.387" y="53.5842" font-size="12" text-anchor="start" baseline-shift="0" font-family="Helvetica">100 kW</text>
<polyline fill="none" stroke="#ff00ff" stroke-width="1.428" points="507.346,47.5747 529.382,47.5747"/>
<text fill="#000000" x="532.387" y="70.6108" font-size="12" text-anchor="start" baseline-shift="0" font-family="Helvetica">200 kW</text>
<polyline fill="none" stroke="#ff0000" stroke-width="1.428" points="507.346,64.6014 529.382,64.6014"/>
<text fill="#000000" x="532.387" y="87.6376" font-size="12" text-anchor="start" baseline-shift="0" font-family="Helvetica">500 kW</text>
<polyline fill="none" stroke="#00aa00" stroke-width="1.428" points="507.346,81.6282 529.382,81.6282"/>
</g>
</svg>
