<?xml version="1.0" encoding="UTF-8" standalone="no"?>
<svg xmlns="http://www.w3.org/2000/svg"
     xmlns:xlink="http://www.w3.org/1999/xlink"
     width="600px" height="637px" viewBox="0 0 600 637">
<title>ParaView GL2PS Export</title>
<desc>
Creator: GL2PS 1.3.8, (C) 1999-2012 C. Geuzaine
For: VTK
CreationDate: Sun Oct  9 16:12:34 2016
</desc>
<defs>
</defs>
<polygon fill="#ffffff" points="0,0 600,0 600,637 0,637"/>
<g shape-rendering="crispEdges">
<polyline fill="none" stroke="#f2f2f2" stroke-width="0.714" points="53.5893,599.441 53.5893,19.5307"/>
<polyline fill="none" stroke="#f2f2f2" stroke-width="0.714" points="126.711,599.441 126.711,19.5307"/>
<polyline fill="none" stroke="#f2f2f2" stroke-width="0.714" points="200.835,599.441 200.835,19.5307"/>
<polyline fill="none" stroke="#f2f2f2" stroke-width="0.714" points="273.957,599.441 273.957,19.5307"/>
<polyline fill="none" stroke="#f2f2f2" stroke-width="0.714" points="348.08,599.441 348.08,19.5307"/>
<polyline fill="none" stroke="#f2f2f2" stroke-width="0.714" points="421.202,599.441 421.202,19.5307"/>
<polyline fill="none" stroke="#f2f2f2" stroke-width="0.714" points="495.326,599.441 495.326,19.5307"/>
<polyline fill="none" stroke="#f2f2f2" stroke-width="0.714" points="568.447,599.441 568.447,19.5307"/>
<polyline fill="none" stroke="#f2f2f2" stroke-width="0.714" points="51.586,548.361 580.467,548.361"/>
<polyline fill="none" stroke="#f2f2f2" stroke-width="0.714" points="51.586,494.276 580.467,494.276"/>
<polyline fill="none" stroke="#f2f2f2" stroke-width="0.714" points="51.586,439.189 580.467,439.189"/>
<polyline fill="none" stroke="#f2f2f2" stroke-width="0.714" points="51.586,385.105 580.467,385.105"/>
<polyline fill="none" stroke="#f2f2f2" stroke-width="0.714" points="51.586,330.018 580.467,330.018"/>
<polyline fill="none" stroke="#f2f2f2" stroke-width="0.714" points="51.586,275.933 580.467,275.933"/>
<polyline fill="none" stroke="#f2f2f2" stroke-width="0.714" points="51.586,220.847 580.467,220.847"/>
<polyline fill="none" stroke="#f2f2f2" stroke-width="0.714" points="51.586,166.762 580.467,166.762"/>
<polyline fill="none" stroke="#f2f2f2" stroke-width="0.714" points="51.586,111.675 580.467,111.675"/>
<polyline fill="none" stroke="#f2f2f2" stroke-width="0.714" points="51.586,57.5905 580.467,57.5905"/>
<polyline fill="none" stroke="#5454ff" stroke-width="1.428" points="54.0639,577.424 59.2121,576.702 64.3603,575.981 69.5085,575.123 74.6567,573.454 79.8049,571.784 84.9531,570.036 90.1014,568.094 95.2496,566.152 100.398,564.201 105.546,562.238 110.694,560.275 115.842,558.356 120.991,556.471 126.139,554.585 131.287,552.783 136.435,551.015 141.584,549.246 146.732,547.593 151.88,545.96 157.028,544.326 162.176,542.837 167.325,541.347 172.473,539.88 177.621,538.542 182.769,537.204 187.917,535.911 193.066,534.729 198.214,533.548 203.362,532.436 208.51,531.416 213.659,530.396 218.807,529.47 223.955,528.615 229.103,527.76 234.251,527.026 239.4,526.34 244.548,525.654 249.696,525.114 254.844,524.599 259.992,524.084 265.141,523.742 270.289,523.4 275.437,523.083 280.585,522.916 285.734,522.749 290.882,522.632 296.03,522.641 301.178,522.651 306.326,522.735 311.475,522.92 316.623,523.105 321.771,523.39 326.919,523.751 332.068,524.111 337.216,524.595 342.364,525.128 347.512,525.662 352.66,526.342 357.809,527.045 362.957,527.749 368.105,528.62 373.253,529.492 378.401,530.386 383.55,531.421 388.698,532.456 393.846,533.536 398.994,534.732 404.143,535.927 409.291,537.189 414.439,538.54 419.587,539.891 424.735,541.329 429.884,542.833 435.032,544.336 440.18,545.944 445.328,547.594 450.476,549.244 455.625,551.014 460.773,552.805 465.921,554.595 471.069,556.518 476.218,558.441 481.366,560.382 486.514,562.425 491.662,564.469 496.81,566.541 501.959,568.684 507.107,570.827 512.255,572.993 517.403,575.188 522.551,577.384 527.7,579.547 532.848,581.686 537.996,583.825 543.144,585.729 548.292,587.541 553.441,589.352 558.589,590.275 563.737,591.05 568.885,591.825"/>
<polyline fill="none" stroke="#ff00ff" stroke-width="1.428" points="54.0639,551.857 59.2121,550.414 64.3603,548.97 69.5085,547.255 74.6567,543.913 79.8049,540.571 84.9531,537.073 90.1014,533.185 95.2496,529.297 100.398,525.391 105.546,521.46 110.694,517.53 115.842,513.688 120.991,509.913 126.139,506.138 131.287,502.533 136.435,498.995 141.584,495.458 146.732,492.155 151.88,488.892 157.028,485.629 162.176,482.66 167.325,479.69 172.473,476.764 177.621,474.098 182.769,471.432 187.917,468.854 193.066,466.499 198.214,464.144 203.362,461.926 208.51,459.891 213.659,457.855 218.807,456.007 223.955,454.299 229.103,452.59 234.251,451.121 239.4,449.747 244.548,448.374 249.696,447.292 254.844,446.259 259.992,445.226 265.141,444.538 270.289,443.849 275.437,443.21 280.585,442.868 285.734,442.526 290.882,442.283 296.03,442.288 301.178,442.293 306.326,442.446 311.475,442.798 316.623,443.15 321.771,443.699 326.919,444.397 332.068,445.094 337.216,446.038 342.364,447.08 347.512,448.122 352.66,449.457 357.809,450.841 362.957,452.225 368.105,453.947 373.253,455.668 378.401,457.437 383.55,459.489 388.698,461.541 393.846,463.686 398.994,466.062 404.143,468.438 409.291,470.949 414.439,473.64 419.587,476.331 424.735,479.199 429.884,482.198 435.032,485.197 440.18,488.411 445.328,491.71 450.476,495.01 455.625,498.557 460.773,502.144 465.921,505.732 471.069,509.59 476.218,513.448 481.366,517.342 486.514,521.447 491.662,525.552 496.81,529.716 501.959,534.025 507.107,538.333 512.255,542.689 517.403,547.107 522.551,551.525 527.7,555.879 532.848,560.184 537.996,564.49 543.144,568.324 548.292,571.97 553.441,575.615 558.589,577.474 563.737,579.034 568.885,580.594"/>
<polyline fill="none" stroke="#ff0000" stroke-width="1.428" points="54.0639,552.296 59.2121,549.679 64.3603,547.062 69.5085,543.972 74.6567,538.039 79.8049,532.106 84.9531,525.953 90.1014,519.252 95.2496,512.551 100.398,505.879 105.546,499.247 110.694,492.614 115.842,486.177 120.991,479.885 126.139,473.594 131.287,467.604 136.435,461.734 141.584,455.865 146.732,450.372 151.88,444.942 157.028,439.512 162.176,434.529 167.325,429.547 172.473,424.63 177.621,420.106 182.769,415.582 187.917,411.192 193.066,407.139 198.214,403.085 203.362,399.239 208.51,395.67 213.659,392.101 218.807,388.817 223.955,385.746 229.103,382.675 234.251,379.97 239.4,377.411 244.548,374.852 249.696,372.743 254.844,370.708 259.992,368.674 265.141,367.175 270.289,365.675 275.437,364.253 280.585,363.297 285.734,362.34 290.882,361.541 296.03,361.134 301.178,360.727 306.326,360.557 311.475,360.702 316.623,360.848 321.771,361.309 326.919,362.005 332.068,362.702 337.216,363.788 342.364,365.029 347.512,366.271 352.66,367.972 357.809,369.75 362.957,371.528 368.105,373.832 373.253,376.136 378.401,378.513 383.55,381.332 388.698,384.15 393.846,387.111 398.994,390.431 404.143,393.75 409.291,397.279 414.439,401.087 419.587,404.894 424.735,408.974 429.884,413.259 435.032,417.543 440.18,422.16 445.328,426.91 450.476,431.661 455.625,436.804 460.773,442.014 465.921,447.223 471.069,452.889 476.218,458.555 481.366,464.286 486.514,470.41 491.662,476.534 496.81,482.786 501.959,489.358 507.107,495.93 512.255,502.657 517.403,509.594 522.551,516.53 527.7,523.507 532.848,530.514 537.996,537.522 543.144,543.941 548.292,550.125 553.441,556.309 558.589,559.522 563.737,562.24 568.885,564.958"/>
<polyline fill="none" stroke="#00aa00" stroke-width="1.428" points="54.0639,509.834 59.2121,503.805 64.3603,497.776 69.5085,490.697 74.6567,477.312 79.8049,463.926 84.9531,450.168 90.1014,435.477 95.2496,420.786 100.398,406.256 105.546,391.94 110.694,377.624 115.842,363.741 120.991,350.184 126.139,336.626 131.287,323.626 136.435,310.849 141.584,298.072 146.732,285.914 151.88,273.859 157.028,261.804 162.176,250.426 167.325,239.047 172.473,227.762 177.621,217.038 182.769,206.315 187.917,195.78 193.066,185.716 198.214,175.653 203.362,165.888 208.51,156.52 213.659,147.152 218.807,138.222 223.955,129.62 229.103,121.018 234.251,113.048 239.4,105.329 244.548,97.6111 249.696,90.8011 254.844,84.1425 259.992,77.4838 265.141,72.1283 270.289,66.7727 275.437,61.6456 280.585,57.8896 285.734,54.1337 290.882,50.9171 296.03,49.0491 301.178,47.1812 306.326,46.198 311.475,46.3946 316.623,46.5912 321.771,47.9561 326.919,50.1969 332.068,52.4379 337.216,55.9915 342.364,60.0701 347.512,64.1487 352.66,69.5476 357.809,75.1666 362.957,80.7856 368.105,87.6559 373.253,94.5263 378.401,101.543 383.55,109.434 388.698,117.326 393.846,125.463 398.994,134.213 404.143,142.962 409.291,152.034 414.439,161.536 419.587,171.037 424.735,180.933 429.884,191.124 435.032,201.316 440.18,211.981 445.328,222.835 450.476,233.69 455.625,245.116 460.773,256.637 465.921,268.158 471.069,280.378 476.218,292.598 481.366,304.927 486.514,317.907 491.662,330.888 496.81,344.107 501.959,357.923 507.107,371.74 512.255,385.91 517.403,400.55 522.551,415.191 527.7,430.076 532.848,445.143 537.996,460.211 543.144,474.322 548.292,488.051 553.441,501.781 558.589,509.035 563.737,515.211 568.885,521.387"/>
<polyline fill="none" stroke="#000000" stroke-width="0.714" points="51.586,599.441 51.586,19.5307"/>
<!--  Pathified string: Temperature [$ K$] -->
<g transform="
     translate(20.53 309.99)
     scale(1.0 -1.0)
     rotate(0.00)"
   stroke="none"
   fill="rgb(0,0,0)"
   opacity="1.00"
>
  <path d="
    M -2.00 0.00
    L -1.00 0.00
    L -1.00 8.20
    L 1.03 8.20
    L 1.03 9.00
    L -4.03 9.00
    L -4.03 8.20
    L -2.00 8.20
    L -2.00 0.00
    M 8.33 3.00
    C 8.33 3.97
      8.22 4.56
      7.89 5.17
    C 7.30 6.30
      6.16 7.00
      4.91 7.00
    C 3.00 7.00
      1.50 5.42
      1.50 3.41
    C 1.50 1.50
      3.03 0.00
      4.97 0.00
    C 5.81 0.00
      6.61 0.30
      7.20 0.84
    C 7.67 1.27
      7.98 1.70
      8.16 2.22
    L 7.23 2.22
    C 6.88 1.38
      5.94 0.81
      4.95 0.81
    C 3.61 0.81
      2.47 1.78
      2.39 3.00
    L 8.33 3.00
    M 2.42 4.00
    C 2.66 5.31
      3.66 6.19
      4.91 6.19
    C 6.17 6.19
      7.14 5.36
      7.44 4.00
    L 2.42 4.00
    M 10.00 0.00
    L 11.00 0.00
    L 11.00 4.02
    C 11.00 5.39
      11.56 6.19
      12.50 6.19
    C 12.95 6.19
      13.38 5.97
      13.66 5.56
    C 13.91 5.20
      14.00 4.73
      14.00 4.02
    L 14.00 0.00
    L 15.00 0.00
    L 15.00 3.98
    C 15.00 4.64
      15.11 5.08
      15.36 5.41
    C 15.70 5.91
      16.33 6.19
      17.03 6.19
    C 17.69 6.19
      18.25 5.95
      18.59 5.53
    C 18.86 5.19
      19.00 4.67
      19.00 3.98
    L 19.00 0.00
    L 20.00 0.00
    L 20.00 4.06
    C 20.00 4.95
      19.83 5.55
      19.41 6.03
    C 18.89 6.66
      18.05 7.00
      17.09 7.00
    C 15.94 7.00
      15.14 6.59
      14.52 5.72
    C 14.05 6.61
      13.45 7.00
      12.56 7.00
    C 11.86 7.00
      11.42 6.75
      11.00 6.09
    L 11.00 7.00
    L 10.00 7.00
    L 10.00 0.00
    M 21.00 7.00
    L 21.00 -2.00
    L 22.00 -2.00
    L 22.00 1.30
    C 22.56 0.45
      23.42 0.00
      24.48 0.00
    C 26.45 0.00
      28.00 1.53
      28.00 3.48
    C 28.00 5.47
      26.48 7.00
      24.52 7.00
    C 23.42 7.00
      22.53 6.55
      22.00 5.70
    L 22.00 7.00
    L 21.00 7.00
    M 24.50 6.19
    C 25.92 6.19
      27.00 5.03
      27.00 3.48
    C 27.00 1.97
      25.91 0.81
      24.48 0.81
    C 23.06 0.81
      22.00 1.98
      22.00 3.53
    C 22.00 5.02
      23.11 6.19
      24.50 6.19
    M 35.33 3.00
    C 35.33 3.97
      35.22 4.56
      34.89 5.17
    C 34.30 6.30
      33.16 7.00
      31.91 7.00
    C 30.00 7.00
      28.50 5.42
      28.50 3.41
    C 28.50 1.50
      30.03 0.00
      31.97 0.00
    C 32.81 0.00
      33.61 0.30
      34.20 0.84
    C 34.67 1.27
      34.98 1.70
      35.16 2.22
    L 34.23 2.22
    C 33.88 1.38
      32.94 0.81
      31.95 0.81
    C 30.61 0.81
      29.47 1.78
      29.39 3.00
    L 35.33 3.00
    M 29.42 4.00
    C 29.66 5.31
      30.66 6.19
      31.91 6.19
    C 33.17 6.19
      34.14 5.36
      34.44 4.00
    L 29.42 4.00
    M 37.00 0.00
    L 38.00 0.00
    L 38.00 4.08
    C 38.00 5.39
      38.62 6.11
      39.86 6.23
    L 39.86 7.00
    C 38.91 7.00
      38.34 6.69
      38.00 6.00
    L 38.00 7.00
    L 37.00 7.00
    L 37.00 0.00
    M 47.00 7.00
    L 46.00 7.00
    L 46.00 5.67
    C 45.38 6.59
      44.59 7.00
      43.48 7.00
    C 41.50 7.00
      40.00 5.48
      40.00 3.48
    C 40.00 1.48
      41.52 0.00
      43.55 0.00
    C 44.62 0.00
      45.33 0.38
      46.00 1.31
    L 46.00 0.00
    L 47.00 0.00
    L 47.00 7.00
    M 43.50 6.19
    C 44.91 6.19
      46.00 5.03
      46.00 3.53
    C 46.00 2.00
      44.92 0.81
      43.55 0.81
    C 42.11 0.81
      41.00 2.00
      41.00 3.55
    C 41.00 5.02
      42.12 6.19
      43.50 6.19
    M 50.00 0.00
    L 51.00 0.00
    L 51.00 6.20
    L 52.47 6.20
    L 52.47 7.00
    L 51.00 7.00
    L 51.00 9.00
    L 50.00 9.00
    L 50.00 7.00
    L 48.58 7.00
    L 48.58 6.20
    L 50.00 6.20
    L 50.00 0.00
    M 59.00 7.00
    L 58.00 7.00
    L 58.00 3.47
    C 58.00 2.62
      57.88 2.09
      57.61 1.67
    C 57.23 1.12
      56.66 0.81
      55.97 0.81
    C 55.23 0.81
      54.61 1.12
      54.31 1.69
    C 54.11 2.03
      54.00 2.58
      54.00 3.30
    L 54.00 7.00
    L 53.00 7.00
    L 53.00 3.31
    C 53.00 2.30
      53.17 1.59
      53.53 1.09
    C 54.05 0.38
      54.88 0.00
      55.89 0.00
    C 56.91 0.00
      57.56 0.36
      58.00 1.19
    L 58.00 0.00
    L 59.00 0.00
    L 59.00 7.00
    M 60.00 0.00
    L 61.00 0.00
    L 61.00 4.08
    C 61.00 5.39
      61.62 6.11
      62.86 6.23
    L 62.86 7.00
    C 61.91 7.00
      61.34 6.69
      61.00 6.00
    L 61.00 7.00
    L 60.00 7.00
    L 60.00 0.00
    M 70.33 3.00
    C 70.33 3.97
      70.22 4.56
      69.89 5.17
    C 69.30 6.30
      68.16 7.00
      66.91 7.00
    C 65.00 7.00
      63.50 5.42
      63.50 3.41
    C 63.50 1.50
      65.03 0.00
      66.97 0.00
    C 67.81 0.00
      68.61 0.30
      69.20 0.84
    C 69.67 1.27
      69.98 1.70
      70.16 2.22
    L 69.23 2.22
    C 68.88 1.38
      67.94 0.81
      66.95 0.81
    C 65.61 0.81
      64.47 1.78
      64.39 3.00
    L 70.33 3.00
    M 64.42 4.00
    C 64.66 5.31
      65.66 6.19
      66.91 6.19
    C 68.17 6.19
      69.14 5.36
      69.44 4.00
    L 64.42 4.00
    M 77.58 -0.47
    C 76.39 0.06
      76.00 0.72
      76.00 2.25
    L 76.00 5.52
    C 76.00 6.92
      76.39 7.58
      77.58 8.09
    L 77.58 9.00
    C 76.91 8.83
      76.42 8.56
      75.94 8.09
    C 75.30 7.47
      75.00 6.72
      75.00 5.67
    L 75.00 2.09
    C 75.00 0.94
      75.25 0.23
      75.84 -0.39
    C 76.33 -0.88
      76.88 -1.19
      77.58 -1.38
    L 77.58 -0.47
    M 81.00 -0.84
    L 82.00 -0.84
    L 82.00 0.23
    C 83.17 0.38
      84.00 1.36
      84.00 2.66
    C 84.00 3.31
      83.75 3.91
      83.28 4.31
    C 82.92 4.64
      82.53 4.83
      81.59 5.11
    C 80.36 5.47
      80.00 5.78
      80.00 6.53
    C 80.00 7.44
      80.64 8.00
      81.64 8.00
    C 82.48 8.00
      83.00 7.45
      83.00 6.55
    L 84.00 6.55
    C 84.00 7.78
      83.23 8.61
      82.00 8.80
    L 82.00 9.84
    L 81.00 9.84
    L 81.00 8.80
    C 79.77 8.58
      79.00 7.73
      79.00 6.61
    C 79.00 6.09
      79.19 5.56
      79.52 5.20
    C 79.86 4.80
      80.25 4.59
      81.23 4.31
    C 81.89 4.12
      82.19 4.00
      82.45 3.80
    C 82.80 3.53
      83.00 3.11
      83.00 2.62
    C 83.00 1.67
      82.36 1.00
      81.48 1.00
    C 80.56 1.00
      80.00 1.62
      79.89 2.67
    L 79.00 2.67
    C 79.00 1.34
      79.69 0.48
      81.00 0.23
    L 81.00 -0.84
    M 89.00 0.00
    L 90.00 0.00
    L 90.00 2.45
    L 91.16 3.89
    L 94.11 0.00
    L 95.22 0.00
    L 91.72 4.61
    L 95.22 9.00
    L 94.11 9.00
    L 90.00 3.83
    L 90.00 9.00
    L 89.00 9.00
    L 89.00 0.00
    M 98.00 -0.84
    L 99.00 -0.84
    L 99.00 0.23
    C 100.17 0.38
      101.00 1.36
      101.00 2.66
    C 101.00 3.31
      100.75 3.91
      100.28 4.31
    C 99.92 4.64
      99.53 4.83
      98.59 5.11
    C 97.36 5.47
      97.00 5.78
      97.00 6.53
    C 97.00 7.44
      97.64 8.00
      98.64 8.00
    C 99.48 8.00
      100.00 7.45
      100.00 6.55
    L 101.00 6.55
    C 101.00 7.78
      100.23 8.61
      99.00 8.80
    L 99.00 9.84
    L 98.00 9.84
    L 98.00 8.80
    C 96.77 8.58
      96.00 7.73
      96.00 6.61
    C 96.00 6.09
      96.19 5.56
      96.52 5.20
    C 96.86 4.80
      97.25 4.59
      98.23 4.31
    C 98.89 4.12
      99.19 4.00
      99.45 3.80
    C 99.80 3.53
      100.00 3.11
      100.00 2.62
    C 100.00 1.67
      99.36 1.00
      98.48 1.00
    C 97.56 1.00
      97.00 1.62
      96.89 2.67
    L 96.00 2.67
    C 96.00 1.34
      96.69 0.48
      98.00 0.23
    L 98.00 -0.84
    M 102.42 7.97
    C 103.61 7.44
      104.00 6.78
      104.00 5.25
    L 104.00 1.98
    C 104.00 0.58
      103.61 -0.08
      102.42 -0.59
    L 102.42 -1.50
    C 103.09 -1.33
      103.58 -1.06
      104.06 -0.59
    C 104.70 0.03
      105.00 0.78
      105.00 1.84
    L 105.00 5.41
    C 105.00 6.56
      104.75 7.27
      104.16 7.89
    C 103.67 8.38
      103.12 8.67
      102.42 8.88
    L 102.42 7.97
    " />
</g>

<polyline fill="none" stroke="#000000" stroke-width="0.714" points="46.5776,548.361 51.586,548.361"/>
<text fill="#000000" x="44.5743" y="548.361" font-size="12" text-anchor="end" baseline-shift="-6" font-family="Helvetica">350</text>
<polyline fill="none" stroke="#000000" stroke-width="0.714" points="46.5776,494.276 51.586,494.276"/>
<text fill="#000000" x="44.5743" y="494.276" font-size="12" text-anchor="end" baseline-shift="-6" font-family="Helvetica">400</text>
<polyline fill="none" stroke="#000000" stroke-width="0.714" points="46.5776,439.189 51.586,439.189"/>
<text fill="#000000" x="44.5743" y="439.189" font-size="12" text-anchor="end" baseline-shift="-6" font-family="Helvetica">450</text>
<polyline fill="none" stroke="#000000" stroke-width="0.714" points="46.5776,385.105 51.586,385.105"/>
<text fill="#000000" x="44.5743" y="385.105" font-size="12" text-anchor="end" baseline-shift="-6" font-family="Helvetica">500</text>
<polyline fill="none" stroke="#000000" stroke-width="0.714" points="46.5776,330.018 51.586,330.018"/>
<text fill="#000000" x="44.5743" y="330.018" font-size="12" text-anchor="end" baseline-shift="-6" font-family="Helvetica">550</text>
<polyline fill="none" stroke="#000000" stroke-width="0.714" points="46.5776,275.933 51.586,275.933"/>
<text fill="#000000" x="44.5743" y="275.933" font-size="12" text-anchor="end" baseline-shift="-6" font-family="Helvetica">600</text>
<polyline fill="none" stroke="#000000" stroke-width="0.714" points="46.5776,220.847 51.586,220.847"/>
<text fill="#000000" x="44.5743" y="220.847" font-size="12" text-anchor="end" baseline-shift="-6" font-family="Helvetica">650</text>
<polyline fill="none" stroke="#000000" stroke-width="0.714" points="46.5776,166.762 51.586,166.762"/>
<text fill="#000000" x="44.5743" y="166.762" font-size="12" text-anchor="end" baseline-shift="-6" font-family="Helvetica">700</text>
<polyline fill="none" stroke="#000000" stroke-width="0.714" points="46.5776,111.675 51.586,111.675"/>
<text fill="#000000" x="44.5743" y="111.675" font-size="12" text-anchor="end" baseline-shift="-6" font-family="Helvetica">750</text>
<polyline fill="none" stroke="#000000" stroke-width="0.714" points="46.5776,57.5905 51.586,57.5905"/>
<text fill="#000000" x="44.5743" y="57.5905" font-size="12" text-anchor="end" baseline-shift="-6" font-family="Helvetica">800</text>
<polyline fill="none" stroke="#000000" stroke-width="0.714" points="51.586,599.441 580.467,599.441"/>
<!--  Pathified string: Model width (z axis) [$ m$] -->
<g transform="
     translate(316.03 618.47)
     scale(1.0 -1.0)
     rotate(0.00)"
   stroke="none"
   fill="rgb(0,0,0)"
   opacity="1.00"
>
  <path d="
    M -74.00 -9.00
    L -73.00 -9.00
    L -73.00 -0.98
    L -69.88 -9.00
    L -69.14 -9.00
    L -66.00 -0.98
    L -66.00 -9.00
    L -65.00 -9.00
    L -65.00 0.00
    L -66.47 0.00
    L -69.50 -7.66
    L -72.53 0.00
    L -74.00 0.00
    L -74.00 -9.00
    M -60.48 -2.00
    C -62.47 -2.00
      -64.00 -3.50
      -64.00 -5.45
    C -64.00 -7.52
      -62.48 -9.00
      -60.41 -9.00
    C -58.45 -9.00
      -57.00 -7.52
      -57.00 -5.52
    C -57.00 -3.48
      -58.47 -2.00
      -60.48 -2.00
    M -60.48 -2.81
    C -59.06 -2.81
      -58.00 -3.97
      -58.00 -5.53
    C -58.00 -7.06
      -59.02 -8.19
      -60.44 -8.19
    C -61.94 -8.19
      -63.00 -7.06
      -63.00 -5.48
    C -63.00 -3.95
      -61.92 -2.81
      -60.48 -2.81
    M -48.00 0.00
    L -49.00 0.00
    L -49.00 -3.20
    C -49.75 -2.42
      -50.80 -2.00
      -52.00 -2.00
    C -54.27 -2.00
      -56.00 -3.52
      -56.00 -5.50
    C -56.00 -7.48
      -54.22 -9.00
      -51.89 -9.00
    C -50.62 -9.00
      -49.77 -8.59
      -49.00 -7.64
    L -49.00 -9.00
    L -48.00 -9.00
    L -48.00 0.00
    M -52.05 -2.81
    C -50.38 -2.81
      -49.00 -4.00
      -49.00 -5.48
    C -49.00 -6.95
      -50.31 -8.19
      -51.92 -8.19
    C -53.66 -8.19
      -55.00 -7.00
      -55.00 -5.47
    C -55.00 -4.00
      -53.69 -2.81
      -52.05 -2.81
    M -40.67 -6.00
    C -40.67 -5.03
      -40.78 -4.44
      -41.11 -3.83
    C -41.70 -2.70
      -42.84 -2.00
      -44.09 -2.00
    C -46.00 -2.00
      -47.50 -3.58
      -47.50 -5.59
    C -47.50 -7.50
      -45.97 -9.00
      -44.03 -9.00
    C -43.19 -9.00
      -42.39 -8.70
      -41.80 -8.16
    C -41.33 -7.73
      -41.02 -7.30
      -40.84 -6.78
    L -41.77 -6.78
    C -42.12 -7.62
      -43.06 -8.19
      -44.05 -8.19
    C -45.39 -8.19
      -46.53 -7.22
      -46.61 -6.00
    L -40.67 -6.00
    M -46.58 -5.00
    C -46.34 -3.69
      -45.34 -2.81
      -44.09 -2.81
    C -42.83 -2.81
      -41.86 -3.64
      -41.56 -5.00
    L -46.58 -5.00
    M -39.00 -9.00
    L -38.00 -9.00
    L -38.00 0.00
    L -39.00 0.00
    L -39.00 -9.00
    M -32.41 -9.00
    L -31.45 -9.00
    L -30.03 -4.36
    L -28.61 -9.00
    L -27.66 -9.00
    L -25.11 -2.00
    L -25.97 -2.00
    L -28.11 -7.86
    L -29.66 -2.86
    L -30.39 -2.86
    L -31.94 -7.86
    L -34.03 -2.00
    L -34.92 -2.00
    L -32.41 -9.00
    M -24.00 -9.00
    L -23.00 -9.00
    L -23.00 -2.45
    L -24.00 -2.45
    L -24.00 -9.00
    M -24.00 -1.52
    L -23.00 -1.52
    L -23.00 0.00
    L -24.00 0.00
    L -24.00 -1.52
    M -15.00 0.00
    L -16.00 0.00
    L -16.00 -3.20
    C -16.75 -2.42
      -17.80 -2.00
      -19.00 -2.00
    C -21.27 -2.00
      -23.00 -3.52
      -23.00 -5.50
    C -23.00 -7.48
      -21.22 -9.00
      -18.89 -9.00
    C -17.62 -9.00
      -16.77 -8.59
      -16.00 -7.64
    L -16.00 -9.00
    L -15.00 -9.00
    L -15.00 0.00
    M -19.05 -2.81
    C -17.38 -2.81
      -16.00 -4.00
      -16.00 -5.48
    C -16.00 -6.95
      -17.31 -8.19
      -18.92 -8.19
    C -20.66 -8.19
      -22.00 -7.00
      -22.00 -5.47
    C -22.00 -4.00
      -20.69 -2.81
      -19.05 -2.81
    M -13.00 -9.00
    L -12.00 -9.00
    L -12.00 -2.80
    L -10.53 -2.80
    L -10.53 -2.00
    L -12.00 -2.00
    L -12.00 0.00
    L -13.00 0.00
    L -13.00 -2.00
    L -14.42 -2.00
    L -14.42 -2.80
    L -13.00 -2.80
    L -13.00 -9.00
    M -10.00 -9.00
    L -9.00 -9.00
    L -9.00 -5.23
    C -9.00 -4.48
      -8.91 -4.05
      -8.64 -3.67
    C -8.28 -3.12
      -7.69 -2.81
      -7.02 -2.81
    C -6.39 -2.81
      -5.78 -3.11
      -5.44 -3.56
    C -5.12 -3.97
      -5.00 -4.50
      -5.00 -5.30
    L -5.00 -9.00
    L -4.00 -9.00
    L -4.00 -5.33
    C -4.00 -4.30
      -4.19 -3.59
      -4.58 -3.06
    C -5.09 -2.39
      -5.94 -2.00
      -6.92 -2.00
    C -7.81 -2.00
      -8.56 -2.36
      -9.00 -3.02
    L -9.00 0.00
    L -10.00 0.00
    L -10.00 -9.00
    M 3.45 0.00
    C 2.73 -0.23
      2.30 -0.48
      1.78 -1.00
    C 0.67 -2.08
      0.00 -3.64
      0.00 -5.16
    C 0.00 -6.41
      0.39 -7.58
      1.19 -8.64
    C 1.86 -9.56
      2.52 -10.03
      3.45 -10.38
    L 3.45 -9.59
    C 2.86 -9.22
      2.48 -8.91
      2.14 -8.45
    C 1.42 -7.48
      1.00 -6.30
      1.00 -5.16
    C 1.00 -4.17
      1.30 -3.17
      1.91 -2.25
    C 2.31 -1.59
      2.75 -1.17
      3.45 -0.75
    L 3.45 0.00
    M 3.12 -9.00
    L 7.98 -9.00
    L 7.98 -8.20
    L 4.16 -8.20
    L 7.75 -2.75
    L 7.75 -2.00
    L 3.23 -2.00
    L 3.23 -2.80
    L 6.75 -2.80
    L 3.12 -8.20
    L 3.12 -9.00
    M 18.00 -2.00
    L 17.00 -2.00
    L 17.00 -3.33
    C 16.38 -2.41
      15.59 -2.00
      14.48 -2.00
    C 12.50 -2.00
      11.00 -3.52
      11.00 -5.52
    C 11.00 -7.52
      12.52 -9.00
      14.55 -9.00
    C 15.62 -9.00
      16.33 -8.62
      17.00 -7.69
    L 17.00 -9.00
    L 18.00 -9.00
    L 18.00 -2.00
    M 14.50 -2.81
    C 15.91 -2.81
      17.00 -3.97
      17.00 -5.47
    C 17.00 -7.00
      15.92 -8.19
      14.55 -8.19
    C 13.11 -8.19
      12.00 -7.00
      12.00 -5.45
    C 12.00 -3.98
      13.12 -2.81
      14.50 -2.81
    M 19.09 -9.00
    L 20.11 -9.00
    L 21.88 -6.20
    L 23.64 -9.00
    L 24.66 -9.00
    L 22.38 -5.42
    L 24.66 -2.00
    L 23.64 -2.00
    L 21.88 -4.70
    L 20.11 -2.00
    L 19.09 -2.00
    L 21.38 -5.42
    L 19.09 -9.00
    M 26.00 -9.00
    L 27.00 -9.00
    L 27.00 -2.45
    L 26.00 -2.45
    L 26.00 -9.00
    M 26.00 -1.52
    L 27.00 -1.52
    L 27.00 0.00
    L 26.00 0.00
    L 26.00 -1.52
    M 27.00 -6.89
    C 27.00 -8.17
      27.81 -9.00
      29.05 -9.00
    C 30.19 -9.00
      31.00 -8.16
      31.00 -6.94
    C 31.00 -6.11
      30.62 -5.55
      29.84 -5.22
    C 28.84 -4.80
      28.80 -4.77
      28.61 -4.67
    C 28.19 -4.45
      28.00 -4.17
      28.00 -3.78
    C 28.00 -3.23
      28.45 -2.81
      29.02 -2.81
    C 29.64 -2.81
      30.00 -3.16
      30.00 -3.80
    L 31.00 -3.80
    C 31.00 -2.73
      30.17 -2.00
      29.03 -2.00
    C 27.86 -2.00
      27.00 -2.80
      27.00 -3.88
    C 27.00 -4.36
      27.17 -4.77
      27.50 -5.08
    C 27.78 -5.33
      27.78 -5.33
      28.72 -5.73
    C 29.11 -5.89
      29.41 -6.03
      29.58 -6.14
    C 29.84 -6.33
      30.00 -6.64
      30.00 -7.02
    C 30.00 -7.69
      29.59 -8.19
      29.05 -8.19
    C 28.41 -8.19
      28.00 -7.70
      28.00 -6.89
    L 27.00 -6.89
    M 32.55 -10.38
    C 33.27 -10.14
      33.70 -9.88
      34.22 -9.38
    C 35.33 -8.28
      36.00 -6.72
      36.00 -5.20
    C 36.00 -3.95
      35.61 -2.78
      34.81 -1.72
    C 34.14 -0.81
      33.48 -0.33
      32.55 0.00
    L 32.55 -0.78
    C 33.14 -1.14
      33.52 -1.47
      33.86 -1.92
    C 34.58 -2.89
      35.00 -4.08
      35.00 -5.20
    C 35.00 -6.19
      34.70 -7.17
      34.09 -8.11
    C 33.69 -8.75
      33.25 -9.19
      32.55 -9.59
    L 32.55 -10.38
    M 42.58 -9.47
    C 41.39 -8.94
      41.00 -8.28
      41.00 -6.75
    L 41.00 -3.48
    C 41.00 -2.08
      41.39 -1.42
      42.58 -0.91
    L 42.58 0.00
    C 41.91 -0.17
      41.42 -0.44
      40.94 -0.91
    C 40.30 -1.53
      40.00 -2.28
      40.00 -3.33
    L 40.00 -6.91
    C 40.00 -8.06
      40.25 -8.77
      40.84 -9.39
    C 41.33 -9.88
      41.88 -10.19
      42.58 -10.38
    L 42.58 -9.47
    M 46.00 -9.84
    L 47.00 -9.84
    L 47.00 -8.77
    C 48.17 -8.62
      49.00 -7.64
      49.00 -6.34
    C 49.00 -5.69
      48.75 -5.09
      48.28 -4.69
    C 47.92 -4.36
      47.53 -4.17
      46.59 -3.89
    C 45.36 -3.53
      45.00 -3.22
      45.00 -2.47
    C 45.00 -1.56
      45.64 -1.00
      46.64 -1.00
    C 47.48 -1.00
      48.00 -1.55
      48.00 -2.45
    L 49.00 -2.45
    C 49.00 -1.22
      48.23 -0.39
      47.00 -0.20
    L 47.00 0.84
    L 46.00 0.84
    L 46.00 -0.20
    C 44.77 -0.42
      44.00 -1.27
      44.00 -2.39
    C 44.00 -2.91
      44.19 -3.44
      44.52 -3.80
    C 44.86 -4.20
      45.25 -4.41
      46.23 -4.69
    C 46.89 -4.88
      47.19 -5.00
      47.45 -5.20
    C 47.80 -5.47
      48.00 -5.89
      48.00 -6.38
    C 48.00 -7.33
      47.36 -8.00
      46.48 -8.00
    C 45.56 -8.00
      45.00 -7.38
      44.89 -6.33
    L 44.00 -6.33
    C 44.00 -7.66
      44.69 -8.52
      46.00 -8.77
    L 46.00 -9.84
    M 54.00 -9.00
    L 55.00 -9.00
    L 55.00 -4.98
    C 55.00 -3.61
      55.56 -2.81
      56.50 -2.81
    C 56.95 -2.81
      57.38 -3.03
      57.66 -3.44
    C 57.91 -3.80
      58.00 -4.27
      58.00 -4.98
    L 58.00 -9.00
    L 59.00 -9.00
    L 59.00 -5.02
    C 59.00 -4.36
      59.11 -3.92
      59.36 -3.59
    C 59.70 -3.09
      60.33 -2.81
      61.03 -2.81
    C 61.69 -2.81
      62.25 -3.05
      62.59 -3.47
    C 62.86 -3.81
      63.00 -4.33
      63.00 -5.02
    L 63.00 -9.00
    L 64.00 -9.00
    L 64.00 -4.94
    C 64.00 -4.05
      63.83 -3.45
      63.41 -2.97
    C 62.89 -2.34
      62.05 -2.00
      61.09 -2.00
    C 59.94 -2.00
      59.14 -2.41
      58.52 -3.28
    C 58.05 -2.39
      57.45 -2.00
      56.56 -2.00
    C 55.86 -2.00
      55.42 -2.25
      55.00 -2.91
    L 55.00 -2.00
    L 54.00 -2.00
    L 54.00 -9.00
    M 67.00 -9.84
    L 68.00 -9.84
    L 68.00 -8.77
    C 69.17 -8.62
      70.00 -7.64
      70.00 -6.34
    C 70.00 -5.69
      69.75 -5.09
      69.28 -4.69
    C 68.92 -4.36
      68.53 -4.17
      67.59 -3.89
    C 66.36 -3.53
      66.00 -3.22
      66.00 -2.47
    C 66.00 -1.56
      66.64 -1.00
      67.64 -1.00
    C 68.48 -1.00
      69.00 -1.55
      69.00 -2.45
    L 70.00 -2.45
    C 70.00 -1.22
      69.23 -0.39
      68.00 -0.20
    L 68.00 0.84
    L 67.00 0.84
    L 67.00 -0.20
    C 65.77 -0.42
      65.00 -1.27
      65.00 -2.39
    C 65.00 -2.91
      65.19 -3.44
      65.52 -3.80
    C 65.86 -4.20
      66.25 -4.41
      67.23 -4.69
    C 67.89 -4.88
      68.19 -5.00
      68.45 -5.20
    C 68.80 -5.47
      69.00 -5.89
      69.00 -6.38
    C 69.00 -7.33
      68.36 -8.00
      67.48 -8.00
    C 66.56 -8.00
      66.00 -7.38
      65.89 -6.33
    L 65.00 -6.33
    C 65.00 -7.66
      65.69 -8.52
      67.00 -8.77
    L 67.00 -9.84
    M 71.42 -1.03
    C 72.61 -1.56
      73.00 -2.22
      73.00 -3.75
    L 73.00 -7.02
    C 73.00 -8.42
      72.61 -9.08
      71.42 -9.59
    L 71.42 -10.50
    C 72.09 -10.33
      72.58 -10.06
      73.06 -9.59
    C 73.70 -8.97
      74.00 -8.22
      74.00 -7.16
    L 74.00 -3.59
    C 74.00 -2.44
      73.75 -1.73
      73.16 -1.11
    C 72.67 -0.62
      72.12 -0.33
      71.42 -0.12
    L 71.42 -1.03
    " />
</g>

<polyline fill="none" stroke="#000000" stroke-width="0.714" points="53.5893,604.449 53.5893,599.441"/>
<text fill="#000000" x="53.5893" y="606.452" font-size="12" text-anchor="middle" baseline-shift="-12" font-family="Helvetica">0</text>
<polyline fill="none" stroke="#000000" stroke-width="0.714" points="126.711,604.449 126.711,599.441"/>
<text fill="#000000" x="126.711" y="606.452" font-size="12" text-anchor="middle" baseline-shift="-12" font-family="Helvetica">0.05</text>
<polyline fill="none" stroke="#000000" stroke-width="0.714" points="200.835,604.449 200.835,599.441"/>
<text fill="#000000" x="200.835" y="606.452" font-size="12" text-anchor="middle" baseline-shift="-12" font-family="Helvetica">0.1</text>
<polyline fill="none" stroke="#000000" stroke-width="0.714" points="273.957,604.449 273.957,599.441"/>
<text fill="#000000" x="273.957" y="606.452" font-size="12" text-anchor="middle" baseline-shift="-12" font-family="Helvetica">0.15</text>
<polyline fill="none" stroke="#000000" stroke-width="0.714" points="348.08,604.449 348.08,599.441"/>
<text fill="#000000" x="348.08" y="606.452" font-size="12" text-anchor="middle" baseline-shift="-12" font-family="Helvetica">0.2</text>
<polyline fill="none" stroke="#000000" stroke-width="0.714" points="421.202,604.449 421.202,599.441"/>
<text fill="#000000" x="421.202" y="606.452" font-size="12" text-anchor="middle" baseline-shift="-12" font-family="Helvetica">0.25</text>
<polyline fill="none" stroke="#000000" stroke-width="0.714" points="495.326,604.449 495.326,599.441"/>
<text fill="#000000" x="495.326" y="606.452" font-size="12" text-anchor="middle" baseline-shift="-12" font-family="Helvetica">0.3</text>
<polyline fill="none" stroke="#000000" stroke-width="0.714" points="568.447,604.449 568.447,599.441"/>
<text fill="#000000" x="568.447" y="606.452" font-size="12" text-anchor="middle" baseline-shift="-12" font-family="Helvetica">0.35</text>
<polygon fill="#ffffff" points="502.337,92.6454 580.467,92.6454 502.337,19.5307"/>
<polygon fill="#ffffff" points="580.467,92.6454 580.467,19.5307 502.337,19.5307"/>
<polyline fill="none" stroke="#000000" stroke-width="0.714" points="502.337,92.6454 580.467,92.6454 580.467,19.5307 502.337,19.5307 502.337,92.6454"/>
<text fill="#000000" x="532.387" y="36.5574" font-size="12" text-anchor="start" baseline-shift="0" font-family="Helvetica">50 kW</text>
<polyline fill="none" stroke="#5454ff" stroke-width="1.428" points="507.346,30.548 529.382,30.548"/>
<text fill="#000000" x="532.387" y="53.5842" font-size="12" text-anchor="start" baseline-shift="0" font-family="Helvetica">100 kW</text>
<polyline fill="none" stroke="#ff00ff" stroke-width="1.428" points="507.346,47.5747 529.382,47.5747"/>
<text fill="#000000" x="532.387" y="70.6108" font-size="12" text-anchor="start" baseline-shift="0" font-family="Helvetica">200 kW</text>
<polyline fill="none" stroke="#ff0000" stroke-width="1.428" points="507.346,64.6014 529.382,64.6014"/>
<text fill="#000000" x="532.387" y="87.6376" font-size="12" text-anchor="start" baseline-shift="0" font-family="Helvetica">500 kW</text>
<polyline fill="none" stroke="#00aa00" stroke-width="1.428" points="507.346,81.6282 529.382,81.6282"/>
</g>
</svg>
